<svg width="43" height="39" viewBox="0 0 43 39" fill="none" xmlns="http://www.w3.org/2000/svg">
<path fill-rule="evenodd" clip-rule="evenodd" d="M1.20499 0.960945C0.725309 1.21014 0.356913 1.63065 0.172988 2.13894C-0.0570117 2.79494 -0.0570117 36.6319 0.172988 37.2839C0.357305 37.8001 0.734828 38.2246 1.22599 38.4679C1.80899 38.7679 40.468 38.7599 41.058 38.4609C41.5759 38.1764 41.9645 37.7033 42.143 37.1399C42.225 36.8399 42.243 33.2069 42.227 23.7079L42.195 10.6869L41.952 10.2479C41.7752 9.96157 41.5462 9.7109 41.277 9.50895L40.851 9.20895H26.673L26.247 9.50895C25.9781 9.71099 25.7495 9.96166 25.573 10.2479L25.327 10.6859L25.295 14.1129L25.266 17.5399H21.135L21.109 9.80194L21.082 2.06794L20.782 1.64795C20.5841 1.38546 20.3364 1.16457 20.053 0.997944L19.619 0.767944H10.582C1.95599 0.767944 1.52999 0.780944 1.19999 0.955944M8.49999 9.15594V11.2289H4.35899V7.08094H8.50299V9.15395M16.889 9.15395V11.2269H12.744V7.08094H16.888L16.889 9.15395ZM8.50199 17.6389V19.7109H4.35899V15.5679H8.50299V17.6399M16.889 17.6399V19.7119H12.744V15.5679H16.888L16.889 17.6399ZM35.831 17.6399V19.7119H31.687V15.5679H35.831V17.6399ZM8.49699 26.0239V28.0989H4.35899V23.9529H8.50299V26.0249M16.889 26.0249V28.0999H12.744V23.9529H16.888L16.889 26.0249ZM35.831 26.0249V28.0999H31.687V23.9529H35.831V26.0249Z" fill="black"/>
</svg>
