<svg width="28" height="29" viewBox="0 0 28 29" fill="none" xmlns="http://www.w3.org/2000/svg">
<path d="M13.0469 28.5023L3.52637 28.474L3.12598 28.3372C2.49839 28.1255 1.9283 27.7724 1.45996 27.304C0.991619 26.8357 0.637486 26.2646 0.425781 25.637L0.289062 25.2376V6.30599L0.425781 5.91243C0.696254 5.03257 1.25917 4.2716 2.02051 3.75423C2.78185 3.23685 3.69662 2.99426 4.61426 3.06673L6.04297 3.03841L6.06836 1.99153C6.08636 1.11453 6.18331 1.06401 6.44531 0.930009C6.58873 0.867628 6.74421 0.839821 6.90039 0.847977C7.05657 0.856134 7.20957 0.900881 7.3457 0.97786C7.5587 1.11686 7.65918 1.21915 7.65918 2.04915V3.04915H13.2246V2.04915C13.2246 0.977149 13.4564 0.870438 14.0244 0.870438C14.5924 0.870438 14.8242 0.976149 14.8242 2.04915V3.04915H20.4463V2.04915C20.4463 0.977149 20.6781 0.870438 21.2461 0.870438C21.8141 0.870438 22.0459 0.976267 22.0459 2.04427V3.0345L23.5137 3.06282C25.7417 3.10682 27.0814 4.01145 27.7334 5.91145L27.8701 6.30501L27.8848 10.013V10.263C27.8948 12.442 27.8991 13.2577 27.8711 13.6087V25.2415L27.7344 25.6409C27.5227 26.2685 27.1685 26.8396 26.7002 27.3079C26.2319 27.7763 25.6618 28.1294 25.0342 28.3411L24.6396 28.4749L19.8682 28.4915H13.0625L13.0166 28.512L13.0469 28.5023ZM5.14258 4.66243C3.20158 4.66243 2.15338 5.39132 1.94238 6.87532C1.86038 7.46032 1.86038 24.0911 1.94238 24.6751C2.01323 25.2223 2.26334 25.7311 2.65332 26.1214C3.0433 26.5118 3.55149 26.762 4.09863 26.8333C4.39163 26.8773 6.73315 26.8939 8.82715 26.8939C10.9391 26.8939 12.0002 26.8936 12.5732 26.9066H12.5811H12.5869C13.3549 26.8956 14.4538 26.89 16.0498 26.89H19.374C21.515 26.89 23.8056 26.8723 24.0996 26.8333C24.647 26.7623 25.1551 26.5123 25.5459 26.1224C25.9367 25.7325 26.1874 25.2243 26.2598 24.6771C26.3118 24.3031 26.3028 13.9268 26.2998 10.0208V9.17415H26.3184V8.87434C26.2974 6.37434 26.1919 6.08573 25.5479 5.44173C25.2113 5.13414 24.8108 4.90468 24.375 4.77083C23.9392 4.63697 23.4795 4.60165 23.0283 4.66731H22.0791V5.66731C22.0791 6.74131 21.8473 6.84798 21.2793 6.84798C20.7113 6.84798 20.4795 6.74231 20.4795 5.66731V4.66731H14.8574V5.66731C14.8574 6.74131 14.6256 6.84798 14.0576 6.84798C13.4896 6.84798 13.2568 6.74231 13.2568 5.66731V4.66731H7.69238V5.66731C7.69238 6.74131 7.45972 6.84798 6.88672 6.84798C6.31372 6.84798 6.08594 6.74231 6.08594 5.66731V4.66731L5.14258 4.66243ZM21.2764 22.5628C21.0672 22.5606 20.867 22.478 20.7158 22.3333C20.5647 22.1887 20.4734 21.9924 20.4619 21.7835C20.4505 21.5746 20.5189 21.3696 20.6533 21.2093C20.7878 21.049 20.9788 20.9453 21.1865 20.9202H21.2139H21.2314H21.2871C21.4369 20.9198 21.5836 20.9602 21.7119 21.0374C21.8403 21.1146 21.9459 21.2262 22.0156 21.3587C22.0813 21.4853 22.1123 21.6264 22.1074 21.7689C22.1025 21.9114 22.0615 22.0504 21.9873 22.1722C21.9131 22.294 21.8089 22.3944 21.6846 22.4642C21.5602 22.534 21.4199 22.5708 21.2773 22.5706L21.2764 22.5628ZM16.4766 22.5628C16.31 22.5636 16.1465 22.5125 16.0098 22.4173C15.8716 22.3219 15.7664 22.1866 15.707 22.0296C15.6477 21.8726 15.6372 21.7013 15.6777 21.5384C15.7182 21.3755 15.8076 21.2285 15.9336 21.1175C16.0596 21.0066 16.2161 20.9369 16.3828 20.9173C16.4161 20.9149 16.4501 20.9149 16.4834 20.9173C16.6334 20.9162 16.7806 20.9563 16.9092 21.0335C17.0378 21.1108 17.1424 21.2228 17.2119 21.3558C17.2772 21.4823 17.3096 21.6227 17.3047 21.765C17.2997 21.9072 17.2575 22.0457 17.1836 22.1673C17.1097 22.289 17.0067 22.3903 16.8828 22.4603C16.7589 22.5303 16.6189 22.5673 16.4766 22.5677V22.5628ZM11.6572 22.5628C11.5324 22.5631 11.4091 22.5346 11.2969 22.4798C11.1847 22.4251 11.0863 22.345 11.0098 22.2464C10.9332 22.1478 10.8808 22.0327 10.8555 21.9105C10.8302 21.7882 10.8331 21.6622 10.8643 21.5413C10.9054 21.3797 10.9943 21.2339 11.1191 21.1234C11.244 21.0128 11.3991 20.9425 11.5645 20.9212H11.5918H11.6094H11.6641C11.814 20.9206 11.9613 20.9612 12.0898 21.0384C12.2184 21.1156 12.3237 21.227 12.3936 21.3597C12.4592 21.4863 12.4912 21.6273 12.4863 21.7699C12.4814 21.9124 12.4394 22.0514 12.3652 22.1732C12.2911 22.295 12.1869 22.3954 12.0625 22.4652C11.9381 22.5349 11.7979 22.5718 11.6553 22.5716L11.6572 22.5628ZM6.85742 22.5628C6.691 22.5627 6.5287 22.5117 6.3916 22.4173C6.25441 22.3211 6.14935 22.1856 6.09082 22.0286C6.03229 21.8716 6.02274 21.7009 6.06348 21.5384C6.10422 21.3759 6.19367 21.2293 6.31934 21.1185C6.445 21.0077 6.60124 20.9374 6.76758 20.9173C6.80087 20.9149 6.8339 20.9149 6.86719 20.9173C7.01712 20.9161 7.16449 20.9562 7.29297 21.0335C7.42145 21.1108 7.52655 21.2227 7.5957 21.3558C7.66133 21.4824 7.6924 21.6234 7.6875 21.7659C7.6826 21.9085 7.64155 22.0475 7.56738 22.1693C7.49322 22.2911 7.38902 22.3915 7.26465 22.4613C7.14028 22.531 7.00002 22.5679 6.85742 22.5677V22.5628ZM21.2773 17.762C21.111 17.7627 20.9485 17.7129 20.8115 17.6185C20.6743 17.5223 20.5693 17.3868 20.5107 17.2298C20.4522 17.0728 20.4427 16.9021 20.4834 16.7396C20.5241 16.5771 20.6136 16.4305 20.7393 16.3197C20.8649 16.2088 21.0212 16.1386 21.1875 16.1185H21.2109H21.2363H21.2871C21.437 16.1175 21.5845 16.1574 21.7129 16.2347C21.8413 16.312 21.9463 16.4231 22.0156 16.556C22.0808 16.6824 22.1116 16.8239 22.1064 16.9661C22.1013 17.1083 22.0605 17.247 21.9863 17.3685C21.9122 17.4899 21.8077 17.59 21.6836 17.6595C21.5595 17.729 21.4196 17.7652 21.2773 17.765V17.762ZM16.4775 17.762C16.3112 17.7627 16.1487 17.7129 16.0117 17.6185C15.8736 17.5231 15.7674 17.3878 15.708 17.2308C15.6487 17.0738 15.6382 16.9025 15.6787 16.7396C15.7192 16.5767 15.8086 16.4296 15.9346 16.3187C16.0605 16.2077 16.2171 16.1381 16.3838 16.1185H16.4082H16.4336H16.4844C16.6519 16.1172 16.816 16.1672 16.9541 16.262C17.0922 16.3569 17.1979 16.4919 17.2568 16.6488C17.3157 16.8056 17.3247 16.9767 17.2832 17.139C17.2417 17.3013 17.1514 17.4467 17.0244 17.556C16.8723 17.6878 16.6778 17.76 16.4766 17.7591L16.4775 17.762ZM11.6582 17.762C11.4918 17.7627 11.3294 17.7129 11.1924 17.6185C11.0547 17.5226 10.9495 17.3869 10.8906 17.2298C10.8318 17.0727 10.8215 16.9014 10.8623 16.7386C10.9031 16.5758 10.9931 16.4295 11.1191 16.3187C11.2452 16.2079 11.4017 16.1381 11.5684 16.1185H11.5928H11.6172H11.667C11.817 16.1174 11.9651 16.1574 12.0938 16.2347C12.2224 16.312 12.327 16.423 12.3965 16.556C12.4812 16.7197 12.5085 16.907 12.4746 17.0882C12.4407 17.2694 12.3471 17.434 12.209 17.556C12.0556 17.6881 11.8597 17.7604 11.6572 17.7591L11.6582 17.762ZM6.8584 17.762C6.69186 17.7637 6.52914 17.7138 6.39258 17.6185C6.25509 17.5227 6.1491 17.3875 6.08984 17.2308C6.03059 17.0741 6.02081 16.9033 6.06055 16.7406C6.10251 16.5783 6.19173 16.4325 6.31738 16.3216C6.44303 16.2108 6.59944 16.1399 6.76562 16.1185C6.79763 16.1185 6.83223 16.1126 6.86523 16.1126C7.07895 16.121 7.28085 16.212 7.42871 16.3665C7.57657 16.5211 7.65924 16.7269 7.6582 16.9408C7.65717 17.1546 7.57318 17.3599 7.42383 17.513C7.27448 17.6661 7.07121 17.7547 6.85742 17.7611L6.8584 17.762ZM21.2754 12.9622C21.1101 12.9639 20.9485 12.9147 20.8125 12.8206C20.6744 12.7252 20.5681 12.59 20.5088 12.4329C20.4494 12.2759 20.44 12.1046 20.4805 11.9417C20.521 11.7788 20.6094 11.6318 20.7354 11.5208C20.8613 11.4099 21.0188 11.3402 21.1855 11.3206C21.2186 11.3155 21.2517 11.313 21.2852 11.3128C21.4986 11.3216 21.7002 11.4121 21.8477 11.5667C21.9951 11.7214 22.0766 11.9273 22.0752 12.1409C22.0738 12.3546 21.9893 12.5596 21.8398 12.7122C21.6903 12.8649 21.488 12.9534 21.2744 12.9593L21.2754 12.9622ZM16.4756 12.9622C16.3095 12.9631 16.1462 12.914 16.0088 12.8206C15.8707 12.7252 15.7654 12.59 15.7061 12.4329C15.6467 12.2759 15.6362 12.1046 15.6768 11.9417C15.7173 11.7788 15.8066 11.6318 15.9326 11.5208C16.0586 11.4099 16.2151 11.3402 16.3818 11.3206C16.415 11.3159 16.449 11.3134 16.4824 11.3128C16.65 11.3115 16.814 11.3615 16.9521 11.4564C17.0903 11.5512 17.196 11.6862 17.2549 11.8431C17.3138 11.9999 17.3228 12.171 17.2812 12.3333C17.2397 12.4956 17.1495 12.641 17.0225 12.7503C16.8724 12.8848 16.678 12.9589 16.4766 12.9583L16.4756 12.9622ZM11.6562 12.9622C11.4911 12.9631 11.3297 12.914 11.1934 12.8206C11.0552 12.7252 10.949 12.59 10.8896 12.4329C10.8303 12.2759 10.8208 12.1046 10.8613 11.9417C10.9018 11.7788 10.9912 11.6318 11.1172 11.5208C11.2432 11.4099 11.3997 11.3402 11.5664 11.3206C11.5995 11.3154 11.6325 11.313 11.666 11.3128C11.8795 11.3214 12.082 11.4122 12.2295 11.5667C12.377 11.7213 12.4583 11.9273 12.457 12.1409C12.4557 12.3546 12.3711 12.5595 12.2217 12.7122C12.0723 12.865 11.8698 12.9533 11.6562 12.9593V12.9622ZM6.85645 12.9622C6.73132 12.9632 6.60775 12.9357 6.49512 12.8812C6.38248 12.8267 6.28391 12.7465 6.20703 12.6478C6.13016 12.5491 6.07699 12.4344 6.05176 12.3118C6.02653 12.1893 6.02989 12.0628 6.06152 11.9417C6.10239 11.78 6.19057 11.6344 6.31543 11.5238C6.44029 11.4132 6.59625 11.3427 6.76172 11.3216C6.79481 11.3165 6.82784 11.314 6.86133 11.3138C7.02882 11.3131 7.19222 11.3632 7.33008 11.4583C7.46794 11.5535 7.574 11.6882 7.63281 11.845C7.69162 12.0019 7.7005 12.173 7.65918 12.3353C7.61786 12.4976 7.52801 12.6436 7.40137 12.7533C7.2521 12.8866 7.05858 12.9598 6.8584 12.9583L6.85645 12.9622Z" fill="black"/>
</svg>
