<svg width="7" height="27" viewBox="0 0 7 27" fill="none" xmlns="http://www.w3.org/2000/svg">
<path opacity="0.2" d="M0.609379 23.343C0.609829 22.6202 0.87906 21.9235 1.36472 21.3882C1.85038 20.8529 2.51774 20.5173 3.23706 20.4467C3.95639 20.3762 4.67626 20.5756 5.25669 21.0064C5.83711 21.4371 6.23661 22.0683 6.37751 22.7772C6.5184 23.4861 6.39063 24.2221 6.01902 24.842C5.64741 25.4619 5.05853 25.9215 4.36689 26.1314C3.67524 26.3412 2.93027 26.2864 2.27683 25.9775C1.62339 25.6685 1.10816 25.1277 0.831364 24.46C0.684694 24.1059 0.609272 23.7263 0.609379 23.343ZM0.609379 13.128C0.610772 12.4058 0.88067 11.7099 1.36661 11.1756C1.85255 10.6414 2.51981 10.3069 3.23865 10.2372C3.9575 10.1675 4.67658 10.3677 5.25608 10.7987C5.83557 11.2297 6.23407 11.8608 6.37412 12.5693C6.51417 13.2778 6.38578 14.0131 6.01386 14.6322C5.64194 15.2513 5.05308 15.7099 4.36179 15.919C3.6705 16.1281 2.92618 16.0726 2.2735 15.7634C1.62083 15.4542 1.10643 14.9134 0.830357 14.246C0.6838 13.8915 0.608719 13.5116 0.609379 13.128ZM0.609379 2.91502C0.610525 2.19276 0.880221 1.49674 1.36603 0.962289C1.85184 0.427832 2.51905 0.0931193 3.23792 0.0232627C3.95679 -0.0465939 4.67594 0.153376 5.25556 0.584298C5.83518 1.01522 6.23385 1.64631 6.37403 2.35484C6.51421 3.06336 6.3859 3.79868 6.01404 4.41785C5.64218 5.03703 5.05335 5.49578 4.36203 5.70493C3.67072 5.91408 2.92635 5.85867 2.27362 5.54948C1.6209 5.24028 1.10645 4.69943 0.830357 4.03202C0.684055 3.67781 0.608981 3.29825 0.609379 2.91502Z" fill="black"/>
</svg>
