<svg width="16" height="11" viewBox="0 0 16 11" fill="none" xmlns="http://www.w3.org/2000/svg">
<path fill-rule="evenodd" clip-rule="evenodd" d="M0.756035 0.974016C0.526251 1.04271 0.326673 1.18757 0.190178 1.38477C0.0536825 1.58197 -0.0116062 1.81977 0.00502784 2.05902C0.00502784 2.59302 -0.294987 2.25902 3.74001 6.29202C7.79201 10.347 7.46204 10.056 8.00204 10.056C8.54204 10.056 8.21103 10.35 12.277 6.27602C16.302 2.24402 15.999 2.58702 15.999 2.05902C16.0126 1.91071 15.9936 1.76121 15.9431 1.62108C15.8927 1.48095 15.8121 1.35361 15.707 1.24802C15.6022 1.1424 15.4756 1.06085 15.3361 1.00905C15.1965 0.957247 15.0474 0.936424 14.899 0.948015C14.35 0.948015 14.665 0.676014 11.12 4.21501L8.00002 7.33202L4.87801 4.21501C1.37201 0.715014 1.64902 0.958019 1.14602 0.942019C1.01516 0.934375 0.883896 0.945145 0.756035 0.974016Z" fill="black"/>
</svg>
