<svg width="49" height="49" viewBox="0 0 49 49" fill="none" xmlns="http://www.w3.org/2000/svg">
<path id="Exclus&#195;&#163;o 44" opacity="0.6" d="M24.4988 49C19.6532 49 14.9164 47.5631 10.8875 44.871C6.85849 42.1789 3.7183 38.3525 1.86397 33.8758C0.00964499 29.399 -0.475536 24.4729 0.469782 19.7204C1.4151 14.9679 3.74846 10.6024 7.1748 7.17604C11.7752 2.6092 17.998 0.0516497 24.4802 0.0635177C30.9625 0.0753856 37.1758 2.65571 41.7595 7.23936C46.3431 11.823 48.9235 18.0364 48.9353 24.5186C48.9472 31.0009 46.3896 37.2236 41.8228 41.824C39.5531 44.1062 36.8532 45.9155 33.8796 47.1473C30.9059 48.379 27.7175 49.0088 24.4988 49ZM18.2778 20.547C18.1371 20.5473 18.0021 20.6033 17.9026 20.7029C17.8031 20.8024 17.7471 20.9373 17.7468 21.078V25.4C17.7471 25.5408 17.8031 25.6757 17.9026 25.7752C18.0021 25.8747 18.1371 25.9308 18.2778 25.931H21.7048V36.831C21.7051 36.9718 21.7611 37.1067 21.8606 37.2062C21.9601 37.3057 22.0951 37.3618 22.2358 37.362H26.7118C26.8526 37.3618 26.9875 37.3057 27.087 37.2062C27.1865 37.1067 27.2425 36.9718 27.2428 36.831V25.941H31.2538C31.3946 25.9408 31.5295 25.8847 31.629 25.7852C31.7285 25.6857 31.7845 25.5508 31.7848 25.41V21.083C31.7848 20.9421 31.7289 20.807 31.6293 20.7072C31.5298 20.6075 31.3947 20.5513 31.2538 20.551H27.2468V18.028C27.2468 16.813 27.5368 16.197 29.1198 16.197H31.4198C31.5607 16.1968 31.6958 16.1406 31.7953 16.0409C31.8949 15.9411 31.9508 15.806 31.9508 15.665V11.639C31.9521 11.5684 31.9394 11.4983 31.9133 11.4326C31.8872 11.367 31.8483 11.3072 31.7989 11.2567C31.7495 11.2063 31.6905 11.1662 31.6254 11.1388C31.5603 11.1113 31.4904 11.0972 31.4198 11.097H28.0078C27.8948 11.091 27.7808 11.087 27.6688 11.087C26.8414 11.0871 26.0231 11.2588 25.2654 11.5911C24.5077 11.9235 23.8272 12.4093 23.2667 13.018C22.7063 13.6266 22.2782 14.3448 22.0093 15.1273C21.7405 15.9098 21.6368 16.7395 21.7048 17.564V20.547H18.2778Z" fill="white"/>
</svg>
