<svg width="41" height="40" viewBox="0 0 41 40" fill="none" xmlns="http://www.w3.org/2000/svg">
<path d="M39.1839 17.4171L23.0839 1.31608C22.747 0.978017 22.3467 0.709779 21.906 0.526753C21.4652 0.343727 20.9926 0.249512 20.5154 0.249512C20.0381 0.249512 19.5656 0.343727 19.1248 0.526753C18.6841 0.709779 18.2838 0.978017 17.9469 1.31608L1.85589 17.4061L1.83989 17.4221C1.34256 17.9205 1.00112 18.553 0.857254 19.2423C0.713389 19.9316 0.773323 20.6478 1.02974 21.3036C1.28615 21.9594 1.72796 22.5263 2.30121 22.9352C2.87446 23.344 3.55435 23.5772 4.25789 23.6061H5.01089V35.4551C5.01115 36.5829 5.45895 37.6645 6.25596 38.4625C7.05298 39.2604 8.13407 39.7095 9.26188 39.7111H15.5619C15.8694 39.7103 16.1639 39.5874 16.3809 39.3696C16.5978 39.1517 16.7194 38.8566 16.7189 38.5491V29.2631C16.7197 28.7487 16.9245 28.2557 17.2884 27.8922C17.6523 27.5287 18.1455 27.3243 18.6599 27.3241H22.3779C22.8919 27.3249 23.3846 27.5294 23.7481 27.8929C24.1115 28.2563 24.3161 28.7491 24.3169 29.2631V38.5451C24.3166 38.6975 24.3464 38.8485 24.4045 38.9894C24.4626 39.1303 24.5479 39.2584 24.6556 39.3663C24.7632 39.4742 24.8911 39.5598 25.0318 39.6183C25.1726 39.6768 25.3235 39.707 25.4759 39.7071H31.7759C32.9018 39.7036 33.9805 39.2543 34.7759 38.4574C35.5713 37.6605 36.0186 36.581 36.0199 35.4551V23.6221H36.6149C37.333 23.6216 38.0349 23.4084 38.6319 23.0094C39.229 22.6104 39.6944 22.0434 39.9695 21.3801C40.2445 20.7167 40.3169 19.9868 40.1775 19.2823C40.038 18.5779 39.693 17.9306 39.1859 17.4221L39.1839 17.4171ZM37.5469 20.9171C37.4249 21.0407 37.2795 21.1386 37.119 21.2051C36.9586 21.2716 36.7865 21.3052 36.6129 21.3041H34.8589C34.5512 21.3041 34.2562 21.4263 34.0386 21.6438C33.8211 21.8614 33.6989 22.1564 33.6989 22.4641V35.4641C33.6981 35.9781 33.4935 36.4708 33.1301 36.8343C32.7666 37.1977 32.2739 37.4023 31.7599 37.4031H26.6219V29.2721C26.6198 28.1458 26.1714 27.0663 25.375 26.2699C24.5787 25.4735 23.4991 25.0252 22.3729 25.0231H18.6559C17.5296 25.0252 16.4501 25.4735 15.6537 26.2699C14.8573 27.0663 14.409 28.1458 14.4069 29.2721V37.4021H9.26289C8.74887 37.4013 8.25614 37.1967 7.89268 36.8333C7.52922 36.4698 7.32468 35.9771 7.32389 35.4631V22.4631C7.32389 22.1554 7.20167 21.8604 6.98413 21.6428C6.76659 21.4253 6.47154 21.3031 6.16389 21.3031H4.39189C4.13267 21.2989 3.88043 21.2185 3.66668 21.0718C3.45292 20.9251 3.28715 20.7186 3.19005 20.4782C3.09296 20.2378 3.06886 19.9742 3.12077 19.7202C3.17267 19.4662 3.29827 19.2331 3.48189 19.0501L19.5839 2.95508C19.8314 2.70777 20.167 2.56884 20.5169 2.56884C20.8668 2.56884 21.2024 2.70777 21.4499 2.95508L37.5499 19.0551C37.7959 19.3031 37.934 19.6382 37.934 19.9876C37.934 20.3369 37.7959 20.6721 37.5499 20.9201L37.5469 20.9171Z" fill="#3A4B4C"/>
</svg>
