<svg width="13" height="21" viewBox="0 0 13 21" fill="none" xmlns="http://www.w3.org/2000/svg">
<path id="Caminho 27933" d="M4.45142 10.95L11.9724 3.42993C12.1777 3.2221 12.2933 2.94202 12.2944 2.6499C12.2948 2.50658 12.2664 2.36465 12.2111 2.23242C12.1558 2.10019 12.0747 1.98032 11.9724 1.87988L11.3145 1.21997C11.1082 1.01387 10.8285 0.898193 10.5369 0.898193C10.2453 0.898193 9.96567 1.01387 9.7594 1.21997L0.803411 10.1699C0.598403 10.3779 0.483163 10.6579 0.482427 10.95C0.481985 11.0947 0.510107 11.2382 0.565191 11.3721C0.620274 11.5059 0.70122 11.6275 0.803411 11.73L9.75043 20.6699C9.85125 20.7743 9.97202 20.8574 10.1056 20.9141C10.2392 20.9708 10.3828 21 10.528 21C10.6731 21 10.8167 20.9708 10.9503 20.9141C11.0838 20.8574 11.2046 20.7743 11.3054 20.6699L11.9644 20.01C12.0667 19.9096 12.1479 19.7897 12.2032 19.6575C12.2585 19.5252 12.2868 19.3833 12.2864 19.24C12.2853 18.9479 12.1697 18.6678 11.9644 18.46L4.45142 10.95Z" fill="#3A4B4C"/>
</svg>
