<svg width="54" height="37" viewBox="0 0 54 37" fill="none" xmlns="http://www.w3.org/2000/svg">
<path d="M44.667 1.02502H8.66797C4.24969 1.02502 0.667969 4.60675 0.667969 9.02502V28.445C0.667969 32.8633 4.24969 36.445 8.66797 36.445H44.667C49.0852 36.445 52.667 32.8633 52.667 28.445V9.02502C52.667 4.60675 49.0852 1.02502 44.667 1.02502Z" fill="white" stroke="#D9D9D9"/>
<path fill-rule="evenodd" clip-rule="evenodd" d="M27.0443 26.507C25.1924 28.1116 22.8237 28.994 20.3733 28.992C17.6315 28.9651 15.0112 27.8571 13.0819 25.9088C11.1526 23.9605 10.0703 21.3295 10.0703 18.5875C10.0703 15.8456 11.1526 13.2145 13.0819 11.2662C15.0112 9.31792 17.6315 8.20991 20.3733 8.18303C22.8237 8.18109 25.1924 9.06345 27.0443 10.668C28.8963 9.06353 31.265 8.18118 33.7153 8.18303C36.4571 8.20991 39.0774 9.31792 41.0067 11.2662C42.936 13.2145 44.0183 15.8456 44.0183 18.5875C44.0183 21.3295 42.936 23.9605 41.0067 25.9088C39.0774 27.8571 36.4571 28.9651 33.7153 28.992C31.265 28.9939 28.8963 28.1115 27.0443 26.507Z" fill="#ED0006"/>
<path fill-rule="evenodd" clip-rule="evenodd" d="M27.0449 26.507C28.1793 25.5229 29.0889 24.3065 29.7124 22.9403C30.3358 21.574 30.6584 20.0898 30.6584 18.588C30.6584 17.0863 30.3358 15.602 29.7124 14.2358C29.0889 12.8696 28.1793 11.6532 27.0449 10.669C28.8969 9.06454 31.2656 8.18218 33.7159 8.18404C36.4577 8.21092 39.078 9.31893 41.0073 11.2672C42.9366 13.2155 44.0189 15.8466 44.0189 18.5885C44.0189 21.3304 42.9366 23.9615 41.0073 25.9098C39.078 27.8581 36.4577 28.9662 33.7159 28.993C31.2655 28.9946 28.8967 28.1119 27.0449 26.507Z" fill="#F9A000"/>
<path fill-rule="evenodd" clip-rule="evenodd" d="M27.0437 26.508C28.1782 25.524 29.088 24.3076 29.7115 22.9414C30.3351 21.5751 30.6578 20.0908 30.6578 18.589C30.6578 17.0872 30.3351 15.6029 29.7115 14.2367C29.088 12.8704 28.1782 11.6541 27.0437 10.67C25.9092 11.6541 24.9994 12.8704 24.3759 14.2367C23.7524 15.6029 23.4297 17.0872 23.4297 18.589C23.4297 20.0908 23.7524 21.5751 24.3759 22.9414C24.9994 24.3076 25.9092 25.524 27.0437 26.508Z" fill="#FF5E00"/>
</svg>
