<svg width="22" height="25" viewBox="0 0 22 25" fill="none" xmlns="http://www.w3.org/2000/svg">
<path fill-rule="evenodd" clip-rule="evenodd" d="M10.0401 0.490031C7.59929 0.71985 5.31427 1.79097 3.57624 3.52002C1.8382 5.24907 0.755247 7.5285 0.512778 9.96809C0.270308 12.4077 0.883402 14.8557 2.2471 16.893C3.61079 18.9303 5.64028 20.4303 7.9881 21.136L8.7881 21.377L9.7601 22.677C10.2941 23.393 10.7941 24.057 10.8711 24.152L11.0111 24.324L11.1111 24.201C11.1661 24.134 11.6751 23.465 12.2431 22.716C13.2071 21.444 13.2911 21.35 13.5121 21.293C15.2855 20.8633 16.9177 19.9823 18.2501 18.7355C19.5825 17.4888 20.5699 15.9186 21.1164 14.1776C21.6628 12.4366 21.7498 10.5839 21.3688 8.79935C20.9878 7.01481 20.1519 5.35911 18.9421 3.99303C17.8274 2.76437 16.4448 1.80885 14.9014 1.20051C13.3581 0.592174 11.6953 0.347357 10.0421 0.485031M12.3341 3.39303C18.5811 4.33803 20.9051 12.604 16.0831 16.727C15.1082 17.5814 13.9328 18.1749 12.6665 18.4521C11.4002 18.7293 10.0843 18.6812 8.8416 18.3123C7.59891 17.9435 6.46991 17.2658 5.55995 16.3426C4.64998 15.4194 3.98871 14.2807 3.63782 13.0328C3.28694 11.785 3.25788 10.4685 3.55336 9.20636C3.84884 7.9442 4.45923 6.77746 5.32758 5.815C6.19592 4.85255 7.29392 4.12574 8.51912 3.70239C9.74433 3.27904 11.0568 3.17296 12.3341 3.39403M10.4601 4.64203C9.14453 4.75964 7.89829 5.28424 6.89465 6.14289C5.89102 7.00153 5.17986 8.15156 4.86006 9.43308C4.54025 10.7146 4.62769 12.0639 5.11022 13.2934C5.59275 14.523 6.4464 15.5716 7.55246 16.2935C8.65852 17.0154 9.96205 17.3748 11.2818 17.3216C12.6015 17.2685 13.8719 16.8054 14.9163 15.9968C15.9607 15.1883 16.7272 14.0744 17.1093 12.81C17.4914 11.5456 17.47 10.1937 17.0481 8.94203C16.5906 7.59076 15.6925 6.43233 14.4978 5.65257C13.3032 4.87281 11.8812 4.51694 10.4601 4.64203Z" fill="#A4A4A4"/>
</svg>
