<svg width="54" height="37" viewBox="0 0 54 37" fill="none" xmlns="http://www.w3.org/2000/svg">
<path d="M44.9658 1.02502H8.9668C4.54852 1.02502 0.966797 4.60675 0.966797 9.02502V28.445C0.966797 32.8633 4.54852 36.445 8.9668 36.445H44.9658C49.3841 36.445 52.9658 32.8633 52.9658 28.445V9.02502C52.9658 4.60675 49.3841 1.02502 44.9658 1.02502Z" fill="white" stroke="#D9D9D9"/>
<path fill-rule="evenodd" clip-rule="evenodd" d="M16.6033 25.152H13.4033L11.0033 16.01C10.9593 15.8079 10.8732 15.6172 10.7507 15.4504C10.6282 15.2837 10.472 15.1445 10.2923 15.042C9.36951 14.5755 8.38231 14.2493 7.36328 14.074V13.722H12.5113C12.8336 13.7207 13.1456 13.8354 13.3903 14.0453C13.6349 14.2552 13.7957 14.5462 13.8433 14.865L15.0873 21.46L18.2813 13.722H21.3883L16.6033 25.152ZM23.1723 25.152H20.1593L22.6443 13.722H25.6593L23.1723 25.152ZM29.5623 16.889C29.6115 16.6018 29.7663 16.3433 29.9962 16.1642C30.2262 15.9851 30.5147 15.8984 30.8053 15.921C31.8116 15.8305 32.8236 16.0126 33.7353 16.448L34.2683 13.987C33.3914 13.6425 32.4584 13.4632 31.5163 13.458C28.5873 13.458 26.4553 15.041 26.4553 17.239C26.4553 18.911 27.9653 19.788 29.0313 20.317C30.1843 20.844 30.6313 21.196 30.5393 21.723C30.5393 22.514 29.6513 22.866 28.7643 22.866C27.6908 22.8544 26.632 22.6159 25.6573 22.166L25.1243 24.628C26.1689 25.0435 27.2841 25.2527 28.4083 25.244C31.6933 25.331 33.7343 23.744 33.7343 21.375C33.7343 18.385 29.5613 18.21 29.5613 16.892L29.5623 16.889ZM44.2973 25.152L41.8973 13.722H39.3233C39.0512 13.7244 38.7864 13.8099 38.5642 13.967C38.3421 14.1241 38.1732 14.3453 38.0803 14.601L33.6423 25.151H36.7493L37.3693 23.481H41.1873L41.5423 25.151L44.2973 25.152ZM39.7713 16.8L40.6583 21.108H38.1733L39.7713 16.8Z" fill="#172B85"/>
</svg>
