<svg width="40" height="40" viewBox="0 0 40 40" fill="none" xmlns="http://www.w3.org/2000/svg">
<path id="Subtraction 9" d="M31.034 40.001H30.895C25.831 40.001 18.162 35.667 11.359 28.957C4.354 22.046 0 14.363 0 8.902C0 6.366 0.210999 5.978 3.23 2.959C5.603 0.583001 5.83 0.397 6.712 0.124C7.05195 0.0421659 7.40034 0.000547756 7.75 8.32145e-07C8.70116 -0.000582901 9.62709 0.305955 10.39 0.874C12.6466 2.95843 14.7907 5.16155 16.813 7.474C17.2122 8.18624 17.3695 9.00877 17.2613 9.81804C17.1531 10.6273 16.7853 11.3796 16.213 11.962C15.691 12.452 15.0671 12.8204 14.386 13.041C13.8854 13.2841 13.4431 13.6322 13.089 14.0615C12.7349 14.4908 12.4774 14.9913 12.334 15.529C11.54 18.829 17.264 25.661 22.214 27.319C23.1308 27.6719 24.15 27.6479 25.0493 27.2523C25.9485 26.8566 26.6548 26.1214 27.014 25.207C27.1805 24.7066 27.4416 24.2429 27.783 23.841C28.1463 23.4558 28.5842 23.1487 29.0701 22.9382C29.5559 22.7278 30.0795 22.6185 30.609 22.617C31.4348 22.6146 32.2392 22.8795 32.902 23.372C35.2675 25.5013 37.4797 27.795 39.522 30.236C39.7947 30.8074 39.9318 31.4341 39.9226 32.0672C39.9134 32.7003 39.7582 33.3227 39.469 33.886C37.8428 35.9254 35.985 37.7687 33.933 39.379C33.0229 39.7944 32.0334 40.0074 31.033 40.003L31.034 40.001Z" fill="white"/>
</svg>
