<svg width="46" height="46" viewBox="0 0 46 46" fill="none" xmlns="http://www.w3.org/2000/svg">
<path d="M30.5511 44.739C27.5047 45.7925 24.2711 46.195 21.0594 45.9205C17.8477 45.6461 14.7293 44.7007 11.9058 43.1456C9.0823 41.5905 6.61653 39.4603 4.66787 36.8926C2.71922 34.3248 1.33105 31.3768 0.593076 28.239C-0.327087 24.2401 -0.167084 20.0685 1.05668 16.1519C2.28045 12.2353 4.52395 8.71462 7.55708 5.951C10.7116 3.02326 14.6559 1.08554 18.9011 0.377995C24.8271 -0.689282 30.9354 0.607957 35.9162 3.99154C40.897 7.37513 44.3537 12.5757 45.5451 18.478C46.0167 20.7464 46.1298 23.0746 45.8801 25.378C45.4206 29.7256 43.7355 33.8532 41.0212 37.2803C38.3068 40.7074 34.6749 43.293 30.5481 44.736M28.4841 23.428C28.4981 23.22 28.5241 23.012 28.5241 22.805C28.5241 20.0863 28.5241 17.3677 28.5241 14.649C28.5314 14.2315 28.5013 13.8141 28.4341 13.402C28.1926 12.0295 27.4417 10.7988 26.3315 9.95627C25.2214 9.11379 23.834 8.72168 22.4471 8.85846C21.0602 8.99524 19.7762 9.65081 18.852 10.6939C17.9278 11.737 17.4318 13.0907 17.4631 14.484C17.4631 17.232 17.4631 19.984 17.4571 22.729C17.4582 23.132 17.4987 23.5339 17.5781 23.929C17.8409 25.2192 18.556 26.3731 19.5946 27.1825C20.6331 27.9919 21.9267 28.4035 23.242 28.3432C24.5574 28.2828 25.8078 27.7545 26.7679 26.8534C27.728 25.9523 28.3345 24.7379 28.4781 23.429M27.8781 31.521C29.1277 30.8212 30.2121 29.8606 31.0576 28.7045C31.9031 27.5485 32.4899 26.224 32.7781 24.821C32.8498 24.6237 32.8779 24.4133 32.8607 24.2041C32.8434 23.9949 32.7811 23.7919 32.6781 23.609C32.5674 23.428 32.403 23.286 32.2078 23.2029C32.0126 23.1197 31.7963 23.0995 31.5891 23.145C31.3372 23.1982 31.11 23.3331 30.9427 23.5288C30.7754 23.7245 30.6775 23.9699 30.6641 24.227C30.3786 25.7744 29.6318 27.1992 28.5218 28.3144C27.4118 29.4296 25.9905 30.1831 24.4445 30.4758C22.8984 30.7685 21.3001 30.5867 19.8592 29.9545C18.4184 29.3222 17.2024 28.2689 16.3711 26.933C15.8154 26.0272 15.4345 25.0252 15.2481 23.979C15.1946 23.7125 15.0415 23.4764 14.8199 23.319C14.5982 23.1615 14.3249 23.0946 14.0556 23.1319C13.7864 23.1691 13.5415 23.3078 13.371 23.5195C13.2004 23.7312 13.1171 24 13.1381 24.271C13.1457 24.4643 13.1715 24.6565 13.2151 24.845C13.6408 26.9011 14.7034 28.771 16.252 30.189C17.8006 31.6071 19.7565 32.5014 21.8421 32.745C22.1021 32.781 22.2131 32.888 22.2101 33.145C22.2051 33.608 22.1951 34.072 22.2101 34.534C22.2231 34.868 22.0881 34.978 21.7621 34.972C20.9551 34.957 20.1481 34.963 19.3421 34.972C18.9826 34.9405 18.6248 35.0478 18.3421 35.272C18.1831 35.4212 18.0711 35.6135 18.0199 35.8255C17.9688 36.0374 17.9806 36.2597 18.0541 36.465C18.1344 36.6846 18.285 36.8716 18.4824 36.9969C18.6799 37.1222 18.9131 37.1788 19.1461 37.158C21.8794 37.1627 24.6127 37.1627 27.3461 37.158C28.1121 37.158 28.5841 36.758 28.6081 36.123C28.6098 35.9691 28.5803 35.8164 28.5213 35.6742C28.4624 35.532 28.3752 35.4032 28.2651 35.2957C28.155 35.1881 28.0243 35.1039 27.8807 35.0483C27.7372 34.9927 27.5839 34.9667 27.4301 34.972C27.2971 34.96 27.1611 34.966 27.0301 34.965C26.2831 34.965 25.5361 34.957 24.7891 34.965C24.5021 34.965 24.3891 34.858 24.3891 34.565C24.4021 34.072 24.4001 33.579 24.3891 33.086C24.3779 33.0319 24.379 32.9759 24.3922 32.9223C24.4054 32.8686 24.4303 32.8185 24.4653 32.7757C24.5003 32.7329 24.5443 32.6984 24.5942 32.6748C24.6442 32.6511 24.6988 32.6389 24.7541 32.639C25.8549 32.4489 26.9149 32.0714 27.8881 31.523L27.8781 31.521Z" fill="black"/>
</svg>
