<svg width="15" height="15" viewBox="0 0 15 15" fill="none" xmlns="http://www.w3.org/2000/svg">
<path d="M6.86719 14.091L1.18067 8.675C0.874328 8.37126 0.700563 7.95845 0.698244 7.52705C0.697946 7.31623 0.739656 7.1074 0.820314 6.91261C0.900973 6.71783 1.01872 6.54094 1.16797 6.39204L1.17481 6.38503L6.86719 0.963028C6.95669 0.871445 7.06348 0.798811 7.18164 0.749466C7.2998 0.700121 7.42664 0.675062 7.55469 0.675797C7.68274 0.676532 7.80917 0.703041 7.92676 0.753739C8.04435 0.804437 8.15082 0.878298 8.23926 0.970902C8.3277 1.06351 8.39715 1.17295 8.44238 1.29274C8.48762 1.41253 8.50808 1.54022 8.50293 1.66817C8.49778 1.79612 8.46684 1.92172 8.41211 2.03749C8.35739 2.15326 8.28017 2.25686 8.18457 2.34206L3.74024 6.57405H13.835C13.9649 6.56562 14.0952 6.5839 14.2178 6.62782C14.3404 6.67175 14.4528 6.74038 14.5479 6.82942C14.6429 6.91847 14.7187 7.02605 14.7705 7.14552C14.8223 7.265 14.8486 7.39379 14.8486 7.524C14.8486 7.65422 14.8223 7.78306 14.7705 7.90254C14.7187 8.02202 14.6429 8.1296 14.5479 8.21864C14.4528 8.30769 14.3404 8.37632 14.2178 8.42024C14.0952 8.46417 13.9649 8.48245 13.835 8.47401H3.72168L8.18555 12.706C8.28115 12.7912 8.35836 12.8948 8.41309 13.0106C8.46781 13.1263 8.49875 13.252 8.50391 13.3799C8.50906 13.5078 8.4886 13.6355 8.44336 13.7553C8.39812 13.8751 8.32868 13.9846 8.24024 14.0772C8.15179 14.1698 8.0463 14.2436 7.92871 14.2943C7.81112 14.345 7.68372 14.3715 7.55567 14.3723C7.42762 14.373 7.30078 14.3479 7.18262 14.2986C7.06446 14.2493 6.95766 14.1766 6.86817 14.085L6.86719 14.091Z" fill="black"/>
</svg>
