<svg width="27" height="25" viewBox="0 0 27 25" fill="none" xmlns="http://www.w3.org/2000/svg">
<path id="Caminho 43140" d="M15.7139 24.908C11.2859 24.908 6.88289 24.908 2.48089 24.908C2.00748 24.9351 1.53754 24.8126 1.13753 24.558C0.737524 24.3033 0.4277 23.9294 0.251887 23.489C0.0948323 23.1186 0.0138947 22.7203 0.0138881 22.318C-0.000778555 16.2973 -0.00411402 10.2767 0.00388598 4.25599C-0.0129402 4.1351 -0.00243673 4.01199 0.0346248 3.8957C0.0716863 3.77942 0.134364 3.67293 0.218035 3.58407C0.301707 3.49522 0.404248 3.42627 0.5181 3.3823C0.631951 3.33833 0.754213 3.32045 0.875888 3.32999C3.11189 3.32999 5.34789 3.32999 7.58389 3.32999H7.90989C7.89155 2.96716 7.89355 2.60359 7.91589 2.24099C7.94811 1.64445 8.20613 1.08253 8.63756 0.669293C9.069 0.25606 9.64151 0.0224847 10.2389 0.0159883C12.3269 -0.00467839 14.4149 -0.00467839 16.5029 0.0159883C16.8217 0.0240972 17.1357 0.0954351 17.4268 0.225858C17.7178 0.35628 17.9801 0.543191 18.1983 0.775754C18.4165 1.00832 18.5864 1.2819 18.6981 1.58063C18.8098 1.87936 18.861 2.1973 18.8489 2.51599C18.8549 2.77299 18.8489 3.03099 18.8489 3.32499H25.7859C26.4569 3.32499 26.7319 3.61699 26.7319 4.33399C26.7319 10.3087 26.7319 16.2833 26.7319 22.258C26.7762 22.8203 26.6254 23.3807 26.3048 23.8448C25.9842 24.3089 25.5135 24.6484 24.9719 24.806C24.7199 24.8735 24.4597 24.9048 24.1989 24.899C21.3799 24.905 18.5609 24.899 15.7159 24.899M21.7979 23.239H24.1729C24.8919 23.239 25.1659 22.95 25.1659 22.191C25.1659 18.0237 25.1659 13.857 25.1659 9.69099V9.40799C25.1166 9.46346 25.0822 9.53056 25.0659 9.60299C24.7026 10.7537 24.3396 11.904 23.9769 13.054C23.8574 13.6129 23.5417 14.1105 23.0869 14.4567C22.6321 14.8028 22.0684 14.9747 21.4979 14.941H17.2819C17.2819 15.222 17.2819 15.479 17.2819 15.735C17.2911 15.8474 17.2765 15.9606 17.2389 16.0669C17.2013 16.1733 17.1416 16.2705 17.0638 16.3522C16.986 16.4339 16.8918 16.4982 16.7874 16.5409C16.6829 16.5836 16.5706 16.6038 16.4579 16.6C14.3959 16.604 12.3342 16.604 10.2729 16.6C10.1601 16.6032 10.0479 16.5826 9.94364 16.5394C9.8394 16.4962 9.74547 16.4314 9.66803 16.3494C9.59058 16.2673 9.53138 16.1698 9.4943 16.0632C9.45723 15.9566 9.44311 15.8434 9.45289 15.731C9.45289 15.475 9.45289 15.219 9.45289 14.942H9.17889C7.83089 14.942 6.47889 14.942 5.13389 14.942C4.60902 14.9532 4.09548 14.7885 3.67506 14.4741C3.25463 14.1597 2.95149 13.7136 2.81389 13.207C2.70489 12.887 2.60788 12.563 2.50588 12.241L1.60589 9.40399L1.56489 9.40999V9.67999C1.56489 13.856 1.56489 18.0323 1.56489 22.209C1.56489 22.966 1.83889 23.253 2.56489 23.253H21.7979M23.2239 10.211L24.8569 5.00199H1.89289C1.89225 5.03115 1.8946 5.0603 1.89989 5.08899C2.69256 7.60832 3.48622 10.1277 4.28089 12.647C4.31963 12.847 4.43264 13.0248 4.59719 13.1449C4.76175 13.2649 4.96565 13.3182 5.16789 13.294C6.53389 13.294 7.90055 13.294 9.26789 13.294C9.32589 13.294 9.38389 13.287 9.45389 13.283C9.45389 13.018 9.45389 12.77 9.45389 12.523C9.44274 12.4086 9.45611 12.2932 9.4931 12.1844C9.53009 12.0757 9.58985 11.976 9.6684 11.8922C9.74695 11.8083 9.84248 11.7422 9.94862 11.6982C10.0548 11.6542 10.169 11.6333 10.2839 11.637C12.3366 11.633 14.3896 11.633 16.4429 11.637C16.5598 11.6319 16.6764 11.6523 16.7847 11.6965C16.8931 11.7408 16.9905 11.808 17.0704 11.8935C17.1503 11.979 17.2108 12.0808 17.2476 12.1919C17.2845 12.303 17.2968 12.4207 17.2839 12.537C17.2839 12.783 17.2839 13.029 17.2839 13.293H21.5039C21.6172 13.3102 21.7328 13.3046 21.8439 13.2765C21.955 13.2485 22.0594 13.1985 22.1509 13.1296C22.2425 13.0607 22.3194 12.9742 22.3771 12.8752C22.4347 12.7762 22.4721 12.6666 22.4869 12.553C22.7299 11.786 22.9689 11.018 23.2259 10.21M16.9789 1.85199C16.7993 1.76915 16.6092 1.71128 16.4139 1.67999C15.5529 1.66199 14.6919 1.67199 13.8319 1.67199C12.6489 1.67199 11.4669 1.67199 10.2839 1.67199C10.0807 1.66141 9.88139 1.73034 9.72814 1.86417C9.5749 1.998 9.47976 2.18623 9.46289 2.38899C9.43489 2.69599 9.45789 3.00799 9.45789 3.31599H17.2819C17.2819 3.05499 17.2819 2.80799 17.2819 2.56099C17.2874 2.42668 17.2628 2.29283 17.2099 2.16928C17.1569 2.04572 17.077 1.9356 16.9759 1.84699M11.3599 13.289H11.0309V14.934H15.7019V13.289H11.3599Z" fill="black"/>
</svg>
