<svg width="32" height="30" viewBox="0 0 32 30" fill="none" xmlns="http://www.w3.org/2000/svg">
<path fill-rule="evenodd" clip-rule="evenodd" d="M6.21276 0.230999C5.61374 0.497988 5.08537 0.9012 4.66973 1.4085C4.2541 1.9158 3.9627 2.51317 3.81876 3.153L3.64276 3.79L3.66076 7.324L3.67876 10.858L3.86776 10.884C4.0998 10.8806 4.3304 10.847 4.55376 10.784C4.91907 10.7014 5.2896 10.644 5.66276 10.612C6.36276 10.557 6.42376 10.519 6.48476 10.062C6.5411 9.70099 6.67034 9.35522 6.86461 9.04576C7.05888 8.73631 7.31411 8.46964 7.61476 8.262C9.46388 7.81158 11.3909 7.78492 13.2518 8.184C13.606 8.39166 13.9084 8.67706 14.1362 9.01867C14.364 9.36028 14.5112 9.74918 14.5668 10.156L14.6548 10.528H15.7108C16.8948 10.528 16.7978 10.582 16.9788 9.828C17.0977 9.28017 17.3957 8.78756 17.8258 8.428C18.3788 7.987 18.5048 7.969 21.0008 7.969H23.3008L23.6808 8.184C24.0349 8.39221 24.3373 8.67801 24.565 9.01992C24.7928 9.36184 24.9401 9.75096 24.9958 10.158L25.0838 10.53L25.6328 10.593C25.9328 10.628 26.3978 10.699 26.6618 10.752C26.9221 10.8038 27.1857 10.8372 27.4508 10.852L27.7598 10.858L27.7778 7.324L27.7958 3.79L27.6198 3.153C27.4743 2.51381 27.1823 1.91715 26.7669 1.41007C26.3514 0.902994 25.8238 0.49936 25.2258 0.230999L24.6728 0H6.77276L6.21976 0.230999M4.46776 12.058C3.4422 12.4458 2.53561 13.0945 1.83759 13.94C1.13957 14.7855 0.674293 15.7986 0.487759 16.879C0.276216 20.7394 0.276216 24.6086 0.487759 28.469C1.08776 29.655 2.54476 29.097 2.54576 27.681C2.54576 26.996 2.67376 26.638 2.96076 26.518C3.32476 26.365 28.1998 26.386 28.5048 26.539C28.7848 26.68 28.8888 26.994 28.8898 27.696C28.8898 29.096 30.3518 29.646 30.9478 28.469C31.1593 24.6086 31.1593 20.7394 30.9478 16.879C30.7632 15.7934 30.2954 14.7757 29.5917 13.9287C28.888 13.0817 27.9732 12.4353 26.9398 12.055C26.1058 11.802 5.28576 11.806 4.46676 12.055" fill="black"/>
</svg>
