<svg width="23" height="23" viewBox="0 0 23 23" fill="none" xmlns="http://www.w3.org/2000/svg">
<rect width="23" height="23" fill="#F5F5F5"/>
<g id="Payments" clip-path="url(#clip0_0_1)">
<rect width="375" height="900" transform="translate(-38 -679)" fill="white"/>
<g id="Ret&#195;&#162;ngulo 149972">
<path id="Vector" d="M313 -29H-14C-19.5228 -29 -24 -24.5228 -24 -19V43C-24 48.5229 -19.5228 53 -14 53H313C318.523 53 323 48.5229 323 43V-19C323 -24.5228 318.523 -29 313 -29Z" fill="white"/>
<path id="Vector_2" d="M313 -28.5H-14C-19.2467 -28.5 -23.5 -24.2467 -23.5 -19V43C-23.5 48.2467 -19.2467 52.5 -14 52.5H313C318.247 52.5 322.5 48.2467 322.5 43V-19C322.5 -24.2467 318.247 -28.5 313 -28.5Z" stroke="#E2E2E2"/>
</g>
<path id="Ret&#195;&#162;ngulo 149973" d="M20 -9H3C-3.62742 -9 -9 -3.62742 -9 3V21C-9 27.6274 -3.62742 33 3 33H20C26.6274 33 32 27.6274 32 21V3C32 -3.62742 26.6274 -9 20 -9Z" fill="#64CCC1"/>
<path id="Subtra&#195;&#167;&#195;&#163;o 154" d="M11.2119 23.0095H11.2059C8.24603 23.0087 5.40773 21.8323 3.31524 19.7389C1.22275 17.6456 0.0474539 14.8068 0.0478517 11.847C0.0482495 8.88718 1.22431 6.04872 3.31736 3.95595C5.41041 1.86318 8.24903 0.6875 11.2089 0.6875C14.1687 0.6875 17.0073 1.86318 19.1003 3.95595C21.1934 6.04872 22.3695 8.88718 22.3699 11.847C22.3702 14.8068 21.1949 17.6456 19.1025 19.7389C17.01 21.8323 14.1717 23.0087 11.2119 23.0095ZM8.63785 13.7395C8.51699 13.7399 8.39905 13.7767 8.29948 13.8452C8.19991 13.9137 8.12336 14.0107 8.07985 14.1235C7.99855 14.5683 8.03353 15.0266 8.1814 15.4539C8.32927 15.8812 8.58501 16.2631 8.92385 16.5625L8.94485 16.5835C9.29585 16.9355 9.29585 16.9355 10.2039 17.3675L10.2739 17.4005C10.3739 17.4495 10.3839 17.4745 10.4089 17.9145C10.4469 18.5875 10.6469 18.8615 11.0999 18.8615C11.5529 18.8615 11.7469 18.5975 11.7879 17.9185C11.8159 17.4785 11.8239 17.4495 11.9259 17.4005L11.9919 17.3685C12.9029 16.9355 12.9029 16.9355 13.2519 16.5855L13.2759 16.5615C13.6965 16.1649 13.9932 15.6549 14.13 15.0932C14.2669 14.5315 14.238 13.9421 14.0469 13.3965C13.8161 12.8079 13.4231 12.2968 12.9135 11.9226C12.4039 11.5484 11.7986 11.3265 11.1679 11.2825H11.1159C10.6439 11.2826 10.1912 11.0956 9.85685 10.7625C9.60952 10.4997 9.44472 10.1702 9.38286 9.8147C9.321 9.45919 9.36481 9.09335 9.50885 8.7625C9.67715 8.42024 9.95201 8.14187 10.2921 7.96925C10.6322 7.79663 11.0191 7.73909 11.3948 7.80528C11.7704 7.87147 12.1143 8.05782 12.3749 8.33629C12.6355 8.61477 12.7987 8.97033 12.8399 9.3495C12.9119 9.9195 13.1249 10.1745 13.5289 10.1745H13.5569C13.678 10.1736 13.7961 10.1361 13.8955 10.0668C13.9949 9.99759 14.071 9.89985 14.1139 9.7865C14.1947 9.34176 14.1593 8.8837 14.0113 8.45661C13.8633 8.02951 13.6075 7.64784 13.2689 7.3485L13.2479 7.3275C12.8969 6.9755 12.8969 6.9755 11.9889 6.5435L11.9189 6.5105C11.8189 6.4605 11.8089 6.4365 11.7839 5.9965C11.7569 5.4965 11.6959 5.3315 11.4839 5.1715C11.3648 5.07514 11.2179 5.01973 11.0649 5.0135C10.6999 5.0135 10.4409 5.3975 10.4039 5.9905C10.3759 6.4305 10.3679 6.4595 10.2659 6.5085L10.1959 6.5415C9.28885 6.9725 9.28885 6.9725 8.93985 7.3235L8.91685 7.3465C8.4962 7.7431 8.19951 8.25312 8.06268 8.81483C7.92584 9.37654 7.95473 9.96587 8.14585 10.5115C8.37676 11.0998 8.76967 11.6107 9.27905 11.9848C9.78842 12.359 10.3934 12.5811 11.0239 12.6255H11.0839C11.4172 12.6265 11.7437 12.7207 12.0264 12.8974C12.3091 13.0741 12.5368 13.3263 12.6839 13.6255C12.877 14.1141 12.877 14.6579 12.6839 15.1465C12.5157 15.4907 12.2399 15.7707 11.8982 15.9439C11.5565 16.1171 11.1676 16.1741 10.7906 16.1063C10.4135 16.0384 10.0689 15.8494 9.8091 15.5679C9.54927 15.2864 9.38837 14.9278 9.35085 14.5465C9.27985 13.9865 9.07285 13.7395 8.66785 13.7395H8.63785Z" fill="white"/>
</g>
<defs>
<clipPath id="clip0_0_1">
<rect width="375" height="900" fill="white" transform="translate(-38 -679)"/>
</clipPath>
</defs>
</svg>
