<svg width="26" height="26" viewBox="0 0 26 26" fill="none" xmlns="http://www.w3.org/2000/svg">
<path id="Subtra&#195;&#167;&#195;&#163;o 8" d="M13.0039 26.001L10.0869 23.886L6.50391 24.265L5.03691 20.965L1.74491 19.501L2.12391 15.918L0.00390625 13.001L2.11891 10.084L1.74091 6.50098L5.04091 5.03398L6.50391 1.74198L10.0869 2.12098L13.0039 0.000976562L15.9209 2.11598L19.5039 1.73798L20.9709 5.03798L24.2639 6.50098L23.8849 10.084L26.0039 13.001L23.8929 15.921L24.2719 19.505L20.9719 20.972L19.5039 24.261L15.9209 23.882L13.0039 26.001ZM8.09591 12.88C8.04023 12.8795 7.98501 12.8901 7.93349 12.9112C7.88198 12.9323 7.8352 12.9635 7.79591 13.003L6.60391 14.187C6.56399 14.2261 6.53229 14.2728 6.51064 14.3243C6.48899 14.3758 6.47785 14.4311 6.47785 14.487C6.47785 14.5429 6.48899 14.5982 6.51064 14.6497C6.53229 14.7012 6.56399 14.7479 6.60391 14.787L10.1749 18.363C10.2141 18.4028 10.2608 18.4344 10.3123 18.4559C10.3638 18.4775 10.4191 18.4886 10.4749 18.4886C10.5307 18.4886 10.586 18.4775 10.6375 18.4559C10.689 18.4344 10.7357 18.4028 10.7749 18.363L19.1039 10.031C19.1824 9.95208 19.2265 9.84529 19.2265 9.73398C19.2265 9.62266 19.1824 9.51587 19.1039 9.43698L17.9149 8.23698C17.8758 8.19706 17.8291 8.16536 17.7776 8.14371C17.7261 8.12206 17.6708 8.11092 17.6149 8.11092C17.559 8.11092 17.5037 8.12206 17.4522 8.14371C17.4007 8.16536 17.354 8.19706 17.3149 8.23698L10.4739 15.077L8.39391 13.001C8.35437 12.9621 8.30748 12.9314 8.25597 12.9108C8.20446 12.8902 8.14937 12.8801 8.09391 12.881L8.09591 12.88Z" fill="white"/>
</svg>
