<svg width="40" height="43" viewBox="0 0 40 43" fill="none" xmlns="http://www.w3.org/2000/svg">
<path d="M7.92634 42.154C6.07994 42.1953 4.27961 41.5751 2.85049 40.4053C1.42136 39.2355 0.457626 37.5932 0.133337 35.775C0.0432262 35.2802 0.000698823 34.7779 0.00633715 34.275C0.00167049 26.439 -0.000662847 18.6013 -0.000662847 10.762C-0.0352556 8.86697 0.626776 7.02513 1.85989 5.58577C3.093 4.1464 4.81144 3.20959 6.68934 2.953C7.20507 2.89315 7.72424 2.86809 8.24334 2.878C8.85334 2.866 9.46434 2.878 10.1233 2.878C10.1233 2.448 10.1233 2.06 10.1233 1.673C10.1051 1.46082 10.131 1.24717 10.1995 1.04551C10.268 0.843861 10.3775 0.658589 10.5212 0.50139C10.6648 0.344191 10.8395 0.218476 11.0342 0.132179C11.2289 0.0458818 11.4394 0.000875475 11.6523 0C11.861 0.00151327 12.067 0.0462696 12.2574 0.131443C12.4479 0.216615 12.6186 0.340354 12.7588 0.494845C12.899 0.649335 13.0057 0.83122 13.072 1.02901C13.1384 1.22681 13.163 1.43621 13.1443 1.644C13.1493 2.033 13.1443 2.423 13.1443 2.844H26.2993C26.2993 2.444 26.2993 2.044 26.2993 1.644C26.2807 1.43638 26.3052 1.22714 26.3715 1.02948C26.4377 0.831825 26.5442 0.650035 26.6842 0.495575C26.8242 0.341115 26.9946 0.217335 27.1849 0.132041C27.3751 0.0467468 27.5809 0.00178816 27.7893 0C28.002 0.000391626 28.2122 0.0448054 28.4068 0.130444C28.6014 0.216083 28.7762 0.341091 28.9201 0.497596C29.064 0.6541 29.1739 0.83871 29.243 1.0398C29.3121 1.24089 29.3387 1.4541 29.3213 1.666C29.3273 2.055 29.3213 2.443 29.3213 2.876C30.0873 2.876 30.8073 2.869 31.5283 2.876C33.293 2.83775 35.0176 3.40459 36.4155 4.4823C37.8134 5.56001 38.8004 7.08366 39.2123 8.8C39.3625 9.44044 39.4373 10.0962 39.4353 10.754C39.45 18.5933 39.4527 26.4323 39.4433 34.271C39.4608 35.3139 39.2676 36.3496 38.8753 37.316C38.483 38.2825 37.8997 39.1598 37.1603 39.8955C36.4209 40.6312 35.5406 41.21 34.5722 41.5974C33.6038 41.9848 32.5671 42.1728 31.5243 42.15C30.2503 42.15 28.9753 42.15 27.6543 42.15H7.92634V42.154ZM20.3443 32.341C21.2253 32.821 22.1103 33.294 23.0133 33.732C23.6557 34.0781 24.3853 34.2286 25.1122 34.1652C25.8391 34.1018 26.5316 33.8271 27.1043 33.375C27.6902 32.9701 28.1455 32.4034 28.4145 31.744C28.6836 31.0846 28.7547 30.3612 28.6193 29.662C28.4793 28.733 28.3343 27.804 28.1493 26.884C28.0732 26.6213 28.0762 26.3421 28.1581 26.0811C28.2399 25.8202 28.3969 25.5892 28.6093 25.417C29.3383 24.772 30.0313 24.085 30.7093 23.385C31.1447 22.9412 31.4665 22.3989 31.6474 21.8041C31.8284 21.2093 31.8631 20.5797 31.7486 19.9686C31.6342 19.3576 31.3739 18.7832 30.99 18.2942C30.6061 17.8052 30.1098 17.4162 29.5433 17.16C28.9554 16.9582 28.3492 16.8138 27.7333 16.729C26.9883 16.614 26.2453 16.475 25.4963 16.394C25.2928 16.3827 25.0965 16.3143 24.9299 16.1967C24.7633 16.0791 24.6332 15.917 24.5543 15.729C24.1463 14.884 23.7253 14.045 23.3133 13.202C23.0194 12.5001 22.5204 11.9033 21.8816 11.4897C21.2428 11.0761 20.4941 10.865 19.7333 10.884C18.9725 10.8626 18.223 11.0714 17.5828 11.483C16.9426 11.8946 16.4416 12.4899 16.1453 13.191C15.7233 14.047 15.2993 14.901 14.8813 15.759C14.8075 15.9323 14.6881 16.0823 14.5358 16.1931C14.3835 16.3038 14.2039 16.3712 14.0163 16.388C13.0163 16.519 12.0263 16.68 11.0323 16.832C10.3075 16.9054 9.62031 17.1906 9.05656 17.6521C8.49281 18.1136 8.07745 18.7309 7.86234 19.427C7.60081 20.1236 7.55411 20.8825 7.72827 21.6059C7.90243 22.3293 8.28944 22.9838 8.83934 23.485C9.48034 24.132 10.1203 24.785 10.8053 25.385C11.0311 25.5652 11.1978 25.8088 11.2842 26.0844C11.3707 26.36 11.3728 26.6552 11.2903 26.932C11.0689 27.9416 10.9 28.9619 10.7843 29.989C10.7355 30.669 10.8662 31.3499 11.1633 31.9635C11.4605 32.5771 11.9137 33.1018 12.4776 33.485C13.0414 33.8683 13.6961 34.0966 14.3759 34.1471C15.0558 34.1977 15.737 34.0687 16.3513 33.773C17.2873 33.334 18.2003 32.843 19.1073 32.345C19.2937 32.2295 19.5086 32.1683 19.7278 32.1683C19.9471 32.1683 20.162 32.2295 20.3483 32.345L20.3443 32.341ZM14.1363 30.953C13.9874 30.837 13.8777 30.6779 13.8222 30.4974C13.7668 30.3169 13.7682 30.1237 13.8263 29.944C14.0103 28.975 14.1623 28 14.3323 26.986C14.4444 26.3025 14.377 25.6017 14.1369 24.952C13.8967 24.3024 13.492 23.7263 12.9623 23.28C12.3243 22.698 11.7233 22.08 11.0973 21.48C10.9277 21.3652 10.7988 21.1997 10.7289 21.0071C10.659 20.8146 10.6518 20.6049 10.7083 20.408C10.8683 19.917 11.2673 19.825 11.7083 19.763C12.7083 19.62 13.6993 19.483 14.6903 19.315C15.3061 19.2185 15.8887 18.972 16.3868 18.5972C16.8848 18.2225 17.283 17.731 17.5463 17.166C17.9943 16.2887 18.4293 15.4043 18.8513 14.513C18.9148 14.3304 19.0337 14.1723 19.1915 14.0606C19.3492 13.949 19.5379 13.8894 19.7312 13.8903C19.9245 13.8912 20.1126 13.9525 20.2694 14.0655C20.4261 14.1786 20.5436 14.3379 20.6053 14.521C21.0213 15.397 21.4563 16.264 21.8903 17.131C22.1821 17.7518 22.6307 18.2859 23.1919 18.6804C23.7531 19.075 24.4074 19.3165 25.0903 19.381C26.0253 19.504 26.9563 19.649 27.8903 19.781C28.0803 19.7841 28.2645 19.8469 28.4168 19.9605C28.5691 20.0741 28.6818 20.2327 28.7389 20.414C28.796 20.5952 28.7946 20.7898 28.7349 20.9702C28.6752 21.1506 28.5603 21.3076 28.4063 21.419C27.7063 22.093 27.0143 22.782 26.3063 23.454C25.8169 23.9002 25.4505 24.4648 25.2425 25.0935C25.0344 25.7223 24.9917 26.394 25.1183 27.044C25.2723 28.018 25.4363 28.991 25.6183 29.961C25.674 30.142 25.6718 30.3359 25.6119 30.5155C25.5521 30.6952 25.4376 30.8517 25.2845 30.9631C25.1314 31.0746 24.9474 31.1354 24.758 31.1372C24.5687 31.139 24.3835 31.0816 24.2283 30.973C23.3573 30.508 22.4763 30.06 21.6013 29.603C21.0154 29.2758 20.3545 29.1066 19.6834 29.1118C19.0123 29.1171 18.3541 29.2967 17.7733 29.633C16.9163 30.09 16.0473 30.527 15.1893 30.984C15.026 31.0785 14.8419 31.1314 14.6533 31.138C14.4651 31.1361 14.283 31.071 14.1363 30.953Z" fill="#010101"/>
</svg>
