<svg width="25" height="25" viewBox="0 0 25 25" fill="none" xmlns="http://www.w3.org/2000/svg">
<path id="Subtra&#195;&#167;&#195;&#163;o 196" d="M12.7617 24.7575C9.95536 24.7579 7.23598 23.7857 5.06643 22.0056C2.89688 20.2255 1.41106 17.7473 0.863306 14.9948C0.31555 12.2424 0.739805 9.38598 2.06252 6.91086C3.38524 4.43574 5.52452 2.49574 8.11721 1.4216C10.7099 0.34746 13.5957 0.205739 16.2813 1.02023C18.9669 1.83473 21.2865 3.55504 22.8457 5.8884C24.405 8.22175 25.107 11.0232 24.8321 13.8161C24.5571 16.609 23.3223 19.2203 21.3379 21.2048C20.2141 22.3344 18.8773 23.2297 17.4053 23.8396C15.9333 24.4494 14.3551 24.7614 12.7617 24.7575ZM11.6621 6.48605C11.5207 6.48621 11.3812 6.52012 11.2559 6.58566L11.2168 6.60226C10.6578 6.83826 10.6582 6.83858 10.6582 10.1306V13.5573L11.4834 14.3796C12.7454 15.6256 16.1972 18.6926 16.4082 18.7546C16.4766 18.7666 16.5459 18.7735 16.6153 18.7741C16.8812 18.776 17.138 18.6782 17.336 18.5007C17.4539 18.3978 17.5414 18.2647 17.5899 18.1159C17.6383 17.9672 17.6451 17.8085 17.6104 17.656C17.5614 17.542 16.4347 16.4561 15.0967 15.2321L12.667 13.0114L12.6377 10.0749V9.99777C12.6127 6.90677 12.6131 6.90628 12.1631 6.64328L12.1553 6.63742C12.0103 6.53905 11.8393 6.48647 11.6641 6.48508L11.6621 6.48605Z" fill="#3A4B4C"/>
</svg>
