<svg width="46" height="46" viewBox="0 0 46 46" fill="none" xmlns="http://www.w3.org/2000/svg">
<path d="M26.7786 18.75C26.9678 19.2027 27.0614 19.6895 27.0536 20.18C27.0396 20.532 27.2006 20.696 27.5536 20.793C30.886 21.5953 33.9342 23.2971 36.3657 25.713C38.7973 28.1288 40.5188 31.1659 41.3426 34.493C41.4242 34.6818 41.4535 34.889 41.4276 35.093C41.2681 35.1834 41.0816 35.2139 40.9016 35.179C28.9543 35.179 17.0073 35.179 5.06062 35.179C4.47162 35.179 4.4466 35.16 4.5926 34.607C5.19991 32.1259 6.30647 29.7945 7.84474 27.7552C9.38301 25.7159 11.3207 24.0115 13.5396 22.746C15.0848 21.8347 16.7621 21.1688 18.5116 20.772C18.9016 20.684 18.9206 20.446 18.9186 20.155C18.9326 19.2602 19.2438 18.3953 19.8032 17.6967C20.3626 16.9981 21.1385 16.5053 22.0086 16.296C22.9659 16.0626 23.9753 16.1822 24.8515 16.633C25.7277 17.0837 26.4119 17.8354 26.7786 18.75Z" fill="black"/>
<path d="M32.9315 45.95C24.0915 45.95 15.2955 45.95 6.50047 45.959C6.31943 45.9813 6.13618 45.9418 5.98043 45.8468C5.82468 45.7519 5.70559 45.6071 5.64248 45.436C4.94248 43.968 4.18747 42.525 3.48147 41.06C3.42143 40.8939 3.30606 40.7535 3.15473 40.6624C3.0034 40.5714 2.82534 40.5352 2.65048 40.56C1.92048 40.591 1.18747 40.56 0.455468 40.572C0.141468 40.578 -0.00953423 40.4899 0.000465773 40.1439C0.0204658 39.4869 0.0174658 38.83 0.000465773 38.173C-0.00753423 37.853 0.136467 37.744 0.429467 37.757C0.578467 37.763 0.72948 37.757 0.87748 37.757H45.1845C45.2741 37.7619 45.3639 37.7619 45.4535 37.757C45.8425 37.713 45.9835 37.876 45.9665 38.27C45.9395 38.896 45.9485 39.524 45.9665 40.151C45.9735 40.458 45.8665 40.578 45.5515 40.572C44.7755 40.558 43.9985 40.584 43.2225 40.56C43.0765 40.5407 42.9284 40.5721 42.8028 40.6489C42.6772 40.7257 42.5818 40.8433 42.5325 40.982C41.7955 42.5 41.0255 44.001 40.2875 45.518C40.2338 45.6618 40.1336 45.7835 40.0027 45.8637C39.8719 45.944 39.718 45.9782 39.5655 45.961C37.3665 45.941 35.1715 45.949 32.9315 45.95Z" fill="black"/>
<path d="M13.7174 11.9891C13.912 11.4958 13.9789 10.9613 13.9118 10.4353C13.8446 9.90922 13.6457 9.40868 13.3334 8.98007C12.6568 8.08036 12.2465 7.00863 12.1494 5.88706C12.1204 5.52006 12.1924 5.35906 12.5874 5.37206C13.2284 5.39206 13.8715 5.38606 14.5135 5.37206C14.8135 5.36706 14.9424 5.47206 14.9524 5.78306C15.0054 6.35189 15.2276 6.8918 15.5904 7.33306C16.3572 8.37465 16.7593 9.63991 16.7344 10.9331C16.7244 11.9834 16.4183 13.0097 15.8514 13.8941C15.3351 14.4996 15.0146 15.2475 14.9324 16.0391C14.9324 16.2391 14.7784 16.2711 14.6164 16.2711C13.8994 16.2711 13.1834 16.2711 12.4664 16.2711C12.1364 16.2711 12.1314 16.0711 12.1474 15.8171C12.2299 14.6943 12.6255 13.6172 13.2895 12.7081C13.4415 12.4911 13.5674 12.2521 13.7174 11.9891Z" fill="black"/>
<path d="M32.6434 8.96504C32.2375 9.49612 32.0172 10.1458 32.0163 10.8142C32.0154 11.4826 32.2339 12.1329 32.6384 12.6651C33.3066 13.5711 33.7125 14.6436 33.8114 15.765C33.8364 16.128 33.7724 16.297 33.3754 16.285C32.7344 16.265 32.0924 16.271 31.4504 16.285C31.1504 16.285 31.0204 16.185 31.0134 15.872C30.979 15.3634 30.7949 14.8763 30.4844 14.472C29.8664 13.645 29.4571 12.6811 29.2914 11.662C29.0877 10.2922 29.3845 8.89485 30.1274 7.72604C30.6229 7.12641 30.9372 6.39795 31.0334 5.62605C31.0334 5.43205 31.1914 5.39404 31.3534 5.39404H33.5024C33.8354 5.39404 33.8294 5.61004 33.8154 5.85504C33.7335 6.98319 33.3264 8.06343 32.6434 8.96504Z" fill="black"/>
<path d="M25.1715 9.69905C25.1805 9.75205 25.1855 9.76605 25.1885 9.78105C25.4115 10.8111 25.3516 10.888 24.3246 10.881C23.8476 10.881 23.3696 10.873 22.8926 10.881C22.6406 10.881 22.5156 10.797 22.4926 10.526C22.4036 9.90364 22.1582 9.31394 21.7795 8.81204C21.0732 7.85532 20.6839 6.70165 20.6659 5.51259C20.648 4.32353 21.0024 3.15863 21.6795 2.18105C22.1598 1.54664 22.4529 0.790432 22.5256 -0.00195312C23.3766 -0.00195312 24.1926 -0.00195312 25.0086 -0.00195312C25.2776 -0.00195312 25.2595 0.20405 25.2565 0.38205C25.2295 1.32578 24.9475 2.24459 24.4406 3.04105C24.0104 3.59523 23.6973 4.23112 23.5205 4.91005C23.3878 5.61978 23.5281 6.35347 23.9136 6.96405C24.5228 7.77574 24.9517 8.70821 25.1715 9.69905Z" fill="black"/>
</svg>
