<svg width="29" height="30" viewBox="0 0 29 30" fill="none" xmlns="http://www.w3.org/2000/svg">
<path d="M4.24575 25.5587C1.87342 23.1868 0.39713 20.0661 0.0680181 16.7277C-0.261094 13.3892 0.577548 10.0396 2.44107 7.25011C4.30458 4.46065 7.0776 2.40387 10.2877 1.4298C13.4979 0.455731 16.9461 0.624781 20.0456 1.90832C23.145 3.19185 25.7032 5.51043 27.2848 8.46886C28.8664 11.4273 29.3736 14.8427 28.7194 18.1329C28.0652 21.4232 26.29 24.3845 23.6969 26.5128C21.1039 28.6412 17.8534 29.8046 14.4987 29.8048C12.5939 29.8098 10.7068 29.4369 8.94692 28.7081C7.18704 27.9793 5.58934 26.9089 4.24575 25.5587ZM1.49771 15.3048C1.49771 17.876 2.25968 20.3896 3.68814 22.5275C5.11659 24.6653 7.14766 26.3316 9.5231 27.3155C11.8985 28.2995 14.5121 28.5564 17.0338 28.0548C19.5556 27.5532 21.872 26.3153 23.6901 24.4972C25.5082 22.6791 26.7461 20.3627 27.2477 17.8409C27.7493 15.3192 27.4924 12.7056 26.5084 10.3302C25.5245 7.95475 23.8582 5.92369 21.7204 4.49523C19.5825 3.06677 17.0689 2.3048 14.4977 2.3048C11.0514 2.30956 7.74796 3.68033 5.31118 6.1173C2.8744 8.55427 1.5022 11.8585 1.49771 15.3048ZM13.36 23.6544C13.326 23.0454 13.3155 23.0135 13.1735 22.9445L13.0739 22.8986C11.8179 22.2986 11.8177 22.2986 11.3317 21.8146L11.3034 21.7853C10.8339 21.3724 10.4794 20.8439 10.275 20.253C10.0707 19.6622 10.0233 19.0289 10.1374 18.4142C10.1948 18.2562 10.2994 18.1198 10.4372 18.0236C10.575 17.9273 10.7398 17.8757 10.9079 17.8761H10.9489C11.5109 17.8761 11.8031 18.2241 11.8961 19.0011C11.9496 19.5277 12.1731 20.022 12.5329 20.4103C12.8926 20.7985 13.3683 21.0591 13.8893 21.1525C14.4103 21.2458 14.9484 21.1671 15.4206 20.9278C15.8927 20.6886 16.2736 20.3026 16.5065 19.8273C16.7734 19.1527 16.7734 18.4012 16.5065 17.7267C16.305 17.3112 15.9907 16.9609 15.5993 16.7159C15.2079 16.471 14.7553 16.3415 14.2936 16.3419H14.2106C13.3379 16.2823 12.5003 15.9753 11.7956 15.4571C11.0908 14.939 10.5484 14.2313 10.2311 13.4161C9.96583 12.6618 9.92486 11.8464 10.1139 11.0695C10.303 10.2925 10.7134 9.58733 11.2956 9.03918L11.3288 9.0089C11.8098 8.5229 11.8101 8.52292 13.0661 7.92492L13.1608 7.87902C13.3028 7.81302 13.3122 7.77118 13.3502 7.16418C13.4022 6.34318 13.7623 5.81164 14.2643 5.81164C14.4766 5.81945 14.6807 5.89609 14.8454 6.03039C15.1364 6.24939 15.2214 6.48401 15.2594 7.17101C15.2954 7.78101 15.3039 7.81495 15.4459 7.88195L15.5456 7.92785C16.8016 8.52785 16.8017 8.52786 17.2877 9.01086L17.3161 9.04211C17.7858 9.45487 18.1397 9.98247 18.3444 10.5734C18.5491 11.1642 18.5977 11.7983 18.484 12.4132C18.4249 12.5702 18.319 12.705 18.1813 12.8009C18.0436 12.8968 17.8803 12.9483 17.7125 12.9493H17.6764C17.1154 12.9493 16.8223 12.5967 16.7213 11.8097C16.6645 11.2851 16.4393 10.7936 16.0788 10.4083C15.7183 10.023 15.242 9.76454 14.7223 9.67297C14.2027 9.5814 13.6674 9.66165 13.1969 9.90051C12.7264 10.1394 12.3467 10.5246 12.1139 10.9982C11.9153 11.4563 11.8546 11.9622 11.9401 12.4542C12.0256 12.9462 12.2529 13.4024 12.5944 13.7667C13.0579 14.226 13.684 14.4838 14.3366 14.4845H14.4088C15.2816 14.5439 16.1191 14.8511 16.8239 15.3693C17.5287 15.8874 18.0713 16.5959 18.3883 17.4112C18.6536 18.1656 18.6946 18.98 18.5055 19.757C18.3165 20.5339 17.9061 21.24 17.3239 21.7882L17.2907 21.8204C16.8097 22.3064 16.8095 22.3064 15.5485 22.9034L15.4557 22.9474C15.3137 23.0164 15.3043 23.0561 15.2653 23.6661C15.2083 24.6051 14.939 24.9659 14.317 24.9659C13.695 24.9659 13.414 24.5854 13.36 23.6544Z" fill="black"/>
</svg>
