<svg width="24" height="23" viewBox="0 0 24 23" fill="none" xmlns="http://www.w3.org/2000/svg">
<path d="M22.389 11.3398C22.6582 11.0774 22.8487 10.7449 22.9389 10.3799C23.0312 10.0136 23.0174 9.62873 22.899 9.27002C22.7802 8.9097 22.5659 8.58814 22.279 8.33984C21.9882 8.09671 21.6346 7.94101 21.259 7.89014L16.519 7.2002C16.4005 7.18257 16.2876 7.13773 16.1889 7.06982C16.0968 6.99425 16.0189 6.90279 15.9589 6.7998L13.839 2.5C13.6764 2.16109 13.4195 1.87652 13.099 1.68018C12.7789 1.47749 12.4079 1.36963 12.029 1.36963C11.6502 1.36963 11.279 1.47749 10.9589 1.68018C10.638 1.879 10.3784 2.16265 10.2089 2.5L8.08895 6.7998C8.03823 6.90902 7.95874 7.00238 7.85897 7.06982C7.76251 7.14176 7.64863 7.18701 7.52902 7.2002L2.78903 7.89014C2.41644 7.94113 2.06609 8.09693 1.77902 8.33984C1.4891 8.58746 1.27144 8.90894 1.14901 9.27002C1.03444 9.62977 1.02401 10.0145 1.11898 10.3799C1.20925 10.7449 1.3998 11.0774 1.66903 11.3398L5.09896 14.6899C5.18596 14.7728 5.25128 14.8762 5.28903 14.9902C5.32078 15.1041 5.32763 15.2231 5.30905 15.3398L4.49899 20.0698C4.43833 20.4406 4.47981 20.821 4.61898 21.1699C4.7599 21.5233 4.99947 21.8287 5.30905 22.0498C5.61447 22.2691 5.97408 22.4009 6.34896 22.4302C6.72689 22.4604 7.10545 22.3806 7.43893 22.2002L11.679 19.9702C11.7887 19.9189 11.908 19.8915 12.029 19.8901C12.1469 19.8914 12.2629 19.9188 12.369 19.9702L16.609 22.2002C16.9432 22.3785 17.3212 22.4583 17.6989 22.4302C18.0769 22.401 18.4399 22.2693 18.749 22.0498C19.0524 21.829 19.288 21.528 19.429 21.1802C19.5778 20.8302 19.6196 20.4436 19.549 20.0698L18.739 15.3501C18.719 15.2295 18.7293 15.1059 18.769 14.9902C18.8091 14.8773 18.8739 14.7744 18.959 14.6899L22.389 11.3398Z" stroke="#FCA800"/>
</svg>
