<svg width="35" height="35" viewBox="0 0 35 35" fill="none" xmlns="http://www.w3.org/2000/svg">
<path d="M8.47406 34.889C8.07567 34.889 7.68153 34.807 7.31623 34.648C6.95094 34.489 6.62232 34.2565 6.35088 33.9648C6.07944 33.6732 5.87099 33.3288 5.73854 32.9531C5.6061 32.5773 5.55249 32.1783 5.58106 31.781L6.18106 22.706L0.644064 15.779C0.338872 15.3997 0.133668 14.9499 0.0472308 14.4709C-0.0392059 13.9918 -0.00411524 13.4987 0.149291 13.0367C0.302697 12.5747 0.569521 12.1585 0.925345 11.8263C1.28117 11.494 1.71463 11.2564 2.18606 11.135L10.4581 8.97196L14.9971 1.33096C15.2741 0.921159 15.6475 0.585555 16.0844 0.353557C16.5213 0.121558 17.0084 0.000244141 17.5031 0.000244141C17.9977 0.000244141 18.4849 0.121558 18.9218 0.353557C19.3587 0.585555 19.732 0.921159 20.0091 1.33096L24.5311 8.97196L32.8091 11.138C33.2797 11.2605 33.7123 11.4986 34.0676 11.8306C34.4229 12.1627 34.6897 12.5782 34.8437 13.0394C34.9978 13.5007 35.0342 13.9931 34.9498 14.472C34.8653 14.951 34.6626 15.4012 34.3601 15.782L28.8251 22.702L29.4251 31.775C29.4522 32.1726 29.3973 32.5716 29.2639 32.9473C29.1305 33.3229 28.9214 33.6671 28.6495 33.9586C28.3776 34.25 28.0488 34.4826 27.6833 34.6418C27.3179 34.8009 26.9237 34.8834 26.5251 34.884H26.4701C26.0917 34.8842 25.7174 34.807 25.3701 34.657L17.5011 31.314H17.4891L9.62406 34.653C9.26199 34.8083 8.87206 34.8883 8.47806 34.888L8.47406 34.889Z" fill="black"/>
</svg>
