<svg width="24" height="27" viewBox="0 0 24 27" fill="none" xmlns="http://www.w3.org/2000/svg">
<path d="M6.50057 26.046C5.51686 26.0466 4.55071 25.786 3.70064 25.291C3.19423 25.004 2.7371 24.6377 2.34663 24.206C1.94935 23.7829 1.62639 23.2957 1.39156 22.765C0.88201 21.612 0.808096 20.3133 1.18355 19.11C1.31355 18.65 3.71859 14.4 5.74959 10.901C7.84159 7.264 10.2636 3.17503 10.6016 2.80103C11.1073 2.23793 11.6957 1.75506 12.3466 1.36902C12.9759 0.994424 13.6578 0.716319 14.3696 0.544008C14.9386 0.410718 15.5211 0.343595 16.1055 0.343996C16.2055 0.343996 16.2966 0.344015 16.3916 0.351015L16.5736 0.356996C17.3525 0.405658 18.121 0.5625 18.8566 0.823C19.0702 0.905157 19.2763 1.00551 19.4726 1.12299C20.182 1.52606 20.8455 2.0049 21.4516 2.55103C22.413 3.53578 23.0935 4.75972 23.4226 6.09601C23.7275 7.41867 23.6646 8.79956 23.2406 10.089C23.0666 10.647 21.4346 13.512 20.7496 14.717C19.978 16.1342 19.1259 17.5061 18.1976 18.826C17.9984 18.9362 17.7742 18.9931 17.5466 18.991C17.3165 18.9861 17.0919 18.9202 16.8956 18.8C16.7134 18.7015 16.5651 18.5503 16.4705 18.366L16.4185 18.266H16.4096C16.1496 17.771 16.1496 17.771 18.1196 14.312C18.2936 14.012 18.4495 13.735 18.6055 13.444L18.6486 13.362C20.8966 9.381 20.9406 9.30502 21.0356 8.80402C21.2498 7.76938 21.1278 6.69335 20.6875 5.73291C20.2471 4.77247 19.5114 3.97788 18.5876 3.46503C17.6249 2.88444 16.4881 2.66266 15.3778 2.83887C14.2675 3.01507 13.2552 3.57788 12.5196 4.42798C12.2196 4.76098 8.9776 10.328 7.9886 12.028C5.9886 15.452 3.76057 19.373 3.63057 19.746C3.40371 20.3867 3.40692 21.0864 3.6396 21.725C3.88553 22.3586 4.34208 22.8883 4.93257 23.225C5.41473 23.5073 5.96764 23.6458 6.52596 23.6242C7.08427 23.6026 7.62469 23.4218 8.08357 23.103L8.45662 22.843L11.7116 17.253L14.9666 11.653L14.9146 11.353C14.8974 11.2385 14.8528 11.1297 14.7846 11.036C14.722 10.9409 14.639 10.8609 14.5416 10.802C14.4317 10.7416 14.3105 10.7048 14.1856 10.694H14.1165C14.0734 10.6885 14.03 10.6852 13.9865 10.684C13.6395 10.684 13.4395 11.01 11.6165 14.115L11.3295 14.609C9.25455 18.116 9.09855 18.376 8.88155 18.489C8.70371 18.5786 8.50767 18.6262 8.30855 18.628C8.08842 18.6268 7.87261 18.5667 7.68355 18.454C7.50289 18.3545 7.35287 18.2075 7.24959 18.029C7.14372 17.8526 7.08394 17.6525 7.07564 17.447V17.082L9.28853 13.245C11.9105 8.698 11.9106 8.69803 13.2126 8.34503C13.6317 8.2309 14.0693 8.20108 14.5 8.25739C14.9307 8.31369 15.346 8.45494 15.7216 8.67298C16.3631 9.04507 16.8682 9.61332 17.1626 10.294C17.464 11.0085 17.495 11.8084 17.2496 12.544C17.1626 12.812 16.1296 14.627 13.8206 18.607L10.5206 24.276L10.0435 24.701C9.58092 25.1081 9.05292 25.434 8.48164 25.665C7.95659 25.8817 7.39947 26.0108 6.8326 26.047C6.7236 26.046 6.61357 26.046 6.50057 26.046Z" fill="#3A4B4C"/>
</svg>
