<svg width="46" height="46" viewBox="0 0 46 46" fill="none" xmlns="http://www.w3.org/2000/svg">
<path d="M27.5614 45.9901C25.8434 45.9901 24.1694 46.016 22.4964 45.984C17.8739 45.8903 13.3871 44.4041 9.6227 41.7198C5.85826 39.0354 2.99125 35.2778 1.39643 30.9381C-0.547193 25.6012 -0.462139 19.7363 1.63543 14.4581C2.77586 11.555 4.50303 8.91856 6.70892 6.71353C8.91481 4.5085 11.552 2.78235 14.4554 1.64305C17.5622 0.370241 20.9183 -0.176977 24.2684 0.0430544C29.3405 0.292589 34.1798 2.24711 38.0024 5.59005C41.9568 8.92833 44.627 13.538 45.5554 18.6291C46.3877 22.95 45.9654 27.4189 44.3384 31.5075C42.7115 35.596 39.9479 39.1333 36.3744 41.7011C36.2804 41.7681 36.1634 41.818 36.1154 41.969C36.2884 42.118 36.5034 42.0691 36.7004 42.0691C39.5838 42.0731 42.4671 42.0731 45.3504 42.0691C45.9624 42.0691 45.9634 42.0691 45.9644 42.6841C45.9644 43.5951 45.9414 44.5081 45.9754 45.4181C45.9924 45.8761 45.8444 45.996 45.3944 45.995C39.4634 45.982 33.5324 45.9871 27.5574 45.9881M4.81243 17.2451C4.60409 17.9928 4.53861 18.7731 4.61943 19.5451C4.75523 20.6829 5.23213 21.753 5.98745 22.6148C6.74276 23.4765 7.74114 24.0895 8.85136 24.3733C9.96157 24.6571 11.1317 24.5983 12.2079 24.2046C13.284 23.811 14.2159 23.101 14.8811 22.1679C15.5462 21.2347 15.9134 20.1222 15.9345 18.9765C15.9555 17.8308 15.6294 16.7055 14.999 15.7486C14.3686 14.7916 13.4634 14.0478 12.4025 13.6149C11.3415 13.182 10.1743 13.0803 9.05443 13.3231C8.0583 13.5324 7.13765 14.0081 6.3906 14.6995C5.64356 15.3909 5.09812 16.2721 4.81243 17.2491M32.8874 39.1381C34.1053 38.6832 35.1276 37.82 35.7799 36.6955C36.4322 35.571 36.6742 34.255 36.4644 32.9721C36.2858 31.8102 35.7512 30.7323 34.9343 29.8871C34.1173 29.0419 33.0583 28.4708 31.9032 28.2528C30.748 28.0348 29.5537 28.1804 28.4849 28.6697C27.416 29.1589 26.5253 29.9677 25.9354 30.9845C25.3455 32.0013 25.0856 33.1761 25.1915 34.3468C25.2973 35.5175 25.7638 36.6266 26.5265 37.5211C27.2891 38.4156 28.3105 39.0515 29.4498 39.3411C30.5891 39.6307 31.7902 39.5598 32.8874 39.1381ZM18.8504 5.72905C18.2347 6.3747 17.783 7.15874 17.5333 8.01525C17.2836 8.87175 17.2432 9.77568 17.4154 10.6511C17.6504 11.9041 18.3007 13.0414 19.2614 13.8795C20.2222 14.7175 21.4373 15.2074 22.7106 15.2701C23.9839 15.3327 25.2412 14.9645 26.2796 14.2248C27.318 13.4851 28.0768 12.4171 28.4336 11.1932C28.7905 9.96927 28.7245 8.66082 28.2463 7.479C27.7682 6.29718 26.9058 5.31094 25.7983 4.67946C24.6908 4.04798 23.4028 3.80811 22.1422 3.99854C20.8816 4.18898 19.722 4.7986 18.8504 5.72905ZM11.1734 37.9121C11.8004 38.5383 12.5692 39.004 13.4146 39.2695C14.26 39.535 15.157 39.5925 16.0294 39.437C17.2921 39.2329 18.4489 38.6086 19.3126 37.6651C20.1762 36.7216 20.6962 35.5142 20.7882 34.2385C20.8802 32.9627 20.5389 31.6932 19.8196 30.6356C19.1003 29.5779 18.045 28.794 16.8247 28.4108C15.6044 28.0276 14.2904 28.0674 13.0956 28.524C11.9008 28.9805 10.895 29.8269 10.2411 30.9262C9.58728 32.0256 9.32359 33.3134 9.49279 34.5812C9.66199 35.8491 10.2542 37.0227 11.1734 37.9121ZM37.2674 24.3231C38.3096 24.0295 39.246 23.444 39.9663 22.6357C40.6866 21.8273 41.1606 20.8298 41.3325 19.7608C41.5044 18.6919 41.367 17.596 40.9365 16.6026C40.5059 15.6092 39.8003 14.7596 38.9027 14.1541C38.0051 13.5487 36.9531 13.2126 35.8707 13.1854C34.7883 13.1583 33.7208 13.4413 32.794 14.0011C31.8672 14.5609 31.1199 15.374 30.6402 16.3446C30.1604 17.3152 29.9683 18.4028 30.0864 19.4791C30.1821 20.296 30.4531 21.0826 30.8808 21.7852C31.3086 22.4877 31.8831 23.0895 32.565 23.5495C33.2469 24.0094 34.0201 24.3167 34.8317 24.4502C35.6433 24.5837 36.4741 24.5403 37.2674 24.3231ZM24.0734 21.5121C23.9734 21.4531 23.8734 21.3881 23.7614 21.3371C23.4259 21.1793 23.0505 21.1269 22.6847 21.1866C22.3188 21.2464 21.9796 21.4157 21.7118 21.672C21.4439 21.9283 21.26 22.2598 21.1843 22.6227C21.1085 22.9856 21.1445 23.363 21.2874 23.7051C21.4327 24.0588 21.6835 24.3593 22.0055 24.5656C22.3276 24.7719 22.7053 24.874 23.0874 24.8581C23.4536 24.8268 23.803 24.6912 24.0944 24.4674C24.3858 24.2435 24.6069 23.9408 24.7314 23.5951C24.8588 23.2231 24.8636 22.8202 24.7452 22.4453C24.6268 22.0704 24.3914 21.7433 24.0734 21.5121Z" fill="black"/>
</svg>
