<svg width="16" height="16" viewBox="0 0 16 16" fill="none" xmlns="http://www.w3.org/2000/svg">
<path d="M14.3967 1.65601H1.96569C1.39352 1.65601 0.929688 2.11984 0.929688 2.69201C0.929688 3.26417 1.39352 3.72801 1.96569 3.72801H14.3967C14.9689 3.72801 15.4327 3.26417 15.4327 2.69201C15.4327 2.11984 14.9689 1.65601 14.3967 1.65601Z" fill="#212121"/>
<path d="M5.23869 4.618C6.37584 4.618 7.29769 3.69615 7.29769 2.559C7.29769 1.42185 6.37584 0.5 5.23869 0.5C4.10153 0.5 3.17969 1.42185 3.17969 2.559C3.17969 3.69615 4.10153 4.618 5.23869 4.618Z" fill="#212121"/>
<path d="M14.3967 12.7067H1.96569C1.39352 12.7067 0.929688 13.1706 0.929688 13.7427C0.929688 14.3149 1.39352 14.7787 1.96569 14.7787H14.3967C14.9689 14.7787 15.4327 14.3149 15.4327 13.7427C15.4327 13.1706 14.9689 12.7067 14.3967 12.7067Z" fill="#212121"/>
<path d="M5.23869 15.7967C6.37584 15.7967 7.29769 14.8749 7.29769 13.7377C7.29769 12.6006 6.37584 11.6787 5.23869 11.6787C4.10153 11.6787 3.17969 12.6006 3.17969 13.7377C3.17969 14.8749 4.10153 15.7967 5.23869 15.7967Z" fill="#212121"/>
<path d="M14.3967 7.18188H1.96569C1.39352 7.18188 0.929688 7.64572 0.929688 8.21788C0.929688 8.79005 1.39352 9.25388 1.96569 9.25388H14.3967C14.9689 9.25388 15.4327 8.79005 15.4327 8.21788C15.4327 7.64572 14.9689 7.18188 14.3967 7.18188Z" fill="#212121"/>
<path d="M11.1215 10.5019C12.2587 10.5019 13.1805 9.44842 13.1805 8.1489C13.1805 6.84937 12.2587 5.7959 11.1215 5.7959C9.98435 5.7959 9.0625 6.84937 9.0625 8.1489C9.0625 9.44842 9.98435 10.5019 11.1215 10.5019Z" fill="#212121"/>
</svg>
