<svg width="52" height="51" viewBox="0 0 52 51" fill="none" xmlns="http://www.w3.org/2000/svg">
<path id="Caminho 43134" d="M25.9291 50.464C19.6744 50.4574 13.6452 48.1279 9.01098 43.9274C4.37674 39.7269 1.46786 33.9548 0.848626 27.731C0.229395 21.5071 1.94391 15.275 5.65966 10.2438C9.37541 5.21251 14.8274 1.74073 20.9581 0.501888C27.0888 -0.736954 33.4612 0.345467 38.839 3.53918C44.2168 6.73289 48.2166 11.8102 50.0626 17.7862C51.9086 23.7622 51.4692 30.2108 48.8296 35.8812C46.19 41.5515 41.5383 46.0393 35.777 48.474C32.6608 49.7906 29.3119 50.4674 25.9291 50.464ZM29.452 30.59L34.175 35.312C34.4163 35.552 34.7427 35.6868 35.083 35.687H35.089C35.3429 35.6871 35.5913 35.6123 35.803 35.472C36.0134 35.3297 36.1777 35.1292 36.276 34.895C36.3727 34.6602 36.3998 34.4027 36.354 34.153C36.3023 33.9031 36.1782 33.6738 35.9971 33.494L31.274 28.77C32.417 27.218 33.0034 25.3261 32.9386 23.3998C32.8738 21.4735 32.1615 19.6254 30.9169 18.1537C29.6722 16.6821 27.9679 15.673 26.0791 15.2894C24.1903 14.9058 22.2273 15.1701 20.5072 16.0397C18.7871 16.9092 17.4103 18.3331 16.5992 20.0815C15.7882 21.83 15.5901 23.8008 16.0371 25.6756C16.4841 27.5504 17.55 29.2198 19.0627 30.4142C20.5755 31.6085 22.4466 32.2581 24.374 32.258C26.2003 32.2614 27.9791 31.6765 29.447 30.59H29.452ZM24.379 29.69C22.8291 29.6299 21.3627 28.972 20.2873 27.8542C19.212 26.7364 18.6113 25.2455 18.6113 23.6945C18.6113 22.1434 19.212 20.6526 20.2873 19.5348C21.3627 18.417 22.8291 17.759 24.379 17.699V17.705C25.5527 17.7026 26.7012 18.0452 27.6818 18.6902C28.6623 19.3353 29.4316 20.2543 29.894 21.3331C30.3565 22.4118 30.4916 23.6026 30.2827 24.7576C30.0738 25.9125 29.53 26.9806 28.719 27.829C28.68 27.866 28.641 27.897 28.609 27.929C28.577 27.961 28.5441 28.004 28.5181 28.037C27.4032 29.1016 25.9205 29.6948 24.379 29.693V29.69Z" fill="#3A4B4C"/>
</svg>
