<svg width="44" height="44" viewBox="0 0 44 44" fill="none" xmlns="http://www.w3.org/2000/svg">
<path d="M5.73769 43.0539C5.25474 43.0757 4.77252 42.997 4.32159 42.8227C3.87066 42.6484 3.46086 42.3824 3.11817 42.0414C2.77548 41.7004 2.50737 41.2919 2.33084 40.8418C2.15432 40.3918 2.07322 39.9099 2.09269 39.4269C2.07669 34.6859 2.09269 29.9439 2.09269 25.2029C2.09269 25.1429 2.10169 25.0829 2.10969 24.9779C2.21151 25.009 2.31164 25.0454 2.40969 25.0869C3.77248 25.7665 5.28112 26.1015 6.80345 26.0626C8.32579 26.0237 9.81536 25.6121 11.1417 24.8639C11.273 24.7796 11.426 24.7356 11.582 24.7372C11.738 24.7388 11.8902 24.7859 12.0197 24.8729C13.4304 25.6446 15.0145 26.0441 16.6225 26.0336C18.2304 26.0231 19.8092 25.6029 21.2097 24.8129C21.309 24.7456 21.4262 24.7096 21.5462 24.7096C21.6662 24.7096 21.7834 24.7456 21.8827 24.8129C23.3171 25.6275 24.9392 26.0538 26.5887 26.0498C28.2383 26.0457 29.8583 25.6115 31.2887 24.7899C31.3819 24.7286 31.4908 24.6955 31.6023 24.6944C31.7138 24.6933 31.8233 24.7244 31.9177 24.7839C33.2797 25.5654 34.8155 25.9938 36.3854 26.0299C37.9552 26.0661 39.5092 25.7089 40.9057 24.9909L41.1167 24.8849V25.3849C41.1167 30.0169 41.1167 34.6502 41.1167 39.2849C41.1542 39.7907 41.082 40.2987 40.905 40.7741C40.7281 41.2494 40.4506 41.681 40.0915 42.0392C39.7324 42.3975 39.3002 42.674 38.8244 42.8498C38.3486 43.0256 37.8404 43.0966 37.3347 43.0579C35.0814 43.0579 32.828 43.0579 30.5747 43.0579H30.1067V42.5299C30.1067 39.4319 30.1067 36.3336 30.1067 33.2349C30.1479 32.5256 29.936 31.8247 29.5088 31.257C29.0815 30.6893 28.4667 30.2917 27.7737 30.1349C27.4829 30.076 27.1863 30.0505 26.8897 30.0589C23.3564 30.0542 19.82 30.0542 16.2807 30.0589C15.8491 30.0278 15.4159 30.0902 15.0106 30.2419C14.6053 30.3936 14.2376 30.631 13.9325 30.9378C13.6273 31.2446 13.392 31.6137 13.2426 32.0198C13.0932 32.4259 13.0332 32.8595 13.0667 33.2909C13.0627 36.3576 13.0627 39.4242 13.0667 42.4909V43.0359C12.9117 43.0449 12.7767 43.0599 12.6427 43.0599C11.2427 43.0599 9.84269 43.0599 8.44269 43.0599C7.54069 43.0592 6.63902 43.0572 5.73769 43.0539ZM16.0867 43.0169C16.0807 42.8949 16.0677 42.7599 16.0677 42.6249C16.0677 39.6996 16.0677 36.7739 16.0677 33.8479C16.0677 33.1769 16.1887 33.0559 16.8587 33.0559C20.0187 33.0559 23.179 33.0559 26.3397 33.0559C26.9687 33.0559 27.0997 33.1909 27.1007 33.8309C27.1007 35.1309 27.1007 36.4309 27.1007 37.7739V43.0169H16.0867ZM4.50669 22.6429C3.3937 22.29 2.40142 21.6332 1.64167 20.7466C0.881925 19.86 0.384925 18.7788 0.206689 17.6249C-0.175962 15.6008 -0.0355276 13.5125 0.614689 11.5579C1.64169 8.56489 2.61469 5.55089 3.64469 2.55789C3.89022 2.01216 4.19006 1.49254 4.53969 1.00689C4.88159 0.677376 5.28531 0.418761 5.72759 0.245936C6.16986 0.0731099 6.64196 -0.0105117 7.11669 -0.000113209C16.756 0.00588679 26.3954 0.00755346 36.0347 0.00488679C36.816 -0.0341685 37.5873 0.193607 38.2221 0.650811C38.8568 1.10802 39.3172 1.76747 39.5277 2.52089C40.5747 5.63989 41.6727 8.74289 42.6357 11.8869C43.4377 14.1689 43.4151 16.6598 42.5717 18.9269C42.175 19.9456 41.5252 20.8463 40.6838 21.5442C39.8423 22.2421 38.837 22.7141 37.7625 22.9157C36.688 23.1172 35.5799 23.0417 34.5428 22.6961C33.5056 22.3506 32.5736 21.7465 31.8347 20.9409C31.7641 20.8525 31.7019 20.7577 31.6487 20.6579C31.0335 21.3885 30.2682 21.978 29.4047 22.3863C28.5413 22.7947 27.6001 23.0122 26.645 23.0242C25.69 23.0361 24.7436 22.8422 23.8702 22.4556C22.9968 22.069 22.217 21.4989 21.5837 20.7839C20.9562 21.4934 20.1847 22.0611 19.3206 22.449C18.4564 22.8369 17.5196 23.0362 16.5724 23.0335C15.6252 23.0309 14.6894 22.8264 13.8275 22.4336C12.9655 22.0409 12.1972 21.4689 11.5737 20.7559C11.3357 20.9729 11.1057 21.2009 10.8567 21.4059C9.70445 22.4268 8.22774 23.0064 6.68869 23.0419C5.94365 23.0372 5.20517 22.9022 4.50669 22.6429Z" fill="black"/>
</svg>
