<svg width="29" height="29" viewBox="0 0 29 29" fill="none" xmlns="http://www.w3.org/2000/svg">
<path d="M14.2577 28.426C11.7715 28.4261 9.33179 27.7526 7.19785 26.4768C5.06392 25.2011 3.31558 23.371 2.13873 21.181H2.12873C0.615611 18.3692 0.127287 15.1189 0.747408 11.9867C1.36753 8.85444 3.0575 6.03532 5.52782 4.01224C7.99814 1.98916 11.0951 0.888021 14.2881 0.89746C17.4811 0.906899 20.5714 2.02633 23.0297 4.06398L18.5707 7.71498C17.5266 7.0629 16.3487 6.655 15.125 6.52173C13.9012 6.38846 12.6631 6.53325 11.5031 6.9453C10.3431 7.35734 9.29112 8.02601 8.42564 8.90141C7.56016 9.77682 6.90352 10.8364 6.50472 12.001C5.89594 13.7962 5.92241 15.746 6.57973 17.524V17.536H6.58472C7.00427 18.6522 7.66243 19.6635 8.51324 20.499C9.36406 21.3346 10.387 21.9743 11.5107 22.3736C12.6344 22.7729 13.8316 22.9221 15.0189 22.8107C16.2062 22.6994 17.3549 22.3302 18.3847 21.729V21.722C20.0034 20.769 21.2481 19.2918 21.9127 17.535H14.5477V12.095H27.7757C28.1539 14.0842 28.0884 16.1323 27.5839 18.0933C27.0795 20.0543 26.1485 21.8798 24.8574 23.4396C23.5663 24.9994 21.9468 26.255 20.1146 27.1169C18.2824 27.9789 16.2826 28.4258 14.2577 28.426Z" fill="black"/>
</svg>
