<svg width="35" height="30" viewBox="0 0 35 30" fill="none" xmlns="http://www.w3.org/2000/svg">
<path opacity="0.2" fill-rule="evenodd" clip-rule="evenodd" d="M16.2086 0.094006C15.2424 0.287712 14.359 0.773234 13.6776 1.48501C13.1776 1.98501 1.87758 20.665 0.813584 22.759C0.487824 23.4151 0.310216 24.1348 0.293322 24.8672C0.276428 25.5995 0.420662 26.3266 0.71582 26.9971C1.01098 27.6675 1.44985 28.265 2.0014 28.7471C2.55294 29.2292 3.20368 29.5842 3.90758 29.787L4.43258 29.939H17.2086C31.5426 29.939 30.2826 29.983 31.3706 29.448C32.5416 28.8553 33.4337 27.8273 33.8554 26.5845C34.2772 25.3416 34.195 23.983 33.6266 22.8C33.1536 21.863 21.2886 2.07601 20.9916 1.72801C20.4027 1.06652 19.653 0.568392 18.815 0.281931C17.9769 -0.00452903 17.0791 -0.0686074 16.2086 0.094006ZM18.0756 6.41901C18.3097 6.53784 18.5178 6.70189 18.6881 6.90169C18.8584 7.10148 18.9874 7.33305 19.0676 7.58301C19.2266 10.6482 19.2085 13.7199 19.0136 16.783C18.8653 17.1395 18.6147 17.4441 18.2934 17.6584C17.9722 17.8727 17.5947 17.987 17.2086 17.987C16.8224 17.987 16.445 17.8727 16.1237 17.6584C15.8025 17.4441 15.5519 17.1395 15.4036 16.783C15.2086 13.7199 15.1906 10.6482 15.3496 7.58301C15.4314 7.31249 15.5714 7.06319 15.76 6.85267C15.9485 6.64216 16.1809 6.47554 16.4408 6.36457C16.7007 6.25359 16.9818 6.20095 17.2642 6.21035C17.5467 6.21976 17.8236 6.29098 18.0756 6.41901ZM18.3716 20.33C18.8531 20.5395 19.2689 20.8754 19.5751 21.3019C19.8814 21.7285 20.0665 22.2299 20.1111 22.7531C20.1556 23.2763 20.0579 23.8018 19.8282 24.274C19.5984 24.7462 19.2453 25.1475 18.8062 25.4354C18.3671 25.7233 17.8583 25.8871 17.3336 25.9095C16.809 25.9318 16.2881 25.8119 15.8261 25.5625C15.364 25.313 14.978 24.9432 14.709 24.4923C14.4399 24.0414 14.2977 23.5261 14.2976 23.001C14.2917 22.5156 14.4083 22.0366 14.6364 21.6081C14.8645 21.1796 15.1969 20.8155 15.6028 20.5494C16.0088 20.2832 16.4752 20.1236 16.9591 20.0853C17.443 20.0469 17.9288 20.1311 18.3716 20.33Z" fill="black"/>
</svg>
