<svg width="26" height="26" viewBox="0 0 26 26" fill="none" xmlns="http://www.w3.org/2000/svg">
<path opacity="0.4" d="M21.4449 3.67899C19.6884 1.92251 17.4504 0.726357 15.014 0.241781C12.5776 -0.242794 10.0522 0.00597507 7.75725 0.956632C5.46225 1.90729 3.50068 3.51714 2.1206 5.5826C0.74052 7.64807 0.00390625 10.0764 0.00390625 12.5605C0.00390625 15.0446 0.74052 17.4729 2.1206 19.5384C3.50068 21.6039 5.46225 23.2137 7.75725 24.1644C10.0522 25.115 12.5776 25.3638 15.014 24.8792C17.4504 24.3946 19.6884 23.1985 21.4449 21.442C22.6113 20.2757 23.5365 18.891 24.1678 17.3672C24.799 15.8433 25.1239 14.21 25.1239 12.5605C25.1239 10.911 24.799 9.27773 24.1678 7.75383C23.5365 6.22994 22.6113 4.84531 21.4449 3.67899ZM6.30393 21.7C6.56343 20.2273 7.33356 18.8932 8.47903 17.9319C9.6245 16.9706 11.0721 16.4437 12.5674 16.4437C14.0628 16.4437 15.5104 16.9706 16.6558 17.9319C17.8013 18.8932 18.5714 20.2273 18.8309 21.7C16.9874 22.9657 14.8036 23.6432 12.5674 23.6432C10.3312 23.6432 8.14746 22.9657 6.30393 21.7ZM8.57093 10.981C8.57093 10.1911 8.80517 9.41886 9.24404 8.76205C9.68291 8.10524 10.3067 7.59332 11.0365 7.29102C11.7663 6.98872 12.5694 6.90963 13.3441 7.06374C14.1189 7.21785 14.8305 7.59824 15.3891 8.15681C15.9477 8.71538 16.3281 9.42704 16.4822 10.2018C16.6363 10.9766 16.5572 11.7796 16.2549 12.5094C15.9526 13.2392 15.4407 13.863 14.7839 14.3019C14.1271 14.7408 13.3549 14.975 12.5649 14.975C11.5057 14.975 10.4898 14.5542 9.74074 13.8052C8.99172 13.0562 8.57093 12.0403 8.57093 10.981ZM20.1009 20.681C19.7779 19.5382 19.1997 18.4837 18.4098 17.597C17.6199 16.7102 16.6389 16.0144 15.5409 15.562C16.5293 14.9198 17.2836 13.9754 17.6914 12.8695C18.0992 11.7636 18.1385 10.5556 17.8037 9.42547C17.4688 8.29538 16.7776 7.30381 15.8331 6.59864C14.8887 5.89347 13.7416 5.51247 12.5629 5.51247C11.3843 5.51247 10.2372 5.89347 9.29273 6.59864C8.34828 7.30381 7.65707 8.29538 7.32219 9.42547C6.98731 10.5556 7.02669 11.7636 7.43446 12.8695C7.84224 13.9754 8.59656 14.9198 9.58493 15.562C8.4869 16.0143 7.50593 16.7101 6.71601 17.5969C5.92609 18.4836 5.34786 19.5382 5.02493 20.681C3.39056 19.1657 2.25076 17.1931 1.75417 15.0205C1.25758 12.8478 1.42727 10.5759 2.24109 8.50106C3.05491 6.42625 4.4751 4.64485 6.31642 3.38919C8.15774 2.13353 10.3347 1.4619 12.5634 1.4619C14.7921 1.4619 16.9691 2.13353 18.8104 3.38919C20.6518 4.64485 22.0719 6.42625 22.8858 8.50106C23.6996 10.5759 23.8693 12.8478 23.3727 15.0205C22.8761 17.1931 21.7353 19.1657 20.1009 20.681Z" fill="#3A4B4C"/>
</svg>
