<svg width="29" height="26" viewBox="0 0 29 26" fill="none" xmlns="http://www.w3.org/2000/svg">
<path opacity="0.2" fill-rule="evenodd" clip-rule="evenodd" d="M0.744539 0.210041C0.137539 0.526041 0.106539 0.642044 0.102539 2.57904C0.102539 4.53904 0.159538 4.73304 0.867538 5.00204C1.40654 5.20204 27.2205 5.20904 27.6195 5.00204C28.6375 4.47504 28.6375 0.802043 27.6195 0.275043C27.1065 0.00904334 1.25354 -0.0549591 0.744539 0.210041ZM12.0775 12.88C12.0775 22.08 12.3195 20.874 10.1775 22.304C8.45454 23.457 8.31854 23.64 8.40454 24.678C8.39841 24.8588 8.42912 25.0388 8.49479 25.2073C8.56047 25.3758 8.65973 25.5291 8.78654 25.658L9.11554 26.002H20.1115L20.4405 25.658C20.5674 25.5291 20.6666 25.3758 20.7323 25.2073C20.798 25.0388 20.8287 24.8588 20.8225 24.678C20.9085 23.639 20.7725 23.457 19.0495 22.304C16.9125 20.874 17.1495 22.076 17.1495 12.88V4.99904H12.0775V12.878" fill="black"/>
</svg>
