<svg width="38" height="39" viewBox="0 0 38 39" fill="none" xmlns="http://www.w3.org/2000/svg">
<path opacity="0.2" fill-rule="evenodd" clip-rule="evenodd" d="M24.202 3.41895V5.91895L20.972 8.07195L17.742 10.2249V14.1929H37.412V10.2369L34.112 8.06395L30.812 5.89095V0.918945H24.212V3.41895M0.25 22.8389V27.1939L7.925 27.1759L15.6 27.1579L15.62 22.8189L15.639 18.4819H0.25V22.8389ZM17.742 28.2819V38.0819H37.412V18.4819H17.742V28.2819ZM12.226 21.9309V22.9829H3.661V20.8829H12.226V21.9349M24.202 21.9349V22.9869H22.102V20.8869H24.202V21.9389M28.557 21.9389V22.9909H26.45V20.8909H28.55V21.9429M32.905 21.9429V22.9949H30.805V20.8949H32.905V21.9469M32.905 29.3869V33.7419H22.097V25.0189H32.912V29.3739M0.25 33.6889V38.0799H15.637V29.2979H0.25V33.6889ZM12.226 32.6729V33.7249H3.661V31.6189H12.226V32.6709" fill="black"/>
</svg>
