<svg width="25" height="25" viewBox="0 0 25 25" fill="none" xmlns="http://www.w3.org/2000/svg">
<path opacity="0.4" d="M6.27929 23.322L6.15526 23.25L0.894278 24.942C0.826648 24.9664 0.755092 24.9782 0.683219 24.977C0.578763 24.9765 0.476001 24.9512 0.383292 24.903C0.287341 24.8541 0.2041 24.7834 0.140372 24.6966C0.076644 24.6098 0.0341332 24.5092 0.0162265 24.403C-0.000648951 24.2969 0.00794374 24.1882 0.0412509 24.086L1.7412 18.828L1.66625 18.704C0.16033 16.079 -0.340919 12.9963 0.255728 10.0293C0.852376 7.06238 2.50629 4.41311 4.9099 2.57424C7.31351 0.735366 10.3032 -0.167939 13.3229 0.0323275C16.3426 0.232594 19.1868 1.5228 21.3265 3.66298C23.4662 5.80317 24.7558 8.64765 24.9554 11.6674C25.155 14.6872 24.2511 17.6767 22.4117 20.0799C20.5723 22.4831 17.9228 24.1364 14.9557 24.7324C11.9886 25.3284 8.90599 24.8265 6.28124 23.32L6.27929 23.322ZM6.60229 21.929C8.33141 23.0076 10.3234 23.5908 12.3612 23.615H12.4983C14.9632 23.6131 17.3577 22.7927 19.3058 21.2825C21.2539 19.7723 22.6453 17.6578 23.2615 15.2712C23.8777 12.8845 23.6838 10.3608 22.7103 8.09621C21.7368 5.83167 20.0387 3.95457 17.8828 2.75965C15.7269 1.56472 13.2351 1.11964 10.7988 1.49428C8.36252 1.86893 6.11966 3.04209 4.42235 4.82955C2.72504 6.61702 1.66942 8.91757 1.42126 11.37C1.17309 13.8224 1.74645 16.2878 3.05126 18.379C3.10564 18.4624 3.13985 18.5572 3.15124 18.656C3.16293 18.7545 3.15233 18.8543 3.12023 18.948L1.74023 23.239L6.03124 21.858C6.09969 21.8374 6.1708 21.8266 6.2423 21.826C6.37068 21.8248 6.49663 21.8605 6.60522 21.929H6.60229ZM16.2543 12.486C16.2516 12.2382 16.3252 11.9956 16.4652 11.791C16.6016 11.5851 16.7968 11.4249 17.0253 11.331C17.2538 11.2367 17.505 11.2122 17.7474 11.2607C17.9898 11.3091 18.2124 11.4282 18.3872 11.603C18.5612 11.7785 18.6801 12.0009 18.7292 12.243C18.7796 12.486 18.7534 12.7386 18.6543 12.966C18.5601 13.1937 18.4006 13.3884 18.1959 13.5256C17.9913 13.6628 17.7506 13.7364 17.5043 13.737C17.3398 13.7377 17.177 13.7054 17.0253 13.642C16.872 13.5793 16.7326 13.4868 16.6152 13.37C16.5015 13.2527 16.4109 13.1149 16.3483 12.964C16.2861 12.8123 16.2542 12.65 16.2543 12.486ZM11.2472 12.486C11.2449 12.2381 11.3189 11.9955 11.4592 11.791C11.5956 11.5851 11.7907 11.4248 12.0193 11.331C12.2478 11.2367 12.499 11.2122 12.7414 11.2607C12.9839 11.3091 13.2065 11.4282 13.3812 11.603C13.5552 11.7785 13.6741 12.0009 13.7233 12.243C13.7737 12.486 13.7495 12.7386 13.654 12.9677C13.5586 13.1968 13.3963 13.3917 13.1882 13.527C13.0178 13.6408 12.8221 13.7109 12.6182 13.7309C12.4142 13.751 12.2086 13.7205 12.0193 13.642C11.8684 13.5803 11.7321 13.4876 11.6193 13.37C11.5013 13.2547 11.4081 13.1165 11.3452 12.964C11.2821 12.8125 11.2492 12.6502 11.2483 12.486H11.2472ZM6.23522 12.486C6.23503 12.3006 6.27608 12.1174 6.35546 11.9498C6.43484 11.7821 6.5506 11.6343 6.6942 11.5169C6.83781 11.3996 7.00572 11.3156 7.18578 11.2712C7.36584 11.2267 7.5535 11.2229 7.73522 11.26C7.97774 11.3085 8.20045 11.4277 8.37524 11.6027C8.55002 11.7776 8.66909 12.0005 8.71728 12.243C8.76151 12.4862 8.73576 12.7369 8.64318 12.966C8.54855 13.1948 8.38802 13.3903 8.182 13.5276C7.97597 13.6649 7.73378 13.7378 7.4862 13.737C7.3219 13.7365 7.15925 13.7043 7.00719 13.642C6.85802 13.5772 6.72243 13.4849 6.60729 13.37C6.49153 13.2543 6.40058 13.1162 6.3402 12.964C6.27152 12.814 6.23574 12.651 6.23522 12.486Z" fill="#3A4B4C"/>
</svg>
