<svg width="41" height="41" viewBox="0 0 41 41" fill="none" xmlns="http://www.w3.org/2000/svg">
<path d="M22.7836 20.6399L16.3626 14.2179C16.187 14.0415 16.0884 13.8028 16.0884 13.5539C16.0884 13.305 16.187 13.0663 16.3626 12.8899L16.9246 12.3279C17.1008 12.152 17.3397 12.0533 17.5886 12.0533C17.8376 12.0533 18.0764 12.152 18.2526 12.3279L25.8976 19.9729C26.0733 20.1502 26.1719 20.3898 26.1719 20.6394C26.1719 20.889 26.0733 21.1286 25.8976 21.3059L18.2596 28.9389C18.0833 29.1145 17.8445 29.2131 17.5956 29.2131C17.3467 29.2131 17.108 29.1145 16.9316 28.9389L16.3716 28.3769C16.1958 28.2007 16.097 27.9619 16.097 27.7129C16.097 27.4639 16.1958 27.2251 16.3716 27.0489L22.7836 20.6399Z" fill="#B2B3BF"/>
</svg>
