<svg width="25" height="25" viewBox="0 0 25 22" fill="none" xmlns="http://www.w3.org/2000/svg">
<path d="M12.2433 21.986C11.7284 21.9859 11.231 21.799 10.8433 21.46C9.92734 20.66 9.06033 19.918 8.25133 19.23C6.18765 17.577 4.25982 15.7611 2.48635 13.8C0.943637 12.1366 0.0601421 9.96792 0.00133206 7.70001V7.69299C-0.0352979 5.69236 0.684695 3.75168 2.01732 2.25903L2.02434 2.25104C2.67469 1.54196 3.46526 0.975687 4.34594 0.588196C5.22661 0.200705 6.17819 0.00041214 7.14034 1.54832e-07H7.21035C8.68409 0.00172831 10.1144 0.499041 11.2713 1.41199C11.6217 1.68468 11.9492 1.98572 12.2503 2.31201C12.5511 1.98602 12.8778 1.68501 13.2273 1.41199C14.3851 0.498172 15.8164 0.000215956 17.2913 -0.00195297H17.3483C18.3112 -0.00215621 19.2635 0.197815 20.1449 0.585327C21.0264 0.97284 21.8176 1.5394 22.4683 2.24902L22.4753 2.25702C23.8085 3.749 24.5289 5.68949 24.4923 7.69V7.69604C24.4352 9.96335 23.5534 12.132 22.0123 13.796C20.236 15.7554 18.3055 17.5692 16.2393 19.22C15.6093 19.757 14.6573 20.57 13.6393 21.456C13.2533 21.7956 12.7574 21.9839 12.2433 21.986ZM1.55733 7.66302C1.60749 9.55212 2.34449 11.3582 3.63033 12.743L3.63732 12.751C5.35986 14.6545 7.23256 16.4165 9.23732 18.02L9.25533 18.035C10.0353 18.699 10.9463 19.475 11.8723 20.287C11.9754 20.377 12.1075 20.4268 12.2443 20.427H12.2493C12.3863 20.4264 12.5184 20.3763 12.6213 20.286C13.6473 19.386 14.6083 18.569 15.2423 18.029L15.2613 18.013C17.2659 16.4114 19.1386 14.6514 20.8613 12.75L20.8673 12.744C22.1523 11.3579 22.8876 9.55057 22.9353 7.66101C22.9641 6.05522 22.3863 4.49763 21.3173 3.29901C20.8126 2.74974 20.1993 2.31128 19.5162 2.01141C18.8332 1.71155 18.0953 1.55681 17.3493 1.55701H17.2923C16.1672 1.55836 15.0752 1.93848 14.1923 2.63605C13.6942 3.02568 13.2544 3.48465 12.8863 3.99902L12.2513 4.88605L11.6183 3.99805C11.2528 3.48356 10.8149 3.02446 10.3183 2.63501C9.43559 1.93746 8.34342 1.55805 7.21834 1.55804H7.14834C6.40305 1.55846 5.66597 1.71346 4.98366 2.01331C4.30136 2.31315 3.68867 2.75126 3.18435 3.29999C2.11239 4.49782 1.53141 6.05579 1.55733 7.66302Z" fill="#B0B7B7"/>
</svg>
