<svg width="23" height="26" viewBox="0 0 23 26" fill="none" xmlns="http://www.w3.org/2000/svg">
<path id="path0" fill-rule="evenodd" clip-rule="evenodd" d="M10.4839 1.00902C7.9965 1.24074 5.66716 2.33052 3.89522 4.09154C2.12328 5.85256 1.01912 8.17512 0.772032 10.6611C0.524939 13.147 1.15031 15.6415 2.54092 17.7168C3.93154 19.7922 6.00079 21.3192 8.39392 22.036L9.20692 22.282L10.1959 23.609C10.7399 24.338 11.2489 25.014 11.3269 25.109L11.4689 25.284L11.5689 25.159C11.6249 25.09 12.1429 24.41 12.7209 23.647C13.7029 22.352 13.7879 22.256 14.0129 22.198C15.8188 21.7605 17.4808 20.8634 18.8376 19.5939C20.1944 18.3243 21.1998 16.7255 21.7562 14.9527C22.3126 13.1798 22.4012 11.2932 22.0132 9.47609C21.6252 7.65894 20.7739 5.97301 19.5419 4.58202C18.4072 3.33094 16.9996 2.35797 15.4283 1.73852C13.857 1.11908 12.1641 0.869804 10.4809 1.01002M12.8149 3.97102C19.1759 4.93302 21.5429 13.35 16.6329 17.548C15.64 18.4175 14.443 19.0214 13.1536 19.3032C11.8643 19.5851 10.5245 19.5357 9.25933 19.1598C7.99417 18.7839 6.84484 18.0936 5.91857 17.1535C4.9923 16.2133 4.31927 15.0538 3.96226 13.7831C3.60525 12.5125 3.57591 11.1722 3.87696 9.88712C4.17801 8.60208 4.79965 7.41424 5.68388 6.43441C6.56812 5.45457 7.68613 4.71467 8.93362 4.28374C10.1811 3.8528 11.5174 3.74487 12.8179 3.97001M10.9079 5.23602C9.5684 5.35547 8.29938 5.88931 7.27727 6.76331C6.25516 7.6373 5.53075 8.80804 5.20474 10.1128C4.87873 11.4175 4.96732 12.7914 5.45819 14.0434C5.94907 15.2955 6.81784 16.3635 7.94374 17.0989C9.06963 17.8344 10.3967 18.2009 11.7405 18.1473C13.0842 18.0937 14.3779 17.6228 15.4417 16.8001C16.5055 15.9773 17.2865 14.8435 17.6761 13.5564C18.0658 12.2692 18.0448 10.8926 17.6159 9.61802C17.1507 8.24145 16.2365 7.0611 15.0201 6.26644C13.8036 5.47177 12.3554 5.10888 10.9079 5.23602Z" fill="#A4A4A4"/>
</svg>
