<svg width="29" height="37" viewBox="0 0 29 37" fill="none" xmlns="http://www.w3.org/2000/svg">
<path opacity="0.2" fill-rule="evenodd" clip-rule="evenodd" d="M5.03146 0.335984C4.87957 0.438591 4.74604 0.566039 4.63646 0.712984L4.46546 0.952984L4.44646 9.81898L4.42746 18.685H3.76446C3.20265 18.6835 2.65272 18.8467 2.18273 19.1545C1.71274 19.4623 1.34332 19.9012 1.12016 20.4168C0.897 20.9324 0.829908 21.5021 0.927184 22.0554C1.02446 22.6088 1.28183 23.1214 1.66746 23.53C2.14446 24.04 2.43446 24.185 3.89046 24.645C4.60146 24.869 5.24746 25.079 5.32646 25.112C5.72046 25.273 11.7915 29.437 11.8805 29.606C12.0885 30.006 12.0375 30.046 8.32646 32.518C6.36046 33.828 4.76546 34.939 4.66846 35.066C4.54259 35.2442 4.46772 35.4534 4.45188 35.6711C4.43604 35.8887 4.47985 36.1065 4.57859 36.3011C4.67733 36.4957 4.82725 36.6597 5.01224 36.7755C5.19723 36.8912 5.41028 36.9543 5.62846 36.958C6.14146 36.958 5.90746 37.098 10.4385 34.077C11.7767 33.1258 13.1617 32.2424 14.5885 31.43C15.8562 32.1436 17.0825 32.9285 18.2615 33.781C23.1075 37.045 22.9615 36.958 23.4335 36.958C23.6117 36.9678 23.7898 36.9366 23.9541 36.8667C24.1183 36.7968 24.2643 36.69 24.3807 36.5547C24.4972 36.4195 24.581 36.2592 24.6257 36.0864C24.6704 35.9136 24.6747 35.7328 24.6385 35.558C24.5635 35.058 24.4385 34.963 20.8035 32.515C17.1885 30.084 17.1035 30.015 17.2785 29.634C18.3674 28.7794 19.5025 27.9852 20.6785 27.255L23.9945 25.049L25.2505 24.649C27.5215 23.918 28.1575 23.249 28.1575 21.567C28.1831 21.1881 28.1282 20.8081 27.9963 20.452C27.8644 20.0959 27.6585 19.7717 27.3923 19.5009C27.126 19.2302 26.8054 19.0189 26.4516 18.881C26.0978 18.7431 25.7187 18.6818 25.3395 18.701H24.6755V1.16298L24.5105 0.843984C24.3917 0.607234 24.1979 0.416429 23.9594 0.301312C23.7208 0.186196 23.4509 0.153236 23.1917 0.207572C22.9324 0.261908 22.6985 0.400485 22.5262 0.601702C22.354 0.802919 22.2532 1.05547 22.2395 1.31998C22.1475 2.07898 22.1285 2.09398 21.0475 2.20498C16.7146 2.62399 12.3514 2.62399 8.01846 2.20498C6.97546 2.09198 6.95446 2.07498 6.86246 1.32198C6.84746 1.11519 6.78047 0.915537 6.6677 0.741547C6.55494 0.567557 6.40005 0.424868 6.21742 0.326719C6.03479 0.228569 5.83032 0.17814 5.623 0.180109C5.41567 0.182079 5.2122 0.236383 5.03146 0.337984M19.2535 14.623C21.7135 14.836 21.8215 14.853 22.0355 15.067L22.2355 15.267L22.2105 17.33L22.1915 19.398L21.4865 19.554C16.8064 20.5533 11.9657 20.5301 7.29546 19.486L6.90046 19.395L6.88646 17.33L6.86746 15.263L7.06746 15.063C7.28746 14.842 7.70546 14.78 9.99346 14.625C10.5855 14.585 11.2315 14.54 11.4295 14.525C12.1495 14.471 18.4175 14.546 19.2545 14.619M17.1105 26.422C17.1705 26.612 17.1105 26.668 15.8995 27.469C14.5335 28.376 14.6785 28.376 13.3165 27.469C11.4895 26.256 11.4485 26.293 14.6215 26.291C16.9275 26.291 17.0725 26.297 17.1115 26.42" fill="black"/>
</svg>
