<svg width="25" height="25" viewBox="0 0 22 27" fill="none" xmlns="http://www.w3.org/2000/svg">
<path opacity="0.4" fill-rule="evenodd" clip-rule="evenodd" d="M21.0081 21.632C20.8957 21.6324 20.7845 21.6098 20.6812 21.5654C20.578 21.521 20.485 21.4558 20.4081 21.374L18.7491 19.715V22.642C18.7459 23.709 18.3198 24.7312 17.5642 25.4846C16.8085 26.2379 15.7851 26.661 14.718 26.661H7.11006C6.04489 26.6586 5.02401 26.2344 4.27081 25.4812C3.51762 24.728 3.09343 23.7072 3.09105 22.642V19.754L1.46906 21.376C1.30767 21.5374 1.08878 21.628 0.86055 21.628C0.632318 21.628 0.413444 21.5374 0.25206 21.376C0.0906757 21.2146 7.21442e-09 20.9957 0 20.7675C-7.21445e-09 20.5393 0.0906757 20.3204 0.25206 20.159L3.09105 17.32V7.83199C3.09105 6.80387 3.29355 5.78582 3.687 4.83596C4.08044 3.8861 4.65712 3.02304 5.38411 2.29605C6.1111 1.56906 6.97417 0.992382 7.92403 0.598938C8.87388 0.205494 9.89194 0.00299072 10.9201 0.00299072C11.9482 0.00299072 12.9662 0.205494 13.9161 0.598938C14.8659 0.992382 15.729 1.56906 16.456 2.29605C17.183 3.02304 17.7597 3.8861 18.1531 4.83596C18.5466 5.78582 18.7491 6.80387 18.7491 7.83199V14.142L17.0251 12.426V7.82598C17.0251 6.20591 16.3815 4.65219 15.2359 3.50662C14.0904 2.36106 12.5366 1.71749 10.9165 1.71749C9.29647 1.71749 7.74276 2.36106 6.5972 3.50662C5.45163 4.65219 4.80806 6.20591 4.80806 7.82598V15.594L9.19606 11.206C9.65775 10.7457 10.2831 10.4872 10.9351 10.4872C11.587 10.4872 12.2124 10.7457 12.6741 11.206L21.6221 20.154C21.7417 20.2756 21.8228 20.4298 21.8552 20.5973C21.8876 20.7648 21.8699 20.9382 21.8042 21.0956C21.7385 21.2531 21.6279 21.3877 21.4861 21.4826C21.3443 21.5775 21.1777 21.6284 21.007 21.629L21.0081 21.632ZM17.0251 17.994L11.4571 12.426C11.3171 12.2901 11.1297 12.214 10.9346 12.214C10.7394 12.214 10.552 12.2901 10.412 12.426L4.81206 18.026V22.642C4.81206 22.944 4.87155 23.2431 4.98714 23.5222C5.10272 23.8012 5.27213 24.0548 5.4857 24.2683C5.69928 24.4819 5.95284 24.6513 6.23189 24.7669C6.51094 24.8825 6.81002 24.942 7.11206 24.942H14.7201C15.3305 24.942 15.916 24.6998 16.3482 24.2686C16.7803 23.8374 17.0237 23.2524 17.0251 22.642V17.994Z" fill="#3A4B4C"/>
</svg>
