<svg width="35" height="36" viewBox="0 0 35 36" fill="none" xmlns="http://www.w3.org/2000/svg">
<rect width="35" height="36" fill="#F5F5F5"/>
<g id="Payments">
<rect width="1920" height="2135" transform="translate(-134 -182)" fill="white"/>
<g id="Group 4">
<g id="Clip path group">
<mask id="mask0_0_1" style="mask-type:luminance" maskUnits="userSpaceOnUse" x="-134" y="-182" width="1920" height="1080">
<g id="clip-path">
<path id="Vector" d="M1786 -182H-134V898H1786V-182Z" fill="white"/>
</g>
</mask>
<g mask="url(#mask0_0_1)">
<g id="Repeti&#195;&#167;&#195;&#163;o de grade 1" opacity="0.1">
<g id="Group">
<path id="Elipse 17" d="M0 2C1.10457 2 2 1.10457 2 0C2 -1.10457 1.10457 -2 0 -2C-1.10457 -2 -2 -1.10457 -2 0C-2 1.10457 -1.10457 2 0 2Z" fill="#123554"/>
</g>
<g id="Group_2">
<path id="Elipse 17_2" d="M22 2C23.1046 2 24 1.10457 24 0C24 -1.10457 23.1046 -2 22 -2C20.8954 -2 20 -1.10457 20 0C20 1.10457 20.8954 2 22 2Z" fill="#123554"/>
</g>
<g id="Group_3">
<path id="Elipse 17_3" d="M0 22C1.10457 22 2 21.1046 2 20C2 18.8954 1.10457 18 0 18C-1.10457 18 -2 18.8954 -2 20C-2 21.1046 -1.10457 22 0 22Z" fill="#123554"/>
</g>
<g id="Group_4">
<path id="Elipse 17_4" d="M22 22C23.1046 22 24 21.1046 24 20C24 18.8954 23.1046 18 22 18C20.8954 18 20 18.8954 20 20C20 21.1046 20.8954 22 22 22Z" fill="#123554"/>
</g>
</g>
</g>
</g>
<path id="Ret&#195;&#162;ngulo 4879" d="M1786 -182H-134V177H1786V-182Z" fill="url(#paint0_linear_0_1)"/>
</g>
<g id="Grupo 163498">
<path id="Exclus&#195;&#163;o 32" d="M29.0522 35.2676H9.69189C9.65859 35.2694 9.62559 35.2694 9.59229 35.2676H5.38428C3.95826 35.2665 2.59066 34.7005 1.58203 33.6924C0.573401 32.6843 0.0057599 31.3166 0.00390625 29.8906V8.90527C0.00549435 7.47863 0.573242 6.11035 1.58203 5.10156C2.59082 4.09277 3.95861 3.526 5.38525 3.52441H7.06787V2.17676C7.0684 1.8202 7.21028 1.47868 7.4624 1.22656C7.71452 0.974441 8.05653 0.83256 8.41309 0.832031C8.76973 0.832294 9.11179 0.97368 9.36426 1.22559C9.61673 1.47749 9.7592 1.81914 9.76025 2.17578V3.52441H15.811V2.17676C15.8116 1.82003 15.9537 1.47871 16.2061 1.22656C16.4584 0.974412 16.8005 0.832296 17.1572 0.832031C17.5138 0.832295 17.8556 0.973652 18.1079 1.22559C18.3602 1.47752 18.5021 1.81923 18.5029 2.17578V3.52441H24.6221V2.17676C24.6223 1.82021 24.7644 1.47858 25.0166 1.22656C25.2688 0.974542 25.6107 0.833008 25.9673 0.833008C26.3239 0.833007 26.6656 0.974571 26.918 1.22656C27.1703 1.47855 27.3125 1.82012 27.313 2.17676V3.52441H29.063C30.4895 3.526 31.857 4.09299 32.8657 5.10156C33.8745 6.11014 34.442 7.47783 34.4438 8.9043V29.8916C34.4407 31.3192 33.8713 32.6873 32.8604 33.6953C31.8494 34.7033 30.4798 35.2686 29.0522 35.2676ZM26.252 25.4238C25.908 25.4252 25.5787 25.563 25.3359 25.8066C25.0932 26.0503 24.957 26.3797 24.957 26.7236C24.9577 26.8936 24.9919 27.0619 25.0576 27.2188C25.1233 27.3756 25.2191 27.518 25.3398 27.6377C25.4606 27.7574 25.6039 27.8526 25.7612 27.917C25.9186 27.9814 26.0868 28.0135 26.2568 28.0127C26.5989 28.0124 26.9271 27.8766 27.1689 27.6348C27.4108 27.3929 27.5466 27.0647 27.5469 26.7227C27.5519 26.5494 27.5223 26.3773 27.4595 26.2158C27.3966 26.0543 27.302 25.9074 27.1812 25.7832C27.0599 25.6595 26.9151 25.5611 26.7554 25.4941C26.5957 25.4272 26.4242 25.3924 26.251 25.3926L26.252 25.4238ZM20.4253 25.4238C20.0828 25.4259 19.7546 25.5632 19.5127 25.8057C19.2708 26.0482 19.1346 26.3762 19.1333 26.7188C19.1328 27.0617 19.2683 27.3908 19.5103 27.6338C19.7533 27.8759 20.0822 28.012 20.4253 28.0127C20.7682 28.0111 21.0965 27.8744 21.3389 27.6318C21.5812 27.3893 21.7179 27.0607 21.7192 26.7178C21.7241 26.5446 21.6941 26.3723 21.6309 26.2109C21.5676 26.0496 21.4723 25.9031 21.3511 25.7793C21.2302 25.6549 21.0853 25.5555 20.9253 25.4883C20.7653 25.4211 20.5934 25.3869 20.4199 25.3877L20.4253 25.4238ZM14.0913 25.4238C13.7476 25.4254 13.4183 25.563 13.1758 25.8066C12.9333 26.0503 12.7969 26.3799 12.7969 26.7236C12.7977 27.0663 12.9347 27.3947 13.1772 27.6367C13.4198 27.8787 13.7486 28.0146 14.0913 28.0146C14.4333 28.0123 14.7603 27.8758 15.002 27.6338C15.2436 27.3918 15.38 27.0637 15.3818 26.7217C15.3864 26.5489 15.3566 26.3769 15.2939 26.2158C15.2313 26.0548 15.1372 25.9084 15.0171 25.7842C14.8964 25.6608 14.7522 25.5622 14.5933 25.4951C14.4343 25.428 14.2639 25.393 14.0913 25.3926V25.4238ZM8.26318 25.4238C7.91944 25.4254 7.59016 25.563 7.34766 25.8066C7.10515 26.0503 6.96923 26.3799 6.96924 26.7236C6.97003 27.0663 7.10653 27.3947 7.34912 27.6367C7.59171 27.8787 7.92051 28.0146 8.26318 28.0146C8.60658 28.0147 8.93612 27.8788 9.17969 27.6367C9.42326 27.3946 9.56087 27.066 9.56299 26.7227C9.56742 26.5498 9.53745 26.3779 9.47461 26.2168C9.41176 26.0557 9.31758 25.9093 9.19727 25.7852C9.07677 25.6612 8.93265 25.5624 8.77344 25.4951C8.61422 25.4278 8.44289 25.3927 8.27002 25.3926L8.26318 25.4238ZM26.2529 19.6035C26.083 19.6027 25.9146 19.6349 25.7573 19.6992C25.6 19.7635 25.4571 19.8579 25.3364 19.9775C25.2157 20.0971 25.1195 20.2398 25.0537 20.3965C24.988 20.5532 24.9539 20.7207 24.9531 20.8906C24.9544 21.2337 25.0914 21.5631 25.334 21.8057C25.5766 22.0482 25.905 22.1852 26.248 22.1865C26.4177 22.1864 26.5855 22.152 26.7422 22.0869C26.8989 22.0219 27.0413 21.9267 27.1611 21.8066C27.281 21.6866 27.3761 21.5445 27.4409 21.3877C27.5057 21.2309 27.5392 21.0622 27.5391 20.8926C27.5506 20.716 27.5256 20.5395 27.4653 20.373C27.4051 20.2066 27.3108 20.0541 27.189 19.9258C27.0671 19.7976 26.9203 19.6958 26.7573 19.627C26.5944 19.5581 26.4191 19.5243 26.2422 19.5264L26.2529 19.6035ZM20.4263 19.6035C20.0846 19.6035 19.7566 19.7382 19.5146 19.9795C19.2727 20.2207 19.1363 20.5479 19.1353 20.8896C19.1345 21.0598 19.167 21.2292 19.2314 21.3867C19.2959 21.5442 19.3908 21.6869 19.5107 21.8076C19.6307 21.9284 19.7731 22.0243 19.9302 22.0898C20.0872 22.1554 20.2561 22.19 20.4263 22.1904C20.77 22.1888 21.0988 22.0512 21.3413 21.8076C21.5838 21.564 21.7202 21.2334 21.7202 20.8896C21.7307 20.7132 21.7048 20.5371 21.644 20.3711C21.5833 20.2051 21.4891 20.0528 21.3672 19.9248C21.2453 19.7966 21.098 19.6948 20.9351 19.626C20.7721 19.5572 20.5968 19.5234 20.4199 19.5254L20.4263 19.6035ZM14.0923 19.6035C13.7501 19.6032 13.4213 19.7381 13.1787 19.9795C12.9362 20.2209 12.7992 20.5484 12.7979 20.8906C12.7992 21.2335 12.9364 21.5621 13.1787 21.8047C13.4211 22.0472 13.7494 22.1849 14.0923 22.1865C14.262 22.1863 14.4297 22.1521 14.5864 22.0869C14.7431 22.0217 14.8856 21.9259 15.0054 21.8057C15.1252 21.6854 15.22 21.5427 15.2847 21.3857C15.3493 21.2288 15.3822 21.0604 15.3818 20.8906C15.3928 20.7145 15.3676 20.5381 15.3076 20.3721C15.2476 20.2061 15.1543 20.0542 15.0332 19.9258C14.9118 19.7983 14.7655 19.6977 14.6035 19.6289C14.4415 19.5601 14.2673 19.5252 14.0913 19.5264L14.0923 19.6035ZM8.26416 19.6035C7.92193 19.6032 7.59363 19.7381 7.35107 19.9795C7.10852 20.2209 6.97154 20.5484 6.97021 20.8906C6.97153 21.2335 7.10823 21.5621 7.35059 21.8047C7.59295 22.0472 7.92128 22.1849 8.26416 22.1865C8.43412 22.1869 8.60217 22.1537 8.75928 22.0889C8.91639 22.024 9.05946 21.9287 9.17969 21.8086C9.29991 21.6885 9.39501 21.5457 9.45996 21.3887C9.52491 21.2316 9.55837 21.0625 9.55811 20.8926C9.56898 20.7161 9.54329 20.5402 9.48291 20.374C9.42253 20.2078 9.32866 20.0551 9.20703 19.9268C9.08626 19.7982 8.94039 19.6957 8.77832 19.626C8.61625 19.5563 8.44155 19.5216 8.26514 19.5225L8.26416 19.6035ZM26.2529 13.7764C25.9097 13.7764 25.5806 13.9126 25.3379 14.1553C25.0952 14.3979 24.959 14.7271 24.959 15.0703C24.9603 15.4132 25.097 15.7418 25.3394 15.9844C25.5817 16.2269 25.9101 16.3637 26.2529 16.3652C26.4227 16.365 26.5908 16.3308 26.7476 16.2656C26.9043 16.2004 27.0471 16.1056 27.167 15.9854C27.2869 15.8651 27.3816 15.7224 27.4463 15.5654C27.511 15.4085 27.5442 15.2401 27.5439 15.0703C27.5466 14.8984 27.5152 14.7279 27.4512 14.5684C27.3871 14.4088 27.2917 14.2629 27.1709 14.1406C27.0498 14.0185 26.9059 13.9216 26.7471 13.8555C26.5883 13.7894 26.4181 13.7557 26.2461 13.7559L26.2529 13.7764ZM20.4272 13.7764C20.0847 13.7772 19.756 13.9136 19.5142 14.1562C19.2723 14.3989 19.1369 14.7277 19.1372 15.0703C19.1368 15.24 19.1697 15.4075 19.2344 15.5645C19.299 15.7214 19.3939 15.8642 19.5137 15.9844C19.6335 16.1046 19.7759 16.2005 19.9326 16.2656C20.0893 16.3308 20.2575 16.3641 20.4272 16.3643C20.5973 16.3644 20.7653 16.3306 20.9224 16.2656C21.0795 16.2007 21.2225 16.1055 21.3428 15.9854C21.463 15.8652 21.5584 15.7225 21.6235 15.5654C21.6886 15.4084 21.7222 15.2403 21.7222 15.0703C21.7248 14.898 21.6928 14.7263 21.6284 14.5664C21.564 14.4065 21.4685 14.2611 21.3472 14.1387C21.2257 14.0166 21.081 13.9202 20.9219 13.8545C20.7627 13.7887 20.5921 13.7551 20.4199 13.7559L20.4272 13.7764ZM14.0933 13.7764C13.9232 13.7762 13.7548 13.8091 13.5977 13.874C13.4405 13.939 13.2975 14.0341 13.1772 14.1543C13.057 14.2745 12.9616 14.4172 12.8965 14.5742C12.8314 14.7313 12.7979 14.9003 12.7979 15.0703C12.7992 15.4134 12.9361 15.7418 13.1787 15.9844C13.4213 16.2269 13.7502 16.3639 14.0933 16.3652C14.4358 16.3631 14.7634 16.2259 15.0054 15.9834C15.2473 15.7409 15.3839 15.4128 15.3853 15.0703C15.3879 14.8986 15.356 14.7277 15.292 14.5684C15.2279 14.409 15.1329 14.2637 15.0122 14.1416C14.892 14.0194 14.7485 13.9227 14.5903 13.8564C14.4322 13.7902 14.2628 13.7559 14.0913 13.7559L14.0933 13.7764ZM8.26611 13.7764C8.0961 13.7762 7.92762 13.8091 7.77051 13.874C7.6134 13.939 7.47085 14.0341 7.35059 14.1543C7.23032 14.2745 7.13492 14.4172 7.06982 14.5742C7.00473 14.7313 6.97119 14.9003 6.97119 15.0703C6.97251 15.4142 7.10986 15.7436 7.35352 15.9863C7.59717 16.229 7.92708 16.3652 8.271 16.3652C8.61387 16.3637 8.94221 16.2269 9.18457 15.9844C9.42693 15.7418 9.56363 15.4132 9.56494 15.0703C9.56773 14.8986 9.53622 14.7277 9.47217 14.5684C9.40811 14.409 9.31276 14.2636 9.19189 14.1416C9.07148 14.0193 8.92831 13.9227 8.77002 13.8564C8.61173 13.7902 8.44162 13.7559 8.27002 13.7559L8.26611 13.7764Z" fill="#252849"/>
<g id="Ret&#195;&#162;ngulo 149500" opacity="0.2">
<path id="Vector_2" d="M325.079 -11.5H8.979C-7.3018 -11.5 -20.5 1.6982 -20.5 17.979V17.98C-20.5 34.2608 -7.3018 47.459 8.979 47.459H325.079C341.36 47.459 354.558 34.2608 354.558 17.98V17.979C354.558 1.6982 341.36 -11.5 325.079 -11.5Z" stroke="#252849"/>
</g>
</g>
</g>
<defs>
<linearGradient id="paint0_linear_0_1" x1="-134" y1="-182" x2="-4.28399" y2="511.746" gradientUnits="userSpaceOnUse">
<stop stop-color="white"/>
<stop offset="1" stop-color="white" stop-opacity="0"/>
</linearGradient>
</defs>
</svg>
