<svg width="53" height="53" viewBox="0 0 53 53" fill="none" xmlns="http://www.w3.org/2000/svg">
<path opacity="0.2" d="M17.8335 51.2414C14.5333 50.1279 11.5024 48.3368 8.93556 45.9826C6.36869 43.6284 4.32281 40.7633 2.92872 37.5715C2.35146 36.3122 1.89919 34.9993 1.57862 33.6516C1.49806 33.3611 1.50807 33.0523 1.60743 32.7678C1.7068 32.4832 1.89045 32.2359 2.13429 32.0588C2.36598 31.865 2.65068 31.7457 2.95118 31.715C3.25169 31.6844 3.55426 31.7439 3.82032 31.8869C4.05618 32.01 4.26033 32.1862 4.41651 32.4016C4.57269 32.6169 4.67702 32.8657 4.72071 33.1281C5.37168 35.6329 6.48208 37.9947 7.99562 40.0939C10.3352 43.3923 13.5352 45.9854 17.2471 47.59C20.9589 49.1947 25.0399 49.7498 29.0454 49.1945C31.4627 48.8347 33.8048 48.0809 35.9785 46.9641C40.3066 44.7425 43.7748 41.1475 45.8394 36.7424C45.9284 36.5604 45.9965 36.3686 46.1055 36.1066C45.7126 36.2076 45.3289 36.3408 44.9585 36.506C44.66 36.6187 44.334 36.6379 44.0244 36.5607C43.7148 36.4836 43.4363 36.314 43.2256 36.0744C43.0114 35.8488 42.8704 35.5632 42.8213 35.256C42.7722 34.9489 42.8175 34.6338 42.9507 34.3527C43.0322 34.1632 43.1513 33.9929 43.3008 33.8508C43.4503 33.7086 43.6269 33.5984 43.8203 33.5266C45.3133 32.8905 46.8027 32.2499 48.3057 31.6359C48.5054 31.5332 48.7249 31.4752 48.9492 31.465C49.1736 31.4549 49.3973 31.493 49.6055 31.5773C49.8137 31.6616 50.0012 31.7899 50.1553 31.9533C50.3094 32.1167 50.4266 32.3118 50.4985 32.5246C51.1505 34.0286 51.7838 35.5417 52.3984 37.0637C52.5617 37.4463 52.5668 37.8777 52.4121 38.2639C52.2575 38.65 51.956 38.9591 51.5737 39.1232C51.2032 39.2931 50.7805 39.3098 50.3975 39.1701C50.0145 39.0305 49.7016 38.7457 49.5274 38.3771C49.3774 38.0911 49.2603 37.7892 49.1123 37.4572C48.966 37.5823 48.8615 37.7486 48.8125 37.9348C47.334 41.164 45.1853 44.042 42.5093 46.3771C39.8333 48.7123 36.6912 50.451 33.2915 51.4787C31.1216 52.1506 28.8629 52.494 26.5913 52.4963C26.4233 52.4963 26.2563 52.4963 26.0913 52.4963C23.2869 52.5568 20.4933 52.1323 17.8335 51.2414ZM30.1333 42.3137C29.6923 42.3137 29.2464 42.3137 28.7964 42.3137H26.1773C23.9623 42.3137 21.7663 42.3137 19.5723 42.3137C19.2254 42.3302 18.8794 42.2732 18.5557 42.1476C18.2319 42.0221 17.9379 41.8303 17.6929 41.5842C17.4479 41.3381 17.2574 41.0432 17.1333 40.7189C17.0092 40.3946 16.9545 40.0481 16.9727 39.7014C16.9727 32.18 16.9727 24.657 16.9727 17.133C16.9559 16.7859 17.0121 16.4394 17.1377 16.1154C17.2633 15.7915 17.4553 15.4972 17.7017 15.2521C17.948 15.0071 18.2433 14.8165 18.5679 14.6926C18.8925 14.5687 19.2395 14.5148 19.5864 14.5334C19.7254 14.5334 19.8457 14.5334 19.9517 14.5334C20.7787 14.5464 20.6516 14.5539 20.6616 13.4279C20.6616 12.8659 20.6546 12.3015 20.6616 11.7375C20.6616 11.3397 20.8193 10.9582 21.1006 10.6769C21.3819 10.3956 21.7638 10.2375 22.1616 10.2375C24.8783 10.2248 27.5949 10.2248 30.3115 10.2375C30.5091 10.2381 30.7047 10.2778 30.8867 10.3547C31.0688 10.4315 31.2338 10.5436 31.3721 10.6848C31.5103 10.8259 31.6188 10.9934 31.6919 11.1769C31.765 11.3605 31.8008 11.5565 31.7974 11.7541C31.8114 12.5381 31.8104 13.3275 31.7974 14.1105C31.7974 14.4105 31.8974 14.5572 32.2134 14.5422C32.4694 14.5272 32.7264 14.5362 32.9824 14.5422C33.3121 14.5384 33.6394 14.6006 33.9448 14.7248C34.2503 14.849 34.5277 15.033 34.7612 15.2658C34.9948 15.4986 35.1795 15.7752 35.3047 16.0803C35.4299 16.3853 35.4934 16.7124 35.4907 17.0422C35.4954 24.6348 35.4954 32.2266 35.4907 39.8166C35.4953 40.1462 35.4336 40.4731 35.3096 40.7785C35.1856 41.0839 35.0016 41.3609 34.7686 41.5939C34.5355 41.827 34.258 42.0109 33.9526 42.1349C33.6473 42.259 33.3203 42.3212 32.9907 42.3166C32.3997 42.3236 31.8093 42.3234 31.2153 42.3234L30.1333 42.3137ZM25.1167 28.259C25.1617 28.494 24.9975 28.5938 24.8975 28.7228C24.5315 29.1938 24.1486 29.657 23.7896 30.133C23.6127 30.3455 23.504 30.6059 23.4771 30.881C23.4501 31.1562 23.5064 31.4332 23.6387 31.676C23.745 31.9079 23.9106 32.1072 24.1192 32.2541C24.3277 32.401 24.5715 32.49 24.8257 32.5119C25.0799 32.5338 25.3353 32.4882 25.5659 32.3791C25.7965 32.27 25.9944 32.1012 26.1387 31.8908C27.2597 30.5348 28.3487 29.1525 29.4487 27.7765C29.6689 27.5576 29.8124 27.273 29.8589 26.966C29.9054 26.659 29.852 26.3458 29.7066 26.0715C29.5712 25.8027 29.3574 25.5808 29.0938 25.4357C28.8301 25.2906 28.529 25.2286 28.2295 25.258C27.8911 25.3231 27.5408 25.2786 27.2295 25.131C27.6035 24.645 27.9516 24.1876 28.3086 23.7316C28.4593 23.5851 28.5774 23.4075 28.6548 23.2121C28.7322 23.0167 28.7672 22.8078 28.7578 22.5978C28.7484 22.3879 28.6947 22.182 28.6001 21.9943C28.5055 21.8067 28.3722 21.6414 28.209 21.509C28.0458 21.3765 27.856 21.2797 27.6528 21.2258C27.4497 21.1718 27.2377 21.1614 27.0303 21.1955C26.8229 21.2295 26.625 21.308 26.4497 21.424C26.2745 21.5401 26.126 21.6917 26.0137 21.8693C25.0557 23.0693 24.1073 24.284 23.1133 25.55C22.8623 25.7734 22.6915 26.0728 22.6265 26.4025C22.5615 26.7322 22.606 27.0742 22.7534 27.3762C22.9048 27.6665 23.1435 27.9019 23.436 28.049C23.7286 28.1962 24.0599 28.248 24.3833 28.1965C24.5013 28.1965 24.6237 28.1769 24.7427 28.1769C24.8722 28.1739 25.0006 28.2014 25.1167 28.259ZM48.6245 20.633C48.3868 20.4954 48.1832 20.3064 48.0288 20.0793C47.8744 19.8521 47.773 19.5931 47.7324 19.3215C47.318 17.8216 46.7486 16.3691 46.0327 14.9875C44.1411 11.3325 41.2593 8.28344 37.7168 6.18866C34.1743 4.09388 30.1142 3.03723 26 3.14081C21.8858 3.24438 17.8838 4.50324 14.4512 6.77362C11.0186 9.04399 8.29368 12.2351 6.58839 15.9806C6.89293 15.9691 7.19019 15.8819 7.45362 15.7287C7.66383 15.6418 7.88991 15.6022 8.1172 15.6105C8.34449 15.6189 8.56775 15.6755 8.77101 15.7775C8.97427 15.8796 9.15296 16.0241 9.29542 16.2014C9.43789 16.3787 9.54079 16.5844 9.59669 16.8049C9.69656 17.1542 9.66782 17.5284 9.51612 17.8586C9.36443 18.1887 9.09966 18.4539 8.76954 18.6056C7.19454 19.3057 5.60641 19.9882 4.00441 20.6252C3.81707 20.7027 3.61632 20.7413 3.41358 20.7394C3.21085 20.7376 3.01062 20.6954 2.82472 20.6144C2.63882 20.5335 2.47106 20.4159 2.33155 20.2687C2.19205 20.1216 2.08363 19.9479 2.01271 19.758C1.37204 18.2847 0.748898 16.8043 0.143565 15.3156C-0.00122784 14.9773 -0.0405997 14.6024 0.0307721 14.2414C0.102144 13.8804 0.280835 13.5499 0.543467 13.2922C0.804353 13.0967 1.11737 12.9828 1.44288 12.965C1.7684 12.9472 2.09193 13.0267 2.37257 13.1926C2.64999 13.3661 2.86676 13.621 2.99269 13.923L3.40235 14.8478C3.61735 14.8318 3.61449 14.6679 3.66749 14.5549C6.0991 9.26728 10.2962 4.99169 15.5376 2.4621C18.2737 1.08019 21.2591 0.261159 24.3174 0.0538922C34.7734 -0.565108 42.7633 3.62832 48.3003 12.4943C49.4471 14.4036 50.3066 16.4712 50.8506 18.631C50.9673 18.9469 50.9818 19.2918 50.8921 19.6164C50.8024 19.941 50.613 20.2295 50.3506 20.4406C50.0787 20.6767 49.7316 20.8073 49.3716 20.8107C49.1124 20.8091 48.8569 20.7479 48.6245 20.633Z" fill="black"/>
</svg>
