<svg width="26" height="25" viewBox="0 0 26 25" fill="none" xmlns="http://www.w3.org/2000/svg">
<path fill-rule="evenodd" clip-rule="evenodd" d="M12.6838 0.0199697C10.5743 0.143718 8.53119 0.803519 6.74776 1.93698C4.96433 3.07043 3.4995 4.64008 2.49181 6.49746C1.48411 8.35485 0.966856 10.4386 0.988961 12.5516C1.01107 14.6646 1.5718 16.7371 2.61813 18.573C3.66447 20.4089 5.16182 21.9475 6.96857 23.0434C8.77532 24.1393 10.8318 24.7562 12.9434 24.8358C15.055 24.9154 17.1521 24.4551 19.0362 23.4983C20.9203 22.5415 22.5292 21.1199 23.7108 19.368C24.9947 17.4456 25.718 15.2038 25.7999 12.8936C25.8817 10.5834 25.3188 8.29596 24.1741 6.28757C23.0295 4.27919 21.3483 2.62911 19.319 1.52215C17.2896 0.415182 14.9921 -0.104961 12.6838 0.0199697ZM15.1988 1.58497C17.6367 1.98191 19.8701 3.18783 21.5393 5.00853C23.2084 6.82922 24.2163 9.15872 24.4004 11.6219C24.5846 14.085 23.9344 16.5385 22.5545 18.5872C21.1746 20.6358 19.1453 22.1604 16.7935 22.9155C14.4417 23.6705 11.9043 23.612 9.58972 22.7495C7.27519 21.8869 5.31832 20.2705 4.03426 18.1604C2.75019 16.0504 2.21366 13.5696 2.51107 11.1175C2.80848 8.66546 3.92251 6.38485 5.67378 4.64297C6.9067 3.41665 8.41281 2.5001 10.0685 1.96853C11.7243 1.43696 13.4824 1.30551 15.1988 1.58497ZM14.9728 8.65997L11.2408 10.41L9.49477 14.171C8.53477 16.24 7.75677 17.94 7.76677 17.95C7.77677 17.96 9.47377 17.18 11.5378 16.218L15.2918 14.467L17.0328 10.722C17.9888 8.66197 18.7748 6.96197 18.7758 6.94297C18.7758 6.88397 18.8098 6.86997 14.9758 8.66297M13.7448 11.33C14.0196 11.4508 14.2403 11.6685 14.365 11.9417C14.4897 12.2148 14.5095 12.5242 14.4208 12.811C14.3462 13.0429 14.2032 13.2469 14.0105 13.3961C13.8179 13.5453 13.5847 13.6328 13.3414 13.647C13.0982 13.6613 12.8563 13.6016 12.6476 13.4759C12.4389 13.3502 12.273 13.1644 12.1719 12.9427C12.0707 12.721 12.0389 12.474 12.0807 12.2339C12.1225 11.9939 12.2359 11.7721 12.406 11.5977C12.5761 11.4232 12.795 11.3043 13.0339 11.2565C13.2729 11.2088 13.5207 11.2344 13.7448 11.33Z" fill="#3A4B4C"/>
</svg>
