<svg width="49" height="39" viewBox="0 0 49 39" fill="none" xmlns="http://www.w3.org/2000/svg">
<path opacity="0.2" fill-rule="evenodd" clip-rule="evenodd" d="M6.85996 0.291032C5.47022 0.667192 4.20414 1.40293 3.18924 2.42415C2.17435 3.44536 1.44649 4.71598 1.07896 6.10803C0.88896 6.86803 0.87896 7.26003 0.87896 17.108V27.314L1.27896 26.83C1.97491 26.0094 2.84226 25.3513 3.81996 24.902C5.65196 24.013 4.76996 24.071 17.098 24.03L27.985 23.994V1.68003H32.768V24.004H35.83C38.9 24.004 39.918 24.083 40.452 24.359L40.738 24.507V13.547C40.738 1.00003 40.807 1.96003 39.838 0.990034C38.852 0.00403351 40.438 0.090032 22.924 0.090032C8.14396 0.095032 7.58096 0.103032 6.85996 0.291032ZM42.27 5.18003C42.304 5.35103 42.332 10.725 42.332 17.123V28.756L43.951 28.818C46.127 28.902 46.9 29.126 48.062 30.009L48.662 30.463L48.687 19.986C48.715 8.36303 48.753 9.09303 48.051 7.75104C47.5811 6.86973 46.8776 6.1348 46.0177 5.62679C45.1578 5.11879 44.1746 4.85731 43.176 4.87103H42.209L42.271 5.18203M5.51296 25.782C4.26968 26.1393 3.16291 26.8629 2.337 27.8586C1.51109 28.8542 1.00437 30.0756 0.882924 31.3635C0.761476 32.6513 1.03094 33.9459 1.65617 35.0784C2.2814 36.2109 3.23338 37.1286 4.38796 37.712C5.74496 38.396 4.26696 38.354 26.11 38.325L45.87 38.299L46.47 38.006C47.0432 37.719 47.5407 37.3009 47.9221 36.7857C48.3036 36.2704 48.5582 35.6725 48.6653 35.0405C48.7724 34.4084 48.7291 33.76 48.5388 33.1478C48.3485 32.5356 48.0166 31.9769 47.57 31.517C47.2416 31.2013 46.8715 30.9322 46.47 30.717L45.87 30.424L26.289 30.399C6.88896 30.374 6.70496 30.376 6.38296 30.572C6.15568 30.7271 5.9697 30.9353 5.84118 31.1786C5.71265 31.4219 5.64547 31.6929 5.64547 31.968C5.64547 32.2432 5.71265 32.5142 5.84118 32.7574C5.9697 33.0007 6.15568 33.209 6.38296 33.364C6.70396 33.564 6.92396 33.564 25.669 33.564C46.308 33.564 45.235 33.535 45.378 34.106C45.4117 34.1924 45.4279 34.2846 45.4257 34.3773C45.4235 34.4699 45.403 34.5612 45.3652 34.6459C45.3274 34.7306 45.2732 34.8069 45.2057 34.8704C45.1382 34.934 45.0587 34.9834 44.972 35.016C44.539 35.197 7.96596 35.232 6.85996 35.053C6.11058 34.9552 5.42248 34.5878 4.92432 34.0195C4.42617 33.4512 4.15208 32.7209 4.15331 31.9651C4.15453 31.2094 4.43099 30.48 4.93098 29.9133C5.43097 29.3466 6.12026 28.9814 6.86996 28.886C7.28796 28.818 13 28.786 23.598 28.786C39.48 28.786 39.698 28.786 40.016 28.586C40.2432 28.4311 40.4292 28.2229 40.5578 27.9797C40.6863 27.7365 40.7535 27.4656 40.7535 27.1905C40.7535 26.9154 40.6863 26.6445 40.5578 26.4013C40.4292 26.1581 40.2432 25.95 40.016 25.795C39.54 25.505 6.50896 25.495 5.51596 25.784" fill="black"/>
</svg>
