<svg width="19" height="27" viewBox="0 0 19 27" fill="none" xmlns="http://www.w3.org/2000/svg">
<path d="M0.0353163 15.8851C0.42813 14.9861 0.882205 14.1151 1.39437 13.2779C3.65363 9.13093 5.92341 4.98941 8.2037 0.853312C8.3239 0.581906 8.52578 0.354425 8.7814 0.202348C9.03702 0.05027 9.33376 -0.018892 9.63055 0.0044304C9.91454 0.0240947 10.1848 0.133501 10.4021 0.316738C10.6194 0.499975 10.7724 0.747492 10.8389 1.02332C10.8756 1.20173 10.8902 1.38399 10.8821 1.56595C10.8821 4.01128 10.8915 6.45661 10.8763 8.90193C10.8763 9.2862 10.9803 9.41194 11.3741 9.40962C13.3899 9.39331 15.4069 9.40263 17.4227 9.40962C17.6772 9.38932 17.9326 9.43494 18.1642 9.54206C18.3958 9.64918 18.5956 9.81416 18.7444 10.021C18.9049 10.2459 18.9939 10.5137 18.9997 10.7897C19.0055 11.0657 18.928 11.337 18.7771 11.5685C17.8025 13.3419 16.8419 15.1235 15.8708 16.8993C14.2059 19.9455 12.5407 22.9913 10.8751 26.0367C10.7754 26.2929 10.6073 26.5171 10.389 26.685C10.1707 26.8529 9.91041 26.9581 9.6364 26.9892C9.43904 27.0143 9.23854 26.9956 9.04926 26.9345C8.85998 26.8734 8.6866 26.7715 8.54146 26.6358C8.39633 26.5002 8.28303 26.3344 8.2097 26.1501C8.13636 25.9658 8.10478 25.7676 8.11722 25.5697C8.11255 23.1252 8.11255 20.6799 8.11722 18.2338C8.11722 17.6131 8.11724 17.6015 7.48037 17.6003C5.67607 17.6003 3.87062 17.6003 2.06632 17.6003C1.83261 17.6003 1.58719 17.591 1.3488 17.5665C1.14401 17.5622 0.942756 17.5125 0.75969 17.4209C0.576623 17.3294 0.416369 17.1983 0.290552 17.0372C0.164734 16.8762 0.0765424 16.6892 0.032392 16.4899C-0.0117584 16.2906 -0.0107686 16.084 0.0353163 15.8851Z" fill="#4AEAB1"/>
</svg>
