<svg width="29" height="28" viewBox="0 0 29 28" fill="none" xmlns="http://www.w3.org/2000/svg">
<path d="M25.978 7.44092L22.578 5.92992L21.069 2.53392L17.369 2.91992L14.365 0.733917L11.355 2.91492L7.66403 2.53392L6.15303 5.93392L2.75403 7.43392L3.14103 11.1339L0.957031 14.1439L3.13803 17.1539L2.75103 20.8449L6.15103 22.3559L7.66403 25.7559L11.364 25.3699L14.371 27.5509L17.381 25.3699L21.072 25.7559L22.583 22.3559L25.983 20.8439L25.596 17.1439L27.778 14.1369L25.588 11.1339L25.978 7.44092ZM11.678 19.5089L7.88303 15.7169L9.14803 14.4569L11.681 16.9819L19.262 9.39392L20.527 10.6579L11.678 19.5089Z" fill="#4AEAB1"/>
<path d="M28.135 13.8839L26.053 11.0129L26.423 7.48993C26.4328 7.39603 26.4127 7.30143 26.3654 7.2197C26.3182 7.13796 26.2463 7.07328 26.16 7.03493L22.92 5.58993L21.479 2.34993C21.4404 2.26385 21.3757 2.19211 21.294 2.14491C21.2123 2.0977 21.1179 2.07741 21.024 2.08693L17.501 2.45593L14.627 0.374929C14.5507 0.319554 14.4588 0.289734 14.3645 0.289734C14.2702 0.289734 14.1783 0.319554 14.102 0.374929L11.231 2.45593L7.70101 2.08993C7.60724 2.08102 7.51302 2.10157 7.43147 2.1487C7.34992 2.19584 7.28509 2.26723 7.24601 2.35293L5.80801 5.58993L2.56901 7.03193C2.48274 7.07028 2.41082 7.13496 2.36358 7.2167C2.31633 7.29843 2.29618 7.39303 2.30601 7.48693L2.67401 11.0129L0.593008 13.8839C0.537633 13.9603 0.507812 14.0521 0.507812 14.1464C0.507812 14.2407 0.537633 14.3326 0.593008 14.4089L2.67401 17.2799L2.30601 20.8059C2.29618 20.8998 2.31633 20.9944 2.36358 21.0762C2.41082 21.1579 2.48274 21.2226 2.56901 21.2609L5.80901 22.7019L7.25001 25.9419C7.28897 26.0277 7.35378 26.0992 7.43536 26.1464C7.51694 26.1935 7.61122 26.214 7.70501 26.2049L11.231 25.8359L14.101 27.9169C14.1773 27.9723 14.2692 28.0021 14.3635 28.0021C14.4578 28.0021 14.5497 27.9723 14.626 27.9169L17.501 25.8359L21.027 26.2049C21.1209 26.2144 21.2153 26.1942 21.297 26.147C21.3787 26.0997 21.4434 26.028 21.482 25.9419L22.923 22.7019L26.162 21.2599C26.2483 21.2216 26.3202 21.1569 26.3674 21.0752C26.4147 20.9934 26.4348 20.8988 26.425 20.8049L26.056 17.2789L28.137 14.4079C28.1924 14.3316 28.2222 14.2397 28.2222 14.1454C28.2222 14.0511 28.1924 13.9593 28.137 13.8829L28.135 13.8839ZM25.23 16.8899C25.1651 16.9791 25.1355 17.0892 25.147 17.1989L25.501 20.5759L22.401 21.9559C22.2997 22.0006 22.2187 22.0816 22.174 22.1829L20.799 25.2829L17.425 24.9309C17.3156 24.9197 17.2059 24.9492 17.117 25.0139L14.37 27.0039L11.62 25.0139C11.544 24.9584 11.4522 24.9286 11.358 24.9289C11.343 24.9278 11.328 24.9278 11.313 24.9289L7.93901 25.2809L6.56101 22.1799C6.51606 22.0788 6.43517 21.9979 6.33401 21.9529L3.22901 20.5759L3.58101 17.2019C3.59394 17.0916 3.56543 16.9804 3.50101 16.8899L1.51101 14.1399L3.50101 11.3899C3.56577 11.3007 3.59532 11.1906 3.58401 11.0809L3.22901 7.71593L6.32901 6.33593C6.43039 6.2913 6.51138 6.21031 6.55601 6.10893L7.93101 3.00893L11.305 3.36093C11.4144 3.37171 11.5239 3.34219 11.613 3.27793L14.364 1.28993L17.114 3.27993C17.2031 3.34436 17.3126 3.37389 17.422 3.36293L20.801 3.01093L22.176 6.11093C22.221 6.21209 22.3018 6.29298 22.403 6.33793L25.501 7.71693L25.147 11.0899C25.1355 11.1996 25.1651 11.3097 25.23 11.3989L27.22 14.1489L25.23 16.8899Z" fill="#1DA977"/>
<path d="M19.5808 9.08191C19.497 8.99813 19.3834 8.95105 19.2648 8.95105C19.1463 8.95105 19.0327 8.99813 18.9488 9.08191L11.6808 16.3499L9.46684 14.1399C9.38306 14.0564 9.26961 14.0096 9.15134 14.0096C9.03307 14.0096 8.91963 14.0564 8.83585 14.1399L7.56885 15.3989C7.52721 15.4404 7.49417 15.4898 7.47163 15.5441C7.4491 15.5984 7.4375 15.6566 7.4375 15.7154C7.4375 15.7742 7.4491 15.8324 7.47163 15.8867C7.49417 15.941 7.52721 15.9904 7.56885 16.0319L11.3638 19.8269C11.4477 19.9107 11.5613 19.9577 11.6798 19.9577C11.7984 19.9577 11.912 19.9107 11.9958 19.8269L20.8448 10.9769C20.9286 10.8931 20.9757 10.7794 20.9757 10.6609C20.9757 10.5424 20.9286 10.4287 20.8448 10.3449L19.5808 9.08191Z" fill="white"/>
</svg>
