<svg width="78" height="78" viewBox="0 0 78 78" fill="none" xmlns="http://www.w3.org/2000/svg">
<path d="M66 0H12C5.37258 0 0 5.37258 0 12V66C0 72.6274 5.37258 78 12 78H66C72.6274 78 78 72.6274 78 66V12C78 5.37258 72.6274 0 66 0Z" fill="#4AEAB1"/>
<path d="M38.934 59.8789H38.923C33.3568 59.8774 28.0192 57.6651 24.0841 53.7284C20.149 49.7918 17.9387 44.4533 17.9395 38.8871C17.9402 33.321 20.1518 27.983 24.088 24.0474C28.0241 20.1118 33.3623 17.9009 38.9285 17.9009C44.4946 17.9009 49.8329 20.1118 53.769 24.0474C57.7051 27.983 59.9168 33.321 59.9175 38.8871C59.9182 44.4533 57.7079 49.7918 53.7728 53.7284C49.8377 57.6651 44.5001 59.8774 38.934 59.8789ZM34.0939 42.4389C33.8661 42.4404 33.6441 42.511 33.4572 42.6414C33.2702 42.7717 33.1272 42.9556 33.0469 43.1689C32.8943 44.0052 32.9602 44.8668 33.2382 45.6703C33.5163 46.4737 33.997 47.1918 34.634 47.7549L34.673 47.7939C35.333 48.4569 35.333 48.4569 37.04 49.2689L37.171 49.3309C37.365 49.4239 37.377 49.4689 37.425 50.2979C37.497 51.5629 37.873 52.0789 38.725 52.0789C39.577 52.0789 39.9409 51.5789 40.0179 50.3059C40.0709 49.4779 40.085 49.4229 40.277 49.3309L40.402 49.2719C42.115 48.4579 42.1149 48.4579 42.7709 47.7989L42.816 47.7529C43.607 47.007 44.165 46.0479 44.4223 44.9916C44.6796 43.9353 44.6254 42.827 44.266 41.8009C43.832 40.6942 43.093 39.7334 42.1349 39.0298C41.1768 38.3262 40.0388 37.9087 38.853 37.8259H38.753C37.8657 37.8259 37.0145 37.4742 36.386 36.8479C35.9205 36.3538 35.6103 35.7339 35.4938 35.0652C35.3774 34.3964 35.4599 33.7082 35.731 33.0859C36.0469 32.442 36.5634 31.9181 37.2027 31.593C37.842 31.2679 38.5697 31.1592 39.2761 31.2833C39.9826 31.4073 40.6295 31.7574 41.1199 32.2809C41.6102 32.8043 41.9173 33.4729 41.9949 34.1859C42.1309 35.2589 42.531 35.7369 43.295 35.7369H43.347C43.5748 35.7345 43.7966 35.6637 43.9835 35.5334C44.1705 35.4032 44.3138 35.2197 44.395 35.0069C44.5469 34.1707 44.4805 33.3094 44.2021 32.5063C43.9237 31.7033 43.4429 30.9857 42.806 30.4229L42.767 30.3839C42.107 29.7209 42.107 29.7209 40.4 28.9089L40.269 28.8469C40.075 28.7539 40.063 28.7079 40.015 27.8799C39.965 26.9479 39.849 26.6289 39.451 26.3289C39.2275 26.1466 38.9511 26.0414 38.663 26.0289C37.977 26.0289 37.489 26.7499 37.42 27.8669C37.368 28.6949 37.3529 28.7499 37.1609 28.8409L37.029 28.9029C35.323 29.7139 35.323 29.7139 34.667 30.3739L34.624 30.4169C33.8329 31.1627 33.275 32.1218 33.0176 33.1782C32.7603 34.2345 32.8146 35.3428 33.174 36.3689C33.6083 37.4751 34.3472 38.4356 35.3051 39.1391C36.2629 39.8426 37.4004 40.2604 38.5859 40.3439H38.6979C39.325 40.346 39.9391 40.5234 40.4708 40.8559C41.0024 41.1885 41.4306 41.663 41.707 42.2259C42.07 43.1446 42.07 44.1671 41.707 45.0859C41.3904 45.7318 40.872 46.257 40.2303 46.5821C39.5886 46.9072 38.8585 47.0145 38.1505 46.8877C37.4424 46.7609 36.7948 46.407 36.3058 45.8795C35.8167 45.352 35.5128 44.6795 35.4399 43.9639C35.3099 42.9049 34.9119 42.4329 34.1509 42.4329L34.0939 42.4389Z" fill="#3A4B4C"/>
</svg>
