<svg width="38" height="34" viewBox="0 0 38 34" fill="none" xmlns="http://www.w3.org/2000/svg">
<g clip-path="url(#clip0_1157_2)">
<path d="M18.8919 33.929C18.0974 33.9286 17.33 33.6401 16.7319 33.117C15.3189 31.883 13.9809 30.738 12.7319 29.676C9.54608 27.1254 6.56987 24.3234 3.83194 21.297C1.45246 18.7301 0.0901104 15.384 -6.03364e-05 11.885V11.874C-0.0560284 8.78661 1.05578 5.79191 3.11294 3.48901L3.12394 3.47701C4.12729 2.38261 5.34707 1.50861 6.70596 0.910417C8.06486 0.312223 9.53321 0.00288506 11.0179 0.00201444H11.1259C13.4 0.00504143 15.607 0.772875 17.3919 2.18201C17.9318 2.60298 18.4361 3.06754 18.8999 3.57101C19.3648 3.06784 19.8698 2.60331 20.4099 2.18201C22.1966 0.772645 24.4053 0.00485223 26.6809 0.00201444H26.7689C28.2545 0.00167754 29.724 0.310245 31.084 0.908126C32.444 1.50601 33.6648 2.38014 34.6689 3.47501L34.6799 3.48701C36.737 5.78913 37.8485 8.78329 37.7919 11.87V11.879C37.7038 15.3778 36.3432 18.7244 33.9649 21.292C31.2241 24.3156 28.2452 27.1146 25.0569 29.662C24.0849 30.491 22.6159 31.745 21.0449 33.112C20.4496 33.6355 19.6847 33.9257 18.8919 33.929ZM2.39994 11.827C2.47762 14.7423 3.6153 17.5292 5.59994 19.666L5.61094 19.678C8.26888 22.6151 11.1585 25.3338 14.2519 27.808L14.2799 27.831C15.4799 28.856 16.8889 30.053 18.3179 31.306C18.4769 31.4449 18.6808 31.5216 18.8919 31.522H18.8999C19.1113 31.521 19.3152 31.4436 19.4739 31.304C21.0569 29.915 22.5399 28.655 23.5179 27.821L23.5469 27.796C26.6401 25.3247 29.5297 22.609 32.1879 19.675L32.1969 19.666C34.1797 17.5272 35.3142 14.7386 35.3879 11.823C35.4315 9.34466 34.5387 6.94105 32.8879 5.09201C32.11 4.24479 31.1646 3.56827 30.1117 3.10524C29.0587 2.6422 27.9212 2.40275 26.7709 2.40201H26.6829C24.9464 2.40538 23.2616 2.99329 21.8999 4.07101C21.1316 4.67136 20.453 5.37852 19.8849 6.17101L18.8999 7.54201L17.9229 6.17201C17.3587 5.37926 16.683 4.67198 15.9169 4.07201C14.555 2.99569 12.8698 2.41014 11.1339 2.41001H11.0299C9.88026 2.41037 8.74315 2.64917 7.69045 3.11132C6.63774 3.57347 5.69233 4.24892 4.91394 5.09501C3.25868 6.94272 2.36096 9.34661 2.39994 11.827Z" fill="#3A4B4C"/>
</g>
<defs>
<clipPath id="clip0_1157_2">
<rect width="37.795" height="33.929" fill="white"/>
</clipPath>
</defs>
</svg>
