<svg width="36" height="32" viewBox="0 0 36 32" fill="red" xmlns="http://www.w3.org/2000/svg">
<g id="Grupo 164142">
<path id="Caminho 27935" d="M18.4621 30.456C17.99 30.4573 17.5335 30.2867 17.1781 29.976C15.8421 28.806 14.5541 27.708 13.4161 26.739C10.4798 24.3894 7.73761 21.807 5.21609 19.017C3.17553 16.818 2.00624 13.9508 1.92709 10.952C1.88202 8.34994 2.81806 5.8263 4.54907 3.88302C5.38925 2.96708 6.41213 2.23747 7.5517 1.74124C8.69126 1.245 9.92218 0.993195 11.1651 1.00204C13.0525 0.994083 14.8865 1.62889 16.3651 2.80203C17.1691 3.43013 17.8781 4.17114 18.4701 5.00204C19.0631 4.17194 19.7719 3.43107 20.5751 2.80203C22.0494 1.6331 23.8766 0.998575 25.7581 1.00204C27.0018 0.99237 28.2338 1.24375 29.3743 1.74001C30.5148 2.23628 31.5384 2.96636 32.3791 3.88302C34.1109 5.82518 35.0477 8.3483 35.0031 10.95C34.928 13.9494 33.7614 16.8183 31.7221 19.019C29.197 21.8063 26.4515 24.3857 23.5121 26.732C22.3701 27.704 21.0861 28.804 19.7441 29.977C19.3886 30.2877 18.9322 30.4583 18.4601 30.457L18.4621 30.456Z" />
<path id="Caminho 43249" d="M18.4621 30.456C17.99 30.4573 17.5335 30.2867 17.1781 29.976C15.8421 28.806 14.5541 27.708 13.4161 26.739C10.4798 24.3894 7.73761 21.807 5.21609 19.017C3.17553 16.818 2.00624 13.9508 1.92709 10.952C1.88202 8.34994 2.81806 5.8263 4.54907 3.88302C5.38925 2.96708 6.41213 2.23747 7.5517 1.74124C8.69126 1.245 9.92218 0.993195 11.1651 1.00204C13.0525 0.994083 14.8865 1.62889 16.3651 2.80203C17.1691 3.43013 17.8781 4.17114 18.4701 5.00204C19.0631 4.17194 19.7719 3.43107 20.5751 2.80203C22.0494 1.6331 23.8766 0.998575 25.7581 1.00204C27.0018 0.99237 28.2338 1.24375 29.3743 1.74001C30.5148 2.23628 31.5384 2.96636 32.3791 3.88302C34.1109 5.82518 35.0477 8.3483 35.0031 10.95C34.928 13.9494 33.7614 16.8183 31.7221 19.019C29.197 21.8063 26.4515 24.3857 23.5121 26.732C22.3701 27.704 21.0861 28.804 19.7441 29.977C19.3886 30.2877 18.9322 30.4583 18.4601 30.457L18.4621 30.456Z" stroke="white" stroke-width="2"/>
</g>
</svg>
