<svg width="49" height="49" viewBox="0 0 49 49" fill="none" xmlns="http://www.w3.org/2000/svg">
<path id="Exclus&#195;&#163;o 45" opacity="0.6" d="M24.4988 49C19.6532 49 14.9164 47.5631 10.8875 44.871C6.85849 42.1789 3.7183 38.3525 1.86397 33.8758C0.00964499 29.399 -0.475536 24.4729 0.469782 19.7204C1.4151 14.9679 3.74846 10.6024 7.1748 7.17604C11.7752 2.6092 17.998 0.0516497 24.4802 0.0635177C30.9625 0.0753856 37.1758 2.65571 41.7595 7.23936C46.3431 11.823 48.9235 18.0364 48.9353 24.5186C48.9472 31.0009 46.3896 37.2236 41.8228 41.824C39.5531 44.1062 36.8532 45.9155 33.8796 47.1473C30.9059 48.379 27.7175 49.0088 24.4988 49ZM19.0288 11.172C17.113 11.1765 15.2769 11.9394 13.9221 13.2939C12.5672 14.6484 11.8038 16.4843 11.7988 18.4V30.135C11.8041 32.0501 12.5672 33.8853 13.9214 35.2395C15.2756 36.5937 17.1107 37.3568 19.0258 37.362H30.7648C32.6799 37.3568 34.515 36.5937 35.8692 35.2395C37.2234 33.8853 37.9865 32.0501 37.9918 30.135V18.4C37.9865 16.4849 37.2234 14.6498 35.8692 13.2956C34.515 11.9414 32.6799 11.1783 30.7648 11.173L19.0288 11.172ZM30.7658 35.038H19.0288C17.7306 35.0336 16.4869 34.5159 15.5689 33.5979C14.651 32.68 14.1333 31.4362 14.1288 30.138V18.4C14.1335 17.1019 14.6513 15.8584 15.5692 14.9405C16.4871 14.0226 17.7307 13.5048 19.0288 13.5H30.7648C32.0638 13.5035 33.3086 14.0207 34.2276 14.9387C35.1466 15.8567 35.6651 17.1011 35.6698 18.4V30.135C35.6661 31.4344 35.1482 32.6795 34.2293 33.5983C33.3104 34.517 32.0652 35.0346 30.7658 35.038ZM24.8988 17.518C23.1086 17.518 21.3917 18.2292 20.1258 19.4951C18.86 20.7609 18.1488 22.4778 18.1488 24.268C18.1488 26.0583 18.86 27.7751 20.1258 29.041C21.3917 30.3069 23.1086 31.018 24.8988 31.018C26.689 31.018 28.4059 30.3069 29.6718 29.041C30.9376 27.7751 31.6488 26.0583 31.6488 24.268C31.6488 22.4778 30.9376 20.7609 29.6718 19.4951C28.4059 18.2292 26.689 17.518 24.8988 17.518ZM31.9318 15.547C31.536 15.5442 31.1516 15.6796 30.8449 15.9298C30.5382 16.18 30.3284 16.5294 30.2518 16.9177C30.1751 17.306 30.2363 17.7089 30.4249 18.0569C30.6135 18.405 30.9176 18.6762 31.2848 18.824C31.6488 18.9747 32.0539 18.9942 32.4307 18.8793C32.8075 18.7644 33.1328 18.5222 33.3508 18.194C33.5226 17.9379 33.6215 17.6398 33.6369 17.3317C33.6523 17.0236 33.5835 16.7171 33.438 16.4452C33.2925 16.1732 33.0757 15.9459 32.8109 15.7877C32.5461 15.6295 32.2433 15.5463 31.9348 15.547H31.9318ZM24.8988 28.692C23.7252 28.692 22.5997 28.2258 21.7699 27.396C20.94 26.5661 20.4738 25.4406 20.4738 24.267C20.4738 23.0935 20.94 21.9679 21.7699 21.1381C22.5997 20.3082 23.7252 19.842 24.8988 19.842C26.0724 19.842 27.1979 20.3082 28.0278 21.1381C28.8576 21.9679 29.3238 23.0935 29.3238 24.267C29.3238 25.4406 28.8576 26.5661 28.0278 27.396C27.1979 28.2258 26.0724 28.692 24.8988 28.692Z" fill="white"/>
</svg>
