<svg width="40" height="35" viewBox="0 0 40 35" fill="none" xmlns="http://www.w3.org/2000/svg">
<path fill-rule="evenodd" clip-rule="evenodd" d="M9.68903 0.0899404C1.94803 0.90094 -1.68497 7.48994 0.746029 16.3099C2.27503 21.8549 5.81203 26.6099 11.489 30.7599C13.4597 32.2119 15.5136 33.5475 17.64 34.7599C18.1342 34.9052 18.6626 34.8821 19.1421 34.6942C19.6217 34.5063 20.0251 34.1642 20.289 33.7219C20.78 32.9619 21.02 33.2309 16.555 29.5309C12.199 25.9219 12.375 26.1069 12.865 25.6159C13.265 25.2159 13.129 25.1209 18.165 29.3059C23.201 33.4909 23.013 33.3589 23.565 33.0729C24.2331 32.6139 24.7085 31.9246 24.9 31.1369C24.921 30.9079 24.761 30.7709 20.355 27.2749C14.926 22.9669 15.219 23.2579 15.743 22.7339C16.163 22.3139 15.521 21.8749 21.961 26.9929C25.781 30.0259 26.798 30.8009 26.974 30.8009C27.4587 30.6649 27.8947 30.3938 28.2311 30.0193C28.5675 29.6448 28.7905 29.1824 28.874 28.6859C28.874 28.2769 29.384 28.7489 23.793 24.0119C18.941 19.9039 18.9 19.8629 19.129 19.4549C19.504 18.7849 19.417 18.7239 24.429 22.9719C31.261 28.7559 30.756 28.3449 31.044 28.3449C32.333 28.3449 33.423 25.8449 32.72 24.5059C32.511 24.1059 25.34 13.8499 25.007 13.4699C24.607 13.0199 24.596 13.0259 21.107 15.0339C17.107 17.3339 16.995 17.3799 15.534 17.3739C14.5925 17.3672 13.6699 17.1089 12.8616 16.626C12.0534 16.143 11.3889 15.4528 10.9368 14.6269C10.4848 13.8009 10.2617 12.8692 10.2905 11.9281C10.3194 10.9869 10.5992 10.0706 11.101 9.27394C11.529 8.58594 11.758 8.37394 15.132 5.44094C17.851 3.07994 18.202 2.74094 18.202 2.46694C18.202 1.23494 12.915 -0.23306 9.68503 0.10494M26.842 0.11094C24.2508 0.428481 21.7957 1.44822 19.742 3.05994C18.623 3.95994 12.487 9.37194 12.321 9.59694C11.8577 10.2049 11.5748 10.9308 11.5045 11.6919C11.4343 12.453 11.5796 13.2185 11.9238 13.901C12.268 14.5834 12.7972 15.1553 13.451 15.5512C14.1048 15.9471 14.8568 16.1511 15.621 16.1399C16.65 16.1399 16.969 15.9969 20.402 14.0399C23.565 12.2339 23.592 12.2129 23.686 11.6609C23.786 11.0669 24.404 10.7229 24.78 11.0609C24.864 11.1349 25.374 11.8349 25.913 12.6159C27.052 14.2679 27.013 14.2289 27.522 14.2289C28.4716 14.1816 29.3818 13.8346 30.122 13.2379C30.722 12.7899 30.834 12.7689 31.161 13.0459C31.814 13.5959 30.77 14.6139 28.933 15.2189C27.906 15.5539 27.786 15.2859 30.987 19.8539C32.441 21.9319 33.724 23.8269 33.835 24.0669C34.221 24.9069 34.586 24.8599 35.267 23.8739C39.294 18.0589 40.478 10.4739 38.109 5.67394C36.177 1.75294 31.66 -0.47206 26.829 0.11494" fill="black"/>
</svg>
