<svg width="47" height="45" viewBox="0 0 47 45" fill="none" xmlns="http://www.w3.org/2000/svg">
<path d="M11.8534 15.834C11.2894 17.393 10.7274 18.909 10.1944 20.434C10.1597 20.591 10.0667 20.729 9.93416 20.8202C9.80163 20.9113 9.63946 20.9488 9.48039 20.925C6.81373 20.9096 4.1444 20.9096 1.4724 20.925C1.38951 20.9388 1.30465 20.9353 1.22317 20.9147C1.1417 20.8941 1.06539 20.8568 0.999054 20.8052C0.932713 20.7536 0.877781 20.6889 0.837738 20.615C0.797694 20.5411 0.773403 20.4597 0.766395 20.376C0.220895 18.4365 -0.029904 16.426 0.0223995 14.412C0.119182 11.0322 1.27021 7.76721 3.3144 5.07396C4.64467 3.34916 6.47664 2.07887 8.55836 1.43779C10.6401 0.796706 12.8693 0.816328 14.9394 1.49395C17.7216 2.38411 20.2671 3.89051 22.3864 5.90095C23.1774 6.61095 23.1864 6.61395 23.9814 5.90095C25.9335 4.06839 28.2336 2.64631 30.7454 1.71896C33.3123 0.713204 36.1667 0.727836 38.7231 1.75985C41.2796 2.79187 43.3442 4.76304 44.4934 7.26896C45.4621 9.19206 46.0699 11.2766 46.2864 13.419C46.4681 15.7558 46.2369 18.1063 45.6034 20.363C45.5954 20.4507 45.5692 20.5359 45.5265 20.613C45.4837 20.6901 45.4254 20.7574 45.3553 20.8108C45.2851 20.8641 45.2046 20.9022 45.1189 20.9228C45.0332 20.9433 44.9441 20.9457 44.8574 20.93C41.1574 20.912 37.4514 20.936 33.7494 20.908C33.337 20.8729 32.9231 20.9564 32.5566 21.1486C32.19 21.3408 31.886 21.6338 31.6804 21.993C31.3594 22.522 30.9904 23.023 30.6314 23.528C30.5314 23.674 30.4604 23.87 30.2404 23.922C30.0663 23.7319 29.9485 23.4972 29.9004 23.244C29.1344 21.253 28.3884 19.254 27.6104 17.268C27.5336 17.0143 27.3944 16.7839 27.2056 16.5978C27.0169 16.4117 26.7845 16.2759 26.5297 16.2027C26.2749 16.1295 26.0059 16.1213 25.7471 16.1788C25.4884 16.2363 25.2482 16.3577 25.0484 16.532C24.8154 16.7382 24.6394 17.001 24.5374 17.295C23.5374 19.8223 22.5331 22.3483 21.5244 24.873C21.4584 25.039 21.4504 25.247 21.2554 25.341C21.0724 25.275 21.0554 25.104 21.0034 24.967C19.4127 20.8596 17.8244 16.7516 16.2384 12.643C15.7714 11.437 14.7814 10.9909 13.8084 11.5429C13.4277 11.7874 13.1517 12.165 13.0344 12.602C12.6414 13.663 12.2544 14.728 11.8534 15.834Z" fill="black"/>
<path d="M39.9344 24.1529H44.1404C44.0941 24.5612 43.9526 24.9531 43.7274 25.2969C42.1432 28.4584 40.0919 31.3634 37.6424 33.9139C34.1675 37.5587 30.2017 40.7015 25.8594 43.2519C25.0902 43.7698 24.1862 44.0511 23.2589 44.0613C22.3317 44.0714 21.4218 43.8099 20.6414 43.3089C14.8785 40.0231 9.82187 35.6306 5.76241 30.3839C4.45197 28.6521 3.32807 26.7867 2.40941 24.8189C2.32541 24.6379 2.18642 24.4649 2.24242 24.2349C2.44657 24.1437 2.67352 24.1165 2.89342 24.1569C5.47675 24.1529 8.06041 24.1529 10.6444 24.1569C11.1301 24.2395 11.6288 24.1259 12.0308 23.8411C12.4328 23.5562 12.7053 23.1235 12.7884 22.6379C13.3324 21.1332 13.8784 19.6292 14.4264 18.1259C14.4824 17.9729 14.4974 17.7859 14.7374 17.6619C15.0794 18.5299 15.4204 19.3869 15.7534 20.2469C17.0654 23.6322 18.3764 27.0182 19.6864 30.4049C19.787 30.7381 19.9913 31.0305 20.2695 31.2397C20.5477 31.4488 20.8854 31.5638 21.2334 31.5679C21.573 31.5559 21.9007 31.4405 22.1729 31.2371C22.4451 31.0337 22.6487 30.7521 22.7564 30.4299C23.7177 28.0159 24.6774 25.6012 25.6354 23.1859C25.7484 22.9009 25.8714 22.6199 25.9954 22.3259C26.2354 22.4529 26.2574 22.6699 26.3274 22.8539C26.9674 24.5249 27.6144 26.1939 28.2354 27.8719C28.3255 28.1987 28.5124 28.4906 28.7716 28.709C29.0308 28.9275 29.3501 29.0624 29.6874 29.0959C29.9997 29.1142 30.3108 29.0435 30.5846 28.8922C30.8584 28.7409 31.0837 28.515 31.2344 28.2409C32.0764 27.0229 32.9344 25.8169 33.7654 24.5899C33.8512 24.444 33.9763 24.3252 34.1265 24.2472C34.2766 24.1692 34.4458 24.1351 34.6144 24.1489C36.3714 24.1609 38.1254 24.1529 39.9344 24.1529Z" fill="black"/>
</svg>
