<svg width="46" height="46" viewBox="0 0 46 46" fill="none" xmlns="http://www.w3.org/2000/svg">
<path d="M22.5492 33.0059C23.4313 34.389 24.4382 35.6884 25.5572 36.8878C25.5235 36.9573 25.4737 37.0178 25.412 37.0642C25.3502 37.1106 25.2783 37.1417 25.2022 37.1548C23.7502 37.7018 22.2862 38.2209 20.8482 38.8019C20.6509 38.8982 20.4278 38.9287 20.2118 38.8889C19.9959 38.8491 19.7983 38.7412 19.6482 38.5809C16.1353 35.6463 13.6485 31.669 12.5482 27.2259C12.0399 25.2437 11.8289 23.197 11.9222 21.1529C12.0329 18.5097 12.6309 15.9097 13.6862 13.4839C13.7124 13.4324 13.7418 13.3826 13.7742 13.3349C14.0062 13.3039 14.0952 13.4889 14.2142 13.6069C15.6222 15.0069 17.0142 16.4239 18.4362 17.8129C18.591 17.9486 18.7116 18.119 18.788 18.3102C18.8645 18.5013 18.8947 18.7078 18.8762 18.9129C18.7144 21.7783 19.0763 24.6492 19.9442 27.3849C20.5708 29.3614 21.4461 31.2502 22.5492 33.0059Z" fill="black"/>
<path d="M10.8202 30.3969C12.2071 34.1028 14.4678 37.4193 17.4102 40.0649C16.6382 40.3599 15.9632 40.6199 15.2862 40.8749C14.2672 41.2589 13.2412 41.6269 12.2282 42.0269C12.096 42.0917 11.9462 42.1115 11.8018 42.0831C11.6573 42.0548 11.5261 41.9799 11.4282 41.87C8.34599 39.1133 6.1315 35.5203 5.05421 31.528C4.98014 31.2846 4.98929 31.0235 5.08021 30.7859C6.42488 27.2099 7.7662 23.633 9.1042 20.055C9.12178 19.9465 9.16083 19.8426 9.21903 19.7493C9.27724 19.6561 9.35345 19.5754 9.4432 19.512C9.05836 23.1979 9.52959 26.9229 10.8202 30.3969Z" fill="black"/>
<path d="M41.8862 3.88989C41.8932 3.34689 41.8542 2.82789 41.8642 2.30889C41.8673 1.62878 42.1269 0.974884 42.5912 0.477899C42.8213 0.218333 43.1384 0.0519369 43.4827 0.0101182C43.827 -0.0317004 44.1747 0.0539458 44.4602 0.250894C44.7463 0.447643 44.9449 0.747582 45.0144 1.0877C45.084 1.42782 45.0191 1.78166 44.8332 2.0749C44.632 2.40672 44.5705 2.80481 44.6622 3.18189C44.8629 3.86926 44.9427 4.58623 44.8982 5.3009C44.8721 5.55493 44.7937 5.8008 44.6678 6.023C44.542 6.24521 44.3715 6.43895 44.167 6.59199C43.9626 6.74503 43.7287 6.85407 43.48 6.91223C43.2314 6.97038 42.9733 6.9764 42.7222 6.92989C42.1612 6.8549 41.6042 6.75189 41.0472 6.64889C40.4002 6.52989 40.2632 6.6699 40.3652 7.3079C40.5132 7.93237 40.6105 8.56776 40.6562 9.2079C40.6808 9.47764 40.6454 9.74949 40.5525 10.0039C40.4596 10.2583 40.3115 10.4891 40.1189 10.6795C39.9263 10.8699 39.6939 11.0153 39.4384 11.1053C39.1829 11.1953 38.9107 11.2276 38.6412 11.1999C38.031 11.168 37.425 11.0792 36.8313 10.9349C36.1473 10.8039 36.0122 10.9199 36.0962 11.6069C36.1622 12.1529 36.3042 12.6909 36.3522 13.2379C36.4992 14.9049 35.4202 15.7029 33.7632 15.4519C33.2772 15.3779 32.7972 15.2639 32.3102 15.2049C31.8232 15.1459 31.7552 15.2359 31.7923 15.7229C31.8393 16.3319 32.0342 16.9159 32.0742 17.5309C32.1347 17.8577 32.1104 18.1946 32.0037 18.5094C31.897 18.8242 31.7113 19.1064 31.4645 19.3291C31.2177 19.5517 30.9179 19.7074 30.5939 19.7812C30.2698 19.8551 29.9321 19.8446 29.6132 19.7509C29.2322 19.6809 28.8492 19.6199 28.4722 19.5329C28.2598 19.4689 28.0363 19.4507 27.8163 19.4795C27.5964 19.5082 27.385 19.5834 27.1962 19.6999C26.9032 19.8751 26.5542 19.9312 26.221 19.8568C25.8879 19.7824 25.5959 19.5831 25.4052 19.2999C25.2125 19.0119 25.1303 18.6639 25.1739 18.3201C25.2174 17.9763 25.3837 17.6598 25.6422 17.4289C26.0283 17.1079 26.4819 16.8781 26.9692 16.7569C27.4564 16.6357 27.9648 16.6261 28.4563 16.7289C28.6652 16.7902 28.8881 16.7839 29.0932 16.7109C29.0052 15.4659 28.8232 14.1819 29.8712 13.1969C30.8842 12.2439 32.1232 12.3319 33.4172 12.5439C33.2252 11.2339 33.1112 9.97189 34.1042 8.96389C35.0972 7.95589 36.3762 8.0889 37.6832 8.2519C37.6602 8.0139 37.6522 7.8099 37.6202 7.6099C37.4773 7.09161 37.4754 6.54456 37.6147 6.02529C37.754 5.50602 38.0294 5.03337 38.4125 4.65618C38.7957 4.27899 39.2725 4.01095 39.7939 3.87975C40.3153 3.74855 40.8622 3.75896 41.3782 3.9099C41.5451 3.96023 41.7239 3.95318 41.8862 3.88989Z" fill="black"/>
<path d="M30.8632 30.2449C31.4972 30.8799 32.1132 31.4879 32.7202 32.1049C32.9148 32.2664 33.0616 32.4779 33.1452 32.7165C33.2287 32.9552 33.2456 33.2121 33.1942 33.4597C33.1428 33.7072 33.0251 33.9362 32.8535 34.1219C32.6819 34.3076 32.463 34.4431 32.2202 34.5139C31.0672 34.9629 29.9032 35.3839 28.7492 35.8299C28.6289 35.8861 28.4933 35.9008 28.3637 35.8716C28.2341 35.8425 28.1179 35.7712 28.0332 35.6689C24.619 32.4023 22.3832 28.0967 21.6752 23.4249C21.5752 22.7929 21.5082 22.1569 21.4332 21.5249C21.3945 21.3138 21.4206 21.0959 21.5082 20.8999L30.8632 30.2449Z" fill="black"/>
<path d="M2.84524 36.7539C3.04524 36.2359 3.23624 35.7539 3.42924 35.2659C3.43824 35.2439 3.47424 35.2339 3.57424 35.1659C4.83694 38.1277 6.66738 40.8135 8.96224 43.0719C8.93424 43.2799 8.81323 43.2989 8.72423 43.3319C6.46323 44.1799 4.20524 45.0319 1.93824 45.8619C1.74833 45.9437 1.54252 45.982 1.33591 45.9739C1.12929 45.9658 0.9271 45.9115 0.744155 45.8152C0.56121 45.7188 0.402148 45.5827 0.278617 45.4169C0.155085 45.2511 0.0702156 45.0598 0.0302342 44.8569C-0.0250476 44.5316 0.0224931 44.197 0.166236 43.8999C1.05424 41.5309 1.94424 39.1589 2.84524 36.7539Z" fill="black"/>
<path d="M25.4312 0.957913C25.7905 0.912146 26.1532 1.01016 26.4405 1.2306C26.7278 1.45105 26.9164 1.77608 26.9652 2.13492C27.6028 4.81399 27.2844 7.63162 26.0652 10.1009C25.2703 11.7937 24.1806 13.3316 22.8472 14.6429C22.723 14.7881 22.5702 14.9062 22.3983 14.9898C22.2264 15.0733 22.0392 15.1205 21.8482 15.1285C21.6573 15.1365 21.4667 15.105 21.2885 15.0361C21.1102 14.9672 20.9481 14.8623 20.8122 14.7279C20.6811 14.5901 20.5784 14.4277 20.51 14.2502C20.4417 14.0726 20.409 13.8833 20.4138 13.6931C20.4186 13.5029 20.4609 13.3156 20.5382 13.1417C20.6155 12.9679 20.7262 12.8109 20.8642 12.6799C22.5064 11.0957 23.6754 9.08571 24.2402 6.87491C24.5717 5.52324 24.5803 4.1125 24.2652 2.75691C24.2003 2.56156 24.1802 2.35412 24.2063 2.14993C24.2324 1.94574 24.3041 1.75004 24.416 1.5773C24.528 1.40456 24.6774 1.2592 24.8531 1.15199C25.0288 1.04478 25.2264 0.978451 25.4312 0.957913Z" fill="black"/>
<path d="M32.6292 21.9689C34.6882 20.2209 37.2109 19.1091 39.8903 18.7689C41.2406 18.5922 42.6124 18.6819 43.9283 19.0329C44.2895 19.1125 44.6054 19.3298 44.809 19.6387C45.0125 19.9475 45.0876 20.3236 45.0183 20.6869C44.9805 20.8716 44.9052 21.0466 44.797 21.201C44.6889 21.3554 44.5501 21.4859 44.3894 21.5845C44.2287 21.683 44.0494 21.7475 43.8628 21.7739C43.6761 21.8003 43.486 21.788 43.3043 21.7379C41.8095 21.4188 40.2616 21.4446 38.7782 21.8131C37.2948 22.1817 35.9149 22.8834 34.7433 23.8649C34.2182 24.2602 33.7203 24.6905 33.2532 25.1529C33.1247 25.2891 32.97 25.3979 32.7984 25.4728C32.6267 25.5476 32.4417 25.587 32.2545 25.5886C32.0672 25.5901 31.8816 25.5538 31.7088 25.4818C31.5359 25.4097 31.3794 25.3035 31.2487 25.1694C31.1179 25.0354 31.0156 24.8763 30.9479 24.7017C30.8803 24.5271 30.8485 24.3406 30.8548 24.1535C30.861 23.9663 30.905 23.7824 30.9841 23.6127C31.0633 23.4429 31.1759 23.291 31.3152 23.1659C31.7282 22.7589 32.1722 22.3809 32.6292 21.9689Z" fill="black"/>
<path d="M31.9982 6.54188C31.7325 6.49378 31.4866 6.36897 31.2909 6.18283C31.0952 5.99669 30.9582 5.75735 30.8969 5.49432C30.8355 5.23129 30.8525 4.95606 30.9457 4.70256C31.0389 4.44905 31.2042 4.22835 31.4213 4.06766C31.6383 3.90696 31.8977 3.81328 32.1673 3.79819C32.437 3.78309 32.7052 3.84722 32.9389 3.98268C33.1725 4.11814 33.3614 4.31901 33.4823 4.56053C33.6032 4.80205 33.6508 5.07365 33.6192 5.34189C33.599 5.53032 33.5399 5.71251 33.4456 5.87695C33.3514 6.04139 33.2241 6.18451 33.0718 6.29727C32.9195 6.41003 32.7454 6.49 32.5607 6.5321C32.3759 6.57421 32.1844 6.57753 31.9982 6.54188Z" fill="black"/>
<path d="M43.1402 14.8009C42.9402 15.6429 42.4162 16.1078 41.7342 16.0918C41.4199 16.0797 41.1186 15.9632 40.878 15.7607C40.6373 15.5583 40.471 15.2814 40.4052 14.9739C40.3256 14.6302 40.3832 14.269 40.5658 13.9672C40.7485 13.6653 41.0417 13.4467 41.3832 13.3579C41.7223 13.2617 42.0855 13.2997 42.3974 13.4641C42.7093 13.6285 42.9459 13.9067 43.0582 14.2409C43.103 14.4245 43.1305 14.612 43.1402 14.8009Z" fill="black"/>
<path d="M18.0243 8.12988C17.7824 7.90758 17.6237 7.60936 17.5744 7.28458C17.5251 6.9598 17.5882 6.62791 17.7533 6.34387C17.9314 6.06386 18.2038 5.85671 18.5212 5.75978C18.8386 5.66286 19.1802 5.68253 19.4844 5.81526C19.7886 5.94799 20.0353 6.18504 20.1802 6.48366C20.325 6.78228 20.3584 7.12283 20.2743 7.44388C20.2259 7.62828 20.1398 7.8006 20.0212 7.94989C19.9027 8.09918 19.7544 8.22219 19.5858 8.31107C19.4171 8.39995 19.2319 8.45276 19.0417 8.46616C18.8516 8.47955 18.6607 8.45324 18.4813 8.38889C18.322 8.31546 18.1691 8.22882 18.0243 8.12988Z" fill="black"/>
<path d="M40.7712 26.9619C41.0023 27.1834 41.1537 27.4751 41.202 27.7915C41.2503 28.108 41.1927 28.4315 41.0382 28.7119C40.8686 28.9963 40.6027 29.2105 40.2886 29.3156C39.9745 29.4207 39.6332 29.4097 39.3266 29.2846C39.0199 29.1595 38.7683 28.9285 38.6174 28.6337C38.4666 28.3389 38.4264 27.9998 38.5042 27.6779C38.5465 27.4917 38.6275 27.3166 38.742 27.1638C38.8564 27.0111 39.0018 26.8842 39.1687 26.7915C39.3355 26.6987 39.52 26.6422 39.7102 26.6255C39.9003 26.6089 40.0918 26.6325 40.2722 26.6949C40.4464 26.7683 40.6134 26.8577 40.7712 26.9619Z" fill="black"/>
</svg>
