<svg width="54" height="37" viewBox="0 0 54 37" fill="none" xmlns="http://www.w3.org/2000/svg">
<path d="M45.3701 1.02502H9.37109C4.95282 1.02502 1.37109 4.60675 1.37109 9.02502V28.445C1.37109 32.8633 4.95282 36.445 9.37109 36.445H45.3701C49.7884 36.445 53.3701 32.8633 53.3701 28.445V9.02502C53.3701 4.60675 49.7884 1.02502 45.3701 1.02502Z" fill="white" stroke="#D9D9D9"/>
<path fill-rule="evenodd" clip-rule="evenodd" d="M13.5724 14.112C13.9301 14.118 14.2843 14.0408 14.6071 13.8865C14.9299 13.7322 15.2124 13.5051 15.4324 13.223C15.9008 12.6568 16.1332 11.932 16.0814 11.199C15.3642 11.2674 14.7022 11.6133 14.2364 12.163C14.0029 12.4282 13.824 12.7369 13.7101 13.0713C13.5962 13.4058 13.5494 13.7595 13.5724 14.112ZM22.0004 23.7341V12.0881H26.3174C26.8239 12.0657 27.3295 12.1496 27.8016 12.3344C28.2736 12.5192 28.7018 12.8009 29.0584 13.1612C29.4151 13.5215 29.6923 13.9525 29.8723 14.4264C30.0523 14.9004 30.131 15.4068 30.1034 15.913C30.1271 16.424 30.0438 16.9343 29.8589 17.4113C29.674 17.8882 29.3915 18.3213 29.0296 18.6828C28.6676 19.0443 28.2342 19.3262 27.757 19.5105C27.2798 19.6948 26.7694 19.7774 26.2584 19.753H23.7874V23.735L22.0004 23.7341ZM16.0724 14.257C15.5003 14.2575 14.9354 14.3849 14.4184 14.63C14.1864 14.7424 13.9374 14.8157 13.6814 14.847C13.4145 14.8175 13.1547 14.742 12.9134 14.624C12.5115 14.4321 12.0753 14.3227 11.6304 14.302C11.0998 14.3169 10.5825 14.4712 10.1304 14.7492C9.67822 15.0272 9.30716 15.4193 9.05443 15.886C7.94743 17.813 8.76643 20.667 9.83643 22.236C10.3604 23.013 10.9874 23.865 11.8144 23.836C12.1276 23.8159 12.4336 23.7332 12.7144 23.593C13.0693 23.417 13.4594 23.3237 13.8554 23.32C14.2359 23.3231 14.6106 23.4138 14.9504 23.585C15.2463 23.7381 15.5743 23.8187 15.9074 23.82C16.7634 23.805 17.3024 23.043 17.8264 22.266C18.1939 21.7196 18.4808 21.1232 18.6784 20.495V20.481L18.6584 20.4711C18.1673 20.2494 17.7506 19.8906 17.4582 19.438C17.1659 18.9853 17.0104 18.4579 17.0104 17.919C17.0146 17.4413 17.1384 16.9722 17.3703 16.5546C17.6023 16.137 17.9351 15.784 18.3384 15.528L18.3604 15.513C18.1031 15.1401 17.7622 14.8323 17.365 14.6143C16.9678 14.3963 16.5252 14.2739 16.0724 14.257ZM33.3634 23.826C33.8959 23.8393 34.422 23.708 34.8858 23.4462C35.3496 23.1844 35.7337 22.8018 35.9974 22.339H36.0344V23.739H37.6874V17.939C37.6874 16.258 36.3594 15.175 34.3144 15.175C32.4144 15.175 31.0144 16.275 30.9644 17.782H32.5724C32.6627 17.4131 32.8838 17.0893 33.1945 16.8709C33.5053 16.6524 33.8847 16.5541 34.2624 16.594C35.3544 16.594 35.9624 17.109 35.9624 18.058V18.701L33.7334 18.835C31.6594 18.962 30.5334 19.821 30.5334 21.315C30.536 21.6719 30.6137 22.0243 30.7614 22.3492C30.9091 22.6741 31.1235 22.9643 31.3907 23.201C31.6579 23.4376 31.9719 23.6154 32.3123 23.7227C32.6527 23.83 33.0118 23.8646 33.3664 23.824L33.3634 23.826ZM33.8424 22.444C32.8904 22.444 32.2854 21.981 32.2854 21.271C32.2854 20.539 32.8684 20.113 33.9854 20.046L35.9704 19.919V20.576C35.9601 20.8403 35.8961 21.0997 35.7824 21.3384C35.6687 21.5772 35.5076 21.7903 35.3089 21.9649C35.1102 22.1394 34.8781 22.2718 34.6267 22.3538C34.3753 22.4358 34.1098 22.4658 33.8464 22.442L33.8424 22.444ZM43.1704 24.192C42.4544 26.231 41.6354 26.904 39.8934 26.904C39.6663 26.9048 39.4394 26.8898 39.2144 26.8591V25.459C39.3254 25.474 39.5984 25.489 39.7384 25.489C40.0956 25.5138 40.4491 25.403 40.7282 25.1788C41.0074 24.9545 41.1917 24.6332 41.2444 24.279L41.4064 23.764L38.3804 15.285H40.2524L42.3524 22.165H42.3894L44.4894 15.285H46.3044L43.1704 24.192ZM23.7874 13.612H25.8464C26.16 13.5965 26.4734 13.645 26.7676 13.7544C27.0619 13.8638 27.3308 14.032 27.558 14.2486C27.7852 14.4652 27.966 14.7257 28.0894 15.0144C28.2128 15.3031 28.2762 15.6138 28.2757 15.9277C28.2752 16.2416 28.2109 16.5522 28.0866 16.8405C27.9624 17.1288 27.7808 17.3888 27.5529 17.6047C27.325 17.8206 27.0556 17.9879 26.7611 18.0964C26.4665 18.2049 26.1529 18.2524 25.8394 18.236H23.7874V13.612Z" fill="black"/>
</svg>
