<svg width="55" height="47" viewBox="0 0 55 47" fill="none" xmlns="http://www.w3.org/2000/svg">
<path d="M25.7791 46.8121C21.8849 47.3675 17.9155 46.6498 14.4623 44.766C11.0091 42.8822 8.257 39.933 6.61606 36.3581C4.51006 31.9361 2.44406 27.4941 0.364063 23.0581C0.207245 22.8354 0.0963805 22.5837 0.0379518 22.3178C-0.0204769 22.0518 -0.0252984 21.7768 0.0237688 21.509C0.0728359 21.2411 0.174811 20.9857 0.323726 20.7577C0.472641 20.5297 0.66551 20.3337 0.891063 20.1811C3.03881 18.1622 5.43833 16.4292 8.03006 15.0251C11.8711 12.8228 15.9749 11.1147 20.2441 9.94105C21.7914 9.53226 23.3686 9.2467 24.9611 9.08705C25.3505 9.05006 25.7416 9.139 26.0768 9.34079C26.4119 9.54257 26.6735 9.84655 26.8231 10.2081C27.7517 12.1661 28.6744 14.1271 29.5911 16.0911C30.7811 18.6271 31.9581 21.1701 33.1611 23.7001C34.9655 27.4073 35.4691 31.6142 34.5907 35.6427C33.7123 39.6711 31.5031 43.2865 28.3191 45.906C27.5788 46.4482 26.6956 46.7612 25.7791 46.8061M18.7581 35.7961C18.1801 35.743 17.6098 35.6252 17.0581 35.445C16.8443 35.3606 16.6152 35.3217 16.3855 35.3308C16.1558 35.3399 15.9305 35.3969 15.7241 35.4981C15.442 35.631 15.2099 35.8508 15.0618 36.1253C14.9137 36.3997 14.8574 36.7143 14.9011 37.0231C14.9235 37.3249 15.0368 37.6129 15.226 37.8493C15.4152 38.0856 15.6714 38.2591 15.9611 38.3471C17.5023 38.9273 19.1709 39.0837 20.7931 38.8001C22.5764 38.555 24.2594 37.829 25.6615 36.7001C27.0636 35.5713 28.132 34.082 28.7521 32.3921C28.8411 32.2017 28.8904 31.9952 28.8969 31.7852C28.9034 31.5751 28.867 31.366 28.79 31.1705C28.713 30.9749 28.5969 30.7972 28.4488 30.648C28.3008 30.4989 28.1239 30.3815 27.929 30.303C27.734 30.2245 27.5252 30.1866 27.3151 30.1916C27.105 30.1966 26.8981 30.2443 26.7071 30.3319C26.5161 30.4195 26.345 30.5451 26.2041 30.7011C26.0633 30.8571 25.9558 31.0401 25.8881 31.2391C25.3655 32.6764 24.3842 33.9017 23.0956 34.7256C21.8071 35.5494 20.283 35.926 18.7591 35.7971M26.6511 19.697C25.3952 19.3309 24.0482 19.4439 22.8709 20.0142C21.6937 20.5846 20.7701 21.5716 20.2791 22.7841C20.184 22.9732 20.1282 23.1796 20.1149 23.3909C20.1017 23.6022 20.1314 23.814 20.2021 24.0135C20.2728 24.213 20.3831 24.3962 20.5264 24.552C20.6698 24.7078 20.8431 24.833 21.0361 24.9201C21.2299 25.0069 21.4395 25.0527 21.6519 25.0548C21.8643 25.0569 22.0748 25.0152 22.2703 24.9322C22.4658 24.8492 22.6421 24.7268 22.7881 24.5726C22.9342 24.4184 23.0468 24.2358 23.1191 24.0361C23.2191 23.7612 23.3729 23.509 23.5716 23.2942C23.7703 23.0795 24.0098 22.9066 24.2761 22.7855C24.5424 22.6645 24.8302 22.5977 25.1226 22.5892C25.415 22.5808 25.7062 22.6307 25.9791 22.7361C26.2474 22.8229 26.5351 22.8313 26.8081 22.7601C27.1377 22.6859 27.4332 22.5039 27.6479 22.2429C27.8625 21.9819 27.984 21.6568 27.9931 21.3191C28.0151 20.5341 27.6161 20.0271 26.6511 19.6981M12.1161 25.2201C11.256 25.3945 10.4527 25.7797 9.77831 26.3412C9.10389 26.9027 8.57945 27.6229 8.25206 28.4371C8.09429 28.7569 8.05031 29.1209 8.1274 29.4691C8.20449 29.8173 8.39803 30.1287 8.67606 30.3521C8.86571 30.5064 9.08973 30.6129 9.3292 30.6625C9.56866 30.712 9.81653 30.7033 10.0519 30.6369C10.2872 30.5705 10.5032 30.4484 10.6814 30.281C10.8597 30.1136 10.995 29.9058 11.0761 29.6751C11.2801 29.131 11.6887 28.6883 12.2146 28.4413C12.7405 28.1943 13.3421 28.1626 13.8911 28.3531C14.0934 28.4277 14.309 28.4595 14.5242 28.4464C14.7395 28.4333 14.9497 28.3755 15.1414 28.2768C15.3331 28.1781 15.5022 28.0406 15.638 27.873C15.7737 27.7054 15.8731 27.5114 15.9298 27.3033C15.9865 27.0953 15.9994 26.8777 15.9675 26.6644C15.9356 26.4511 15.8597 26.2468 15.7446 26.0644C15.6295 25.8821 15.4778 25.7256 15.299 25.605C15.1202 25.4845 14.9183 25.4024 14.7061 25.3641C13.8692 25.0913 12.9752 25.0437 12.1141 25.2261L12.1161 25.2201Z" fill="black"/>
<path d="M33.3901 12.8361C32.8489 12.8128 32.3252 12.6374 31.8791 12.33C30.6561 11.707 30.4521 10.4371 29.8971 9.39405C29.4921 8.63305 29.1591 7.83405 28.7971 7.04905C28.6598 6.7111 28.4207 6.42423 28.1131 6.22821C27.8054 6.03219 27.4444 5.93672 27.0801 5.95505C26.4981 5.95505 25.9161 5.94305 25.3351 5.95505C25.0251 5.96005 24.8741 5.84405 24.8911 5.52305C24.9021 5.31205 24.8911 5.10005 24.8911 4.88805C24.8524 4.45173 24.9687 4.01573 25.2196 3.6567C25.4705 3.29767 25.84 3.03861 26.2631 2.92505C28.0704 2.28089 29.9377 1.81958 31.8371 1.54805C35.0442 1.06993 38.2893 0.896824 41.5291 1.03105C45.3016 1.06806 49.0472 1.67041 52.6411 2.81805C52.9002 2.86017 53.1484 2.95332 53.3712 3.09208C53.594 3.23085 53.7871 3.41247 53.9392 3.62642C54.0912 3.84037 54.1994 4.0824 54.2572 4.33846C54.315 4.59451 54.3215 4.8595 54.2761 5.11805C54.2761 10.2311 54.2841 15.344 54.2761 20.457C54.17 24.461 52.7532 28.3196 50.243 31.4408C47.7329 34.562 44.2681 36.7735 40.3801 37.736C39.4719 37.8851 38.5401 37.7771 37.6901 37.4241C37.3551 37.3121 37.4401 37.0881 37.4901 36.8721C37.9619 34.9919 38.1719 33.0556 38.1141 31.1181C38.0779 29.799 37.9162 28.4864 37.6311 27.1981C37.4661 26.4461 37.4621 26.4401 38.1941 26.3101C39.3113 26.0725 40.47 26.1159 41.5662 26.4366C42.6625 26.7572 43.662 27.3449 44.4751 28.147C44.6793 28.3692 44.9439 28.527 45.2364 28.6011C45.529 28.6752 45.8367 28.6623 46.1221 28.5641C46.3721 28.4764 46.5955 28.3264 46.7714 28.1283C46.9472 27.9302 47.0696 27.6905 47.127 27.4319C47.1844 27.1733 47.1748 26.9043 47.0992 26.6505C47.0237 26.3966 46.8845 26.1662 46.6951 25.9811C45.0568 24.3206 42.8778 23.302 40.5531 23.11C39.3227 22.976 38.078 23.0823 36.8881 23.4231C36.6271 23.5031 36.4611 23.4661 36.3381 23.2001C35.2641 20.8814 34.1864 18.5647 33.1051 16.25C33.0908 16.201 33.0837 16.1501 33.0841 16.0991C33.2251 15.8991 33.4361 15.9541 33.6191 15.9501C34.8846 15.9112 36.0883 15.3937 36.9871 14.5021C37.1392 14.3681 37.2634 14.2055 37.3526 14.0236C37.4418 13.8416 37.4944 13.6439 37.5072 13.4416C37.52 13.2394 37.4928 13.0366 37.4273 12.8448C37.3617 12.6531 37.259 12.4761 37.1251 12.3241C36.9911 12.172 36.8286 12.0478 36.6466 11.9585C36.4647 11.8693 36.2669 11.8168 36.0647 11.804C35.8624 11.7912 35.6596 11.8183 35.4679 11.8839C35.2761 11.9494 35.0992 12.0521 34.9471 12.1861C34.5287 12.5951 33.9692 12.8278 33.3841 12.8361M44.0521 15.3111C45.0366 15.8575 46.1698 16.0755 47.2867 15.9332C48.4037 15.791 49.446 15.2959 50.2621 14.5201C50.5707 14.2516 50.7668 13.8767 50.8111 13.47C50.8413 13.1521 50.7729 12.8325 50.6153 12.5547C50.4577 12.2768 50.2184 12.0542 49.93 11.917C49.6416 11.7797 49.3179 11.7345 49.0029 11.7875C48.6879 11.8405 48.3968 11.989 48.1691 12.2131C47.7468 12.6178 47.1841 12.8433 46.5991 12.8421C45.9798 12.813 45.3922 12.5595 44.9461 12.1291C44.6417 11.877 44.2522 11.7514 43.8579 11.7784C43.4636 11.8054 43.0948 11.9828 42.8276 12.274C42.5604 12.5651 42.4153 12.9479 42.4223 13.343C42.4293 13.7381 42.5878 14.1155 42.8651 14.3971C43.2113 14.7647 43.614 15.0746 44.0581 15.3151L44.0521 15.3111Z" fill="black"/>
</svg>
