<svg width="37" height="32" viewBox="0 0 37 32" fill="none" xmlns="http://www.w3.org/2000/svg">
<path d="M18.4068 31.255C11.4588 31.255 3.85681 31.23 3.58381 31.173C2.73556 30.9667 1.96039 30.531 1.3431 29.9137C0.725802 29.2964 0.290156 28.5213 0.0838086 27.673C-0.0311914 27.1 -0.0311914 7.80103 0.0838086 7.22703C0.234739 6.55996 0.532522 5.93493 0.955479 5.39745C1.37844 4.85998 1.91592 4.42358 2.52881 4.12003C3.47781 3.67403 3.67281 3.64603 6.00181 3.64603H8.02581L8.93281 1.83103C9.67681 0.344034 10.0138 0.284033 10.3698 0.231033C10.4834 0.217423 10.5945 0.187797 10.6998 0.143034C10.9748 0.00903398 11.3928 0.0090332 18.3648 0.0090332H25.7338L26.1128 0.195034C26.2231 0.247252 26.3437 0.274238 26.4658 0.274033C26.7978 0.296033 27.1398 0.320033 27.9158 1.87403L28.8078 3.65903H30.8228C33.1688 3.65903 33.3628 3.68603 34.2958 4.13203C34.9083 4.43463 35.4457 4.86984 35.8689 5.40606C36.2922 5.94228 36.5907 6.56604 36.7428 7.23203C36.8588 7.80503 36.8588 27.105 36.7428 27.679C36.5385 28.529 36.1037 29.3062 35.4862 29.9249C34.8686 30.5437 34.0924 30.9801 33.2428 31.186C32.9638 31.228 25.3598 31.255 18.4068 31.255ZM18.4288 8.30303C16.0794 8.3095 13.8234 9.22367 12.1323 10.8545C10.4411 12.4853 9.44562 14.7066 9.35384 17.0542C9.26207 19.4018 10.0811 21.6941 11.6398 23.452C13.1985 25.2098 15.3762 26.2973 17.7179 26.4872C20.0596 26.6771 22.3841 25.9546 24.2056 24.4708C26.0271 22.987 27.2048 20.8566 27.4924 18.5249C27.78 16.1932 27.1554 13.8405 25.749 11.9586C24.3427 10.0766 22.2635 8.81091 19.9458 8.42603C19.45 8.34444 18.9483 8.30331 18.4458 8.30303H18.4288ZM18.4008 24.403C16.666 24.402 14.9943 23.7518 13.7148 22.5803C12.4352 21.4089 11.6403 19.801 11.4864 18.073C11.3326 16.345 11.8309 14.622 12.8835 13.2429C13.936 11.8638 15.4665 10.9286 17.1738 10.621C17.5467 10.5639 17.9235 10.5355 18.3008 10.536H18.3158C20.2135 10.5321 22.0353 11.2808 23.3818 12.618C24.333 13.5968 24.9748 14.8341 25.227 16.1754C25.4793 17.5167 25.3307 18.9026 24.8 20.16C24.2693 21.4175 23.3799 22.4907 22.2429 23.2456C21.1059 24.0006 19.7716 24.4038 18.4068 24.405L18.4008 24.403Z" fill="black"/>
</svg>
