<svg width="16" height="15" viewBox="0 0 16 15" fill="none" xmlns="http://www.w3.org/2000/svg">
<path id="add" d="M9.27832 13.65V9.30799C9.27832 9.27415 9.285 9.24065 9.29798 9.2094C9.31096 9.17816 9.32998 9.14978 9.35395 9.12591C9.37792 9.10203 9.40637 9.08312 9.43766 9.07026C9.46896 9.0574 9.50249 9.05085 9.53632 9.05099H13.8763C14.215 9.05099 14.5398 8.91644 14.7793 8.67696C15.0188 8.43748 15.1533 8.11267 15.1533 7.77399C15.1533 7.4353 15.0188 7.11049 14.7793 6.87101C14.5398 6.63153 14.215 6.49699 13.8763 6.49699H9.53332C9.46516 6.49699 9.39979 6.46991 9.35159 6.42171C9.3034 6.37352 9.27632 6.30815 9.27632 6.23999V1.89999C9.27632 1.73229 9.24329 1.56623 9.17911 1.4113C9.11494 1.25637 9.02088 1.11559 8.9023 0.99701C8.78372 0.87843 8.64294 0.784367 8.48801 0.720192C8.33307 0.656016 8.16702 0.622986 7.99932 0.622986C7.83162 0.622986 7.66557 0.656016 7.51063 0.720192C7.3557 0.784367 7.21493 0.87843 7.09634 0.99701C6.97776 1.11559 6.8837 1.25637 6.81953 1.4113C6.75535 1.56623 6.72232 1.73229 6.72232 1.89999V6.24299C6.72232 6.31115 6.69524 6.37652 6.64705 6.42471C6.59885 6.47291 6.53348 6.49999 6.46532 6.49999H2.12332C1.78464 6.49999 1.45983 6.63453 1.22034 6.87401C0.980861 7.11349 0.84632 7.4383 0.84632 7.77699C0.84632 8.11567 0.980861 8.44048 1.22034 8.67996C1.45983 8.91945 1.78464 9.05399 2.12332 9.05399H6.46932C6.53748 9.05399 6.60285 9.08106 6.65105 9.12926C6.69924 9.17746 6.72632 9.24282 6.72632 9.31099V13.653C6.72632 13.9917 6.86086 14.3165 7.10034 14.556C7.33983 14.7954 7.66464 14.93 8.00332 14.93C8.342 14.93 8.66681 14.7954 8.9063 14.556C9.14578 14.3165 9.28032 13.9917 9.28032 13.653L9.27832 13.65Z" fill="#3A4B4C"/>
</svg>
