<svg width="48" height="47" viewBox="0 0 48 47" fill="none" xmlns="http://www.w3.org/2000/svg">
<path d="M27.8008 27.197C28.3853 27.8696 28.782 28.6844 28.951 29.5593C29.1199 30.4342 29.0551 31.3382 28.7631 32.1801C28.4711 33.0219 27.9622 33.7719 27.2878 34.3542C26.6133 34.9366 25.7973 35.3308 24.9218 35.497C26.4196 35.6577 27.8487 36.2097 29.0657 37.0975C30.2826 37.9853 31.2445 39.1777 31.8548 40.555C32.5399 42.1715 32.7962 43.9374 32.5988 45.682C32.5963 45.8677 32.5548 46.0508 32.477 46.2195C32.3993 46.3882 32.287 46.5387 32.1474 46.6612C32.0077 46.7838 31.844 46.8756 31.6666 46.9309C31.4893 46.9861 31.3023 47.0035 31.1178 46.982C26.3845 46.982 21.6485 46.982 16.9098 46.982C16.7216 47.0024 16.5313 46.9831 16.351 46.9254C16.1707 46.8677 16.0046 46.7729 15.8632 46.647C15.7219 46.5211 15.6085 46.3669 15.5304 46.1945C15.4523 46.0221 15.4112 45.8353 15.4098 45.646C15.1234 43.3087 15.706 40.9477 17.0468 39.012C17.7646 38.0354 18.6774 37.2185 19.7275 36.6133C20.7776 36.008 21.9419 35.6276 23.1468 35.496C22.2797 35.3371 21.4651 34.9672 20.7748 34.419C19.9727 33.7346 19.4039 32.817 19.1479 31.794C18.8919 30.7711 18.9613 29.6939 19.3465 28.7123C19.7317 27.7307 20.4135 26.8937 21.2969 26.3179C22.1803 25.7421 23.2213 25.4562 24.2748 25.5C24.948 25.5235 25.6089 25.6864 26.2159 25.9785C26.8228 26.2706 27.3625 26.6855 27.8008 27.197Z" fill="black"/>
<path d="M35.0349 22.4959C33.7799 22.4959 32.5689 22.4959 31.3589 22.4959C31.153 22.5139 30.9458 22.487 30.7513 22.4173C30.5568 22.3475 30.3797 22.2364 30.2323 22.0917C30.0848 21.947 29.9704 21.772 29.897 21.5789C29.8236 21.3858 29.7928 21.1791 29.8069 20.9729C29.6843 19.4358 29.8888 17.8902 30.4069 16.4379C30.9278 15.0683 31.7971 13.8583 32.9288 12.9274C34.0605 11.9965 35.4155 11.3769 36.8599 11.1299C37.0429 11.0929 37.2239 11.0489 37.4449 10.9999C34.5879 10.0699 33.0129 7.89293 33.4119 5.47593C33.5313 4.17773 34.159 2.97934 35.1581 2.14188C36.1572 1.30442 37.4468 0.895743 38.7459 1.00492C39.9751 1.08396 41.1331 1.60993 42.0013 2.48368C42.8696 3.35743 43.3883 4.5186 43.4596 5.74834C43.5309 6.97808 43.15 8.19145 42.3885 9.15972C41.6271 10.128 40.5378 10.7843 39.3259 11.0049C40.0946 11.1188 40.8489 11.3146 41.5759 11.5889C42.9924 12.1358 44.2352 13.0546 45.1734 14.2485C46.1116 15.4424 46.7104 16.8673 46.9069 18.3729C47.0153 19.3377 47.0384 20.3101 46.9759 21.2789C46.9637 21.4516 46.9176 21.6202 46.8401 21.775C46.7627 21.9298 46.6554 22.0677 46.5245 22.181C46.3936 22.2943 46.2416 22.3805 46.0773 22.4349C45.913 22.4893 45.7395 22.5107 45.5669 22.4979C43.9979 22.5059 42.4289 22.4979 40.8589 22.4979L35.0349 22.4959Z" fill="black"/>
<path d="M7.48786 1.44898C8.19794 1.11615 8.97629 0.954818 9.76016 0.978022C10.544 1.00122 11.3115 1.20831 12.0006 1.58256C12.6898 1.95681 13.2813 2.48778 13.7276 3.13262C14.1739 3.77747 14.4624 4.51816 14.5699 5.29498C14.7727 6.5349 14.4964 7.80556 13.7971 8.84934C13.0978 9.89313 12.0277 10.6319 10.8039 10.916L10.3129 11.033C12.2312 11.1534 14.0489 11.9337 15.4576 13.2414C16.8663 14.5491 17.7793 16.3038 18.0419 18.208C18.186 19.1675 18.2363 20.1387 18.1919 21.108C18.1938 21.2962 18.1571 21.4828 18.084 21.6563C18.011 21.8298 17.9031 21.9865 17.7671 22.1167C17.6311 22.2469 17.4699 22.3478 17.2934 22.4132C17.1169 22.4786 16.9288 22.5071 16.7409 22.497C11.9749 22.5016 7.20819 22.5016 2.44085 22.497C2.24962 22.5073 2.05835 22.4771 1.87959 22.4084C1.70082 22.3397 1.53858 22.234 1.40349 22.0983C1.2684 21.9625 1.1635 21.7998 1.09567 21.6207C1.02783 21.4416 0.998589 21.2502 1.00985 21.059C0.885937 19.4307 1.10884 17.7947 1.66385 16.259C2.18448 14.913 3.05352 13.7295 4.18196 12.8299C5.31041 11.9302 6.6577 11.3467 8.08586 11.139C8.30486 11.097 8.52485 11.064 8.80485 11.016C6.30485 10.458 4.81985 8.97597 4.62085 6.44697C4.48311 5.41461 4.68929 4.36564 5.20752 3.46221C5.72575 2.55879 6.52717 1.85125 7.48786 1.44898Z" fill="black"/>
<path d="M34.3119 35.555C36.4191 33.3953 37.8101 30.639 38.2959 27.661C38.404 26.9832 38.4508 26.2971 38.4359 25.611C38.4359 25.257 38.5479 25.099 38.9299 25.111C39.5409 25.137 40.1549 25.135 40.7659 25.111C41.1379 25.096 41.2659 25.231 41.2559 25.599C41.2226 27.9609 40.7106 30.2916 39.7509 32.45C38.5965 35.0408 36.8219 37.3075 34.5839 39.05C34.1629 39.381 34.1579 39.376 33.9199 38.898C33.6325 38.3233 33.2853 37.7806 32.8839 37.279C32.7109 37.062 32.7359 36.929 32.9529 36.768C33.435 36.3975 33.8892 35.9921 34.3119 35.555Z" fill="black"/>
<path d="M12.4128 34.0579C13.1477 35.0533 14.0131 35.9453 14.9858 36.7099C15.2628 36.9239 15.2858 37.0909 15.0618 37.3619C14.6027 37.982 14.1944 38.6381 13.8408 39.3239C13.0003 38.7608 12.231 38.098 11.5498 37.3499C9.10474 34.7954 7.50259 31.5521 6.95982 28.0579C6.82108 27.2318 6.75151 26.3956 6.75183 25.5579C6.75183 25.2349 6.85184 25.1019 7.18984 25.1119C7.80184 25.1309 8.41683 25.1429 9.02683 25.1119C9.44983 25.0879 9.57982 25.2539 9.57382 25.6489C9.56496 27.1584 9.81562 28.6583 10.3148 30.0829C10.7998 31.5104 11.5079 32.852 12.4128 34.0579Z" fill="black"/>
<path d="M29.7789 12.17C27.9961 11.3973 26.076 10.991 24.133 10.9756C22.19 10.9601 20.2637 11.3357 18.4689 12.08C18.3487 12.1515 18.2059 12.1745 18.0693 12.1444C17.9328 12.1143 17.8129 12.0334 17.7339 11.918C17.4635 11.6192 17.1717 11.3404 16.8609 11.084C16.5609 10.821 16.2389 10.579 15.8439 10.262C17.6046 9.2583 19.5478 8.61577 21.5599 8.37202C25.1699 7.82463 28.8598 8.48073 32.0599 10.239C32.0709 10.407 31.9299 10.46 31.8269 10.539C31.2338 10.9683 30.6839 11.4542 30.1849 11.99C30.0829 12.095 29.9879 12.22 29.7789 12.17Z" fill="black"/>
</svg>
