<svg width="154" height="27" viewBox="0 0 154 27" fill="none" xmlns="http://www.w3.org/2000/svg">
<g id="Grupo 163894">
<path id="Caminho 43208" d="M7.29931 25.6481C7.02714 25.6485 6.75771 25.5937 6.50732 25.4871C6.25796 25.3791 6.03334 25.2212 5.84731 25.0231C5.66198 24.8203 5.51947 24.5823 5.42831 24.3231C5.33809 24.0666 5.30133 23.7943 5.32031 23.5231L5.73031 17.3141L1.94031 12.5691C1.7307 12.3112 1.58997 12.0043 1.53131 11.6771C1.47263 11.3494 1.49669 11.0121 1.60131 10.696C1.70438 10.3783 1.8876 10.0924 2.13331 9.86609C2.37494 9.63605 2.6724 9.47299 2.99631 9.39307L8.65731 7.91211L11.7573 2.68506C11.9487 2.40615 12.2037 2.17688 12.5013 2.01611C12.8006 1.85805 13.1339 1.77539 13.4723 1.77539C13.8107 1.77539 14.1441 1.85805 14.4433 2.01611C14.7411 2.17662 14.9962 2.40594 15.1873 2.68506L18.2813 7.91211L23.9453 9.4021C24.2689 9.48214 24.566 9.6452 24.8073 9.87512C25.0504 10.0999 25.233 10.3822 25.3383 10.696C25.443 11.0121 25.4681 11.3491 25.4113 11.6771C25.3551 12.0058 25.2176 12.3151 25.0113 12.577L21.2243 17.3131L21.6343 23.5221C21.6545 23.7942 21.6181 24.0676 21.5274 24.325C21.4367 24.5823 21.2938 24.8182 21.1075 25.0176C20.9212 25.217 20.6957 25.3758 20.4451 25.4838C20.1945 25.5918 19.9242 25.6466 19.6513 25.645H19.6103C19.3515 25.6441 19.0953 25.5925 18.8563 25.493L13.4703 23.201H13.4623L8.08131 25.4841C7.83453 25.5915 7.56843 25.6472 7.29931 25.6481Z" stroke="#FCA800" stroke-width="2"/>
<path id="Caminho 43211" d="M70.2993 25.6481C70.0271 25.6485 69.7577 25.5937 69.5073 25.4871C69.258 25.3791 69.0333 25.2212 68.8473 25.0231C68.662 24.8203 68.5195 24.5823 68.4283 24.3231C68.3381 24.0666 68.3013 23.7943 68.3203 23.5231L68.7303 17.3141L64.9403 12.5691C64.7307 12.3112 64.59 12.0043 64.5313 11.6771C64.4726 11.3494 64.4967 11.0121 64.6013 10.696C64.7044 10.3783 64.8876 10.0924 65.1333 9.86609C65.3749 9.63605 65.6724 9.47299 65.9963 9.39307L71.6573 7.91211L74.7573 2.68506C74.9487 2.40615 75.2037 2.17688 75.5013 2.01611C75.8006 1.85805 76.1339 1.77539 76.4723 1.77539C76.8107 1.77539 77.1441 1.85805 77.4433 2.01611C77.7411 2.17662 77.9962 2.40594 78.1873 2.68506L81.2813 7.91211L86.9453 9.4021C87.2689 9.48214 87.566 9.6452 87.8073 9.87512C88.0504 10.0999 88.233 10.3822 88.3383 10.696C88.443 11.0121 88.4681 11.3491 88.4113 11.6771C88.3551 12.0058 88.2176 12.3151 88.0113 12.577L84.2243 17.3131L84.6343 23.5221C84.6545 23.7942 84.6181 24.0676 84.5274 24.325C84.4367 24.5823 84.2938 24.8182 84.1075 25.0176C83.9212 25.217 83.6957 25.3758 83.4451 25.4838C83.1945 25.5918 82.9242 25.6466 82.6513 25.645H82.6103C82.3515 25.6441 82.0953 25.5925 81.8563 25.493L76.4703 23.201H76.4623L71.0813 25.4841C70.8345 25.5915 70.5684 25.6472 70.2993 25.6481Z" stroke="#FCA800" stroke-width="2"/>
<path id="Caminho 43209" d="M38.2993 25.6481C38.0271 25.6485 37.7577 25.5937 37.5073 25.4871C37.258 25.3791 37.0333 25.2212 36.8473 25.0231C36.662 24.8203 36.5195 24.5823 36.4283 24.3231C36.3381 24.0666 36.3013 23.7943 36.3203 23.5231L36.7303 17.3141L32.9403 12.5691C32.7307 12.3112 32.59 12.0043 32.5313 11.6771C32.4726 11.3494 32.4967 11.0121 32.6013 10.696C32.7044 10.3783 32.8876 10.0924 33.1333 9.86609C33.3749 9.63605 33.6724 9.47299 33.9963 9.39307L39.6573 7.91211L42.7573 2.68506C42.9487 2.40615 43.2037 2.17688 43.5013 2.01611C43.8006 1.85805 44.1339 1.77539 44.4723 1.77539C44.8107 1.77539 45.1441 1.85805 45.4433 2.01611C45.7411 2.17662 45.9962 2.40594 46.1873 2.68506L49.2813 7.91211L54.9453 9.4021C55.2689 9.48214 55.566 9.6452 55.8073 9.87512C56.0504 10.0999 56.233 10.3822 56.3383 10.696C56.443 11.0121 56.4681 11.3491 56.4113 11.6771C56.3551 12.0058 56.2176 12.3151 56.0113 12.577L52.2243 17.3131L52.6343 23.5221C52.6545 23.7942 52.6181 24.0676 52.5274 24.325C52.4367 24.5823 52.2938 24.8182 52.1075 25.0176C51.9212 25.217 51.6957 25.3758 51.4451 25.4838C51.1945 25.5918 50.9242 25.6466 50.6513 25.645H50.6103C50.3515 25.6441 50.0953 25.5925 49.8563 25.493L44.4703 23.201H44.4623L39.0813 25.4841C38.8345 25.5915 38.5684 25.6472 38.2993 25.6481Z" stroke="#FCA800" stroke-width="2"/>
<path id="Caminho 43210" d="M102.299 25.6481C102.027 25.6485 101.758 25.5937 101.507 25.4871C101.258 25.3791 101.033 25.2212 100.847 25.0231C100.662 24.8203 100.519 24.5823 100.428 24.3231C100.338 24.0666 100.301 23.7943 100.32 23.5231L100.73 17.3141L96.9403 12.5691C96.7307 12.3112 96.59 12.0043 96.5313 11.6771C96.4726 11.3494 96.4967 11.0121 96.6013 10.696C96.7044 10.3783 96.8876 10.0924 97.1333 9.86609C97.3749 9.63605 97.6724 9.47299 97.9963 9.39307L103.657 7.91211L106.757 2.68506C106.949 2.40615 107.204 2.17688 107.501 2.01611C107.801 1.85805 108.134 1.77539 108.472 1.77539C108.811 1.77539 109.144 1.85805 109.443 2.01611C109.741 2.17662 109.996 2.40594 110.187 2.68506L113.281 7.91211L118.945 9.4021C119.269 9.48214 119.566 9.6452 119.807 9.87512C120.05 10.0999 120.233 10.3822 120.338 10.696C120.443 11.0121 120.468 11.3491 120.411 11.6771C120.355 12.0058 120.218 12.3151 120.011 12.577L116.224 17.3131L116.634 23.5221C116.654 23.7942 116.618 24.0676 116.527 24.325C116.437 24.5823 116.294 24.8182 116.107 25.0176C115.921 25.217 115.696 25.3758 115.445 25.4838C115.194 25.5918 114.924 25.6466 114.651 25.645H114.61C114.351 25.6441 114.095 25.5925 113.856 25.493L108.47 23.201H108.462L103.081 25.4841C102.835 25.5915 102.568 25.6472 102.299 25.6481Z" stroke="#FCA800" stroke-width="2"/>
<path id="Caminho 43212" d="M134.299 25.6481C134.027 25.6485 133.758 25.5937 133.507 25.4871C133.258 25.3791 133.033 25.2212 132.847 25.0231C132.662 24.8203 132.519 24.5823 132.428 24.3231C132.338 24.0666 132.301 23.7943 132.32 23.5231L132.73 17.3141L128.94 12.5691C128.731 12.3112 128.59 12.0043 128.531 11.6771C128.473 11.3494 128.497 11.0121 128.601 10.696C128.704 10.3783 128.888 10.0924 129.133 9.86609C129.375 9.63605 129.672 9.47299 129.996 9.39307L135.657 7.91211L138.757 2.68506C138.949 2.40615 139.204 2.17688 139.501 2.01611C139.801 1.85805 140.134 1.77539 140.472 1.77539C140.811 1.77539 141.144 1.85805 141.443 2.01611C141.741 2.17662 141.996 2.40594 142.187 2.68506L145.281 7.91211L150.945 9.4021C151.269 9.48214 151.566 9.6452 151.807 9.87512C152.05 10.0999 152.233 10.3822 152.338 10.696C152.443 11.0121 152.468 11.3491 152.411 11.6771C152.355 12.0058 152.218 12.3151 152.011 12.577L148.224 17.3131L148.634 23.5221C148.654 23.7942 148.618 24.0676 148.527 24.325C148.437 24.5823 148.294 24.8182 148.107 25.0176C147.921 25.217 147.696 25.3758 147.445 25.4838C147.194 25.5918 146.924 25.6466 146.651 25.645H146.61C146.351 25.6441 146.095 25.5925 145.856 25.493L140.47 23.201H140.462L135.081 25.4841C134.835 25.5915 134.568 25.6472 134.299 25.6481Z" stroke="#FCA800" stroke-width="2"/>
</g>
</svg>
