<svg width="46" height="46" viewBox="0 0 46 46" fill="none" xmlns="http://www.w3.org/2000/svg">
<path d="M2.63835 45.9608C2.17535 45.9608 1.75636 45.9678 1.33836 45.9558C0.983551 45.9409 0.648312 45.7891 0.403041 45.5323C0.157771 45.2755 0.0215367 44.9336 0.0229603 44.5785C0.0243838 44.2234 0.163349 43.8826 0.410671 43.6278C0.657992 43.3729 0.994445 43.2238 1.34936 43.2118C1.88636 43.1988 2.42535 43.1928 2.96235 43.2118C3.09437 43.2256 3.22749 43.1994 3.34434 43.1364C3.46119 43.0734 3.55633 42.9767 3.61735 42.8588C6.16402 38.8154 8.71602 34.7751 11.2734 30.7378C14.5134 25.6131 17.7577 20.4914 21.0064 15.3728C21.1374 15.2183 21.2093 15.0223 21.2093 14.8198C21.2093 14.6172 21.1374 14.4213 21.0064 14.2668C20.1734 13.0278 19.3894 11.7558 18.5904 10.4938C18.398 10.2446 18.2677 9.95327 18.2104 9.64378C18.1578 9.33088 18.2178 9.00948 18.3796 8.73657C18.5414 8.46365 18.7946 8.25684 19.0944 8.15278C19.391 8.04061 19.7174 8.03491 20.0178 8.13668C20.3182 8.23846 20.574 8.44138 20.7414 8.71078C21.3594 9.64478 21.9473 10.5988 22.5504 11.5428C22.6495 11.7414 22.7806 11.9225 22.9384 12.0788C23.1664 12.0478 23.2224 11.8558 23.3134 11.7138C23.9604 10.7138 24.5803 9.68679 25.2463 8.69679C25.3746 8.48743 25.5566 8.31633 25.7735 8.20137C25.9904 8.0864 26.2342 8.03179 26.4795 8.04324C26.7247 8.05468 26.9624 8.13177 27.1676 8.26643C27.3729 8.40109 27.5382 8.5884 27.6464 8.80879C27.7633 9.05281 27.811 9.32428 27.7842 9.59356C27.7574 9.86285 27.6571 10.1196 27.4944 10.3358C26.6564 11.6428 25.8464 12.9688 24.9824 14.2588C24.8522 14.4167 24.7809 14.6151 24.7809 14.8198C24.7809 15.0245 24.8522 15.2228 24.9824 15.3808C28.1157 20.3094 31.239 25.2428 34.3524 30.1808C36.9944 34.3588 39.6327 38.5391 42.2674 42.7218C42.3461 42.8882 42.4758 43.0253 42.6375 43.1132C42.7993 43.2011 42.9849 43.2353 43.1674 43.2108C43.6424 43.1758 44.1234 43.1958 44.6004 43.2058C44.7807 43.2071 44.9589 43.2439 45.125 43.3141C45.2911 43.3843 45.4417 43.4866 45.5683 43.615C45.6948 43.7434 45.7949 43.8955 45.8627 44.0626C45.9305 44.2297 45.9647 44.4085 45.9634 44.5888C45.962 44.7691 45.9252 44.9474 45.855 45.1134C45.7848 45.2795 45.6826 45.4301 45.5541 45.5567C45.4257 45.6833 45.2736 45.7833 45.1065 45.8511C44.9394 45.9189 44.7607 45.9531 44.5803 45.9518C40.0243 45.9578 35.4683 45.9518 30.9123 45.9628C30.7811 45.9694 30.6514 45.9328 30.543 45.8585C30.4346 45.7843 30.3536 45.6765 30.3124 45.5518C28.4024 41.7151 26.4877 37.8818 24.5684 34.0518C24.4484 33.8118 24.3284 33.5708 24.2024 33.3338C24.0863 33.1079 23.9093 32.9191 23.6913 32.7887C23.4734 32.6584 23.2232 32.5918 22.9693 32.5965C22.7154 32.6012 22.4679 32.677 22.2549 32.8152C22.0419 32.9535 21.872 33.1488 21.7644 33.3788C20.545 35.8248 19.323 38.2694 18.0984 40.7128C17.2984 42.3128 16.4854 43.9128 15.6984 45.5248C15.6439 45.6685 15.5429 45.7898 15.4116 45.8695C15.2802 45.9493 15.126 45.9828 14.9734 45.9648C10.8694 45.9548 6.77635 45.9598 2.63835 45.9608Z" fill="black"/>
<path d="M0.780326 17.213C0.413604 16.7161 0.165569 16.1417 0.0552589 15.5341C-0.0550511 14.9264 -0.0247034 14.3015 0.143958 13.7074C0.31262 13.1133 0.615126 12.5656 1.02827 12.1066C1.44141 11.6475 1.95419 11.2891 2.52732 11.059C2.64067 11.0078 2.74256 10.9343 2.82691 10.8429C2.91126 10.7515 2.97635 10.6441 3.01832 10.527C3.32756 9.81293 3.83495 9.20242 4.4804 8.76775C5.12584 8.33307 5.88232 8.09244 6.66027 8.07434C7.43822 8.05625 8.20507 8.26145 8.87003 8.66564C9.53499 9.06983 10.0702 9.65609 10.4123 10.355C10.4653 10.4909 10.5622 10.6053 10.6875 10.6799C10.8129 10.7546 10.9596 10.7852 11.1043 10.767C11.8337 10.7079 12.5677 10.7578 13.2823 10.915C14.2216 11.1856 15.0318 11.7857 15.5647 12.6051C16.0975 13.4245 16.3173 14.4085 16.1837 15.3768C16.05 16.3451 15.572 17.2328 14.8371 17.8773C14.1022 18.5218 13.1597 18.8799 12.1823 18.886C9.50932 18.892 6.83632 18.886 4.16332 18.886C3.50595 18.9029 2.85438 18.7594 2.26493 18.4679C1.67548 18.1764 1.16592 17.7457 0.780326 17.213Z" fill="black"/>
<path d="M35.9594 10.7818C36.11 10.6437 36.2693 10.5154 36.4364 10.3978C36.9387 10.1259 37.3379 9.69674 37.5727 9.17613C37.8075 8.65552 37.865 8.07223 37.7364 7.51578C37.5923 6.96233 37.2778 6.4682 36.8374 6.10335C36.397 5.7385 35.853 5.5214 35.2824 5.48279C35.1338 5.47601 34.9849 5.4854 34.8384 5.51079C34.565 5.56182 34.2827 5.53129 34.0266 5.42299C33.7704 5.31468 33.5518 5.1334 33.398 4.90173C33.2441 4.67006 33.1618 4.39824 33.1614 4.12014C33.1609 3.84204 33.2423 3.56995 33.3954 3.33778C33.9386 2.41093 34.6952 1.62716 35.6024 1.05166C36.5095 0.476153 37.541 0.125551 38.6109 0.0290116C39.6809 -0.0675274 40.7583 0.0927857 41.7538 0.496617C42.7494 0.900449 43.6341 1.53612 44.3344 2.35078C45.1324 3.28534 45.6612 4.41939 45.864 5.63145C46.0669 6.84351 45.9362 8.08793 45.486 9.2314C45.0357 10.3749 44.2829 11.3743 43.3081 12.1227C42.3333 12.8711 41.1734 13.3402 39.9524 13.4798C38.8196 13.6301 37.6672 13.4647 36.6224 13.0018C36.4045 12.9329 36.2068 12.8118 36.0464 12.6489C35.8861 12.4861 35.7681 12.2864 35.7027 12.0674C35.6373 11.8485 35.6265 11.6168 35.6713 11.3927C35.716 11.1686 35.8149 10.9589 35.9594 10.7818Z" fill="black"/>
<path d="M22.9303 36.9459C23.1363 36.9319 23.1553 37.0929 23.2103 37.2029C24.6103 39.9896 26.0056 42.7776 27.3963 45.5669C27.4318 45.6158 27.4567 45.6716 27.4693 45.7307C27.4818 45.7897 27.4818 45.8508 27.4693 45.9099H18.5083C18.4473 45.7569 18.5303 45.6579 18.5823 45.5539C19.9956 42.7252 21.4103 39.8969 22.8263 37.0689C22.8539 37.0224 22.8891 36.9809 22.9303 36.9459Z" fill="black"/>
<path d="M25.3683 2.73489C25.0766 2.669 24.8145 2.50933 24.6222 2.28033C24.4298 2.05132 24.3178 1.7656 24.3033 1.46689C24.2758 1.2059 24.328 0.942706 24.4529 0.711923C24.5779 0.48114 24.7697 0.293572 25.0033 0.173891C25.2452 0.0390946 25.5221 -0.0196319 25.7979 0.0053878C26.0737 0.0304075 26.3356 0.138006 26.5493 0.314134C26.763 0.490262 26.9186 0.726742 26.9959 0.992685C27.0731 1.25863 27.0684 1.54168 26.9823 1.80489C26.8978 2.07674 26.7297 2.31497 26.5018 2.48557C26.2739 2.65618 25.9979 2.75043 25.7133 2.75489C25.598 2.75463 25.4828 2.74795 25.3683 2.73489Z" fill="black"/>
<path d="M13.3823 3.30082C13.4927 3.47233 13.5644 3.66592 13.5923 3.86802C13.6201 4.07013 13.6035 4.27589 13.5434 4.47088C13.4834 4.66588 13.3815 4.84539 13.2449 4.99687C13.1082 5.14835 12.9401 5.26812 12.7523 5.34782C12.5763 5.42068 12.387 5.45612 12.1966 5.45189C12.0062 5.44765 11.8187 5.40384 11.6461 5.32324C11.4736 5.24264 11.3196 5.12701 11.1941 4.9837C11.0687 4.84039 10.9744 4.67255 10.9173 4.49083C10.8156 4.19178 10.8217 3.86663 10.9343 3.57156C11.047 3.2765 11.2592 3.03006 11.5343 2.87483C11.8387 2.69746 12.1993 2.64278 12.5426 2.72192C12.886 2.80107 13.1862 3.00808 13.3823 3.30082Z" fill="black"/>
<path d="M31.2804 13.4638C31.5763 13.5106 31.8487 13.6534 32.0554 13.8702C32.2622 14.0871 32.3918 14.366 32.4243 14.6638C32.4561 14.9393 32.4041 15.2179 32.2749 15.4632C32.1458 15.7086 31.9455 15.9092 31.7005 16.0388C31.4554 16.1685 31.1768 16.2212 30.9013 16.19C30.6258 16.1587 30.3662 16.0451 30.1564 15.8638C29.9528 15.6871 29.8061 15.454 29.735 15.194C29.6638 14.9339 29.6712 14.6586 29.7564 14.4028C29.837 14.1374 29.9977 13.9034 30.2165 13.7328C30.4352 13.5622 30.7013 13.4634 30.9784 13.4498C31.0792 13.4489 31.18 13.4536 31.2804 13.4638Z" fill="black"/>
</svg>
