<svg width="13" height="21" viewBox="0 0 13 21" fill="none" xmlns="http://www.w3.org/2000/svg">
<path id="Caminho 27930" d="M8.55012 10.95L1.0301 3.42993C0.928085 3.32735 0.847335 3.20562 0.792425 3.07178C0.737514 2.93793 0.709453 2.79457 0.710027 2.6499C0.708424 2.50657 0.735951 2.36454 0.79096 2.23218C0.845968 2.09981 0.927378 1.97986 1.0301 1.87988L1.69001 1.21997C1.79032 1.11562 1.91072 1.03254 2.04389 0.97583C2.17706 0.919121 2.32029 0.889893 2.46503 0.889893C2.60978 0.889893 2.75312 0.919121 2.8863 0.97583C3.01947 1.03254 3.13975 1.11562 3.24006 1.21997L12.2 10.1699C12.405 10.3778 12.52 10.658 12.52 10.95C12.52 11.2419 12.405 11.5221 12.2 11.73L3.25007 20.6699C3.04218 20.8749 2.76196 20.9897 2.47004 20.9897C2.17811 20.9897 1.89789 20.8749 1.69001 20.6699L1.04011 20.01C0.93595 19.9106 0.852925 19.791 0.796209 19.6587C0.739492 19.5264 0.710181 19.384 0.710027 19.24C0.71015 19.0945 0.739408 18.9506 0.796087 18.8167C0.852765 18.6827 0.935793 18.5613 1.04011 18.46L8.55012 10.95Z" fill="#3A4B4C"/>
</svg>
