<svg width="25" height="25" viewBox="0 0 25 25" fill="none" xmlns="http://www.w3.org/2000/svg">
<path d="M6.35903 23.476C6.10787 23.4758 5.85943 23.4241 5.62905 23.324C5.39816 23.2244 5.19046 23.078 5.01907 22.894C4.84914 22.7088 4.71668 22.4925 4.62905 22.257C4.54934 22.0196 4.51876 21.7685 4.53909 21.519L4.90908 15.804L1.41909 11.44C1.22773 11.2012 1.10039 10.9176 1.0491 10.616C0.989258 10.3159 1.0099 10.0054 1.10903 9.71599C1.20561 9.42521 1.3733 9.16315 1.59683 8.9536C1.82035 8.74404 2.09267 8.59362 2.38906 8.51599L7.59902 7.15399L10.459 2.34099C10.6357 2.08299 10.8725 1.8719 11.1491 1.72598C11.4229 1.57962 11.7286 1.50305 12.0391 1.50305C12.3496 1.50305 12.6553 1.57962 12.9291 1.72598C13.2056 1.87194 13.4424 2.08302 13.619 2.34099L16.469 7.15399L21.6791 8.51799C21.9754 8.59344 22.2473 8.74353 22.469 8.95398C22.6941 9.16211 22.8627 9.42395 22.959 9.71498C23.0565 10.0046 23.0806 10.3138 23.0291 10.615C22.9731 10.9155 22.8463 11.1983 22.6591 11.44L19.1791 15.803L19.5491 21.517C19.5661 21.7672 19.532 22.0183 19.449 22.255C19.3686 22.494 19.2354 22.7117 19.0591 22.892C18.8911 23.0754 18.6867 23.2218 18.459 23.322C18.2286 23.4219 17.9802 23.474 17.729 23.475H17.689C17.4516 23.4754 17.2167 23.4267 16.999 23.332L12.0391 21.226H12.0291L7.07901 23.326C6.85172 23.4245 6.60674 23.4755 6.35903 23.476Z" stroke="#252849" stroke-width="2"/>
</svg>
