<svg width="20" height="19" viewBox="0 0 20 19" fill="none" xmlns="http://www.w3.org/2000/svg">
<path d="M5.00355 18.965C4.79049 18.9653 4.57958 18.9225 4.38355 18.839C4.18827 18.7545 4.01233 18.6311 3.86655 18.4761C3.72185 18.3182 3.61031 18.1328 3.53855 17.9311C3.46744 17.7294 3.43852 17.5153 3.45356 17.302L3.77456 12.439L0.805549 8.72207C0.641315 8.5196 0.531206 8.27867 0.485549 8.022C0.439426 7.76509 0.458335 7.5008 0.540549 7.25307C0.621071 7.00427 0.764344 6.78038 0.95655 6.60305C1.14582 6.42295 1.37884 6.29541 1.63255 6.23306L6.06655 5.07302L8.49755 0.979027C8.64747 0.760503 8.84734 0.580822 9.08056 0.454979C9.31493 0.331155 9.57599 0.266502 9.84106 0.266502C10.1061 0.266502 10.3672 0.331155 10.6016 0.454979C10.8349 0.580631 11.0348 0.760349 11.1845 0.979027L13.6086 5.07302L18.0456 6.24001C18.2989 6.30253 18.5316 6.43006 18.7206 6.61001C18.9109 6.78609 19.054 7.00726 19.1366 7.25307C19.2186 7.50081 19.2381 7.76488 19.1936 8.022C19.1486 8.28013 19.0396 8.52292 18.8765 8.72805L15.9106 12.438L16.2316 17.301C16.2474 17.5142 16.219 17.7283 16.148 17.93C16.0771 18.1316 15.9651 18.3163 15.8192 18.4726C15.6733 18.6288 15.4966 18.7532 15.3003 18.8378C15.104 18.9224 14.8923 18.9653 14.6785 18.964H14.6496C14.447 18.9632 14.2466 18.9227 14.0595 18.845L9.84055 17.0451H9.83456L5.61956 18.834C5.42537 18.9194 5.21569 18.964 5.00355 18.965Z" fill="#FCA800"/>
</svg>
