<svg width="35" height="36" viewBox="0 0 35 36" fill="none" xmlns="http://www.w3.org/2000/svg">
<path d="M33.954 15.978L19.719 1.74101C19.4211 1.4421 19.0672 1.20493 18.6775 1.0431C18.2878 0.881276 17.8699 0.797974 17.448 0.797974C17.026 0.797974 16.6082 0.881276 16.2185 1.0431C15.8287 1.20493 15.4748 1.4421 15.177 1.74101L0.950968 15.968L0.936968 15.982C0.497147 16.4227 0.195172 16.982 0.0679186 17.5915C-0.0593348 18.2009 -0.00635971 18.8343 0.220375 19.4142C0.447109 19.9941 0.837791 20.4954 1.34471 20.8569C1.85163 21.2184 2.45286 21.4245 3.07497 21.45H3.73997V31.924C3.74023 32.9221 4.13691 33.8792 4.84277 34.5849C5.54863 35.2906 6.50587 35.687 7.50397 35.687H13.072C13.3439 35.6862 13.6044 35.5775 13.7962 35.3847C13.988 35.192 14.0955 34.931 14.095 34.659V26.452C14.0955 25.9984 14.2755 25.5634 14.5957 25.242C14.916 24.9207 15.3503 24.7391 15.804 24.737H19.094C19.5478 24.7389 19.9824 24.9203 20.3028 25.2417C20.6233 25.563 20.8034 25.9982 20.804 26.452V34.659C20.8037 34.7938 20.83 34.9274 20.8814 35.052C20.9328 35.1767 21.0082 35.29 21.1034 35.3854C21.1986 35.4809 21.3117 35.5567 21.4362 35.6084C21.5607 35.6602 21.6941 35.6869 21.829 35.687H27.404C28.3998 35.6852 29.3543 35.2887 30.0585 34.5846C30.7627 33.8804 31.1591 32.9259 31.161 31.93V21.465H31.687C32.322 21.4648 32.9428 21.2765 33.4708 20.9237C33.9989 20.571 34.4106 20.0697 34.6539 19.4831C34.8972 18.8965 34.9613 18.251 34.8379 17.628C34.7146 17.0051 34.4094 16.4326 33.961 15.983L33.954 15.978Z" fill="black"/>
</svg>
