<svg width="80" height="78" viewBox="0 0 80 78" fill="none" xmlns="http://www.w3.org/2000/svg">
<g id="svgg" opacity="0.2">
<g id="Group" filter="url(#filter0_d_3_99589)">
<path id="path0" fill-rule="evenodd" clip-rule="evenodd" d="M30.2128 24.231C29.6137 24.498 29.0854 24.9012 28.6697 25.4085C28.2541 25.9158 27.9627 26.5132 27.8188 27.153L27.6428 27.79L27.6608 31.324L27.6788 34.858L27.8678 34.884C28.0998 34.8806 28.3304 34.847 28.5538 34.784C28.9191 34.7014 29.2896 34.644 29.6628 34.612C30.3628 34.557 30.4238 34.519 30.4848 34.062C30.5411 33.701 30.6703 33.3552 30.8646 33.0458C31.0589 32.7363 31.3141 32.4696 31.6148 32.262C33.4639 31.8116 35.3909 31.7849 37.2518 32.184C37.606 32.3917 37.9084 32.6771 38.1362 33.0187C38.364 33.3603 38.5112 33.7492 38.5668 34.156L38.6548 34.528H39.7108C40.8948 34.528 40.7978 34.582 40.9788 33.828C41.0977 33.2802 41.3957 32.7876 41.8258 32.428C42.3788 31.987 42.5048 31.969 45.0008 31.969H47.3008L47.6808 32.184C48.0349 32.3922 48.3373 32.678 48.565 33.0199C48.7928 33.3618 48.9401 33.751 48.9958 34.158L49.0838 34.53L49.6328 34.593C49.9328 34.628 50.3978 34.699 50.6618 34.752C50.9221 34.8038 51.1857 34.8372 51.4508 34.852L51.7598 34.858L51.7778 31.324L51.7958 27.79L51.6198 27.153C51.4743 26.5138 51.1823 25.9172 50.7669 25.4101C50.3514 24.903 49.8238 24.4994 49.2258 24.231L48.6728 24H30.7728L30.2198 24.231M28.4678 36.058C27.4422 36.4458 26.5356 37.0945 25.8376 37.94C25.1396 38.7855 24.6743 39.7986 24.4878 40.879C24.2762 44.7394 24.2762 48.6086 24.4878 52.469C25.0878 53.655 26.5448 53.097 26.5458 51.681C26.5458 50.996 26.6738 50.638 26.9608 50.518C27.3248 50.365 52.1998 50.386 52.5048 50.539C52.7848 50.68 52.8888 50.994 52.8898 51.696C52.8898 53.096 54.3518 53.646 54.9478 52.469C55.1593 48.6086 55.1593 44.7394 54.9478 40.879C54.7632 39.7934 54.2954 38.7757 53.5917 37.9287C52.888 37.0817 51.9732 36.4353 50.9398 36.055C50.1058 35.802 29.2858 35.806 28.4668 36.055" fill="black"/>
</g>
</g>
<defs>
<filter id="filter0_d_3_99589" x="0.329102" y="0" width="78.7773" height="77.1142" filterUnits="userSpaceOnUse" color-interpolation-filters="sRGB">
<feFlood flood-opacity="0" result="BackgroundImageFix"/>
<feColorMatrix in="SourceAlpha" type="matrix" values="0 0 0 0 0 0 0 0 0 0 0 0 0 0 0 0 0 0 127 0" result="hardAlpha"/>
<feOffset/>
<feGaussianBlur stdDeviation="12"/>
<feColorMatrix type="matrix" values="0 0 0 0 0 0 0 0 0 0 0 0 0 0 0 0 0 0 0.059 0"/>
<feBlend mode="normal" in2="BackgroundImageFix" result="effect1_dropShadow_3_99589"/>
<feBlend mode="normal" in="SourceGraphic" in2="effect1_dropShadow_3_99589" result="shape"/>
</filter>
</defs>
</svg>
