<svg width="24" height="24" viewBox="0 0 24 24" fill="none" xmlns="http://www.w3.org/2000/svg">
<path opacity="0.4" d="M0.404689 9.23399C1.63269 4.11699 5.76769 0.689988 11.2977 0.207988C12.338 0.148542 13.3815 0.235389 14.3977 0.465988C14.3345 0.998576 14.2376 1.52663 14.1077 2.04699C13.9157 2.03251 13.7248 2.00713 13.5357 1.97099C11.0412 1.53932 8.47607 2.07968 6.36769 3.48099C4.80048 4.50062 3.54428 5.93209 2.73682 7.61844C1.92937 9.3048 1.60184 11.1809 1.79014 13.0411C1.97844 14.9013 2.67531 16.6738 3.80433 18.1641C4.93335 19.6544 6.45094 20.8051 8.19069 21.49C10.3874 22.3032 12.7912 22.3683 15.0287 21.675C16.4488 21.2045 17.7498 20.4312 18.8417 19.4086C19.9336 18.3859 20.7903 17.1383 21.3527 15.752C21.4367 15.545 21.5207 15.416 21.5527 15.422C21.5847 15.428 21.9327 15.56 22.3157 15.713L23.0157 15.99L22.9237 16.231C22.8707 16.364 22.7807 16.584 22.7237 16.731C21.9357 18.4859 20.7444 20.0298 19.2467 21.237C19.1087 21.348 18.9857 21.448 18.9727 21.464C18.0092 22.1619 16.9547 22.7248 15.8387 23.137C14.5605 23.5835 13.2166 23.813 11.8627 23.816C10.0777 23.813 8.31664 23.4054 6.71188 22.6239C5.10712 21.8423 3.70043 20.707 2.59759 19.3035C1.49475 17.9 0.724465 16.2647 0.344643 14.5206C-0.0351797 12.7765 -0.0146498 10.969 0.404689 9.23399ZM6.22569 18.058C4.8374 16.6917 3.96709 14.8854 3.7637 12.9482C3.56032 11.011 4.03649 9.06328 5.11074 7.43844C6.18499 5.81359 7.79053 4.61258 9.65262 4.04094C11.5147 3.4693 13.5176 3.56256 15.3185 4.30476C17.1194 5.04697 18.6064 6.39197 19.525 8.10961C20.4436 9.82725 20.7367 11.8108 20.3542 13.7207C19.9717 15.6306 18.9373 17.3482 17.4281 18.5796C15.9188 19.811 14.0285 20.4796 12.0807 20.471C10.9935 20.477 9.91602 20.2668 8.91085 19.8525C7.90569 19.4383 6.99293 18.8283 6.22569 18.058ZM11.8517 7.30299C11.4267 7.50299 11.4327 7.43599 11.4327 10.181V12.621L12.0077 13.248C12.8627 14.183 15.2737 16.548 15.4187 16.586C15.5336 16.6095 15.6525 16.604 15.7647 16.5701C15.877 16.5361 15.979 16.4747 16.0615 16.3914C16.1441 16.3082 16.2046 16.2057 16.2377 16.0932C16.2707 15.9806 16.2752 15.8617 16.2507 15.747C16.2167 15.663 15.4347 14.83 14.5067 13.901L12.8287 12.211L12.8087 9.96499C12.7917 7.53199 12.7917 7.54799 12.4727 7.34299C12.3746 7.27234 12.2575 7.23295 12.1367 7.22999C12.0375 7.23263 11.9402 7.25822 11.8517 7.30299ZM21.9517 13.679C21.947 13.5263 21.9581 13.3735 21.9847 13.223C22.0147 12.982 22.0377 12.414 22.0377 11.965C22.0377 11.338 22.0547 11.135 22.1007 11.133C22.1467 11.131 22.4507 11.1 22.8007 11.068C23.1507 11.036 23.4907 10.998 23.5477 10.995C23.7372 11.9657 23.7259 12.9648 23.5147 13.931H23.4997C22.9791 13.8732 22.4618 13.7891 21.9497 13.679H21.9517ZM21.4677 8.60399C21.4677 8.59299 21.4127 8.46599 21.3557 8.31399C21.1367 7.76373 20.8763 7.23087 20.5767 6.71999C20.4207 6.45899 20.3617 6.31999 20.3947 6.28299C20.4277 6.24599 20.7217 6.04999 21.0547 5.82199C21.3877 5.59399 21.6717 5.40799 21.6757 5.40299C22.1668 6.15172 22.5825 6.94728 22.9167 7.77799L23.0167 8.05699L22.8837 8.11099C22.5997 8.22099 21.5027 8.59899 21.4647 8.59899L21.4677 8.60399ZM18.4037 4.20399C17.9483 3.83301 17.466 3.49642 16.9607 3.19699L16.5017 2.92599L16.7957 2.37599C16.9547 2.07599 17.1227 1.75199 17.1677 1.66199C17.2677 1.46199 17.2337 1.45599 17.7097 1.73099C18.8717 2.40199 19.7537 3.09499 19.6287 3.24999C19.4207 3.51399 18.6547 4.36699 18.6287 4.36699C18.5474 4.32187 18.4719 4.26715 18.4037 4.20399Z" fill="black"/>
</svg>
