<svg width="49" height="49" viewBox="0 0 49 49" fill="none" xmlns="http://www.w3.org/2000/svg">
<path id="Exclus&#195;&#163;o 47" opacity="0.6" d="M24.4988 49C19.6532 49 14.9164 47.5631 10.8875 44.871C6.85849 42.1789 3.7183 38.3525 1.86397 33.8758C0.00964499 29.399 -0.475536 24.4729 0.469782 19.7204C1.4151 14.9679 3.74846 10.6024 7.1748 7.17604C11.7752 2.6092 17.998 0.0516497 24.4802 0.0635177C30.9625 0.0753856 37.1758 2.65571 41.7595 7.23936C46.3431 11.823 48.9235 18.0364 48.9353 24.5186C48.9472 31.0009 46.3896 37.2236 41.8228 41.824C39.5531 44.1062 36.8532 45.9155 33.8796 47.1473C30.9059 48.379 27.7175 49.0088 24.4988 49ZM20.4928 34.749H20.5928C22.4589 34.7542 24.3074 34.3892 26.0315 33.6751C27.7556 32.9611 29.3209 31.9121 30.6368 30.589C31.9638 29.2556 33.0145 27.6733 33.7287 25.9329C34.443 24.1925 34.8066 22.3283 34.7988 20.447C34.7988 20.247 34.7928 20.039 34.7808 19.797C35.7743 19.0882 36.6297 18.2037 37.3048 17.187C36.3812 17.5895 35.4046 17.8569 34.4048 17.981C35.4563 17.3554 36.2419 16.366 36.6128 15.2C35.627 15.7846 34.5484 16.1963 33.4238 16.417C32.7352 15.6787 31.8402 15.1648 30.8553 14.9425C29.8705 14.7201 28.8415 14.7996 27.9025 15.1706C26.9635 15.5416 26.158 16.1868 25.591 17.0222C25.024 17.8576 24.7218 18.8444 24.7238 19.854C24.7208 20.2393 24.7607 20.6237 24.8428 21C22.8441 20.9004 20.8887 20.3808 19.1042 19.475C17.3197 18.5692 15.7461 17.2976 14.4858 15.743C13.8397 16.8493 13.64 18.1603 13.9275 19.4087C14.2149 20.6572 14.9679 21.7488 16.0328 22.461C15.237 22.4388 14.458 22.2265 13.7608 21.842V21.9C13.766 23.0597 14.1685 24.1825 14.9013 25.0813C15.6342 25.9801 16.6529 26.6005 17.7878 26.839C17.3708 26.9474 16.9416 27.0015 16.5108 27H16.3988C16.1043 27.0001 15.8105 26.971 15.5218 26.913C15.8481 27.9102 16.475 28.782 17.3165 29.4087C18.1581 30.0354 19.1729 30.3862 20.2218 30.413C18.4429 31.7993 16.253 32.5537 13.9978 32.557H13.9278C13.5474 32.5566 13.1674 32.5335 12.7898 32.488C15.0746 33.9617 17.736 34.7447 20.4548 34.743L20.4928 34.749Z" fill="white"/>
</svg>
