<svg width="398" height="265" viewBox="0 0 398 265" fill="none" xmlns="http://www.w3.org/2000/svg">
<path d="M385 0H13C5.8203 0 0 5.8203 0 13V252C0 259.18 5.8203 265 13 265H385C392.18 265 398 259.18 398 252V13C398 5.8203 392.18 0 385 0Z" fill="#3A4B4C"/>
<mask id="mask0_4_157349" style="mask-type:luminance" maskUnits="userSpaceOnUse" x="0" y="0" width="398" height="265">
<path d="M385 0H13C5.8203 0 0 5.8203 0 13V252C0 259.18 5.8203 265 13 265H385C392.18 265 398 259.18 398 252V13C398 5.8203 392.18 0 385 0Z" fill="white"/>
</mask>
<g mask="url(#mask0_4_157349)">
<g style="mix-blend-mode:luminosity">
<g opacity="0.47">
<g filter="url(#filter0_d_4_157349)">
<path d="M42.1024 400.69L16.7851 311.233L17.5413 143.857L-43.5807 281.384L-144.535 -142.803L227.577 -45.7533L112.342 210.875L42.1024 400.69Z" fill="url(#paint0_linear_4_157349)"/>
</g>
<g filter="url(#filter1_d_4_157349)">
<path d="M-105.215 68.623L526.415 231.932L536.613 -174.491L-105.215 68.623Z" fill="url(#paint1_linear_4_157349)"/>
</g>
<g filter="url(#filter2_d_4_157349)">
<path d="M-348.527 84.6423L-266.005 96.7301L-316.871 40.0033L-103.025 58.0378L107.029 38.1741L-36.8781 421.624L-225.975 236.772L-348.527 84.6423Z" fill="url(#paint2_linear_4_157349)"/>
</g>
<g filter="url(#filter3_d_4_157349)">
<path d="M63.1465 339.333C87.0685 284.846 166.957 21.509 166.957 21.509L526.565 256.518L63.1465 339.333Z" fill="url(#paint3_linear_4_157349)"/>
</g>
<g filter="url(#filter4_d_4_157349)">
<path d="M246.236 -3.16089C300.08 2.79648 541.344 65.8909 541.344 65.8909L554.823 -404.115L246.236 -3.16089Z" fill="url(#paint4_linear_4_157349)"/>
</g>
</g>
</g>
</g>
<path d="M35.7383 228.371C34.665 228.891 33.2637 229.15 31.5342 229.15C29.2783 229.15 27.5044 228.487 26.2124 227.161C24.9204 225.835 24.2744 224.068 24.2744 221.86C24.2744 219.508 24.999 217.601 26.4482 216.138C27.9043 214.675 29.791 213.944 32.1084 213.944C33.5439 213.944 34.7539 214.125 35.7383 214.487V217.676C34.7539 217.088 33.6328 216.794 32.375 216.794C30.9941 216.794 29.8799 217.229 29.0322 218.097C28.1846 218.965 27.7607 220.141 27.7607 221.624C27.7607 223.046 28.1606 224.181 28.9604 225.028C29.7603 225.869 30.8369 226.29 32.1904 226.29C33.4824 226.29 34.665 225.975 35.7383 225.346V228.371ZM52.606 216.887H47.4175V220.496H52.1855V223.183H47.4175V228.894H44.1055V214.19H52.606V216.887ZM69.3403 216.887H64.1519V220.496H68.9199V223.183H64.1519V228.894H60.8398V214.19H69.3403V216.887ZM78.3022 221.316C77.9126 221.104 77.458 220.999 76.9385 220.999C76.2344 220.999 75.6841 221.258 75.2876 221.778C74.8911 222.291 74.6929 222.991 74.6929 223.88V228.894H71.4526V218.394H74.6929V220.342H74.7339C75.2466 218.92 76.1694 218.209 77.5024 218.209C77.8442 218.209 78.1108 218.25 78.3022 218.333V221.316ZM84.7417 229.15C82.9917 229.15 81.6143 228.662 80.6094 227.684C79.6113 226.7 79.1123 225.367 79.1123 223.685C79.1123 221.949 79.6318 220.592 80.6709 219.614C81.71 218.63 83.1147 218.138 84.8853 218.138C86.6284 218.138 87.9956 218.63 88.9868 219.614C89.978 220.592 90.4736 221.887 90.4736 223.5C90.4736 225.244 89.9609 226.621 88.9355 227.633C87.917 228.645 86.519 229.15 84.7417 229.15ZM84.8237 220.619C84.0581 220.619 83.4634 220.882 83.0396 221.409C82.6157 221.935 82.4038 222.68 82.4038 223.644C82.4038 225.661 83.2173 226.669 84.8442 226.669C86.396 226.669 87.1719 225.633 87.1719 223.562C87.1719 221.6 86.3892 220.619 84.8237 220.619ZM91.8887 228.617V225.992C92.4219 226.313 92.9517 226.553 93.478 226.71C94.0112 226.867 94.5137 226.946 94.9854 226.946C95.5596 226.946 96.0107 226.867 96.3389 226.71C96.6738 226.553 96.8413 226.313 96.8413 225.992C96.8413 225.787 96.7661 225.616 96.6157 225.479C96.4653 225.343 96.2705 225.223 96.0312 225.121C95.7988 225.018 95.5425 224.926 95.2622 224.844C94.9819 224.762 94.7119 224.669 94.4521 224.567C94.0352 224.41 93.666 224.242 93.3447 224.064C93.0303 223.88 92.7637 223.668 92.5449 223.429C92.333 223.189 92.1689 222.913 92.0527 222.598C91.9434 222.284 91.8887 221.911 91.8887 221.48C91.8887 220.893 92.0151 220.387 92.2681 219.963C92.5278 219.539 92.8696 219.194 93.2935 218.927C93.7241 218.654 94.2129 218.456 94.7598 218.333C95.3135 218.203 95.8877 218.138 96.4824 218.138C96.9473 218.138 97.4189 218.175 97.8975 218.25C98.376 218.319 98.8477 218.421 99.3125 218.558V221.06C98.9023 220.821 98.4614 220.643 97.9897 220.527C97.5249 220.404 97.0669 220.342 96.6157 220.342C96.4038 220.342 96.2021 220.363 96.0107 220.404C95.8262 220.438 95.6621 220.493 95.5186 220.568C95.375 220.636 95.2622 220.729 95.1802 220.845C95.0981 220.954 95.0571 221.081 95.0571 221.224C95.0571 221.416 95.1187 221.58 95.2417 221.716C95.3647 221.853 95.5254 221.973 95.7236 222.075C95.9219 222.171 96.1406 222.26 96.3799 222.342C96.626 222.417 96.8687 222.496 97.1079 222.578C97.5386 222.728 97.9282 222.892 98.2769 223.07C98.6255 223.248 98.9229 223.456 99.1689 223.695C99.4219 223.935 99.6133 224.215 99.7432 224.536C99.8799 224.857 99.9482 225.24 99.9482 225.685C99.9482 226.307 99.8115 226.84 99.5381 227.284C99.2715 227.722 98.9126 228.081 98.4614 228.361C98.0171 228.634 97.501 228.833 96.9131 228.956C96.332 229.085 95.7271 229.15 95.0981 229.15C93.9429 229.15 92.873 228.973 91.8887 228.617ZM108.172 228.771C107.693 229.024 106.972 229.15 106.008 229.15C103.725 229.15 102.583 227.964 102.583 225.592V220.783H100.881V218.394H102.583V216.128L105.813 215.205V218.394H108.172V220.783H105.813V225.028C105.813 226.122 106.248 226.669 107.116 226.669C107.458 226.669 107.81 226.57 108.172 226.372V228.771Z" fill="white"/>
<path d="M24.6172 29.729V21.3267H27.0078C27.7344 21.3267 28.3105 21.5044 28.7363 21.8599C29.1621 22.2153 29.375 22.6782 29.375 23.2485C29.375 23.7251 29.2461 24.1392 28.9883 24.4907C28.7305 24.8423 28.375 25.0923 27.9219 25.2407V25.2642C28.4883 25.3306 28.9414 25.5454 29.2812 25.9087C29.6211 26.2681 29.791 26.7368 29.791 27.3149C29.791 28.0337 29.5332 28.6157 29.0176 29.061C28.502 29.5063 27.8516 29.729 27.0664 29.729H24.6172ZM25.6016 22.2173V24.9302H26.6094C27.1484 24.9302 27.5723 24.8013 27.8809 24.5435C28.1895 24.2817 28.3438 23.9146 28.3438 23.4419C28.3438 22.6255 27.8066 22.2173 26.7324 22.2173H25.6016ZM25.6016 25.8149V28.8384H26.9375C27.5156 28.8384 27.9629 28.7017 28.2793 28.4282C28.5996 28.1548 28.7598 27.7798 28.7598 27.3032C28.7598 26.311 28.084 25.8149 26.7324 25.8149H25.6016ZM35.6621 29.729H34.7012V28.7915H34.6777C34.2598 29.5103 33.6445 29.8696 32.832 29.8696C32.2344 29.8696 31.7656 29.7114 31.4258 29.395C31.0898 29.0786 30.9219 28.6587 30.9219 28.1353C30.9219 27.0142 31.582 26.3618 32.9023 26.1782L34.7012 25.9263C34.7012 24.9067 34.2891 24.397 33.4648 24.397C32.7422 24.397 32.0898 24.6431 31.5078 25.1353V24.1509C32.0977 23.7759 32.7773 23.5884 33.5469 23.5884C34.957 23.5884 35.6621 24.3345 35.6621 25.8267V29.729ZM34.7012 26.6938L33.2539 26.8931C32.8086 26.9556 32.4727 27.0669 32.2461 27.2271C32.0195 27.3833 31.9062 27.6626 31.9062 28.0649C31.9062 28.3579 32.0098 28.5981 32.2168 28.7856C32.4277 28.9692 32.707 29.061 33.0547 29.061C33.5312 29.061 33.9238 28.895 34.2324 28.563C34.5449 28.2271 34.7012 27.8032 34.7012 27.2915V26.6938ZM42.4531 29.729H41.4922V26.3071C41.4922 25.0337 41.0273 24.397 40.0977 24.397C39.6172 24.397 39.2188 24.5786 38.9023 24.9419C38.5898 25.3013 38.4336 25.7563 38.4336 26.3071V29.729H37.4727V23.729H38.4336V24.7251H38.457C38.9102 23.9673 39.5664 23.5884 40.4258 23.5884C41.082 23.5884 41.584 23.8013 41.9316 24.2271C42.2793 24.6489 42.4531 25.2603 42.4531 26.061V29.729ZM49.25 29.729H47.9023L45.2539 26.8462H45.2305V29.729H44.2695V20.8462H45.2305V26.4771H45.2539L47.7734 23.729H49.0332L46.25 26.6235L49.25 29.729Z" fill="white"/>
<path d="M31.1211 45.729H30.0312L29.1406 43.3735H25.5781L24.7402 45.729H23.6445L26.8672 37.3267H27.8867L31.1211 45.729ZM28.8184 42.4888L27.5 38.9087C27.457 38.7915 27.4141 38.604 27.3711 38.3462H27.3477C27.3086 38.5845 27.2637 38.772 27.2129 38.9087L25.9062 42.4888H28.8184ZM36.3242 45.4536C35.8633 45.731 35.3164 45.8696 34.6836 45.8696C33.8281 45.8696 33.1367 45.5923 32.6094 45.0376C32.0859 44.479 31.8242 43.7563 31.8242 42.8696C31.8242 41.8813 32.1074 41.0884 32.6738 40.4907C33.2402 39.8892 33.9961 39.5884 34.9414 39.5884C35.4688 39.5884 35.9336 39.686 36.3359 39.8813V40.8657C35.8906 40.5532 35.4141 40.397 34.9062 40.397C34.293 40.397 33.7891 40.6177 33.3945 41.0591C33.0039 41.4966 32.8086 42.0728 32.8086 42.7876C32.8086 43.4907 32.9922 44.0454 33.3594 44.4517C33.7305 44.8579 34.2266 45.061 34.8477 45.061C35.3711 45.061 35.8633 44.8872 36.3242 44.5396V45.4536ZM41.8672 45.4536C41.4062 45.731 40.8594 45.8696 40.2266 45.8696C39.3711 45.8696 38.6797 45.5923 38.1523 45.0376C37.6289 44.479 37.3672 43.7563 37.3672 42.8696C37.3672 41.8813 37.6504 41.0884 38.2168 40.4907C38.7832 39.8892 39.5391 39.5884 40.4844 39.5884C41.0117 39.5884 41.4766 39.686 41.8789 39.8813V40.8657C41.4336 40.5532 40.957 40.397 40.4492 40.397C39.8359 40.397 39.332 40.6177 38.9375 41.0591C38.5469 41.4966 38.3516 42.0728 38.3516 42.7876C38.3516 43.4907 38.5352 44.0454 38.9023 44.4517C39.2734 44.8579 39.7695 45.061 40.3906 45.061C40.9141 45.061 41.4062 44.8872 41.8672 44.5396V45.4536ZM45.8281 45.8696C44.9414 45.8696 44.2324 45.5903 43.7012 45.0317C43.1738 44.4692 42.9102 43.7251 42.9102 42.7993C42.9102 41.7915 43.1855 41.0044 43.7363 40.438C44.2871 39.8716 45.0312 39.5884 45.9688 39.5884C46.8633 39.5884 47.5605 39.8638 48.0605 40.4146C48.5645 40.9653 48.8164 41.729 48.8164 42.7056C48.8164 43.6626 48.5449 44.4302 48.002 45.0083C47.4629 45.5825 46.7383 45.8696 45.8281 45.8696ZM45.8984 40.397C45.2812 40.397 44.793 40.6079 44.4336 41.0298C44.0742 41.4478 43.8945 42.0259 43.8945 42.7642C43.8945 43.4751 44.0762 44.0356 44.4395 44.4458C44.8027 44.856 45.2891 45.061 45.8984 45.061C46.5195 45.061 46.9961 44.8599 47.3281 44.4575C47.6641 44.0552 47.832 43.4829 47.832 42.7407C47.832 41.9907 47.6641 41.4126 47.3281 41.0063C46.9961 40.6001 46.5195 40.397 45.8984 40.397ZM55.2031 45.729H54.2422V44.7798H54.2188C53.8203 45.5063 53.2031 45.8696 52.3672 45.8696C50.9375 45.8696 50.2227 45.0181 50.2227 43.3149V39.729H51.1777V43.1626C51.1777 44.4282 51.6621 45.061 52.6309 45.061C53.0996 45.061 53.4844 44.8892 53.7852 44.5454C54.0898 44.1978 54.2422 43.7446 54.2422 43.186V39.729H55.2031V45.729ZM62.1289 45.729H61.168V42.3071C61.168 41.0337 60.7031 40.397 59.7734 40.397C59.293 40.397 58.8945 40.5786 58.5781 40.9419C58.2656 41.3013 58.1094 41.7563 58.1094 42.3071V45.729H57.1484V39.729H58.1094V40.7251H58.1328C58.5859 39.9673 59.2422 39.5884 60.1016 39.5884C60.7578 39.5884 61.2598 39.8013 61.6074 40.2271C61.9551 40.6489 62.1289 41.2603 62.1289 42.061V45.729ZM66.7285 45.6704C66.502 45.7954 66.2031 45.8579 65.832 45.8579C64.7812 45.8579 64.2559 45.272 64.2559 44.1001V40.5493H63.2246V39.729H64.2559V38.2642L65.2168 37.9536V39.729H66.7285V40.5493H65.2168V43.9302C65.2168 44.3325 65.2852 44.6196 65.4219 44.7915C65.5586 44.9634 65.7852 45.0493 66.1016 45.0493C66.3438 45.0493 66.5527 44.9829 66.7285 44.8501V45.6704Z" fill="white"/>
<path d="M22.3809 117.483V114.319C23.5293 115.022 24.752 115.374 26.0488 115.374C27.0254 115.374 27.7871 115.144 28.334 114.683C28.8887 114.214 29.166 113.581 29.166 112.784C29.166 111.12 27.9902 110.288 25.6387 110.288C24.7715 110.288 23.7715 110.354 22.6387 110.487L23.2715 101.112H32.166V104.136H26.0957L25.8613 107.499C26.4629 107.452 26.9824 107.429 27.4199 107.429C29.1465 107.429 30.498 107.882 31.4746 108.788C32.4512 109.694 32.9395 110.913 32.9395 112.444C32.9395 114.14 32.3574 115.526 31.1934 116.604C30.0293 117.675 28.4512 118.21 26.459 118.21C24.8418 118.21 23.4824 117.968 22.3809 117.483ZM36.1855 117.483V114.319C37.334 115.022 38.5566 115.374 39.8535 115.374C40.8301 115.374 41.5918 115.144 42.1387 114.683C42.6934 114.214 42.9707 113.581 42.9707 112.784C42.9707 111.12 41.7949 110.288 39.4434 110.288C38.5762 110.288 37.5762 110.354 36.4434 110.487L37.0762 101.112H45.9707V104.136H39.9004L39.666 107.499C40.2676 107.452 40.7871 107.429 41.2246 107.429C42.9512 107.429 44.3027 107.882 45.2793 108.788C46.2559 109.694 46.7441 110.913 46.7441 112.444C46.7441 114.14 46.1621 115.526 44.998 116.604C43.834 117.675 42.2559 118.21 40.2637 118.21C38.6465 118.21 37.2871 117.968 36.1855 117.483ZM49.6973 117.366V114.144C50.8223 114.964 52.1348 115.374 53.6348 115.374C54.5801 115.374 55.3145 115.171 55.8379 114.765C56.3691 114.358 56.6348 113.792 56.6348 113.065C56.6348 112.315 56.3066 111.737 55.6504 111.331C55.002 110.925 54.1074 110.722 52.9668 110.722H51.4082V107.886H52.8496C55.0371 107.886 56.1309 107.159 56.1309 105.706C56.1309 104.339 55.291 103.655 53.6113 103.655C52.4863 103.655 51.3926 104.019 50.3301 104.745V101.722C51.5098 101.128 52.8848 100.831 54.4551 100.831C56.1738 100.831 57.5098 101.218 58.4629 101.991C59.4238 102.765 59.9043 103.769 59.9043 105.003C59.9043 107.198 58.791 108.573 56.5645 109.128V109.187C57.752 109.335 58.6895 109.769 59.377 110.487C60.0645 111.198 60.4082 112.073 60.4082 113.112C60.4082 114.683 59.834 115.925 58.6855 116.839C57.5371 117.753 55.9512 118.21 53.9277 118.21C52.1934 118.21 50.7832 117.929 49.6973 117.366ZM63.7949 117.483V114.319C64.9434 115.022 66.166 115.374 67.4629 115.374C68.4395 115.374 69.2012 115.144 69.748 114.683C70.3027 114.214 70.5801 113.581 70.5801 112.784C70.5801 111.12 69.4043 110.288 67.0527 110.288C66.1855 110.288 65.1855 110.354 64.0527 110.487L64.6855 101.112H73.5801V104.136H67.5098L67.2754 107.499C67.877 107.452 68.3965 107.429 68.834 107.429C70.5605 107.429 71.9121 107.882 72.8887 108.788C73.8652 109.694 74.3535 110.913 74.3535 112.444C74.3535 114.14 73.7715 115.526 72.6074 116.604C71.4434 117.675 69.8652 118.21 67.873 118.21C66.2559 118.21 64.8965 117.968 63.7949 117.483Z" fill="white"/>
<path d="M142.549 115.293C141.077 115.293 139.814 114.765 138.76 113.711C137.718 112.656 137.197 111.386 137.197 109.902C137.197 108.418 137.718 107.155 138.76 106.113C139.801 105.071 141.064 104.551 142.549 104.551C144.033 104.551 145.303 105.078 146.357 106.133C147.425 107.174 147.959 108.431 147.959 109.902C147.959 111.373 147.425 112.643 146.357 113.711C145.303 114.765 144.033 115.293 142.549 115.293ZM159.463 115.293C157.992 115.293 156.729 114.765 155.674 113.711C154.632 112.656 154.111 111.386 154.111 109.902C154.111 108.418 154.632 107.155 155.674 106.113C156.715 105.071 157.979 104.551 159.463 104.551C160.947 104.551 162.217 105.078 163.271 106.133C164.339 107.174 164.873 108.431 164.873 109.902C164.873 111.373 164.339 112.643 163.271 113.711C162.217 114.765 160.947 115.293 159.463 115.293ZM176.377 115.293C174.906 115.293 173.643 114.765 172.588 113.711C171.546 112.656 171.025 111.386 171.025 109.902C171.025 108.418 171.546 107.155 172.588 106.113C173.63 105.071 174.893 104.551 176.377 104.551C177.861 104.551 179.131 105.078 180.186 106.133C181.253 107.174 181.787 108.431 181.787 109.902C181.787 111.373 181.253 112.643 180.186 113.711C179.131 114.765 177.861 115.293 176.377 115.293ZM193.291 115.293C191.82 115.293 190.557 114.765 189.502 113.711C188.46 112.656 187.939 111.386 187.939 109.902C187.939 108.418 188.46 107.155 189.502 106.113C190.544 105.071 191.807 104.551 193.291 104.551C194.775 104.551 196.045 105.078 197.1 106.133C198.167 107.174 198.701 108.431 198.701 109.902C198.701 111.373 198.167 112.643 197.1 113.711C196.045 114.765 194.775 115.293 193.291 115.293Z" fill="white"/>
<path d="M238.928 115.293C237.456 115.293 236.193 114.765 235.139 113.711C234.097 112.656 233.576 111.386 233.576 109.902C233.576 108.418 234.097 107.155 235.139 106.113C236.18 105.071 237.443 104.551 238.928 104.551C240.412 104.551 241.682 105.078 242.736 106.133C243.804 107.174 244.338 108.431 244.338 109.902C244.338 111.373 243.804 112.643 242.736 113.711C241.682 114.765 240.412 115.293 238.928 115.293ZM255.842 115.293C254.37 115.293 253.107 114.765 252.053 113.711C251.011 112.656 250.49 111.386 250.49 109.902C250.49 108.418 251.011 107.155 252.053 106.113C253.094 105.071 254.357 104.551 255.842 104.551C257.326 104.551 258.596 105.078 259.65 106.133C260.718 107.174 261.252 108.431 261.252 109.902C261.252 111.373 260.718 112.643 259.65 113.711C258.596 114.765 257.326 115.293 255.842 115.293ZM272.756 115.293C271.285 115.293 270.021 114.765 268.967 113.711C267.925 112.656 267.404 111.386 267.404 109.902C267.404 108.418 267.925 107.155 268.967 106.113C270.008 105.071 271.271 104.551 272.756 104.551C274.24 104.551 275.51 105.078 276.564 106.133C277.632 107.174 278.166 108.431 278.166 109.902C278.166 111.373 277.632 112.643 276.564 113.711C275.51 114.765 274.24 115.293 272.756 115.293ZM289.67 115.293C288.199 115.293 286.936 114.765 285.881 113.711C284.839 112.656 284.318 111.386 284.318 109.902C284.318 108.418 284.839 107.155 285.881 106.113C286.923 105.071 288.186 104.551 289.67 104.551C291.154 104.551 292.424 105.078 293.479 106.133C294.546 107.174 295.08 108.431 295.08 109.902C295.08 111.373 294.546 112.643 293.479 113.711C292.424 114.765 291.154 115.293 289.67 115.293Z" fill="white"/>
<path d="M329.238 114.847H336.363V117.917H325.184V116.651C325.184 115.792 325.328 115.022 325.617 114.343C325.906 113.655 326.27 113.042 326.707 112.503C327.145 111.956 327.621 111.476 328.137 111.062C328.66 110.64 329.156 110.261 329.625 109.925C330.117 109.573 330.547 109.237 330.914 108.917C331.289 108.597 331.602 108.28 331.852 107.968C332.109 107.647 332.301 107.327 332.426 107.007C332.551 106.679 332.613 106.331 332.613 105.964C332.613 105.245 332.41 104.702 332.004 104.335C331.598 103.968 330.977 103.784 330.141 103.784C328.695 103.784 327.312 104.358 325.992 105.507V102.249C327.453 101.304 329.102 100.831 330.938 100.831C331.789 100.831 332.551 100.944 333.223 101.171C333.902 101.39 334.477 101.706 334.945 102.12C335.414 102.534 335.77 103.038 336.012 103.632C336.262 104.218 336.387 104.874 336.387 105.601C336.387 106.374 336.266 107.062 336.023 107.663C335.789 108.265 335.473 108.812 335.074 109.304C334.684 109.796 334.23 110.249 333.715 110.663C333.199 111.069 332.664 111.464 332.109 111.847C331.734 112.112 331.371 112.378 331.02 112.644C330.676 112.901 330.371 113.159 330.105 113.417C329.84 113.667 329.629 113.913 329.473 114.155C329.316 114.397 329.238 114.628 329.238 114.847ZM343.043 114.847H350.168V117.917H338.988V116.651C338.988 115.792 339.133 115.022 339.422 114.343C339.711 113.655 340.074 113.042 340.512 112.503C340.949 111.956 341.426 111.476 341.941 111.062C342.465 110.64 342.961 110.261 343.43 109.925C343.922 109.573 344.352 109.237 344.719 108.917C345.094 108.597 345.406 108.28 345.656 107.968C345.914 107.647 346.105 107.327 346.23 107.007C346.355 106.679 346.418 106.331 346.418 105.964C346.418 105.245 346.215 104.702 345.809 104.335C345.402 103.968 344.781 103.784 343.945 103.784C342.5 103.784 341.117 104.358 339.797 105.507V102.249C341.258 101.304 342.906 100.831 344.742 100.831C345.594 100.831 346.355 100.944 347.027 101.171C347.707 101.39 348.281 101.706 348.75 102.12C349.219 102.534 349.574 103.038 349.816 103.632C350.066 104.218 350.191 104.874 350.191 105.601C350.191 106.374 350.07 107.062 349.828 107.663C349.594 108.265 349.277 108.812 348.879 109.304C348.488 109.796 348.035 110.249 347.52 110.663C347.004 111.069 346.469 111.464 345.914 111.847C345.539 112.112 345.176 112.378 344.824 112.644C344.48 112.901 344.176 113.159 343.91 113.417C343.645 113.667 343.434 113.913 343.277 114.155C343.121 114.397 343.043 114.628 343.043 114.847ZM364.559 108.706C364.559 110.198 364.395 111.534 364.066 112.714C363.738 113.886 363.258 114.878 362.625 115.69C362 116.503 361.234 117.128 360.328 117.565C359.422 117.995 358.395 118.21 357.246 118.21C355.871 118.21 354.688 117.991 353.695 117.554V114.507C354.578 115.085 355.641 115.374 356.883 115.374C358.156 115.374 359.152 114.94 359.871 114.073C360.59 113.206 360.953 111.952 360.961 110.312L360.891 110.288C360.148 111.39 359.02 111.94 357.504 111.94C356.816 111.94 356.18 111.812 355.594 111.554C355.016 111.296 354.512 110.94 354.082 110.487C353.66 110.026 353.328 109.479 353.086 108.847C352.852 108.214 352.734 107.519 352.734 106.761C352.734 105.878 352.879 105.073 353.168 104.347C353.457 103.62 353.859 102.995 354.375 102.472C354.898 101.948 355.523 101.546 356.25 101.265C356.977 100.976 357.781 100.831 358.664 100.831C359.578 100.831 360.398 101.011 361.125 101.37C361.852 101.722 362.469 102.233 362.977 102.905C363.492 103.577 363.883 104.401 364.148 105.378C364.422 106.354 364.559 107.464 364.559 108.706ZM360.82 106.737C360.82 106.308 360.766 105.905 360.656 105.53C360.547 105.147 360.395 104.819 360.199 104.546C360.004 104.272 359.766 104.058 359.484 103.901C359.203 103.737 358.895 103.655 358.559 103.655C358.238 103.655 357.941 103.726 357.668 103.866C357.402 104.007 357.172 104.202 356.977 104.452C356.781 104.694 356.629 104.987 356.52 105.331C356.41 105.675 356.355 106.046 356.355 106.444C356.355 106.882 356.41 107.272 356.52 107.616C356.629 107.952 356.781 108.237 356.977 108.472C357.18 108.706 357.422 108.886 357.703 109.011C357.984 109.128 358.297 109.187 358.641 109.187C358.969 109.187 359.266 109.124 359.531 108.999C359.797 108.866 360.023 108.69 360.211 108.472C360.406 108.253 360.555 107.995 360.656 107.698C360.766 107.401 360.82 107.081 360.82 106.737ZM378.633 112.327C378.633 113.155 378.488 113.929 378.199 114.647C377.91 115.366 377.508 115.991 376.992 116.522C376.477 117.046 375.863 117.46 375.152 117.765C374.441 118.062 373.664 118.21 372.82 118.21C371.875 118.21 371.027 118.034 370.277 117.683C369.535 117.331 368.906 116.823 368.391 116.159C367.875 115.487 367.48 114.667 367.207 113.698C366.934 112.729 366.797 111.632 366.797 110.405C366.797 108.96 366.973 107.651 367.324 106.479C367.684 105.3 368.191 104.292 368.848 103.456C369.512 102.62 370.312 101.976 371.25 101.522C372.188 101.062 373.242 100.831 374.414 100.831C375.711 100.831 376.719 100.983 377.438 101.288V104.382C376.586 103.897 375.656 103.655 374.648 103.655C374.023 103.655 373.457 103.776 372.949 104.019C372.441 104.261 372.004 104.604 371.637 105.05C371.277 105.495 370.992 106.034 370.781 106.667C370.578 107.292 370.469 107.991 370.453 108.765H370.523C371.32 107.663 372.496 107.112 374.051 107.112C374.746 107.112 375.375 107.237 375.938 107.487C376.5 107.737 376.98 108.093 377.379 108.554C377.777 109.007 378.086 109.554 378.305 110.194C378.523 110.835 378.633 111.546 378.633 112.327ZM375.012 112.562C375.012 110.757 374.273 109.854 372.797 109.854C372.461 109.854 372.156 109.917 371.883 110.042C371.609 110.167 371.375 110.343 371.18 110.569C370.984 110.796 370.832 111.065 370.723 111.378C370.621 111.683 370.57 112.022 370.57 112.397C370.57 112.812 370.625 113.198 370.734 113.558C370.844 113.917 370.996 114.233 371.191 114.507C371.395 114.772 371.633 114.983 371.906 115.14C372.18 115.296 372.484 115.374 372.82 115.374C373.156 115.374 373.457 115.308 373.723 115.175C373.996 115.034 374.227 114.843 374.414 114.601C374.609 114.351 374.758 114.054 374.859 113.71C374.961 113.358 375.012 112.976 375.012 112.562Z" fill="white"/>
<path d="M378.765 231.372V230.527H378.545L378.289 231.107L378.038 230.527H377.816V231.372H377.976V230.732L378.208 231.281H378.369L378.611 230.735V231.373L378.765 231.372ZM377.373 231.372V230.672H377.654V230.527H376.932V230.669H377.216V231.369H377.368L377.373 231.372Z" fill="#F79410"/>
<path d="M353.77 234.995H334.744V200.795H353.77V234.995Z" fill="#FF5F00"/>
<path d="M335.949 217.895C335.946 214.601 336.692 211.35 338.131 208.388C339.57 205.425 341.664 202.829 344.254 200.795C341.046 198.273 337.193 196.705 333.135 196.27C329.078 195.835 324.98 196.55 321.309 198.333C317.639 200.117 314.544 202.897 312.379 206.357C310.215 209.816 309.066 213.814 309.066 217.895C309.066 221.976 310.215 225.974 312.379 229.433C314.544 232.893 317.639 235.673 321.309 237.457C324.98 239.24 329.078 239.955 333.135 239.52C337.193 239.085 341.046 237.517 344.254 234.995C341.664 232.961 339.57 230.365 338.131 227.402C336.692 224.44 335.946 221.189 335.949 217.895Z" fill="#EB001B"/>
<path d="M379.441 217.896C379.44 221.976 378.292 225.974 376.127 229.433C373.962 232.891 370.868 235.671 367.198 237.454C363.528 239.238 359.431 239.953 355.374 239.518C351.317 239.083 347.464 237.515 344.256 234.994C346.847 232.961 348.942 230.365 350.381 227.402C351.821 224.439 352.567 221.188 352.564 217.894C352.567 214.601 351.82 211.35 350.381 208.387C348.942 205.425 346.847 202.829 344.256 200.796C347.464 198.275 351.317 196.707 355.374 196.272C359.432 195.837 363.529 196.553 367.199 198.336C370.869 200.12 373.963 202.9 376.128 206.359C378.293 209.818 379.441 213.816 379.441 217.896Z" fill="#F79E1B"/>
<defs>
<filter id="filter0_d_4_157349" x="-200.535" y="-195.803" width="484.111" height="655.494" filterUnits="userSpaceOnUse" color-interpolation-filters="sRGB">
<feFlood flood-opacity="0" result="BackgroundImageFix"/>
<feColorMatrix in="SourceAlpha" type="matrix" values="0 0 0 0 0 0 0 0 0 0 0 0 0 0 0 0 0 0 127 0" result="hardAlpha"/>
<feOffset dy="3"/>
<feGaussianBlur stdDeviation="28"/>
<feColorMatrix type="matrix" values="0 0 0 0 0 0 0 0 0 0 0 0 0 0 0 0 0 0 0.161 0"/>
<feBlend mode="normal" in2="BackgroundImageFix" result="effect1_dropShadow_4_157349"/>
<feBlend mode="normal" in="SourceGraphic" in2="effect1_dropShadow_4_157349" result="shape"/>
</filter>
<filter id="filter1_d_4_157349" x="-175.215" y="-241.491" width="781.828" height="546.423" filterUnits="userSpaceOnUse" color-interpolation-filters="sRGB">
<feFlood flood-opacity="0" result="BackgroundImageFix"/>
<feColorMatrix in="SourceAlpha" type="matrix" values="0 0 0 0 0 0 0 0 0 0 0 0 0 0 0 0 0 0 127 0" result="hardAlpha"/>
<feOffset dy="3"/>
<feGaussianBlur stdDeviation="35"/>
<feColorMatrix type="matrix" values="0 0 0 0 0 0 0 0 0 0 0 0 0 0 0 0 0 0 0.161 0"/>
<feBlend mode="normal" in2="BackgroundImageFix" result="effect1_dropShadow_4_157349"/>
<feBlend mode="normal" in="SourceGraphic" in2="effect1_dropShadow_4_157349" result="shape"/>
</filter>
<filter id="filter2_d_4_157349" x="-404.527" y="-14.8259" width="567.557" height="495.449" filterUnits="userSpaceOnUse" color-interpolation-filters="sRGB">
<feFlood flood-opacity="0" result="BackgroundImageFix"/>
<feColorMatrix in="SourceAlpha" type="matrix" values="0 0 0 0 0 0 0 0 0 0 0 0 0 0 0 0 0 0 127 0" result="hardAlpha"/>
<feOffset dy="3"/>
<feGaussianBlur stdDeviation="28"/>
<feColorMatrix type="matrix" values="0 0 0 0 0 0 0 0 0 0 0 0 0 0 0 0 0 0 0.161 0"/>
<feBlend mode="normal" in2="BackgroundImageFix" result="effect1_dropShadow_4_157349"/>
<feBlend mode="normal" in="SourceGraphic" in2="effect1_dropShadow_4_157349" result="shape"/>
</filter>
<filter id="filter3_d_4_157349" x="4.14648" y="-47.491" width="581.42" height="435.824" filterUnits="userSpaceOnUse" color-interpolation-filters="sRGB">
<feFlood flood-opacity="0" result="BackgroundImageFix"/>
<feColorMatrix in="SourceAlpha" type="matrix" values="0 0 0 0 0 0 0 0 0 0 0 0 0 0 0 0 0 0 127 0" result="hardAlpha"/>
<feOffset dy="-10"/>
<feGaussianBlur stdDeviation="29.5"/>
<feColorMatrix type="matrix" values="0 0 0 0 0 0 0 0 0 0 0 0 0 0 0 0 0 0 0.051 0"/>
<feBlend mode="normal" in2="BackgroundImageFix" result="effect1_dropShadow_4_157349"/>
<feBlend mode="normal" in="SourceGraphic" in2="effect1_dropShadow_4_157349" result="shape"/>
</filter>
<filter id="filter4_d_4_157349" x="151.074" y="-455.202" width="416.77" height="578.19" filterUnits="userSpaceOnUse" color-interpolation-filters="sRGB">
<feFlood flood-opacity="0" result="BackgroundImageFix"/>
<feColorMatrix in="SourceAlpha" type="matrix" values="0 0 0 0 0 0 0 0 0 0 0 0 0 0 0 0 0 0 127 0" result="hardAlpha"/>
<feOffset dx="-41.07" dy="3.005"/>
<feGaussianBlur stdDeviation="27.046"/>
<feColorMatrix type="matrix" values="0 0 0 0 0 0 0 0 0 0 0 0 0 0 0 0 0 0 0.039 0"/>
<feBlend mode="normal" in2="BackgroundImageFix" result="effect1_dropShadow_4_157349"/>
<feBlend mode="normal" in="SourceGraphic" in2="effect1_dropShadow_4_157349" result="shape"/>
</filter>
<linearGradient id="paint0_linear_4_157349" x1="-206.899" y1="-322.225" x2="215.848" y2="545.939" gradientUnits="userSpaceOnUse">
<stop stop-color="#21D4FD"/>
<stop offset="0.023" stop-color="#24D0FD"/>
<stop offset="1" stop-color="#B721FF"/>
</linearGradient>
<linearGradient id="paint1_linear_4_157349" x1="243.94" y1="-174.491" x2="220.951" y2="288.899" gradientUnits="userSpaceOnUse">
<stop stop-color="#21D4FD"/>
<stop offset="1" stop-color="#B721FF"/>
</linearGradient>
<linearGradient id="paint2_linear_4_157349" x1="-619.237" y1="240.165" x2="67.4768" y2="259.939" gradientUnits="userSpaceOnUse">
<stop stop-color="#21D4FD"/>
<stop offset="1" stop-color="#B721FF"/>
</linearGradient>
<linearGradient id="paint3_linear_4_157349" x1="96.5127" y1="-146.62" x2="197.204" y2="360.118" gradientUnits="userSpaceOnUse">
<stop stop-color="#21D4FD"/>
<stop offset="1" stop-color="#B721FF"/>
</linearGradient>
<linearGradient id="paint4_linear_4_157349" x1="622.935" y1="-64.962" x2="311.326" y2="-282.319" gradientUnits="userSpaceOnUse">
<stop stop-color="#21D4FD"/>
<stop offset="1" stop-color="#B721FF"/>
</linearGradient>
</defs>
</svg>
