<svg width="46" height="46" viewBox="0 0 46 46" fill="none" xmlns="http://www.w3.org/2000/svg">
<path d="M31.4327 45.981C29.477 46.0447 27.5303 45.6901 25.7227 44.941C25.7047 44.758 25.8617 44.696 25.9707 44.607C27.2463 43.5903 28.3524 42.3775 29.2477 41.014C29.3562 40.8071 29.5293 40.6413 29.7407 40.5418C29.9521 40.4424 30.1901 40.4147 30.4187 40.463C32.0785 40.646 33.7544 40.3137 35.2187 39.511C36.6603 38.8061 37.8969 37.7431 38.8101 36.4237C39.7234 35.1042 40.2828 33.5725 40.4348 31.9751C40.5868 30.3776 40.3262 28.7679 39.6782 27.2999C39.0301 25.8319 38.0161 24.5548 36.7333 23.5908C35.4505 22.6267 33.9418 22.008 32.3514 21.7939C30.7611 21.5797 29.1424 21.7772 27.6503 22.3676C26.1582 22.9579 24.8425 23.9213 23.8291 25.1655C22.8158 26.4097 22.1387 27.8932 21.8627 29.474C21.6997 30.419 21.7897 31.381 21.6027 32.318C21.43 33.3305 21.0284 34.2903 20.4286 35.1242C19.8289 35.9581 19.0467 36.6441 18.1417 37.13C17.6107 37.424 17.6067 37.416 17.3807 36.869C15.8662 33.24 15.8486 29.1592 17.3316 25.5172C18.8146 21.8753 21.6779 18.9677 25.2967 17.429C27.1357 16.6336 29.1172 16.2204 31.1208 16.2144C33.1245 16.2084 35.1084 16.6097 36.9522 17.394C38.7959 18.1784 40.461 19.3292 41.8463 20.7768C43.2316 22.2244 44.3082 23.9385 45.0107 25.815C45.7957 27.9124 46.0996 30.1594 45.9001 32.39C45.7005 34.6206 45.0026 36.7779 43.8578 38.7027C42.713 40.6275 41.1505 42.2706 39.2857 43.5108C37.421 44.7509 35.3015 45.5565 33.0837 45.868C32.539 45.9644 31.9855 46.0023 31.4327 45.981Z" fill="black"/>
<path d="M18.5976 18.954C17.8997 19.6246 17.2883 20.3798 16.7776 21.202C16.6771 21.4128 16.5083 21.5834 16.2987 21.6863C16.0891 21.7892 15.8509 21.8184 15.6226 21.769C13.8878 21.5817 12.1377 21.9385 10.6147 22.79C9.2784 23.4626 8.12855 24.4542 7.2669 25.6771C6.40524 26.8999 5.85836 28.3164 5.67465 29.801C5.32569 32.2582 5.96378 34.7535 7.4494 36.7415C8.93502 38.7296 11.1473 40.0485 13.6027 40.41C15.3737 40.7028 17.1919 40.4582 18.8226 39.7078C20.4534 38.9574 21.8219 37.7356 22.7517 36.2C23.7903 34.6007 24.3397 32.733 24.3326 30.826C24.3458 29.6079 24.6992 28.4177 25.353 27.3899C26.0068 26.362 26.935 25.5373 28.0326 25.009C28.3416 24.841 28.4746 24.927 28.5917 25.232C30.7777 30.924 30.0116 36.162 26.0996 40.86C23.932 43.4789 20.8889 45.2236 17.5337 45.771C14.6775 46.2813 11.7344 45.9431 9.06843 44.7984C6.40245 43.6536 4.13052 41.7524 2.53365 39.33C0.634902 36.6053 -0.240253 33.2973 0.062651 29.99C0.244423 27.7189 0.943261 25.5193 2.1057 23.5597C3.26815 21.6001 4.86339 19.9323 6.76942 18.684C8.67545 17.4356 10.8418 16.6397 13.1026 16.3572C15.3635 16.0747 17.659 16.3131 19.8137 17.054C19.9407 17.097 20.0666 17.144 20.1906 17.196C20.2418 17.229 20.2891 17.2675 20.3316 17.311C19.7546 17.854 19.1866 18.391 18.5976 18.954Z" fill="black"/>
<path d="M25.3177 13.659C24.6427 14.339 23.9837 14.989 23.3427 15.659C23.1097 15.902 22.9507 15.937 22.6907 15.672C20.4337 13.372 18.1467 11.091 15.9007 8.77197C15.2102 8.11987 14.723 7.2821 14.4977 6.35953C14.2724 5.43695 14.3186 4.46892 14.6306 3.57198C14.8795 2.79138 15.3125 2.08206 15.8929 1.5038C16.4733 0.925543 17.1842 0.495295 17.9658 0.249329C18.7473 0.00336359 19.5765 -0.0511021 20.3835 0.0905005C21.1904 0.232103 21.9516 0.565626 22.6027 1.06297C22.6546 1.11857 22.7175 1.16279 22.7874 1.1928C22.8573 1.2228 22.9326 1.23795 23.0087 1.23729C23.0848 1.23663 23.1599 1.22018 23.2292 1.18897C23.2986 1.15775 23.3607 1.11246 23.4117 1.05597C24.1164 0.515127 24.9503 0.167779 25.8306 0.0482947C26.7109 -0.0711893 27.6072 0.0413383 28.4306 0.374756C29.254 0.708175 29.9761 1.25091 30.5253 1.9492C31.0745 2.6475 31.4317 3.47714 31.5616 4.35597C31.6969 5.15476 31.6358 5.97446 31.3835 6.74434C31.1312 7.51422 30.6954 8.21115 30.1136 8.77498C28.5396 10.413 26.9327 12.019 25.3177 13.659Z" fill="black"/>
</svg>
