<svg width="47" height="34" viewBox="0 0 47 34" fill="none" xmlns="http://www.w3.org/2000/svg">
<path id="Subtraction 12" d="M43.227 33.611H3.337C2.9576 33.6026 2.5826 33.5278 2.229 33.39L16.482 19.652L22.247 25.028C22.5306 25.2918 22.9045 25.4371 23.2919 25.4339C23.6792 25.4307 24.0507 25.2794 24.33 25.011L30.117 19.441L44.825 33.169C44.3383 33.4508 43.7873 33.6027 43.225 33.61L43.227 33.611ZM0.141 31.142C0.0565356 30.8641 0.00912624 30.5763 0 30.286V4.34899L14.22 17.589L0.143 31.138L0.141 31.142ZM46.441 30.568L32.279 17.341L46.457 3.67899C46.4631 3.70631 46.4631 3.73466 46.457 3.76199C46.4475 3.78664 46.4417 3.81261 46.44 3.83899V30.567L46.441 30.568ZM23.265 21.831L1.236 1.27899C1.82406 0.782671 2.56654 0.506537 3.336 0.497986H43.236C43.8262 0.506841 44.403 0.675485 44.905 0.985985L23.265 21.831Z" fill="white"/>
</svg>
