<svg width="25" height="25" viewBox="0 0 25 25" fill="none" xmlns="http://www.w3.org/2000/svg">
<path d="M0.497811 23.0119C0.497811 17.5219 0.497811 12.0319 0.497811 6.51189C0.497811 5.91189 0.497811 5.33989 0.497811 4.76889C0.48557 4.56889 0.539034 4.37037 0.650058 4.20356C0.761083 4.03675 0.923583 3.9108 1.11281 3.84489C3.32881 2.96889 5.54581 2.09556 7.76381 1.22489C7.79781 1.21189 7.83581 1.20489 7.89781 1.18789V1.50789C7.89781 8.11123 7.90014 14.7149 7.90481 21.3189C7.91947 21.4195 7.89527 21.5219 7.83713 21.6053C7.77899 21.6887 7.69127 21.7468 7.59181 21.7679C5.69181 22.5039 3.80081 23.2579 1.90481 24.0019C1.73818 24.0709 1.56013 24.1082 1.37981 24.1119C0.844811 24.1119 0.497811 23.7069 0.497811 23.0119ZM17.1578 23.5239C17.1578 16.8992 17.1561 10.2746 17.1528 3.64989C17.1372 3.56281 17.1553 3.47307 17.2034 3.39881C17.2515 3.32455 17.326 3.27133 17.4118 3.24989C19.3278 2.50789 21.2388 1.74789 23.1528 0.994893C23.3073 0.90442 23.4843 0.859741 23.6632 0.866069C23.8422 0.872397 24.0156 0.929471 24.1633 1.03063C24.311 1.13179 24.4269 1.27287 24.4975 1.43741C24.568 1.60194 24.5903 1.78315 24.5618 1.95989C24.5618 8.01323 24.5618 14.0666 24.5618 20.1199C24.5955 20.3583 24.5397 20.6007 24.4053 20.8005C24.2709 21.0003 24.0673 21.1433 23.8338 21.2019C22.5028 21.7299 21.1698 22.2529 19.8168 22.7839C18.9288 23.1309 18.0628 23.4719 17.1578 23.8279V23.5239ZM13.6088 23.1569C12.4088 22.6849 11.2148 22.2089 10.0088 21.7469C9.92329 21.727 9.84842 21.6756 9.79911 21.6029C9.74981 21.5303 9.72971 21.4417 9.74281 21.3549C9.75081 16.3979 9.74881 11.4409 9.74881 6.45489V1.17089L11.7818 1.97089C12.8818 2.40356 13.9818 2.83456 15.0818 3.26389C15.1506 3.27771 15.2118 3.31678 15.2532 3.37341C15.2947 3.43004 15.3134 3.50013 15.3058 3.56989C15.2998 10.2792 15.2981 16.9886 15.3008 23.6979C15.3008 23.7269 15.2958 23.7549 15.2898 23.8189L13.6088 23.1569Z" fill="white"/>
</svg>
