<svg width="42" height="42" viewBox="0 0 42 42" fill="none" xmlns="http://www.w3.org/2000/svg">
<path d="M21.0005 41.9989C15.8123 41.9912 10.812 40.057 6.96929 36.5711C3.12656 33.0853 0.715389 28.2961 0.203662 23.1331C-0.308065 17.9702 1.11607 12.8011 4.19976 8.62873C7.28344 4.45635 11.8064 1.57806 16.8921 0.552073C21.9779 -0.473919 27.2641 0.425482 31.7242 3.076C36.1843 5.72651 39.5009 9.93927 41.0308 14.8968C42.5608 19.8543 42.1952 25.2035 40.0044 29.9066C37.8137 34.6096 33.9538 38.3314 29.1744 40.3499C26.5884 41.444 23.8084 42.0048 21.0005 41.9989ZM18.522 13.9217C18.4215 13.922 18.3215 13.9427 18.2291 13.9822C18.1366 14.0218 18.0536 14.0792 17.9839 14.1517L17.522 14.6141C17.4501 14.6843 17.3927 14.7679 17.3541 14.8607C17.3154 14.9535 17.2957 15.0531 17.2964 15.1536C17.2957 15.255 17.3154 15.3558 17.3541 15.4495C17.3927 15.5433 17.4501 15.6286 17.522 15.7L22.7857 20.9637L17.5279 26.222C17.4551 26.2922 17.3965 26.3764 17.357 26.4696C17.3174 26.5627 17.2974 26.6628 17.2974 26.764C17.2974 26.8652 17.3174 26.9653 17.357 27.0584C17.3965 27.1515 17.4551 27.2357 17.5279 27.306L17.9839 27.7689C18.1293 27.9122 18.3247 27.9925 18.5289 27.9925C18.733 27.9925 18.9294 27.9122 19.0748 27.7689L25.3414 21.5101C25.483 21.3635 25.5635 21.1676 25.565 20.9637C25.5629 20.7599 25.4825 20.5648 25.3414 20.4178L19.0699 14.1517C18.9988 14.0784 18.9131 14.0203 18.8189 13.9808C18.7247 13.9413 18.6242 13.9211 18.522 13.9217Z" fill="white"/>
</svg>
