<svg width="26" height="26" viewBox="0 0 26 26" fill="none" xmlns="http://www.w3.org/2000/svg">
<path d="M24.0621 21H2.41211C1.58368 21 0.912109 21.6716 0.912109 22.5C0.912109 23.3284 1.58368 24 2.41211 24H24.0621C24.8905 24 25.5621 23.3284 25.5621 22.5C25.5621 21.6716 24.8905 21 24.0621 21Z" fill="white"/>
<path d="M8.2373 26C10.1703 26 11.7373 24.433 11.7373 22.5C11.7373 20.567 10.1703 19 8.2373 19C6.30431 19 4.7373 20.567 4.7373 22.5C4.7373 24.433 6.30431 26 8.2373 26Z" fill="white"/>
<path d="M24.0621 2H2.41211C1.58368 2 0.912109 2.67157 0.912109 3.5C0.912109 4.32843 1.58368 5 2.41211 5H24.0621C24.8905 5 25.5621 4.32843 25.5621 3.5C25.5621 2.67157 24.8905 2 24.0621 2Z" fill="white"/>
<path d="M8.2373 7C10.1703 7 11.7373 5.433 11.7373 3.5C11.7373 1.567 10.1703 0 8.2373 0C6.30431 0 4.7373 1.567 4.7373 3.5C4.7373 5.433 6.30431 7 8.2373 7Z" fill="white"/>
<path d="M24.0621 11.5H2.41211C1.58368 11.5 0.912109 12.1716 0.912109 13C0.912109 13.8284 1.58368 14.5 2.41211 14.5H24.0621C24.8905 14.5 25.5621 13.8284 25.5621 13C25.5621 12.1716 24.8905 11.5 24.0621 11.5Z" fill="white"/>
<path d="M8.2373 16.5C10.1703 16.5 11.7373 14.933 11.7373 13C11.7373 11.067 10.1703 9.5 8.2373 9.5C6.30431 9.5 4.7373 11.067 4.7373 13C4.7373 14.933 6.30431 16.5 8.2373 16.5Z" fill="white"/>
</svg>
