<svg width="47" height="46" viewBox="0 0 47 46" fill="none" xmlns="http://www.w3.org/2000/svg">
<path d="M9.37497e-05 46V42.4C9.37497e-05 41.708 -0.00890625 41.016 9.37497e-05 40.324C-0.0137456 39.331 0.358783 38.3714 1.03905 37.6479C1.71932 36.9243 2.6541 36.4934 3.64609 36.446C3.90709 36.426 4.16909 36.434 4.48609 36.43C6.82309 36.43 9.10509 36.418 11.3861 36.43C12.2849 36.3913 13.1677 36.6771 13.8734 37.2352C14.5791 37.7933 15.0606 38.5864 15.2301 39.47C14.1036 40.1501 13.17 41.1072 12.5181 42.2503C11.8662 43.3933 11.5178 44.6842 11.5061 46H9.37497e-05ZM34.5281 46C34.5129 44.6797 34.1601 43.3853 33.5034 42.2399C32.8466 41.0945 31.9078 40.1361 30.7761 39.456C30.8946 38.9099 31.131 38.3962 31.4687 37.9509C31.8063 37.5056 32.2372 37.1395 32.7311 36.878C33.3777 36.6682 34.0442 36.5258 34.7201 36.453C37.1341 36.404 39.5491 36.426 41.9631 36.436C42.5081 36.4046 43.0536 36.4895 43.5634 36.6849C44.0731 36.8803 44.5355 37.1819 44.9199 37.5696C45.3043 37.9572 45.6019 38.4222 45.7929 38.9336C45.984 39.4451 46.0641 39.9912 46.0281 40.536C46.0281 42.348 46.0281 44.159 46.0281 46.004L34.5281 46ZM15.4131 45.993C15.3701 45.0696 15.6851 44.1653 16.2924 43.4684C16.8997 42.7715 17.7525 42.3357 18.6731 42.252C21.6461 42.165 24.6231 42.246 27.6451 42.271C28.4982 42.4495 29.2632 42.918 29.8101 43.5966C30.357 44.2753 30.652 45.1224 30.6451 45.994L15.4131 45.993ZM20.7021 39.759C19.6872 39.3486 18.8188 38.6432 18.2091 37.7341C17.5994 36.8249 17.2765 35.7537 17.2821 34.659C17.2501 33.9025 17.3737 33.1475 17.6453 32.4407C17.9169 31.7339 18.3307 31.0904 18.8611 30.55C19.5661 29.8098 20.4563 29.2716 21.4393 28.9912C22.4223 28.7107 23.4625 28.6983 24.4519 28.9552C25.4414 29.212 26.3441 29.7288 27.0666 30.4519C27.7892 31.1751 28.3051 32.0783 28.5611 33.068C28.8756 34.1186 28.8652 35.2397 28.5311 36.2843C28.197 37.3288 27.5549 38.2479 26.6891 38.921C25.705 39.7934 24.4401 40.2829 23.1251 40.3C22.2891 40.2906 21.4644 40.1049 20.7051 39.755L20.7021 39.759ZM32.8801 30.518C32.5137 29.3647 32.5214 28.125 32.9021 26.9763C33.2827 25.8276 34.0169 24.8287 34.9995 24.1224C35.9822 23.4162 37.163 23.0387 38.3731 23.0441C39.5832 23.0494 40.7607 23.4372 41.7371 24.1522C42.7134 24.8671 43.4388 25.8724 43.8093 27.0244C44.1798 28.1764 44.1766 29.4161 43.8 30.5661C43.4235 31.7162 42.6929 32.7177 41.7128 33.4275C40.7327 34.1373 39.5532 34.519 38.3431 34.518C37.1265 34.5138 35.9426 34.1239 34.9615 33.4045C33.9805 32.685 33.2528 31.673 32.8831 30.514L32.8801 30.518ZM6.90009 34.463C5.83588 34.3189 4.83332 33.8795 4.00606 33.1947C3.1788 32.5099 2.55994 31.6071 2.21962 30.5885C1.87929 29.5699 1.83113 28.4764 2.08058 27.4318C2.33004 26.3873 2.86713 25.4335 3.63098 24.6786C4.39482 23.9237 5.35488 23.3979 6.4023 23.1608C7.44972 22.9237 8.54262 22.9848 9.55711 23.3371C10.5716 23.6894 11.4671 24.3189 12.1421 25.1542C12.8171 25.9895 13.2446 26.9972 13.3761 28.063C13.5013 29.1024 13.3441 30.1563 12.9211 31.114C12.4674 32.1273 11.73 32.9875 10.798 33.5908C9.86602 34.1942 8.77931 34.5148 7.66909 34.514C7.41198 34.5123 7.15519 34.4952 6.90009 34.463ZM29.1281 24.938C26.0328 24.926 22.9378 24.9223 19.8431 24.927H16.8241C16.711 24.9517 16.5929 24.9363 16.4899 24.8836C16.3868 24.8309 16.3053 24.7441 16.2591 24.638C15.4978 23.0119 14.2925 21.6341 12.782 20.6635C11.2715 19.6928 9.51747 19.1689 7.72209 19.152V0H38.3221V19.171C36.783 19.192 35.271 19.579 33.9111 20.3C32.1437 21.2314 30.7199 22.7029 29.8471 24.5C29.7967 24.6428 29.6993 24.7643 29.5709 24.8446C29.4424 24.9249 29.2906 24.9592 29.1401 24.942L29.1281 24.938ZM24.8741 17.2H24.9141V7.717C24.9141 10.873 24.9141 14.017 24.8741 17.2Z" fill="#020202"/>
</svg>
