<svg width="44" height="44" viewBox="0 0 44 44" fill="none" xmlns="http://www.w3.org/2000/svg">
<path d="M21.792 43.1411H21.781C16.1278 43.1396 10.7068 40.8927 6.71017 36.8946C2.71357 32.8964 0.468753 27.4745 0.469483 21.8213C0.470212 16.1682 2.71643 10.7468 6.71406 6.74971C10.7117 2.75259 16.1333 0.50708 21.7865 0.50708C27.4396 0.50708 32.8613 2.75259 36.8589 6.74971C40.8565 10.7468 43.1028 16.1682 43.1035 21.8213C43.1042 27.4745 40.8594 32.8964 36.8628 36.8946C32.8662 40.8927 27.4451 43.1396 21.792 43.1411ZM16.876 25.4281C16.6445 25.4297 16.419 25.5015 16.2292 25.634C16.0394 25.7665 15.8943 25.9534 15.813 26.1701C15.6581 27.0194 15.7251 27.8944 16.0075 28.7102C16.2899 29.5261 16.7782 30.2552 17.425 30.8271L17.465 30.8671C18.135 31.5401 18.135 31.5401 19.865 32.3671L19.998 32.4301C20.198 32.5251 20.207 32.5701 20.256 33.4121C20.329 34.6971 20.711 35.2211 21.576 35.2211C22.441 35.2211 22.811 34.7211 22.889 33.4211C22.943 32.5801 22.958 32.5211 23.152 32.4311L23.279 32.3711C25.019 31.5451 25.019 31.5451 25.685 30.8711L25.731 30.8251C26.5344 30.0676 27.1012 29.0935 27.3626 28.0207C27.624 26.9479 27.5689 25.8223 27.204 24.7801C26.763 23.6558 26.0122 22.6797 25.0386 21.9651C24.065 21.2505 22.9087 20.8268 21.704 20.7431H21.604C20.7042 20.7422 19.8414 20.3852 19.204 19.7501C18.7313 19.2482 18.4164 18.6186 18.2982 17.9394C18.1799 17.2601 18.2637 16.5612 18.539 15.9291C18.8596 15.2745 19.3843 14.7418 20.034 14.4114C20.6837 14.0809 21.4232 13.9706 22.1411 14.097C22.859 14.2233 23.5163 14.5796 24.0141 15.1121C24.5119 15.6445 24.8232 16.3243 24.901 17.0491C25.039 18.1381 25.445 18.6241 26.218 18.6241H26.271C26.5023 18.6216 26.7276 18.5494 26.9173 18.4171C27.1071 18.2847 27.2527 18.0983 27.335 17.8821C27.4894 17.0327 27.4219 16.1579 27.1392 15.3422C26.8564 14.5266 26.3679 13.7977 25.721 13.2261L25.681 13.1861C25.011 12.5131 25.011 12.5131 23.281 11.6861L23.148 11.6231C22.948 11.5281 22.939 11.4821 22.89 10.6411C22.839 9.69508 22.721 9.37108 22.317 9.06608C22.0895 8.88274 21.809 8.77754 21.517 8.76608C20.817 8.76608 20.325 9.49908 20.255 10.6321C20.202 11.4731 20.187 11.5321 19.992 11.6211L19.858 11.6841C18.126 12.5071 18.126 12.5071 17.458 13.1781L17.415 13.2211C16.6115 13.9786 16.0448 14.9526 15.7834 16.0255C15.522 17.0983 15.577 18.2239 15.942 19.2661C16.3834 20.3901 17.1343 21.3659 18.1078 22.0805C19.0813 22.795 20.2374 23.2189 21.442 23.3031H21.556C22.1928 23.3053 22.8164 23.4854 23.3563 23.823C23.8963 24.1607 24.3312 24.6425 24.612 25.2141C24.9796 26.1458 24.9796 27.1824 24.612 28.1141C24.2908 28.7706 23.7645 29.3046 23.1127 29.6352C22.4609 29.9658 21.7191 30.075 20.9997 29.9463C20.2803 29.8175 19.6224 29.4578 19.1257 28.9217C18.629 28.3856 18.3205 27.7022 18.247 26.9751C18.111 25.9081 17.707 25.4281 16.931 25.4281H16.876Z" fill="white"/>
</svg>
