<svg width="41" height="41" viewBox="0 0 41 41" fill="none" xmlns="http://www.w3.org/2000/svg">
<path d="M20.277 40.762C13.054 40.762 5.082 40.708 4.647 40.587C3.57446 40.3083 2.59624 39.7472 1.81414 38.9621C1.03204 38.177 0.474656 37.1966 0.2 36.123C0.062 35.594 0 29.573 0 24.2C0 18.827 0.061 12.809 0.2 12.272C0.547458 10.9125 1.34953 9.71276 2.473 8.87203C3.048 8.45103 17.416 0.583032 18 0.369032C18.3027 0.265049 18.6108 0.177586 18.923 0.107032C19.2811 0.0325206 19.6462 -0.00335137 20.012 3.19832e-05C20.923 -0.00810925 21.8267 0.163851 22.671 0.506032C23.743 0.990032 37.51 8.52503 38.019 8.90603C39.0762 9.7651 39.8427 10.9294 40.214 12.24C40.334 12.666 40.389 18.712 40.389 24.148C40.389 29.584 40.337 35.638 40.214 36.081C39.924 37.163 39.3541 38.1495 38.5617 38.9412C37.7692 39.7329 36.7822 40.302 35.7 40.591C35.274 40.708 27.4 40.762 20.277 40.762ZM13.248 26.71C12.9999 26.7129 12.7574 26.7849 12.548 26.918C11.675 27.453 11.66 28.49 12.51 30.265C13.141 31.5638 14.105 32.672 15.3039 33.4768C16.5027 34.2815 17.8935 34.7541 19.3344 34.8463C20.7754 34.9385 22.215 34.647 23.5066 34.0015C24.7982 33.3561 25.8956 32.3798 26.687 31.172C27.687 29.62 28.047 28.159 27.614 27.362C27.4986 27.164 27.3297 27.0026 27.1265 26.8964C26.9234 26.7903 26.6944 26.7437 26.466 26.762C25.641 26.762 25.307 27.076 24.977 28.173C24.6403 29.3513 23.9172 30.3822 22.924 31.1C22.2256 31.6035 21.4147 31.9287 20.562 32.0474C19.7092 32.166 18.8404 32.0746 18.0311 31.781C17.2217 31.4873 16.4964 31.0004 15.9181 30.3625C15.3398 29.7247 14.9261 28.9552 14.713 28.121C14.468 27.255 13.908 26.71 13.248 26.71Z" fill="white"/>
</svg>
