<svg width="40" height="40" viewBox="0 0 40 40" fill="none" xmlns="http://www.w3.org/2000/svg">
<path d="M33.4111 39.7776H11.146C11.1068 39.7815 11.0671 39.7815 11.0278 39.7776H6.18896C4.54849 39.7771 2.97522 39.1258 1.81494 37.9661C0.654667 36.8064 0.00230158 35.2335 0.000976562 33.593V9.45825C0.00282977 7.81775 0.655327 6.24512 1.81543 5.08521C2.97553 3.92529 4.54847 3.27234 6.18896 3.27075H8.12305V1.72192C8.12357 1.31135 8.28653 0.917707 8.57666 0.627197C8.86679 0.336688 9.26032 0.173177 9.6709 0.172119C10.0814 0.172384 10.4749 0.334995 10.7651 0.625244C11.0554 0.915493 11.219 1.3095 11.2192 1.71997V3.27075H18.1782V1.72192C18.1788 1.31136 18.3419 0.917418 18.6323 0.627197C18.9227 0.336977 19.3165 0.174337 19.7271 0.174072C20.1374 0.174071 20.5309 0.336375 20.8213 0.626221C21.1117 0.916066 21.2751 1.30967 21.2759 1.71997V3.27075H28.312V1.72192C28.3123 1.31198 28.4753 0.919024 28.7651 0.62915C29.055 0.339277 29.448 0.17629 29.8579 0.176025C30.0612 0.175631 30.2627 0.215708 30.4507 0.293213C30.6387 0.370718 30.8097 0.483612 30.9536 0.627197C31.0976 0.770783 31.2116 0.941379 31.2896 1.12915C31.3675 1.31692 31.4081 1.5186 31.4082 1.72192V3.27075H33.4209C35.0614 3.27234 36.6343 3.92529 37.7944 5.08521C38.9545 6.24512 39.607 7.81775 39.6089 9.45825V33.595C39.6044 35.236 38.9494 36.808 37.7876 37.967C36.6258 39.126 35.0522 39.7771 33.4111 39.7776ZM30.186 28.4583C29.7909 28.4585 29.4122 28.6154 29.1328 28.8948C28.8534 29.1741 28.6961 29.5524 28.6958 29.9475C28.6974 30.3415 28.8555 30.7193 29.1348 30.9973C29.4141 31.2753 29.792 31.4312 30.186 31.4309C30.5793 31.4304 30.9562 31.2743 31.2344 30.9963C31.5125 30.7184 31.6691 30.3408 31.6699 29.9475C31.676 29.7482 31.6419 29.5503 31.5693 29.3645C31.4968 29.1787 31.3875 29.0099 31.248 28.8674C31.1094 28.7253 30.9434 28.6124 30.7603 28.5354C30.5772 28.4584 30.3807 28.4188 30.1821 28.4192L30.186 28.4583ZM23.4858 28.4583C23.092 28.4596 22.7147 28.6169 22.4365 28.8958C22.1584 29.1746 22.0022 29.5517 22.002 29.9456C22.0007 30.1412 22.0382 30.3358 22.1123 30.5168C22.1865 30.6979 22.296 30.8626 22.4341 31.0012C22.572 31.1396 22.7359 31.2488 22.9165 31.3235C23.0971 31.3981 23.2905 31.4363 23.4858 31.4358C23.6814 31.4359 23.8754 31.3973 24.0562 31.3225C24.2369 31.2477 24.4008 31.1385 24.5391 31.0002C24.6774 30.862 24.787 30.6976 24.8618 30.5168C24.9366 30.3361 24.9752 30.1421 24.9751 29.9465C24.981 29.7469 24.9465 29.5486 24.874 29.3625C24.8015 29.1765 24.6926 29.0065 24.5532 28.8635C24.4137 28.7212 24.247 28.6091 24.063 28.5325C23.879 28.4559 23.6812 28.417 23.4819 28.4182L23.4858 28.4583ZM16.2031 28.4583C15.8081 28.4585 15.4291 28.6154 15.1499 28.8948C14.8707 29.1742 14.7139 29.5525 14.7139 29.9475C14.7152 30.3415 14.8727 30.7193 15.1519 30.9973C15.431 31.2753 15.8092 31.4312 16.2031 31.4309C16.5968 31.4304 16.9741 31.2737 17.2524 30.9954C17.5308 30.717 17.6875 30.3392 17.688 29.9456C17.6936 29.7468 17.6595 29.5488 17.5874 29.3635C17.5153 29.1782 17.4066 29.0101 17.2681 28.8674C17.1295 28.7249 16.9639 28.6107 16.7808 28.5334C16.5977 28.4562 16.4009 28.4171 16.2021 28.4172L16.2031 28.4583ZM9.50293 28.4583C9.10809 28.459 8.72978 28.6165 8.45068 28.8958C8.17159 29.175 8.01469 29.5527 8.01416 29.9475C8.01548 30.3415 8.17302 30.7193 8.45215 30.9973C8.73128 31.2753 9.10898 31.4312 9.50293 31.4309C9.69833 31.4314 9.89207 31.394 10.0728 31.3196C10.2534 31.2452 10.4178 31.1352 10.5562 30.9973C10.6946 30.8594 10.8044 30.6953 10.8794 30.5149C10.9544 30.3345 10.993 30.141 10.9932 29.9456C10.9982 29.747 10.9634 29.5504 10.8911 29.3655C10.8188 29.1805 10.7106 29.0118 10.5723 28.8694C10.4338 28.7266 10.2681 28.613 10.085 28.5354C9.90186 28.4578 9.70474 28.4175 9.50586 28.4172L9.50293 28.4583ZM30.1909 21.7639C29.7967 21.7631 29.4186 21.9194 29.1392 22.1975C28.8598 22.4756 28.7022 22.8531 28.7012 23.2473C28.7022 23.6422 28.8597 24.0202 29.1392 24.2991C29.4186 24.578 29.7971 24.7344 30.1919 24.7346C30.3869 24.7345 30.5802 24.6961 30.7603 24.6213C30.9403 24.5466 31.1035 24.4371 31.2412 24.2991C31.3789 24.1611 31.4881 23.9978 31.5625 23.8176C31.6369 23.6374 31.6751 23.4442 31.6748 23.2493C31.6889 23.0463 31.6607 22.8421 31.5918 22.6506C31.5229 22.4592 31.415 22.2844 31.2749 22.137C31.1356 21.9882 30.967 21.8697 30.7798 21.7893C30.5925 21.7089 30.3908 21.6686 30.187 21.6702L30.1909 21.7639ZM23.4912 21.7639C23.0981 21.7637 22.7207 21.9198 22.4424 22.1975C22.1641 22.4752 22.0074 22.8522 22.0068 23.2454C22.0054 23.6401 22.161 24.0189 22.439 24.2991C22.5769 24.4376 22.7409 24.5472 22.9214 24.6223C23.1019 24.6975 23.2957 24.7363 23.4912 24.7366C23.886 24.7355 24.2639 24.5783 24.543 24.2991C24.822 24.0198 24.9792 23.6421 24.98 23.2473C24.9928 23.0441 24.9637 22.8401 24.894 22.6487C24.8243 22.4573 24.7158 22.2824 24.5752 22.135C24.4357 21.9867 24.2668 21.8684 24.0796 21.7883C23.8924 21.7083 23.6904 21.6685 23.4868 21.6702L23.4912 21.7639ZM16.207 21.7639C15.813 21.7634 15.4349 21.9195 15.1558 22.1975C14.8766 22.4756 14.7193 22.8533 14.7183 23.2473C14.7196 23.6419 14.877 24.0193 15.1562 24.2981C15.4355 24.5769 15.8134 24.7338 16.208 24.7346C16.602 24.7336 16.9795 24.577 17.2578 24.2981C17.5362 24.0192 17.6926 23.6414 17.6929 23.2473C17.706 23.0444 17.6772 22.841 17.6084 22.6497C17.5396 22.4584 17.4323 22.283 17.293 22.135C17.1537 21.9875 16.9858 21.8703 16.7993 21.7903C16.6129 21.7103 16.4119 21.6694 16.209 21.6702L16.207 21.7639ZM9.50684 21.7639C9.11289 21.7636 8.73518 21.9195 8.45605 22.1975C8.17693 22.4755 8.01939 22.8534 8.01807 23.2473C8.01886 23.6419 8.17598 24.0202 8.45508 24.2991C8.73418 24.578 9.11226 24.7341 9.50684 24.7346C9.90193 24.735 10.2812 24.579 10.561 24.3C10.6994 24.1616 10.809 23.9975 10.8838 23.8167C10.9586 23.6358 10.9972 23.4421 10.9971 23.2463C11.0101 23.0438 10.9814 22.8406 10.9126 22.6497C10.8438 22.4587 10.7364 22.2837 10.5972 22.136C10.4579 21.9881 10.2897 21.8706 10.103 21.7903C9.9164 21.71 9.71539 21.6687 9.51221 21.6692L9.50684 21.7639ZM30.1948 15.0637C29.9993 15.0639 29.8061 15.103 29.6255 15.178C29.4449 15.2529 29.2808 15.3629 29.1426 15.5012C29.0044 15.6396 28.8945 15.8029 28.8198 15.9836C28.7451 16.1643 28.7069 16.3584 28.707 16.554C28.7069 16.7495 28.7455 16.9436 28.8203 17.1243C28.8951 17.305 29.0047 17.4685 29.1431 17.6067C29.4229 17.8853 29.801 18.0428 30.1958 18.0442C30.5902 18.0429 30.9684 17.8852 31.2466 17.6057C31.5248 17.3262 31.6807 16.9474 31.6802 16.553C31.6825 16.3558 31.6456 16.1606 31.5718 15.9778C31.498 15.795 31.3885 15.6278 31.25 15.4875C31.1103 15.3471 30.9442 15.2363 30.7612 15.1604C30.5783 15.0845 30.3821 15.0458 30.1841 15.0461L30.1948 15.0637ZM23.4951 15.0637C23.1012 15.0648 22.7235 15.2223 22.4453 15.5012C22.1671 15.7802 22.0112 16.1581 22.0112 16.552C22.0108 16.7471 22.0486 16.94 22.123 17.1204C22.1974 17.3008 22.307 17.4647 22.4448 17.6028C22.5827 17.7409 22.746 17.8513 22.9263 17.926C23.1065 18.0008 23.3 18.0393 23.4951 18.0393C23.6907 18.0407 23.8845 18.0023 24.0654 17.928C24.2464 17.8536 24.4107 17.7442 24.5488 17.6057C24.6874 17.4676 24.7976 17.304 24.8726 17.1233C24.9475 16.9426 24.9859 16.7486 24.9858 16.553C24.9893 16.3547 24.9529 16.1578 24.8789 15.9739C24.8049 15.7899 24.695 15.6223 24.5552 15.4817C24.416 15.3406 24.25 15.2292 24.0669 15.1536C23.8838 15.078 23.6874 15.0404 23.4893 15.0422L23.4951 15.0637ZM16.2119 15.0637C15.8169 15.064 15.4384 15.2218 15.1592 15.5012C14.88 15.7806 14.7231 16.159 14.7231 16.554C14.723 16.7495 14.7611 16.9436 14.8359 17.1243C14.9108 17.305 15.0208 17.4685 15.1592 17.6067C15.439 17.8853 15.8171 18.0428 16.2119 18.0442C16.6064 18.0429 16.9843 17.8852 17.2627 17.6057C17.5411 17.3262 17.6975 16.9475 17.6973 16.553C17.7001 16.3559 17.6635 16.1606 17.5898 15.9778C17.5162 15.7949 17.4067 15.6277 17.2681 15.4875C17.1298 15.347 16.965 15.2356 16.7832 15.1594C16.6014 15.0832 16.4061 15.0443 16.209 15.0442L16.2119 15.0637ZM9.51221 15.0637C9.11721 15.064 8.7382 15.2218 8.45898 15.5012C8.17977 15.7806 8.02295 16.159 8.02295 16.554C8.02321 16.9488 8.18029 17.3275 8.45947 17.6067C8.73866 17.8859 9.11738 18.0429 9.51221 18.0432C9.70816 18.0434 9.90197 18.0049 10.083 17.9299C10.264 17.8549 10.4284 17.7444 10.5669 17.6057C10.7054 17.4675 10.8152 17.304 10.8901 17.1233C10.9651 16.9426 11.0039 16.7486 11.0039 16.553C11.0068 16.3556 10.9706 16.16 10.897 15.9768C10.8233 15.7936 10.714 15.6261 10.5752 15.4856C10.4367 15.3448 10.2715 15.2337 10.0894 15.1575C9.90718 15.0812 9.71164 15.042 9.51416 15.0422L9.51221 15.0637Z" fill="white"/>
</svg>
