<svg width="54" height="37" viewBox="0 0 54 37" fill="none" xmlns="http://www.w3.org/2000/svg">
<path d="M45.0732 1.02502H9.07422C4.65594 1.02502 1.07422 4.60675 1.07422 9.02502V28.445C1.07422 32.8633 4.65594 36.445 9.07422 36.445H45.0732C49.4915 36.445 53.0732 32.8633 53.0732 28.445V9.02502C53.0732 4.60675 49.4915 1.02502 45.0732 1.02502Z" fill="#1F72CD" stroke="#D9D9D9"/>
<path fill-rule="evenodd" clip-rule="evenodd" d="M10.1548 13.459L5.21875 24.38H11.1278L11.8597 22.638H13.5337L14.2668 24.38H20.7668V23.051L21.3467 24.38H24.7108L25.2897 23.023V24.38H38.8197L40.4648 22.68L42.0048 24.38L48.9518 24.394L44.0007 18.949L48.9518 13.457H42.1117L40.5117 15.122L39.0208 13.457H24.3047L23.0438 16.28L21.7438 13.459H15.8438V14.743L15.1878 13.459H10.1548ZM30.3548 15.01H38.1217L40.4977 17.576L42.9437 15.01H45.3238L41.7138 18.949L45.3238 22.843H42.8438L40.4678 20.243L38.0027 22.843H30.3527L30.3548 15.01ZM32.2728 18.063V16.632H37.1198L39.2347 18.92L37.0257 21.22H32.2707V19.658H36.5078V18.063H32.2728ZM11.2977 15.01H14.1777L17.4518 22.416V15.01H20.6068L23.1357 20.32L25.4658 15.01H28.6048V22.847H26.6948L26.6797 16.706L23.8947 22.847H22.1857L19.3857 16.706V22.847H15.4557L14.7108 21.09H10.6857L9.94275 22.846H7.83675L11.2977 15.01ZM11.3727 19.466L12.6987 16.336L14.0238 19.466H11.3727Z" fill="white"/>
</svg>
