<svg width="42" height="43" viewBox="0 0 42 43" fill="none" xmlns="http://www.w3.org/2000/svg">
<path d="M21.066 42.499H21H20.954C18.1989 42.4974 15.4711 41.9528 12.9265 40.8964C10.382 39.8399 8.0706 38.2923 6.12455 36.3419C4.17851 34.3916 2.63595 32.0769 1.58506 29.53C0.534167 26.9831 -0.00443915 24.2541 2.92514e-05 21.499C-0.00457049 18.7453 0.53335 16.0177 1.58307 13.472C2.63278 10.9262 4.17373 8.61223 6.1179 6.66212C8.06207 4.71201 10.3714 3.16401 12.9139 2.10652C15.4564 1.04904 18.1824 0.502798 20.936 0.498993L21.067 0.498993C23.8202 0.502404 26.5457 1.0482 29.0878 2.10521C31.6299 3.16221 33.9389 4.70971 35.8829 6.6593C37.8268 8.6089 39.3676 10.9224 40.4172 13.4676C41.4668 16.0128 42.0046 18.7399 42 21.493C42.0059 24.2471 41.469 26.9755 40.42 29.522C39.3709 32.0685 37.8303 34.3834 35.8862 36.3342C33.942 38.285 31.6325 39.8336 29.0896 40.8914C26.5466 41.9492 23.8202 42.4955 21.066 42.499ZM20.383 12.349C20.1352 12.3484 19.8967 12.4433 19.717 12.614L11.264 20.67C11.0824 20.8512 10.9387 21.0668 10.841 21.304C10.7434 21.5413 10.6938 21.7956 10.6952 22.0521C10.6966 22.3087 10.7489 22.5624 10.8491 22.7986C10.9494 23.0348 11.0955 23.2487 11.279 23.428L19.716 31.465C19.8918 31.6355 20.1272 31.7306 20.372 31.73H20.393C20.5865 31.7314 20.776 31.6746 20.9368 31.5669C21.0976 31.4592 21.2222 31.3056 21.2945 31.1261C21.3668 30.9466 21.3834 30.7494 21.3421 30.5604C21.3008 30.3713 21.2036 30.199 21.063 30.066L13.624 23.012H29.758C30.0152 23.012 30.2618 22.9098 30.4436 22.728C30.6254 22.5462 30.7275 22.2996 30.7275 22.0425C30.7275 21.7854 30.6254 21.5388 30.4436 21.357C30.2618 21.1751 30.0152 21.073 29.758 21.073H13.658L21.058 14.025C21.15 13.9384 21.2239 13.8344 21.2754 13.7191C21.3269 13.6037 21.355 13.4793 21.358 13.353C21.3675 13.231 21.3517 13.1083 21.3116 12.9927C21.2714 12.877 21.2078 12.771 21.1247 12.6811C21.0416 12.5912 20.9408 12.5195 20.8286 12.4704C20.7165 12.4214 20.5954 12.396 20.473 12.396H20.391L20.384 12.349H20.383Z" fill="black"/>
</svg>
