<svg width="31" height="30" viewBox="0 0 31 30" fill="none" xmlns="http://www.w3.org/2000/svg">
<path id="Screenshot_3" d="M21.3883 28.438C19.1845 29.4475 16.7584 29.8745 14.3423 29.678C11.9863 29.5358 9.69984 28.8247 7.67873 27.6056C5.65762 26.3865 3.9621 24.6957 2.73734 22.678C1.56047 20.8296 0.827347 18.7339 0.59534 16.555C0.257055 13.6448 0.78793 10.6996 2.12104 8.0907C3.45414 5.4818 5.5298 3.32596 8.08634 1.89498C9.79629 0.923379 11.6865 0.310891 13.6413 0.0949852C16.8206 -0.276993 20.035 0.388564 22.8052 1.99243C25.5754 3.5963 27.753 6.05256 29.0133 8.99498C29.9729 11.139 30.3727 13.4914 30.1753 15.832C30.02 18.5403 29.1164 21.1525 27.5651 23.378C26.0138 25.6035 23.8756 27.3551 21.3883 28.438ZM9.63533 7.57598C11.4193 9.35931 13.204 11.1423 14.9893 12.925C15.3953 13.325 15.3133 13.343 15.7423 12.914C16.2757 12.3847 16.8043 11.8536 17.3283 11.321C17.4103 11.238 17.5283 11.175 17.5443 11.03C17.5143 10.991 17.4823 10.946 17.4443 10.905C16.3318 9.59012 15.4616 8.08814 14.8743 6.46899C14.4396 5.25695 14.1591 3.99504 14.0393 2.71298C13.9953 2.26098 13.9453 2.24198 13.4983 2.31298C11.2767 2.65422 9.18508 3.57788 7.43633 4.98998C7.37033 5.04298 7.28033 5.07998 7.28133 5.23798C8.03733 5.98798 8.81833 6.76298 9.63033 7.57298M6.81833 7.87298L5.68834 6.74498C4.05038 8.64464 3.04265 11.006 2.80434 13.503C6.04242 13.7012 9.12546 14.9588 11.5783 17.082C12.2423 16.416 12.8703 15.768 13.5223 15.144C13.7523 14.923 13.7503 14.792 13.5223 14.566C11.2933 12.352 9.07633 10.127 6.82233 7.87199M19.5393 12.959C19.4043 12.868 19.3113 12.719 19.1023 12.659C18.4633 13.302 17.8183 13.959 17.1583 14.609C16.9583 14.802 16.9733 14.923 17.1663 15.116C19.5083 17.4493 21.846 19.7857 24.1793 22.125C24.4563 22.402 24.7403 22.672 25.0473 22.97C26.666 21.0583 27.6759 18.7062 27.9473 16.216C24.8747 16.0296 21.9361 14.8924 19.5383 12.962M19.5833 26.793C20.9991 26.2833 22.3125 25.5247 23.4613 24.553C23.3803 24.458 23.3283 24.388 23.2673 24.328C20.7113 21.7686 18.1557 19.209 15.6003 16.649C15.4153 16.463 15.3003 16.464 15.1173 16.649C14.5643 17.219 14.0083 17.786 13.4353 18.335C13.2003 18.56 13.1693 18.716 13.3973 18.983C14.1445 19.869 14.7731 20.8486 15.2673 21.897C16.0357 23.5098 16.5143 25.2453 16.6813 27.024C16.7243 27.446 16.7693 27.47 17.1993 27.399C18.0098 27.2698 18.8073 27.069 19.5823 26.799M14.4763 27.399C14.4763 27.245 14.4813 27.089 14.4633 26.937C14.2283 24.8264 13.4625 22.8097 12.2373 21.075C12.0696 20.7969 11.868 20.5406 11.6373 20.312L7.29734 24.638C7.31343 24.6611 7.33223 24.6823 7.35334 24.701C7.44534 24.78 7.53733 24.859 7.63334 24.932C9.29632 26.2185 11.2567 27.0652 13.3333 27.394C13.7066 27.5097 14.1059 27.5118 14.4803 27.4M22.9603 5.68998C23.157 5.51362 23.3341 5.31647 23.4883 5.10198C21.4302 3.38976 18.8804 2.37721 16.2083 2.21098C16.3781 4.89638 17.4075 7.45588 19.1443 9.51099L22.9593 5.69099M25.4393 13.602C26.0309 13.7744 26.6356 13.8978 27.2473 13.971C27.9863 14.071 27.9923 14.055 27.9103 13.32C27.6659 11.1633 26.8528 9.11024 25.5543 7.37098C25.4384 7.17157 25.2947 6.98974 25.1273 6.83099L20.7883 11.141C22.1457 12.2832 23.7314 13.1222 25.4393 13.602ZM4.13033 20.702C4.53088 21.4803 5.01797 22.2109 5.58234 22.88L9.93233 18.594C9.82533 18.506 9.70233 18.394 9.57233 18.294C7.68492 16.8229 5.4159 15.9228 3.03333 15.7C2.73333 15.669 2.72433 15.826 2.74733 16.032C2.9129 17.6589 3.38237 19.2403 4.13134 20.694L4.13033 20.702Z" fill="black"/>
</svg>
