<svg width="36" height="41" viewBox="0 0 36 41" fill="none" xmlns="http://www.w3.org/2000/svg">
<path id="Caminho 43129" d="M17.9719 40.673C16.5549 40.6722 15.1726 40.2347 14.0131 39.4202C12.8537 38.6057 11.9733 37.4537 11.4919 36.121H4.12191C3.27512 36.1112 2.45134 35.8439 1.76009 35.3547C1.06884 34.8655 0.542903 34.1776 0.252037 33.3822C-0.0388291 32.5869 -0.0808683 31.7219 0.131676 30.9022C0.34422 30.0824 0.801187 29.3468 1.44186 28.793C2.56956 27.8332 3.474 26.6387 4.09188 25.293C4.72095 23.9498 5.04216 22.4831 5.03194 21V16.278C5.03354 13.2516 6.09443 10.3213 8.0306 7.99532C9.96677 5.66935 12.656 4.09451 15.6319 3.54399V1.98499L15.6619 1.85798C15.7794 1.33231 16.0719 0.86213 16.4917 0.524542C16.9114 0.186954 17.4333 0.00199283 17.9719 -1.36292e-05C18.5133 -0.00344459 19.0394 0.179453 19.4619 0.517986C19.8815 0.858472 20.174 1.33061 20.292 1.85798L20.312 1.98499V3.54498C23.2899 4.09074 25.9819 5.66411 27.9189 7.99092C29.8559 10.3177 30.9152 13.2504 30.9119 16.278V20.994C30.9085 22.4712 31.226 23.9314 31.8424 25.2739C32.4588 26.6163 33.3593 27.8088 34.4819 28.769C35.1289 29.3171 35.593 30.0498 35.812 30.869C36.0345 31.6898 35.9994 32.5592 35.7114 33.3595C35.4234 34.1597 34.8964 34.8522 34.2019 35.343C33.5092 35.8365 32.6823 36.1066 31.8319 36.117H24.4619C23.9752 37.4482 23.0923 38.5983 21.9318 39.4122C20.7714 40.2261 19.3893 40.6648 17.9719 40.669V40.673ZM4.15194 33.721H13.3819L13.5819 34.681C13.7373 35.4366 14.0849 36.1394 14.5911 36.7215C15.0974 37.3037 15.7452 37.7454 16.472 38.0042C17.1988 38.2629 17.98 38.3299 18.7402 38.1987C19.5004 38.0674 20.214 37.7424 20.812 37.255C21.6147 36.6022 22.1689 35.6935 22.3819 34.681L22.5819 33.721H31.8219C32.1809 33.711 32.5289 33.5948 32.8219 33.387C33.1124 33.1763 33.3321 32.8823 33.4519 32.544C33.5701 32.2045 33.5841 31.8374 33.4919 31.49C33.3999 31.1431 33.2047 30.8323 32.932 30.599H32.922C31.5342 29.4147 30.4216 27.9417 29.6619 26.283C28.903 24.6249 28.5108 22.8225 28.5119 20.999V16.278C28.5236 13.6565 27.5542 11.1255 25.7944 9.18255C24.0346 7.23956 21.6117 6.02513 19.0019 5.77799L17.9819 5.67799L16.9519 5.77799C14.3403 6.02278 11.9149 7.2362 10.153 9.17943C8.39117 11.1227 7.42052 13.655 7.43197 16.278V20.994C7.43896 22.8232 7.04606 24.6319 6.28085 26.2935C5.51563 27.955 4.39654 29.4292 3.00191 30.613C2.73182 30.8505 2.54001 31.1643 2.45187 31.513C2.3662 31.8615 2.38712 32.2276 2.51192 32.564C2.63673 32.9005 2.85974 33.1917 3.15194 33.4C3.44425 33.608 3.79317 33.7218 4.15194 33.726V33.721Z" fill="#3A4B4C"/>
</svg>
