<svg width="28" height="29" viewBox="0 0 28 29" fill="none" xmlns="http://www.w3.org/2000/svg">
<path d="M13.0469 28.5013L3.52637 28.4729L3.12598 28.3362C2.49839 28.1245 1.9283 27.7714 1.45996 27.303C0.991619 26.8347 0.637486 26.2636 0.425781 25.636L0.289062 25.2366V6.30498L0.425781 5.91142C0.696254 5.03156 1.25917 4.2706 2.02051 3.75322C2.78185 3.23584 3.69662 2.99325 4.61426 3.06572L6.04297 3.0374L6.06836 1.99053C6.08636 1.11353 6.18331 1.063 6.44531 0.929002C6.58873 0.866621 6.74421 0.838814 6.90039 0.84697C7.05657 0.855126 7.20957 0.899874 7.3457 0.976853C7.5587 1.11585 7.65918 1.21814 7.65918 2.04814V3.04814H13.2246V2.04814C13.2246 0.976142 13.4564 0.869431 14.0244 0.869431C14.5924 0.869431 14.8242 0.975142 14.8242 2.04814V3.04814H20.4463V2.04814C20.4463 0.976142 20.6781 0.869431 21.2461 0.869431C21.8141 0.869431 22.0459 0.975259 22.0459 2.04326V3.03349L23.5137 3.06181C25.7417 3.10581 27.0814 4.01045 27.7334 5.91045L27.8701 6.304L27.8848 10.012V10.262C27.8948 12.441 27.8991 13.2567 27.8711 13.6077V25.2405L27.7344 25.6399C27.5227 26.2675 27.1685 26.8386 26.7002 27.3069C26.2319 27.7753 25.6618 28.1284 25.0342 28.3401L24.6396 28.4739L19.8682 28.4905H13.0625L13.0166 28.511L13.0469 28.5013ZM5.14258 4.66142C3.20158 4.66142 2.15338 5.39031 1.94238 6.87431C1.86038 7.45931 1.86038 24.0901 1.94238 24.6741C2.01323 25.2213 2.26334 25.7301 2.65332 26.1204C3.0433 26.5107 3.55149 26.761 4.09863 26.8323C4.39163 26.8763 6.73315 26.8929 8.82715 26.8929C10.9391 26.8929 12.0002 26.8926 12.5732 26.9056H12.5811H12.5869C13.3549 26.8946 14.4538 26.889 16.0498 26.889H19.374C21.515 26.889 23.8056 26.8713 24.0996 26.8323C24.647 26.7613 25.1551 26.5113 25.5459 26.1214C25.9367 25.7315 26.1874 25.2233 26.2598 24.6761C26.3118 24.3021 26.3028 13.9258 26.2998 10.0198V9.17314H26.3184V8.87334C26.2974 6.37334 26.1919 6.08472 25.5479 5.44072C25.2113 5.13313 24.8108 4.90368 24.375 4.76982C23.9392 4.63597 23.4795 4.60064 23.0283 4.66631H22.0791V5.66631C22.0791 6.74031 21.8473 6.84697 21.2793 6.84697C20.7113 6.84697 20.4795 6.74131 20.4795 5.66631V4.66631H14.8574V5.66631C14.8574 6.74031 14.6256 6.84697 14.0576 6.84697C13.4896 6.84697 13.2568 6.74131 13.2568 5.66631V4.66631H7.69238V5.66631C7.69238 6.74031 7.45972 6.84697 6.88672 6.84697C6.31372 6.84697 6.08594 6.74131 6.08594 5.66631V4.66631L5.14258 4.66142ZM21.2764 22.5618C21.0672 22.5596 20.867 22.477 20.7158 22.3323C20.5647 22.1877 20.4734 21.9914 20.4619 21.7825C20.4505 21.5736 20.5189 21.3686 20.6533 21.2083C20.7878 21.048 20.9788 20.9443 21.1865 20.9192H21.2139H21.2314H21.2871C21.4369 20.9188 21.5836 20.9592 21.7119 21.0364C21.8403 21.1136 21.9459 21.2252 22.0156 21.3577C22.0813 21.4843 22.1123 21.6253 22.1074 21.7679C22.1025 21.9104 22.0615 22.0494 21.9873 22.1712C21.9131 22.293 21.8089 22.3934 21.6846 22.4632C21.5602 22.533 21.4199 22.5698 21.2773 22.5696L21.2764 22.5618ZM16.4766 22.5618C16.31 22.5626 16.1465 22.5115 16.0098 22.4163C15.8716 22.3209 15.7664 22.1856 15.707 22.0286C15.6477 21.8716 15.6372 21.7003 15.6777 21.5374C15.7182 21.3745 15.8076 21.2274 15.9336 21.1165C16.0596 21.0056 16.2161 20.9359 16.3828 20.9163C16.4161 20.9139 16.4501 20.9139 16.4834 20.9163C16.6334 20.9152 16.7806 20.9552 16.9092 21.0325C17.0378 21.1098 17.1424 21.2218 17.2119 21.3548C17.2772 21.4813 17.3096 21.6217 17.3047 21.764C17.2997 21.9062 17.2575 22.0447 17.1836 22.1663C17.1097 22.288 17.0067 22.3893 16.8828 22.4593C16.7589 22.5293 16.6189 22.5663 16.4766 22.5667V22.5618ZM11.6572 22.5618C11.5324 22.5621 11.4091 22.5336 11.2969 22.4788C11.1847 22.4241 11.0863 22.344 11.0098 22.2454C10.9332 22.1468 10.8808 22.0317 10.8555 21.9095C10.8302 21.7872 10.8331 21.6612 10.8643 21.5403C10.9054 21.3787 10.9943 21.2329 11.1191 21.1224C11.244 21.0118 11.3991 20.9415 11.5645 20.9202H11.5918H11.6094H11.6641C11.814 20.9196 11.9613 20.9602 12.0898 21.0374C12.2184 21.1146 12.3237 21.226 12.3936 21.3587C12.4592 21.4853 12.4912 21.6263 12.4863 21.7688C12.4814 21.9114 12.4394 22.0504 12.3652 22.1722C12.2911 22.294 12.1869 22.3944 12.0625 22.4642C11.9381 22.5339 11.7979 22.5708 11.6553 22.5706L11.6572 22.5618ZM6.85742 22.5618C6.691 22.5617 6.5287 22.5106 6.3916 22.4163C6.25441 22.3201 6.14935 22.1846 6.09082 22.0276C6.03229 21.8706 6.02274 21.6999 6.06348 21.5374C6.10422 21.3749 6.19367 21.2283 6.31934 21.1175C6.445 21.0067 6.60124 20.9364 6.76758 20.9163C6.80087 20.9139 6.8339 20.9139 6.86719 20.9163C7.01712 20.9151 7.16449 20.9552 7.29297 21.0325C7.42145 21.1098 7.52655 21.2217 7.5957 21.3548C7.66133 21.4814 7.6924 21.6224 7.6875 21.7649C7.6826 21.9075 7.64155 22.0465 7.56738 22.1683C7.49322 22.2901 7.38902 22.3905 7.26465 22.4603C7.14028 22.53 7.00002 22.5669 6.85742 22.5667V22.5618ZM21.2773 17.761C21.111 17.7617 20.9485 17.7119 20.8115 17.6175C20.6743 17.5213 20.5693 17.3858 20.5107 17.2288C20.4522 17.0718 20.4427 16.9011 20.4834 16.7386C20.5241 16.576 20.6136 16.4295 20.7393 16.3187C20.8649 16.2078 21.0212 16.1376 21.1875 16.1175H21.2109H21.2363H21.2871C21.437 16.1165 21.5845 16.1564 21.7129 16.2337C21.8413 16.311 21.9463 16.4221 22.0156 16.555C22.0808 16.6814 22.1116 16.8229 22.1064 16.9651C22.1013 17.1073 22.0605 17.246 21.9863 17.3675C21.9122 17.4889 21.8077 17.589 21.6836 17.6585C21.5595 17.728 21.4196 17.7642 21.2773 17.764V17.761ZM16.4775 17.761C16.3112 17.7617 16.1487 17.7119 16.0117 17.6175C15.8736 17.5221 15.7674 17.3868 15.708 17.2298C15.6487 17.0728 15.6382 16.9015 15.6787 16.7386C15.7192 16.5757 15.8086 16.4286 15.9346 16.3177C16.0605 16.2067 16.2171 16.1371 16.3838 16.1175H16.4082H16.4336H16.4844C16.6519 16.1162 16.816 16.1662 16.9541 16.261C17.0922 16.3559 17.1979 16.4909 17.2568 16.6478C17.3157 16.8046 17.3247 16.9757 17.2832 17.138C17.2417 17.3003 17.1514 17.4457 17.0244 17.555C16.8723 17.6868 16.6778 17.759 16.4766 17.7581L16.4775 17.761ZM11.6582 17.761C11.4918 17.7617 11.3294 17.7119 11.1924 17.6175C11.0547 17.5216 10.9495 17.3859 10.8906 17.2288C10.8318 17.0717 10.8215 16.9004 10.8623 16.7376C10.9031 16.5748 10.9931 16.4285 11.1191 16.3177C11.2452 16.2069 11.4017 16.1371 11.5684 16.1175H11.5928H11.6172H11.667C11.817 16.1164 11.9651 16.1564 12.0938 16.2337C12.2224 16.311 12.327 16.422 12.3965 16.555C12.4812 16.7187 12.5085 16.906 12.4746 17.0872C12.4407 17.2684 12.3471 17.433 12.209 17.555C12.0556 17.6871 11.8597 17.7593 11.6572 17.7581L11.6582 17.761ZM6.8584 17.761C6.69186 17.7627 6.52914 17.7128 6.39258 17.6175C6.25509 17.5217 6.1491 17.3865 6.08984 17.2298C6.03059 17.0731 6.02081 16.9023 6.06055 16.7395C6.10251 16.5773 6.19173 16.4315 6.31738 16.3206C6.44303 16.2097 6.59944 16.1389 6.76562 16.1175C6.79763 16.1175 6.83223 16.1116 6.86523 16.1116C7.07895 16.12 7.28085 16.211 7.42871 16.3655C7.57657 16.5201 7.65924 16.7259 7.6582 16.9397C7.65717 17.1536 7.57318 17.3589 7.42383 17.512C7.27448 17.6651 7.07121 17.7537 6.85742 17.7601L6.8584 17.761ZM21.2754 12.9612C21.1101 12.9629 20.9485 12.9137 20.8125 12.8196C20.6744 12.7242 20.5681 12.589 20.5088 12.4319C20.4494 12.2749 20.44 12.1036 20.4805 11.9407C20.521 11.7778 20.6094 11.6308 20.7354 11.5198C20.8613 11.4089 21.0188 11.3392 21.1855 11.3196C21.2186 11.3145 21.2517 11.312 21.2852 11.3118C21.4986 11.3205 21.7002 11.4111 21.8477 11.5657C21.9951 11.7204 22.0766 11.9263 22.0752 12.1399C22.0738 12.3536 21.9893 12.5586 21.8398 12.7112C21.6903 12.8639 21.488 12.9524 21.2744 12.9583L21.2754 12.9612ZM16.4756 12.9612C16.3095 12.9621 16.1462 12.913 16.0088 12.8196C15.8707 12.7242 15.7654 12.589 15.7061 12.4319C15.6467 12.2749 15.6362 12.1036 15.6768 11.9407C15.7173 11.7778 15.8066 11.6308 15.9326 11.5198C16.0586 11.4089 16.2151 11.3392 16.3818 11.3196C16.415 11.3149 16.449 11.3124 16.4824 11.3118C16.65 11.3105 16.814 11.3605 16.9521 11.4554C17.0903 11.5502 17.196 11.6852 17.2549 11.8421C17.3138 11.9989 17.3228 12.17 17.2812 12.3323C17.2397 12.4946 17.1495 12.64 17.0225 12.7493C16.8724 12.8837 16.678 12.9579 16.4766 12.9573L16.4756 12.9612ZM11.6562 12.9612C11.4911 12.9621 11.3297 12.913 11.1934 12.8196C11.0552 12.7242 10.949 12.589 10.8896 12.4319C10.8303 12.2749 10.8208 12.1036 10.8613 11.9407C10.9018 11.7778 10.9912 11.6308 11.1172 11.5198C11.2432 11.4089 11.3997 11.3392 11.5664 11.3196C11.5995 11.3144 11.6325 11.3119 11.666 11.3118C11.8795 11.3204 12.082 11.4112 12.2295 11.5657C12.377 11.7203 12.4583 11.9263 12.457 12.1399C12.4557 12.3536 12.3711 12.5585 12.2217 12.7112C12.0723 12.864 11.8698 12.9523 11.6562 12.9583V12.9612ZM6.85645 12.9612C6.73132 12.9622 6.60775 12.9347 6.49512 12.8802C6.38248 12.8257 6.28391 12.7455 6.20703 12.6468C6.13016 12.548 6.07699 12.4334 6.05176 12.3108C6.02653 12.1883 6.02989 12.0618 6.06152 11.9407C6.10239 11.779 6.19057 11.6333 6.31543 11.5228C6.44029 11.4122 6.59625 11.3416 6.76172 11.3206C6.79481 11.3155 6.82784 11.313 6.86133 11.3128C7.02882 11.3121 7.19222 11.3622 7.33008 11.4573C7.46794 11.5524 7.574 11.6872 7.63281 11.844C7.69162 12.0009 7.7005 12.172 7.65918 12.3343C7.61786 12.4966 7.52801 12.6426 7.40137 12.7522C7.2521 12.8856 7.05858 12.9588 6.8584 12.9573L6.85645 12.9612Z" fill="black"/>
</svg>
