<svg width="39" height="39" viewBox="0 0 39 39" fill="none" xmlns="http://www.w3.org/2000/svg">
<path id="Caminho 43133" d="M9.82902 36.141L9.63603 36.03L1.48308 38.652C1.37799 38.6901 1.26684 38.7087 1.15507 38.707C0.990773 38.7072 0.828802 38.6678 0.683027 38.592C0.534413 38.5159 0.405671 38.4061 0.30705 38.2713C0.208429 38.1366 0.142666 37.9807 0.115034 37.816C0.0889404 37.6516 0.101923 37.4834 0.152997 37.325L2.78398 29.176L2.66801 28.984C0.334212 24.9158 -0.442596 20.1384 0.482099 15.5404C1.40679 10.9423 3.97007 6.83665 7.69511 3.98691C11.4202 1.13717 16.0534 -0.262635 20.7332 0.0478392C25.413 0.358314 29.8208 2.35793 33.1368 5.67479C36.4527 8.99165 38.451 13.4 38.7602 18.0799C39.0693 22.7598 37.6683 27.3927 34.8175 31.1169C31.9668 34.8412 27.8603 37.4032 23.262 38.3267C18.6637 39.2501 13.8866 38.4719 9.81901 36.137L9.82902 36.141ZM10.329 33.982C13.0084 35.6535 16.0952 36.5573 19.253 36.595H19.465C23.2848 36.5924 26.9956 35.3212 30.0147 32.9811C33.0338 30.641 35.1903 27.3645 36.1454 23.666C37.1006 19.9675 36.8004 16.0566 35.292 12.5472C33.7836 9.03779 31.1524 6.12873 27.8116 4.27676C24.4707 2.42479 20.6095 1.7348 16.834 2.31512C13.0585 2.89543 9.58264 4.7132 6.95219 7.48299C4.32174 10.2528 2.68566 13.8178 2.30082 17.6181C1.91599 21.4185 2.80417 25.2391 4.82597 28.48C4.90987 28.6091 4.96265 28.756 4.98002 28.909C4.99798 29.0614 4.98161 29.2158 4.93205 29.361L2.79301 36.011L9.44304 33.871C9.54946 33.8391 9.65993 33.8226 9.77104 33.822C9.96882 33.8209 10.1618 33.8765 10.329 33.982ZM25.287 19.349C25.2833 18.9648 25.3978 18.5888 25.615 18.272C25.8262 17.953 26.1282 17.7046 26.482 17.559C26.8362 17.4129 27.2258 17.375 27.6015 17.4501C27.9772 17.5252 28.3223 17.71 28.5931 17.981C28.8627 18.2529 29.0468 18.5977 29.123 18.973C29.2007 19.3494 29.1603 19.7406 29.007 20.093C28.8618 20.4469 28.6149 20.7499 28.2975 20.9635C27.9802 21.1771 27.6066 21.2918 27.224 21.293C26.9694 21.2942 26.717 21.2442 26.482 21.146C26.2442 21.0487 26.0281 20.9052 25.846 20.724C25.6697 20.5422 25.5293 20.3288 25.4321 20.095C25.3357 19.8581 25.2858 19.6047 25.287 19.349ZM17.529 19.349C17.5252 18.9648 17.6397 18.5888 17.857 18.272C18.0681 17.9529 18.3702 17.7046 18.724 17.559C19.0782 17.4129 19.4677 17.375 19.8434 17.4501C20.2191 17.5252 20.5642 17.71 20.835 17.981C21.1046 18.2529 21.2888 18.5977 21.365 18.973C21.4432 19.3496 21.4059 19.741 21.258 20.0961C21.1101 20.4511 20.8584 20.7532 20.5361 20.963C20.272 21.1395 19.9684 21.2481 19.6524 21.2793C19.3363 21.3106 19.0175 21.2634 18.724 21.142C18.488 21.0469 18.2747 20.9031 18.0981 20.72C17.9156 20.5412 17.7712 20.3272 17.674 20.091C17.5778 19.8555 17.5286 19.6034 17.529 19.349ZM9.76103 19.349C9.76167 18.9661 9.87545 18.5919 10.0881 18.2734C10.3007 17.955 10.6026 17.7064 10.956 17.559C11.2213 17.4489 11.5078 17.399 11.7947 17.4129C12.0816 17.4268 12.362 17.5042 12.6154 17.6394C12.8688 17.7746 13.0891 17.9644 13.2604 18.195C13.4317 18.4256 13.5497 18.6913 13.606 18.973C13.6745 19.3497 13.6346 19.7381 13.491 20.093C13.3452 20.4485 13.0967 20.7525 12.7774 20.9663C12.458 21.18 12.0823 21.2937 11.698 21.293C11.4435 21.2922 11.1915 21.2423 10.956 21.146C10.7226 21.0461 10.5102 20.9029 10.33 20.724C10.1505 20.5448 10.0097 20.3307 9.91606 20.095C9.81186 19.8602 9.75831 19.6058 9.76103 19.349Z" fill="#3A4B4C"/>
</svg>
