<svg width="39" height="40" viewBox="0 0 39 40" fill="none" xmlns="http://www.w3.org/2000/svg">
<path id="Uni&#195;&#163;o 106" d="M5.76901 34.041C3.96363 32.2455 2.53025 30.1114 1.551 27.761C0.571761 25.4107 0.0658973 22.8902 0.0623962 20.344C0.0588952 17.7977 0.557825 15.2759 1.5306 12.9228C2.50338 10.5697 3.93088 8.43173 5.73133 6.63129C7.53177 4.83084 9.66977 3.40334 12.0228 2.43056C14.3759 1.45779 16.8978 0.958859 19.444 0.96236C21.9902 0.965861 24.5107 1.47172 26.8611 2.45097C29.2115 3.43021 31.3455 4.86359 33.141 6.66898C34.9464 8.46446 36.3798 10.5985 37.359 12.9489C38.3383 15.2993 38.8441 17.8198 38.8476 20.366C38.8511 22.9122 38.3522 25.4341 37.3794 27.7872C36.4067 30.1402 34.9791 32.2782 33.1787 34.0787C31.3783 35.8791 29.2403 37.3066 26.8872 38.2794C24.5341 39.2522 22.0122 39.7511 19.466 39.7476C16.9198 39.7441 14.3993 39.2382 12.0489 38.259C9.69857 37.2797 7.5645 35.8464 5.76901 34.041ZM2.10001 20.355C2.10001 23.7875 3.11787 27.1429 5.02486 29.9969C6.93185 32.8509 9.64233 35.0753 12.8135 36.3889C15.9848 37.7025 19.4743 38.0462 22.8408 37.3765C26.2073 36.7069 29.2997 35.054 31.7269 32.6268C34.154 30.1997 35.8069 27.1073 36.4765 23.7408C37.1462 20.3742 36.8025 16.8847 35.4889 13.7135C34.1754 10.5423 31.951 7.83181 29.0969 5.92482C26.2429 4.01783 22.8875 2.99998 19.455 2.99998C14.8538 3.00527 10.4426 4.83544 7.18902 8.08899C3.93548 11.3425 2.10531 15.7538 2.10001 20.355ZM25.279 30.125C24.943 30.025 19.436 25.134 17.421 23.141L16.1 21.83V16.365C16.1 11.112 16.1 11.112 16.991 10.734L17.056 10.706C17.2811 10.592 17.5325 10.5398 17.7843 10.5545C18.0362 10.5693 18.2797 10.6505 18.49 10.79L18.507 10.802C19.221 11.22 19.221 11.22 19.263 16.153V16.274L19.305 20.966L23.183 24.5C25.32 26.45 27.121 28.186 27.197 28.367C27.253 28.6103 27.2422 28.8643 27.1656 29.1019C27.089 29.3396 26.9496 29.5521 26.762 29.717C26.4441 30.0002 26.0327 30.1558 25.607 30.154C25.4967 30.1546 25.3866 30.1452 25.278 30.126L25.279 30.125Z" fill="#3A4B4C"/>
</svg>
