<svg width="28" height="28" viewBox="0 0 28 28" fill="none" xmlns="http://www.w3.org/2000/svg">
<g id="Grupo 163737">
<path id="Ret&#195;&#162;ngulo 149821" opacity="0.1" d="M28 14C28 6.26801 21.732 0 14 0C6.26801 0 0 6.26801 0 14C0 21.732 6.26801 28 14 28C21.732 28 28 21.732 28 14Z" fill="black"/>
<path id="add" d="M10.9058 19.2112L13.976 16.141C13.9999 16.117 14.0283 16.0981 14.0596 16.0852C14.0909 16.0722 14.1244 16.0656 14.1582 16.0657C14.1921 16.0658 14.2256 16.0725 14.2568 16.0855C14.288 16.0986 14.3163 16.1177 14.3402 16.1417L17.409 19.2105C17.6485 19.45 17.9733 19.5845 18.312 19.5845C18.6507 19.5845 18.9755 19.45 19.215 19.2105C19.4544 18.971 19.589 18.6462 19.589 18.3075C19.589 17.9689 19.4544 17.644 19.215 17.4046L16.144 14.3336C16.0958 14.2854 16.0687 14.22 16.0687 14.1519C16.0687 14.0837 16.0958 14.0183 16.144 13.9701L19.2128 10.9013C19.3314 10.7827 19.4255 10.6419 19.4897 10.487C19.5538 10.3321 19.5869 10.166 19.5869 9.99833C19.5869 9.83063 19.5538 9.66457 19.4897 9.50964C19.4255 9.35471 19.3314 9.21393 19.2128 9.09535C19.0943 8.97677 18.9535 8.88271 18.7986 8.81853C18.6436 8.75436 18.4776 8.72133 18.3099 8.72133C18.1422 8.72132 17.9761 8.75436 17.8212 8.81853C17.6662 8.88271 17.5255 8.97677 17.4069 9.09535L14.3359 12.1663C14.2877 12.2145 14.2224 12.2416 14.1542 12.2416C14.086 12.2416 14.0207 12.2145 13.9725 12.1663L10.9022 9.09606C10.6627 8.85657 10.3379 8.72203 9.99924 8.72203C9.66056 8.72203 9.33575 8.85657 9.09627 9.09606C8.85678 9.33554 8.72224 9.66035 8.72224 9.99903C8.72224 10.3377 8.85678 10.6625 9.09627 10.902L12.1694 13.9751C12.2175 14.0233 12.2446 14.0887 12.2446 14.1568C12.2446 14.225 12.2175 14.2903 12.1694 14.3385L9.09909 17.4088C8.85961 17.6483 8.72507 17.9731 8.72507 18.3118C8.72507 18.6505 8.85961 18.9753 9.09909 19.2148C9.33858 19.4542 9.66339 19.5888 10.0021 19.5888C10.3408 19.5888 10.6656 19.4542 10.905 19.2148L10.9058 19.2112Z" fill="black"/>
</g>
</svg>
