<svg width="27" height="6" viewBox="0 0 27 6" fill="none" xmlns="http://www.w3.org/2000/svg">
<path d="M3.43951 1.51761e-05C4.01616 0.00102665 4.57981 0.172177 5.05963 0.49202C5.53823 0.812128 5.91066 1.26746 6.12957 1.80002C6.40714 2.46905 6.42582 3.21741 6.18206 3.89949C5.93831 4.58157 5.44958 5.14857 4.81085 5.49014C4.17212 5.83171 3.42912 5.92343 2.7265 5.74744C2.02387 5.57145 1.41188 5.14034 1.00958 4.53801C0.689622 4.05835 0.51911 3.49459 0.519586 2.91801C0.517214 2.53469 0.592005 2.15481 0.739557 1.80101C0.885458 1.44644 1.10019 1.12432 1.37139 0.853287C1.6426 0.582254 1.96485 0.367692 2.31951 0.222015C2.67436 0.0742432 3.05512 -0.00123068 3.43951 1.51761e-05ZM13.6496 1.51761e-05C14.2258 -0.000121067 14.7891 0.170885 15.268 0.491348C15.7469 0.811811 16.1199 1.26729 16.3395 1.80002C16.56 2.33293 16.6191 2.91882 16.5096 3.48502C16.3984 4.05154 16.1196 4.57164 15.7095 4.97801C15.3019 5.38648 14.7823 5.66482 14.2164 5.77777C13.6504 5.89073 13.0637 5.83322 12.5304 5.61255C11.9972 5.39187 11.5415 5.01794 11.2209 4.5381C10.9003 4.05826 10.7293 3.4941 10.7295 2.91702C10.7322 2.53387 10.8068 2.15462 10.9495 1.79901C11.0968 1.44343 11.3145 1.12132 11.5895 0.85202C11.8587 0.581858 12.1781 0.366826 12.5296 0.219009C12.8853 0.0745382 13.2656 0.000180768 13.6496 1.51761e-05ZM23.8596 1.51761e-05C24.4367 0.00158574 25.0006 0.173145 25.4808 0.493271C25.961 0.813396 26.3362 1.2679 26.5596 1.80002C26.7229 2.19885 26.7961 2.62883 26.7739 3.05923C26.7516 3.48964 26.6346 3.90981 26.4311 4.2897C26.2276 4.6696 25.9426 4.99983 25.5966 5.25677C25.2506 5.51372 24.8521 5.69102 24.4296 5.77602C24.007 5.85988 23.571 5.84895 23.1531 5.74402C22.7353 5.63909 22.3459 5.44279 22.013 5.16924C21.6801 4.89568 21.4121 4.55169 21.2282 4.16206C21.0443 3.77243 20.9491 3.34686 20.9495 2.91602C20.9471 2.53269 21.0221 2.15281 21.1696 1.79901C21.3151 1.44418 21.5297 1.12184 21.801 0.850754C22.0722 0.579669 22.3946 0.365261 22.7496 0.220016C23.1013 0.0738727 23.4786 -0.000910121 23.8596 1.51761e-05Z" fill="#252849"/>
</svg>
