<svg width="14" height="25" viewBox="0 0 14 25" fill="none" xmlns="http://www.w3.org/2000/svg">
<path d="M8.77482 24.851H4.62882C4.49824 24.851 4.373 24.7992 4.28057 24.7069C4.18814 24.6147 4.13609 24.4896 4.13582 24.359V14.259H0.95882C0.828069 14.259 0.702673 14.207 0.610218 14.1146C0.517763 14.0221 0.46582 13.8967 0.46582 13.766V9.76598C0.466085 9.6354 0.518144 9.51026 0.610571 9.41802C0.702998 9.32578 0.828242 9.27398 0.95882 9.27398H4.13182V6.51398C4.06881 5.75053 4.1647 4.98231 4.41345 4.25778C4.66219 3.53325 5.05838 2.86813 5.57703 2.30437C6.09569 1.74062 6.72554 1.29047 7.42687 0.982316C8.1282 0.674164 8.88578 0.514698 9.65182 0.513977H13.1238C13.189 0.51432 13.2535 0.527575 13.3136 0.552977C13.3737 0.578378 13.4281 0.615424 13.4738 0.661977C13.5202 0.708454 13.5567 0.763908 13.5809 0.824946C13.6051 0.885985 13.6167 0.951327 13.6148 1.01698V4.75398C13.6146 4.88456 13.5625 5.00969 13.4701 5.10193C13.3776 5.19417 13.2524 5.24598 13.1218 5.24598H11.0058C9.53982 5.24598 9.27082 5.81698 9.27082 6.94598V9.28298H12.9818C13.1124 9.28298 13.2376 9.33478 13.3301 9.42702C13.4225 9.51926 13.4746 9.6444 13.4748 9.77498V13.775C13.4748 13.9057 13.4229 14.0311 13.3304 14.1236C13.238 14.216 13.1126 14.268 12.9818 14.268H9.27182V24.356C9.2729 24.4219 9.26071 24.4874 9.23596 24.5486C9.21122 24.6097 9.17443 24.6653 9.12778 24.7119C9.08114 24.7586 9.02559 24.7954 8.96444 24.8201C8.90328 24.8449 8.83778 24.8571 8.77182 24.856L8.77482 24.851Z" fill="black"/>
</svg>
