<svg width="23" height="22" viewBox="0 0 23 22" fill="none" xmlns="http://www.w3.org/2000/svg">
<path fill-rule="evenodd" clip-rule="evenodd" d="M2.11989 0.557044C1.53347 0.746654 1.04558 1.16006 0.76227 1.70739C0.478958 2.25473 0.423121 2.89177 0.606894 3.48004C0.760894 3.98804 0.716895 3.93605 4.8609 8.49005L8.67389 12.681V16.722C8.67389 20.663 8.67389 20.766 8.77389 20.928C8.90216 21.1132 9.09653 21.2421 9.31697 21.2882C9.53741 21.3343 9.76716 21.2942 9.95889 21.176C10.5079 20.804 14.2399 17.758 14.3069 17.628C14.427 16.7839 14.4539 15.9291 14.3869 15.079V12.679L18.2009 8.49005C22.3429 3.93605 22.3009 3.99004 22.4539 3.48004C22.6209 2.94497 22.5898 2.36767 22.3664 1.85359C22.143 1.33952 21.7421 0.922973 21.2369 0.680045L20.8899 0.516048L11.6079 0.506045C4.20789 0.498045 2.28389 0.506045 2.12089 0.562045" fill="black"/>
</svg>
