<svg width="34" height="29" viewBox="0 0 34 29" fill="none" xmlns="http://www.w3.org/2000/svg">
<path opacity="0.2" fill-rule="evenodd" clip-rule="evenodd" d="M14.056 0.566005C8.79605 1.12501 6.92705 2.371 5.30405 6.408L4.85005 7.539L3.99105 7.584C3.70677 7.54856 3.41838 7.59878 3.16282 7.72822C2.90725 7.85766 2.69614 8.06044 2.55651 8.31059C2.41688 8.56074 2.3551 8.84687 2.37907 9.13234C2.40303 9.41782 2.51166 9.68964 2.69105 9.913C2.89105 10.259 2.84205 10.351 2.27005 10.788C1.10505 11.672 0.802048 12.363 0.539048 14.765C0.0840285 18.618 0.222979 22.5181 0.951048 26.329C0.983446 26.5644 1.07051 26.7889 1.20526 26.9846C1.34001 27.1803 1.51871 27.3418 1.72705 27.456C1.90005 27.501 1.93905 27.556 1.93905 27.745C1.96881 28.1266 2.14643 28.4815 2.43405 28.734C4.10064 29.0066 5.80045 29.0066 7.46705 28.734C7.75759 28.4791 7.93552 28.1196 7.96205 27.734C7.96205 27.499 7.97605 27.49 8.31305 27.49C8.72447 27.444 9.13019 27.3565 9.52405 27.229C14.3065 26.2367 19.2416 26.2367 24.024 27.229C24.4093 27.3493 24.804 27.4366 25.204 27.49C25.458 27.49 25.478 27.509 25.478 27.734C25.5046 28.1196 25.6825 28.4791 25.973 28.734C27.6396 29.0066 29.3395 29.0066 31.006 28.734C31.2848 28.4885 31.4614 28.1474 31.501 27.778C31.501 27.628 31.569 27.543 31.775 27.432C32.303 27.159 32.45 26.771 32.762 24.826C33.2886 21.087 33.2778 17.2919 32.73 13.556C32.699 13.0062 32.5422 12.4708 32.2717 11.9911C32.0013 11.5114 31.6244 11.1002 31.17 10.789C30.586 10.338 30.551 10.27 30.748 9.92401C30.9274 9.70064 31.0361 9.42882 31.06 9.14334C31.084 8.85787 31.0222 8.57174 30.8826 8.32159C30.743 8.07144 30.5318 7.86867 30.2763 7.73922C30.0207 7.60978 29.7323 7.55956 29.448 7.595L28.589 7.55001L28.135 6.419C26.587 2.573 25.0721 1.452 20.41 0.712001C18.2933 0.520063 16.1658 0.477293 14.043 0.584003M18.664 3.472C20.3102 3.56841 21.9321 3.91471 23.474 4.499C24.781 5.064 25.424 5.914 26.299 8.236C26.688 9.274 26.699 9.365 26.476 9.701L26.314 9.947L22.38 9.793C18.08 9.62 15.215 9.60801 12.531 9.73201C11.57 9.77701 9.95905 9.841 8.93105 9.876L7.07905 9.93801L6.92805 9.691C6.72105 9.34501 6.72805 9.264 7.12205 8.228C8.00305 5.89 8.64705 5.04301 9.96105 4.49601C12.7457 3.5061 15.7176 3.1561 18.656 3.472M4.62305 13.484C6.76905 14.209 8.11205 15.061 7.90405 15.568C6.42863 16.0684 4.84904 16.1797 3.31805 15.891C2.74905 15.626 2.54305 15.215 2.53705 14.321C2.52905 13.228 3.14205 12.983 4.62505 13.482M30.766 13.444C30.8988 13.7934 30.951 14.1682 30.919 14.5406C30.887 14.913 30.7715 15.2734 30.581 15.595C30.207 16.034 28.851 16.152 26.769 15.927C25.696 15.811 25.578 15.777 25.525 15.56C25.293 14.611 30.152 12.646 30.765 13.442M19.538 19.228C22.151 19.64 23.738 20.228 24.159 20.942C24.613 21.713 24.1171 22.654 23.07 23.017C22.512 23.207 10.965 23.19 10.403 22.996C9.28605 22.616 8.80305 21.613 9.38905 20.896C10.545 19.457 15.647 18.622 19.538 19.236" fill="black"/>
</svg>
