<svg width="41" height="41" viewBox="0 0 41 41" fill="none" xmlns="http://www.w3.org/2000/svg">
<path fill-rule="evenodd" clip-rule="evenodd" d="M22.1771 0.15509C21.6071 0.53109 21.6501 -0.244909 21.6501 9.57709C21.6501 19.3991 21.6061 18.6231 22.1771 18.9991C22.5411 19.2391 39.8071 19.2331 40.1961 18.9931C40.6851 18.6931 40.7441 18.4591 40.6961 17.0371C40.5055 13.0907 39.0185 9.31741 36.4655 6.30208C33.9124 3.28675 30.436 1.19781 26.5751 0.35909C24.8091 -0.01691 22.5931 -0.11991 22.1751 0.15909M24.9461 2.59109C31.4371 3.29109 37.4111 9.29109 38.1311 15.8531C38.1601 16.1151 38.2021 16.4281 38.2241 16.5531L38.2651 16.7721H24.0331V2.45409L24.2511 2.49709C24.3711 2.52009 24.6841 2.56309 24.9511 2.59109M15.6911 4.97109C10.9801 5.5903 6.70451 8.04535 3.79498 11.8018C0.88544 15.5583 -0.422431 20.312 0.15608 25.0281C0.516097 27.6619 1.45154 30.1841 2.896 32.4156C4.34045 34.6472 6.25849 36.5334 8.51393 37.9403C10.7694 39.3472 13.3069 40.2403 15.9463 40.5562C18.5857 40.8721 21.2623 40.603 23.7861 39.7681C24.8751 39.4001 25.1441 39.1321 25.1441 38.4171C25.1441 38.2431 24.0271 35.1411 22.2051 30.2551L19.2661 22.3741V13.9891C19.2661 4.64809 19.3081 5.37609 18.7391 5.00009C17.7343 4.79929 16.7007 4.78911 15.6921 4.97009M16.8841 15.1931V23.0741L19.5841 30.3141C22.6971 38.6571 22.3701 37.6301 21.9471 37.7441C19.0254 38.482 15.9531 38.3622 13.0977 37.3992C10.2424 36.4362 7.72505 34.6707 5.84708 32.3141C4.11301 30.1144 3.0089 27.4851 2.65264 24.7069C2.29638 21.9286 2.70134 19.1058 3.82429 16.5398C4.94724 13.9737 6.746 11.7608 9.02853 10.1374C11.3111 8.51394 13.9916 7.54087 16.7841 7.32209C16.8631 7.31409 16.8841 8.93609 16.8841 15.1931ZM22.2461 21.6551C22.0592 21.7533 21.9037 21.9022 21.7976 22.0848C21.6915 22.2673 21.639 22.4761 21.6461 22.6871C21.6461 23.0571 27.2971 38.4671 27.6661 39.1021C28.0034 39.6834 28.6614 39.7714 29.6401 39.3661C32.6086 38.1305 35.1928 36.124 37.1254 33.5542C39.058 30.9844 40.2687 27.9449 40.6321 24.7501C40.8511 22.8651 40.7321 22.0421 40.1881 21.6831C39.8751 21.4761 22.6601 21.4501 22.2461 21.6551ZM38.2101 24.2541C37.9374 26.8128 37.0422 29.2657 35.6026 31.3985C34.1631 33.5314 32.223 35.2791 29.9521 36.4891L29.3961 36.7671L28.1051 33.3001C27.3961 31.3941 26.3191 28.5001 25.7121 26.8751L24.6121 23.9161H38.2551L38.2101 24.2541Z" fill="#3A4B4C"/>
</svg>
