<svg width="48" height="44" viewBox="0 0 48 44" fill="none" xmlns="http://www.w3.org/2000/svg">
<path opacity="0.2" fill-rule="evenodd" clip-rule="evenodd" d="M2.83855 0.156102C2.29298 0.3129 1.78693 0.583772 1.35388 0.950793C0.920835 1.31781 0.570668 1.77262 0.326553 2.2851L0.0335533 2.9051L0.0085533 17.5171C-0.0104467 30.8841 -0.00244671 32.1691 0.136553 32.5941C0.356027 33.2913 0.764101 33.9142 1.31563 34.3939C1.86716 34.8736 2.54063 35.1914 3.26155 35.3121C3.57455 35.3631 6.70755 35.4011 10.6876 35.4011H17.5726L17.5166 36.2511C17.3166 39.3341 16.1986 41.1921 14.5546 41.1921C14.3702 41.2203 14.1974 41.2992 14.0553 41.4199C13.9131 41.5406 13.8073 41.6983 13.7496 41.8756C13.6918 42.0529 13.6844 42.2427 13.7282 42.424C13.772 42.6052 13.8652 42.7707 13.9976 42.9021L14.3106 43.2151H32.7316L33.0446 42.9021C33.1769 42.7707 33.2701 42.6052 33.3139 42.424C33.3577 42.2427 33.3503 42.0529 33.2925 41.8756C33.2348 41.6983 33.129 41.5406 32.9868 41.4199C32.8447 41.2992 32.6719 41.2203 32.4876 41.1921C30.8426 41.1921 29.7286 39.3341 29.5256 36.2511L29.4696 35.4011H36.3546C40.3356 35.4011 43.4676 35.3631 43.7806 35.3121C44.5015 35.1914 45.1749 34.8736 45.7265 34.3939C46.278 33.9142 46.6861 33.2913 46.9056 32.5941C47.0446 32.1701 47.0556 30.8851 47.0326 17.5181L47.0086 2.9001L46.7156 2.2801C46.4699 1.76086 46.1144 1.30119 45.6736 0.932897C45.2328 0.564605 44.7172 0.29649 44.1626 0.147103C43.3536 -0.0638967 3.62355 -0.0588967 2.83855 0.147103M43.1016 15.7291V27.5001H3.93955V3.9621H43.1016V15.7291ZM24.3086 29.6921C24.7336 29.8855 25.0721 30.2292 25.2591 30.6571C25.4461 31.085 25.4683 31.5669 25.3215 32.0101C25.1748 32.4534 24.8693 32.8268 24.4639 33.0586C24.0585 33.2903 23.5818 33.364 23.1253 33.2655C22.6688 33.1671 22.2649 32.9033 21.9911 32.5251C21.7173 32.1468 21.5929 31.6807 21.642 31.2163C21.691 30.752 21.9099 30.3221 22.2567 30.0093C22.6035 29.6966 23.0536 29.5231 23.5206 29.5221C23.7912 29.5314 24.0581 29.589 24.3086 29.6921Z" fill="black"/>
</svg>
