<svg width="40" height="40" viewBox="0 0 40 40" fill="none" xmlns="http://www.w3.org/2000/svg">
<path d="M9.00996 38.8C7.08736 38.3583 5.32796 37.3842 3.93314 35.9892C2.53833 34.5942 1.56444 32.8347 1.12296 30.912C0.774958 29.493 0.756958 21.444 0.756958 19.839C0.756958 18.234 0.774958 10.118 1.12696 8.746C1.6269 6.60943 2.77411 4.67925 4.41196 3.219C6.11681 1.78754 8.20735 0.892935 10.42 0.648C11.62 0.484 16.936 0.479 21.12 0.525C23.557 0.552 25.867 0.6 27.625 0.654C28.8403 0.628272 30.0555 0.70824 31.257 0.893C33.1603 1.34745 34.8986 2.32534 36.2753 3.71612C37.6519 5.10689 38.612 6.85507 39.047 8.763C39.1776 9.51854 39.2478 10.2833 39.257 11.05C39.375 13.716 39.43 18.192 39.396 22.45C39.4426 25.2742 39.3244 28.0986 39.042 30.909C38.6008 32.8318 37.6273 34.5916 36.2329 35.9871C34.8385 37.3826 33.0794 38.3574 31.157 38.8C29.739 39.148 21.688 39.166 20.083 39.166C18.478 39.166 10.431 39.149 9.00996 38.8ZM3.15696 9.269C2.87624 12.7849 2.77611 16.3129 2.85696 19.839C2.77609 23.3641 2.87622 26.8911 3.15696 30.406L3.16296 30.434C3.52033 31.9733 4.30202 33.3815 5.4193 34.499C6.53659 35.6165 7.94475 36.3984 9.48396 36.756L9.51096 36.763C13.0269 37.0435 16.5548 37.1436 20.081 37.063C23.6061 37.1437 27.1331 37.0435 30.648 36.763L30.676 36.756C32.2149 36.3981 33.6228 35.6161 34.7399 34.4987C35.857 33.3812 36.6386 31.9731 36.996 30.434L37.003 30.407C37.2548 27.7579 37.3523 25.0964 37.295 22.436C37.328 18.209 37.275 13.776 37.158 11.142C37.1478 10.5149 37.096 9.88921 37.003 9.269L36.995 9.239C36.6426 7.71276 35.8725 6.31467 34.7708 5.20116C33.6691 4.08766 32.2793 3.30266 30.757 2.934H30.741C30.231 2.834 26.641 2.688 20.963 2.628C15.781 2.573 11.563 2.616 10.702 2.733C8.91018 2.87076 7.20997 3.58019 5.85168 4.75683C4.49338 5.93348 3.54878 7.51517 3.15696 9.269ZM9.68596 28.536C8.81196 27.67 8.61096 27.369 8.61096 26.926C8.60642 26.7492 8.63734 26.5732 8.70189 26.4085C8.76644 26.2438 8.86332 26.0937 8.98681 25.967C9.1103 25.8404 9.25791 25.7397 9.42092 25.671C9.58394 25.6023 9.75906 25.5669 9.93596 25.567C10.1124 25.5676 10.287 25.6033 10.4496 25.672C10.6122 25.7406 10.7595 25.8409 10.883 25.967L11.283 26.34L12.899 24.7C14.154 23.43 14.899 22.786 15.499 22.786C15.825 22.8109 16.129 22.9602 16.348 23.203C16.475 23.2931 16.5811 23.4095 16.6591 23.5442C16.7371 23.679 16.7851 23.829 16.8 23.984C16.815 24.65 15.953 25.621 14.137 27.414C12.545 28.984 11.875 29.622 11.271 29.622C10.805 29.623 10.387 29.23 9.68596 28.536ZM19.92 28.066C19.6552 27.8921 19.4601 27.6306 19.3687 27.3273C19.2773 27.024 19.2954 26.6983 19.42 26.407C19.772 25.673 19.963 25.518 23.306 25.518C24.011 25.518 24.874 25.524 25.706 25.532L30.906 25.576L31.233 25.976H31.238C31.4506 26.2406 31.5628 26.5719 31.5546 26.9112C31.5463 27.2506 31.4182 27.5761 31.193 27.83L30.821 28.23H25.522C25.077 28.242 24.622 28.248 24.179 28.248C22.763 28.248 21.331 28.186 19.921 28.065L19.92 28.066ZM9.42496 15.588C9.12389 15.318 8.90754 14.9664 8.80212 14.576C8.6967 14.1855 8.70672 13.7729 8.83096 13.388C8.90883 13.1937 9.04337 13.0273 9.21708 12.9105C9.39079 12.7937 9.59563 12.7318 9.80496 12.733C10.2161 12.7566 10.6076 12.9163 10.918 13.187L11.386 13.554L13.124 11.817C14.324 10.617 14.995 10.043 15.547 10.043C15.8437 10.0646 16.1231 10.1911 16.335 10.4C16.4639 10.48 16.5739 10.5872 16.657 10.7142C16.7401 10.8412 16.7943 10.9848 16.816 11.135C16.849 11.744 16.072 12.635 14.427 14.295C12.647 16.088 11.852 16.817 11.157 16.817C10.608 16.815 10.115 16.329 9.42496 15.588ZM19.713 15.088C19.4604 14.8248 19.3205 14.4734 19.3232 14.1087C19.3258 13.7439 19.4707 13.3946 19.727 13.135C20.05 12.873 22.663 12.756 25.11 12.756C27.89 12.756 30.862 12.904 31.162 13.187C31.3449 13.3667 31.4722 13.5953 31.5285 13.8455C31.5849 14.0957 31.5679 14.3568 31.4797 14.5975C31.3915 14.8383 31.2358 15.0486 31.0312 15.2031C30.8265 15.3577 30.5817 15.45 30.326 15.469C29.3882 15.5749 28.4444 15.618 27.501 15.598C24.295 15.6 19.985 15.358 19.713 15.088Z" fill="#3A4B4C"/>
</svg>
