<svg width="43" height="56" viewBox="0 0 43 56" fill="none" xmlns="http://www.w3.org/2000/svg">
<path opacity="0.2" fill-rule="evenodd" clip-rule="evenodd" d="M18.0249 0.448924C14.4634 0.982992 11.0986 2.42215 8.25246 4.62866C5.4063 6.83518 3.17407 9.73522 1.76936 13.0513C0.364643 16.3673 -0.165531 19.9883 0.229572 23.5679C0.624674 27.1474 1.93183 30.5657 4.02595 33.4955C6.12006 36.4254 8.93106 38.7688 12.1899 40.3014C15.4488 41.8341 19.0465 42.5047 22.6387 42.2492C26.2309 41.9937 29.6974 40.8205 32.7065 38.8419C35.7156 36.8634 38.1666 34.1457 39.8249 30.9489C47.6899 15.7749 34.9109 -2.10608 18.0249 0.448924ZM24.1399 7.10992C27.6879 7.89792 29.3339 9.21592 28.4769 10.5809C27.9449 11.4279 27.1899 11.5509 25.9709 10.9879C24.7171 10.4095 23.3691 10.0626 21.9919 9.96392C19.9559 9.80892 19.1669 9.04292 19.7309 7.76392C20.1799 6.74792 21.5829 6.53892 24.1409 7.10692M14.8669 8.98892C16.1859 9.58892 16.0669 10.8889 14.6049 11.9699C13.4443 12.8324 12.436 13.8829 11.6219 15.0779C10.8139 16.3059 10.2219 16.6039 9.35489 16.2209C7.80422 15.5349 8.24789 13.9083 10.6859 11.3409C12.6669 9.25392 13.9099 8.55492 14.8669 8.98892ZM23.3659 13.5699C24.6363 13.9391 25.7951 14.6178 26.7384 15.5453C27.6818 16.4727 28.3801 17.6199 28.7708 18.8838C29.1614 20.1477 29.2322 21.4888 28.9767 22.7868C28.7212 24.0848 28.1475 25.299 27.307 26.3206C26.4665 27.3422 25.3855 28.1391 24.1611 28.6399C22.9366 29.1407 21.607 29.3296 20.2915 29.1898C18.976 29.0499 17.7158 28.5857 16.624 27.8387C15.5322 27.0917 14.6429 26.0854 14.0359 24.9099C13.331 23.5205 13.0462 21.9558 13.2165 20.4071C13.3868 18.8584 14.0047 17.3929 14.9946 16.1898C15.9846 14.9868 17.3036 14.0982 18.7905 13.6329C20.2775 13.1676 21.8667 13.1457 23.3659 13.5699ZM32.9949 13.4379C34.4039 14.1499 36.2019 20.2669 35.3719 21.5259C34.3719 23.0479 32.6809 22.2999 32.4449 20.2259C32.3206 18.7748 31.9129 17.3621 31.2449 16.0679C30.6449 14.7569 30.6249 14.4319 31.1339 13.8279C31.3307 13.5313 31.6361 13.3238 31.9845 13.2503C32.3328 13.1768 32.696 13.2431 32.9959 13.4349M9.03289 20.5099C9.27596 20.6981 9.47444 20.9377 9.61412 21.2115C9.75381 21.4854 9.83124 21.7867 9.84089 22.0939C9.96108 23.699 10.4032 25.2634 11.1409 26.6939C11.9829 28.4349 10.6609 29.9679 9.13289 29.0239C8.13289 28.4079 6.71689 24.2669 6.71589 21.9719C6.71589 21.4179 7.06089 20.5339 7.28489 20.5189C7.29789 20.5189 7.50189 20.4489 7.73889 20.3649C7.94942 20.2805 8.17756 20.2495 8.40298 20.2746C8.62841 20.2997 8.84412 20.3802 9.03089 20.5089M33.2309 26.4609C34.4539 27.3319 33.8389 28.9469 31.3309 31.4609C28.9179 33.8749 27.6549 34.3049 26.7749 33.0159C26.2209 32.2049 26.5049 31.4509 27.6909 30.5799C28.8484 29.7209 29.8528 28.6729 30.6619 27.4799C31.5559 26.1369 32.3399 25.8269 33.2339 26.4639M16.5809 31.6459C17.7751 32.1782 19.055 32.4924 20.3599 32.5739C22.1019 32.7169 22.6959 33.1279 22.6959 34.1919C22.6959 35.5919 21.4399 36.0079 18.7019 35.5309C14.9709 34.8819 12.9219 33.3819 13.8179 31.9559C14.3699 31.0769 15.1319 30.9919 16.5809 31.6449M8.44089 41.9029C8.80645 43.5522 9.25502 45.1819 9.78489 46.7859C10.4469 48.0929 11.6649 48.7289 13.5059 48.7289H14.6859V51.5559C14.6859 55.7839 14.0499 55.4039 21.1459 55.4039C28.2419 55.4039 27.6049 55.7839 27.6059 51.5559V48.7299H28.7859C30.6269 48.7299 31.8449 48.0939 32.5069 46.7869C33.0389 45.1795 33.4874 43.5456 33.8509 41.8919C33.5752 41.9843 33.3127 42.112 33.0699 42.2719C29.5648 44.2747 25.6106 45.3597 21.5742 45.4262C17.5378 45.4926 13.55 44.5383 9.98089 42.6519C9.47989 42.3757 8.96486 42.1257 8.43789 41.9029" fill="black"/>
</svg>
