<svg width="35" height="27" viewBox="0 0 35 27" fill="none" xmlns="http://www.w3.org/2000/svg">
<path opacity="0.2" fill-rule="evenodd" clip-rule="evenodd" d="M15.4997 0.776041C10.4788 1.24106 5.76468 3.39748 2.12965 6.89204C0.424651 8.55904 0.459651 10.7 2.21265 11.992C3.52465 12.958 5.08265 12.73 6.55165 11.358C9.5196 8.52559 13.466 6.9475 17.5686 6.95253C21.6712 6.95756 25.6137 8.54533 28.5746 11.385C30.9406 13.605 34.1607 12.471 34.1607 9.41804C34.1959 8.92987 34.1044 8.44086 33.8951 7.99846C33.6857 7.55605 33.3655 7.17527 32.9657 6.89304C30.6545 4.69334 27.9019 3.01033 24.8907 1.95571C21.8794 0.901087 18.6782 0.498967 15.4997 0.776041ZM16.0917 10.335C12.7017 10.728 8.84965 12.911 7.87565 14.989C7.58189 15.8045 7.60472 16.7006 7.93965 17.5C8.15467 17.9675 8.48128 18.375 8.89075 18.6866C9.30022 18.9982 9.78 19.2045 10.2879 19.2871C10.7958 19.3698 11.3162 19.3264 11.8033 19.1607C12.2905 18.995 12.7295 18.7122 13.0817 18.337C14.2736 17.1672 15.877 16.5118 17.5471 16.5118C19.2173 16.5118 20.8207 17.1672 22.0126 18.337C24.2206 20.348 27.3976 19.076 27.3976 16.179C27.422 15.6383 27.3037 15.1007 27.0544 14.6203C26.8051 14.1398 26.4338 13.7335 25.9776 13.442C24.6336 12.2695 23.0614 11.3878 21.3601 10.8524C19.6587 10.317 17.865 10.1395 16.0917 10.331M16.7197 19.92C15.9823 20.1286 15.3473 20.6008 14.9353 21.2469C14.5233 21.893 14.3631 22.6679 14.485 23.4244C14.607 24.1809 15.0026 24.8662 15.5968 25.3501C16.1909 25.834 16.9421 26.0827 17.7077 26.049C21.6407 25.828 21.6136 19.999 17.6786 19.849C17.3572 19.8252 17.034 19.8495 16.7197 19.921" fill="black"/>
</svg>
