<svg width="29" height="31" viewBox="0 0 29 31" fill="none" xmlns="http://www.w3.org/2000/svg">
<path id="Subtra&#195;&#167;&#195;&#163;o 111" opacity="0.2" d="M23.2088 30.528C22.6595 30.5279 22.1136 30.442 21.5908 30.2731C20.3581 29.8596 19.3124 29.021 18.6404 27.9079C17.9683 26.7948 17.7137 25.4795 17.9218 24.196L9.03882 19.8532C8.14674 20.5173 7.06392 20.875 5.95178 20.8737C5.21385 20.8721 4.48467 20.7141 3.81238 20.4099C3.14009 20.1056 2.54004 19.6624 2.05182 19.1091C1.18145 18.1225 0.701172 16.8524 0.701172 15.5368C0.701172 14.2212 1.18145 12.9501 2.05182 11.9636C2.54014 11.4104 3.14022 10.9678 3.8125 10.6638C4.48478 10.3597 5.21393 10.2013 5.95178 10.1999C7.06533 10.1978 8.1493 10.5586 9.03979 11.2272L17.9398 6.87665C17.8197 6.11468 17.8646 5.33652 18.0717 4.59344C18.2787 3.85037 18.643 3.16008 19.1398 2.57001C19.6276 1.98471 20.238 1.51376 20.9277 1.19012C21.6175 0.866491 22.3699 0.698014 23.1318 0.69696C24.3113 0.703549 25.4543 1.10568 26.3776 1.83954C27.301 2.5734 27.9512 3.59633 28.2238 4.74384C28.5126 5.89418 28.4126 7.10835 27.9396 8.19598C27.4666 9.28362 26.6471 10.1833 25.6088 10.7565C24.8471 11.1732 23.9931 11.3933 23.1248 11.3952C22.3915 11.3935 21.6668 11.2371 20.998 10.9362C20.3293 10.6354 19.7315 10.1967 19.2438 9.64911L10.8908 13.7282C11.3163 14.896 11.3163 16.1766 10.8908 17.3444L19.2378 21.4265C19.7351 20.8637 20.3461 20.4125 21.0304 20.1032C21.7147 19.794 22.4569 19.6329 23.2078 19.6315C24.2751 19.6314 25.3173 19.9557 26.1968 20.5602C27.265 21.3064 28.0351 22.4059 28.3713 23.6647C28.7074 24.9236 28.5879 26.2608 28.0338 27.4401C27.6026 28.3574 26.9207 29.134 26.067 29.6804C25.2132 30.2268 24.2224 30.5206 23.2088 30.528Z" fill="black"/>
</svg>
