<svg width="42" height="39" viewBox="0 0 42 39" fill="none" xmlns="http://www.w3.org/2000/svg">
<path opacity="0.2" d="M36.6729 38.7637H4.67285C3.43428 38.7602 2.2469 38.2674 1.37109 37.3916C0.495291 36.5158 0.00147746 35.3284 -0.00195312 34.0898V4.68164C-0.00168959 3.44102 0.491473 2.25184 1.36816 1.37402C2.24485 0.496208 3.43418 0.00185442 4.6748 0H36.6748C37.9159 0.00105837 39.1056 0.494687 39.9834 1.37207C40.8612 2.24945 41.3549 3.43862 41.3564 4.67969V34.0898C41.3563 34.7036 41.2351 35.311 41 35.8779C40.7649 36.4449 40.4206 36.9599 39.9863 37.3936C39.5521 37.8273 39.0369 38.1719 38.4697 38.4062C37.9025 38.6406 37.2944 38.7604 36.6807 38.7598L36.6729 38.7637ZM14.5176 16.1641C14.2498 16.1847 13.9927 16.2804 13.7764 16.4395C13.56 16.5985 13.3935 16.8141 13.2939 17.0635L5.54102 32.4189C5.40719 32.6319 5.33209 32.8766 5.32227 33.1279C5.31244 33.3792 5.36857 33.6279 5.48535 33.8506C5.6312 34.0531 5.82757 34.2149 6.05469 34.3184C6.28181 34.4218 6.53174 34.4643 6.78027 34.4414H35.1953C35.4288 34.4719 35.6664 34.4368 35.8818 34.3418C36.0973 34.2468 36.283 34.0953 36.418 33.9023C36.501 33.6817 36.5204 33.4424 36.4756 33.2109C36.4307 32.9795 36.3225 32.7645 36.1631 32.5908L31.2324 25.54C31.0674 25.2838 30.8423 25.0724 30.5762 24.9238C30.3101 24.7753 30.0108 24.6935 29.7061 24.6875C29.4507 24.6905 29.1994 24.7455 28.9658 24.8486C28.7322 24.9518 28.5219 25.1014 28.3477 25.2881L26.4385 27.2256C26.0684 27.6091 25.5612 27.8305 25.0283 27.8408C24.7256 27.8361 24.4282 27.7618 24.1592 27.623C23.8901 27.4843 23.6569 27.2849 23.4775 27.041L15.6855 16.8516C15.5444 16.6403 15.3534 16.4677 15.1289 16.3486C14.9044 16.2296 14.6535 16.1682 14.3994 16.1699L14.5176 16.1641ZM21.4658 10.8643C21.2951 10.8639 21.1256 10.8969 20.9678 10.9619C20.8099 11.0269 20.6668 11.1227 20.5459 11.2432C20.302 11.4865 20.1637 11.8166 20.1631 12.1611C20.1631 12.5059 20.3001 12.8363 20.5439 13.0801C20.7877 13.3239 21.1191 13.4609 21.4639 13.4609H25.8633C25.8982 13.4582 25.9331 13.4631 25.9658 13.4756C25.9985 13.488 26.0285 13.5079 26.0527 13.5332C26.077 13.5582 26.0959 13.5876 26.1084 13.6201C26.1209 13.6526 26.1262 13.6869 26.125 13.7217V18.1221C26.1269 18.4656 26.2652 18.7948 26.5088 19.0371C26.7524 19.2794 27.0822 19.415 27.4258 19.415C27.7694 19.415 28.0982 19.2794 28.3418 19.0371C28.5854 18.7948 28.7237 18.4656 28.7256 18.1221V13.7217C28.7244 13.6869 28.7307 13.6522 28.7441 13.6201C28.7576 13.588 28.7781 13.5597 28.8037 13.5361C28.8535 13.4876 28.9197 13.4602 28.9893 13.46H33.3896C33.7344 13.46 34.0648 13.3229 34.3086 13.0791C34.5524 12.8353 34.6895 12.5049 34.6895 12.1602C34.6902 11.9894 34.6568 11.82 34.5918 11.6621C34.5267 11.5042 34.4313 11.361 34.3105 11.2402C34.1892 11.1199 34.0449 11.0247 33.8867 10.96C33.7285 10.8953 33.5596 10.8624 33.3887 10.8633H28.9883C28.919 10.8633 28.8521 10.8358 28.8027 10.7871C28.7533 10.7385 28.7257 10.6719 28.7246 10.6025V6.20312C28.7274 6.03223 28.6957 5.86225 28.6309 5.7041C28.5661 5.54595 28.4696 5.403 28.3477 5.2832C28.104 5.03938 27.7734 4.90247 27.4287 4.90234C27.2579 4.90141 27.0886 4.93396 26.9307 4.99902C26.7727 5.06409 26.6294 5.16027 26.5088 5.28125C26.2655 5.52726 26.1291 5.85908 26.1289 6.20508V10.6045C26.1284 10.6738 26.1001 10.7403 26.0508 10.7891C26.0015 10.8378 25.9345 10.8655 25.8652 10.8652L21.4658 10.8643Z" fill="black"/>
</svg>
