<svg width="33" height="41" viewBox="0 0 33 41" fill="none" xmlns="http://www.w3.org/2000/svg">
<path d="M1.98792 40.678H0.61792V38.412C0.61792 27.9987 0.61792 17.585 0.61792 7.171C0.61792 6.171 0.85092 5.935 1.86092 5.935H31.4139C32.4199 5.935 32.6539 6.169 32.6539 7.175C32.6539 17.571 32.6539 27.967 32.6539 38.363V40.686L1.98792 40.678ZM10.2109 27.967C9.31092 27.967 9.04792 28.228 9.04792 29.125C9.04792 32.2497 9.04792 35.374 9.04792 38.498V38.955H10.7479V29.691H15.8069V38.954H17.4999V29.692H22.5589V38.952H24.2269V37.658C24.2269 34.816 24.2269 31.974 24.2269 29.132C24.2269 28.232 23.9659 27.967 23.0699 27.967H10.2109ZM23.5319 19.494C22.8489 19.494 22.5419 19.809 22.5379 20.494C22.5319 21.516 22.5319 22.538 22.5379 23.56C22.5379 24.252 22.8469 24.566 23.5259 24.571C24.5426 24.5777 25.5593 24.5777 26.5759 24.571C27.2899 24.571 27.5899 24.261 27.5939 23.535C27.5939 22.566 27.5939 21.597 27.5939 20.529C27.5589 19.76 27.2869 19.49 26.5289 19.488C25.9956 19.488 25.4623 19.488 24.9289 19.488C24.4643 19.49 23.9986 19.4923 23.5319 19.495V19.494ZM6.65792 19.494C6.52605 19.4744 6.39143 19.4857 6.26467 19.527C6.13792 19.5683 6.02251 19.6386 5.92756 19.7321C5.83261 19.8257 5.76073 19.9401 5.71757 20.0663C5.67442 20.1924 5.66119 20.3269 5.67892 20.459C5.67025 21.4983 5.67025 22.538 5.67892 23.578C5.65688 23.7143 5.66753 23.8539 5.70999 23.9853C5.75245 24.1167 5.8255 24.2361 5.92314 24.3338C6.02078 24.4314 6.14022 24.5045 6.27161 24.5469C6.40301 24.5894 6.54261 24.6 6.67892 24.578C7.69559 24.584 8.71225 24.584 9.72892 24.578C10.4159 24.578 10.7289 24.265 10.7289 23.583C10.7359 22.667 10.7289 21.751 10.7289 20.734C10.7289 19.717 10.4999 19.494 9.49992 19.493H7.82892C7.43759 19.4917 7.04725 19.494 6.65792 19.5V19.494ZM15.1109 19.494C14.4229 19.494 14.1109 19.805 14.1109 20.489C14.1039 21.405 14.1109 22.321 14.1109 23.338C14.1109 24.355 14.3439 24.577 15.3479 24.577C16.2949 24.577 17.2409 24.582 18.1879 24.577C18.3199 24.5961 18.4544 24.5843 18.5811 24.5426C18.7077 24.501 18.8229 24.4305 18.9178 24.3369C19.0126 24.2432 19.0845 24.1288 19.1277 24.0027C19.1709 23.8766 19.1844 23.7422 19.1669 23.61C19.1756 22.5707 19.1756 21.5313 19.1669 20.492C19.1669 19.808 18.8509 19.5 18.1669 19.492C17.6583 19.492 17.1499 19.492 16.6419 19.492C16.1339 19.492 15.6236 19.493 15.1109 19.495V19.494ZM6.25592 11.063C6.07243 11.1294 5.91596 11.2545 5.81074 11.4188C5.70553 11.5831 5.65743 11.7776 5.67392 11.972C5.67992 13.03 5.67392 14.088 5.67392 15.145C5.65723 15.2727 5.66979 15.4025 5.71064 15.5247C5.75148 15.6468 5.81955 15.7581 5.90971 15.8501C5.99986 15.9421 6.10974 16.0124 6.23104 16.0557C6.35234 16.099 6.4819 16.1141 6.60992 16.1C7.67659 16.11 8.74625 16.11 9.81892 16.1C9.94281 16.1107 10.0675 16.0938 10.1841 16.0504C10.3006 16.007 10.4061 15.9384 10.4929 15.8493C10.5797 15.7602 10.6456 15.653 10.6859 15.5353C10.7262 15.4177 10.7399 15.2926 10.7259 15.169C10.7366 14.0937 10.7366 13.0183 10.7259 11.943C10.7389 11.8193 10.7241 11.6942 10.6827 11.5769C10.6412 11.4596 10.5741 11.353 10.4863 11.2648C10.3985 11.1767 10.2921 11.1093 10.1749 11.0674C10.0577 11.0256 9.9327 11.0104 9.80892 11.023H9.23892C8.27492 11.021 7.29992 11.036 6.25592 11.063ZM22.5809 11.6C22.5669 12.832 22.5369 14.065 22.5479 15.3C22.5491 15.4153 22.5747 15.529 22.623 15.6337C22.6714 15.7384 22.7414 15.8316 22.8284 15.9072C22.9155 15.9828 23.0176 16.0391 23.128 16.0723C23.2384 16.1056 23.3546 16.115 23.4689 16.1C24.5216 16.1093 25.5739 16.1093 26.6259 16.1C26.7581 16.1175 26.8926 16.1041 27.0188 16.0608C27.145 16.0175 27.2594 15.9456 27.353 15.8506C27.4466 15.7556 27.5169 15.6402 27.5584 15.5134C27.5999 15.3866 27.6113 15.252 27.5919 15.12C27.5999 14.08 27.5999 13.0397 27.5919 11.999C27.6114 11.867 27.5999 11.7322 27.5584 11.6054C27.5169 11.4786 27.4465 11.3631 27.3527 11.2682C27.2589 11.1733 27.1444 11.1014 27.0181 11.0583C26.8918 11.0153 26.7572 11.0021 26.6249 11.02C26.0879 11.02 25.5509 11.02 25.0139 11.02C24.5139 11.02 24.0139 11.02 23.5199 11.02H23.5099C23.3132 11.0034 23.1164 11.0509 22.9489 11.1555C22.7815 11.26 22.6524 11.416 22.5809 11.6ZM15.1079 11.02C14.9716 10.9977 14.8319 11.0082 14.7004 11.0506C14.5689 11.093 14.4493 11.166 14.3516 11.2637C14.2539 11.3614 14.1809 11.4809 14.1385 11.6124C14.0961 11.7439 14.0857 11.8836 14.1079 12.02C14.1013 13.042 14.1013 14.0643 14.1079 15.087C14.1079 15.801 14.4189 16.1 15.1439 16.104C16.1439 16.1087 17.1439 16.1087 18.1439 16.104C18.8599 16.104 19.1619 15.795 19.1649 15.071C19.1699 14.071 19.1579 13.062 19.1649 12.057C19.1826 11.9322 19.1741 11.8051 19.14 11.6837C19.106 11.5624 19.0471 11.4494 18.9671 11.352C18.8871 11.2546 18.7877 11.1749 18.6753 11.1179C18.5628 11.0609 18.4398 11.0279 18.3139 11.021H16.2629C15.8789 11.019 15.4939 11.018 15.1079 11.02ZM5.68392 4.2C5.68392 3.3 5.64992 2.4 5.69392 1.511C5.72877 1.12153 5.90064 0.757043 6.17897 0.482381C6.45729 0.207719 6.82402 0.0406884 7.21392 0.011C7.38792 0 7.56392 0 7.73992 0H24.6399H25.0549C25.3489 0 25.6269 0 25.9039 0C26.3487 0.0020755 26.7748 0.179006 27.0903 0.492585C27.4057 0.806165 27.5852 1.23123 27.5899 1.676C27.5899 1.764 27.5899 1.852 27.5899 1.941V4.2H5.68392Z" fill="black"/>
</svg>
