<svg width="33" height="42" viewBox="0 0 33 42" fill="none" xmlns="http://www.w3.org/2000/svg">
<path d="M22.263 41.6859V41.1979C22.263 37.4726 22.263 33.7473 22.263 30.0219C22.263 28.8389 21.753 28.3279 20.572 28.3279C17.728 28.3279 14.8837 28.3279 12.039 28.3279C11.815 28.292 11.5856 28.3095 11.3697 28.3791C11.1538 28.4487 10.9574 28.5684 10.7965 28.7284C10.6357 28.8885 10.5151 29.0843 10.4444 29.2999C10.3737 29.5155 10.3551 29.7448 10.39 29.9689C10.39 33.6943 10.39 37.4196 10.39 41.1449V41.6269C10.331 41.6549 10.305 41.6789 10.279 41.6789C7.543 41.6789 0 41.6789 0 41.6789V38.1919C0 28.5773 0 18.9626 0 9.34794C0 8.01194 0.468 7.54795 1.817 7.54795H2.968V7.07494C2.968 5.29761 2.968 3.51994 2.968 1.74194C2.93613 1.52511 2.95489 1.30384 3.0228 1.09547C3.09071 0.887091 3.20594 0.697262 3.35945 0.540844C3.51296 0.384426 3.7006 0.265665 3.90766 0.193858C4.11473 0.122052 4.33561 0.0991497 4.553 0.126945C12.4057 0.126945 20.2583 0.126945 28.111 0.126945C28.3676 0.144741 28.6219 0.187953 28.87 0.255945C29.1356 0.381621 29.3562 0.585723 29.5021 0.840717C29.648 1.09571 29.7122 1.38932 29.686 1.68194C29.686 3.61395 29.686 5.54595 29.686 7.54294C30.133 7.54294 30.574 7.54294 31.014 7.54294C31.2382 7.50895 31.4673 7.52834 31.6825 7.59955C31.8978 7.67076 32.0933 7.79177 32.253 7.95275C32.4127 8.11373 32.5322 8.31012 32.6017 8.52597C32.6712 8.74182 32.6888 8.97102 32.653 9.19494C32.653 18.8563 32.653 28.5173 32.653 38.1779V41.6779H22.753L22.263 41.6859ZM25.333 30.8119C25.239 32.1409 25.314 33.4819 25.325 34.8189C25.325 34.8899 25.383 34.9599 25.445 35.0939C25.6343 35.3688 25.9082 35.5742 26.225 35.6789C26.5419 35.7836 26.8842 35.7819 27.2 35.6739C27.4803 35.6044 27.7295 35.4435 27.9083 35.2166C28.087 34.9897 28.1851 34.7098 28.187 34.4209C28.213 33.3209 28.217 32.2289 28.187 31.1339C28.1797 30.7971 28.0463 30.4752 27.8132 30.2319C27.5801 29.9887 27.2642 29.8416 26.928 29.8199C26.851 29.8112 26.7735 29.8068 26.696 29.8069C26.3834 29.7675 26.0675 29.8499 25.814 30.037C25.5604 30.2241 25.3875 30.5016 25.333 30.8119ZM4.46 31.1889C4.43533 32.2523 4.43533 33.3159 4.46 34.3799C4.46008 34.5622 4.4966 34.7427 4.5674 34.9106C4.6382 35.0786 4.74186 35.2308 4.87228 35.3581C5.00271 35.4855 5.15727 35.5855 5.32689 35.6522C5.49651 35.719 5.67776 35.7512 5.86 35.7469C6.892 35.7849 7.419 35.1709 7.42 33.8399C7.42 32.9609 7.436 32.0819 7.413 31.2039C7.41476 31.014 7.37733 30.8257 7.30306 30.6508C7.22878 30.476 7.11924 30.3183 6.9813 30.1877C6.84335 30.057 6.67995 29.9562 6.5013 29.8916C6.32265 29.827 6.1326 29.7998 5.943 29.8119H5.937C5.74793 29.7983 5.55809 29.8239 5.37936 29.887C5.20062 29.9501 5.03685 30.0495 4.89829 30.1789C4.75974 30.3082 4.64938 30.4648 4.57413 30.6388C4.49889 30.8127 4.46037 31.0004 4.461 31.1899L4.46 31.1889ZM6.039 21.9069C5.945 23.2359 6.02 24.5769 6.031 25.9139C6.031 25.9849 6.089 26.0549 6.151 26.1889C6.34026 26.4638 6.61418 26.6692 6.93102 26.7739C7.24786 26.8786 7.59024 26.8769 7.906 26.7689C8.18633 26.6994 8.43553 26.5385 8.61425 26.3116C8.79298 26.0847 8.89105 25.8048 8.893 25.5159C8.919 24.4159 8.923 23.3239 8.893 22.2289C8.88569 21.8921 8.75231 21.5702 8.51921 21.3269C8.2861 21.0837 7.97023 20.9366 7.634 20.9149C7.55698 20.9062 7.47952 20.9018 7.402 20.9019C7.0892 20.8622 6.77311 20.9445 6.51933 21.1316C6.26554 21.3187 6.09354 21.5964 6.039 21.9069ZM24.968 20.9199C24.6411 20.9538 24.3379 21.1059 24.1154 21.3478C23.893 21.5896 23.7665 21.9044 23.76 22.2329C23.731 23.3279 23.728 24.4249 23.76 25.5189C23.7963 25.8741 23.96 26.2041 24.2209 26.4479C24.4817 26.6917 24.8221 26.8327 25.1789 26.8449C25.5357 26.8571 25.8849 26.7396 26.1617 26.5142C26.4386 26.2889 26.6245 25.9708 26.685 25.6189C26.735 24.4049 26.676 23.1859 26.64 21.8949C26.5484 21.6017 26.3644 21.3458 26.1156 21.1656C25.8667 20.9854 25.5662 20.8905 25.259 20.8949C25.1615 20.8959 25.0642 20.9043 24.968 20.9199ZM17.962 21.6899C17.8919 21.9396 17.8437 22.1949 17.818 22.4529C17.801 23.4099 17.805 24.3669 17.813 25.3239C17.8089 25.5218 17.8444 25.7186 17.9175 25.9025C17.9906 26.0864 18.0998 26.2539 18.2386 26.395C18.3775 26.5361 18.5431 26.6479 18.7259 26.724C18.9086 26.8 19.1047 26.8387 19.3027 26.8378C19.5006 26.8369 19.6964 26.7963 19.8784 26.7185C20.0604 26.6408 20.225 26.5273 20.3625 26.385C20.5 26.2426 20.6076 26.0741 20.6789 25.8895C20.7503 25.7048 20.784 25.5078 20.778 25.3099C20.7853 24.3533 20.7853 23.3963 20.778 22.4389C20.8093 22.1208 20.7288 21.8018 20.5503 21.5366C20.3718 21.2714 20.1065 21.0767 19.8 20.9859C19.6313 20.9316 19.4553 20.9033 19.278 20.9019C19.0094 20.9091 18.7472 20.9854 18.5167 21.1234C18.2862 21.2614 18.0951 21.4566 17.962 21.6899ZM12.262 21.3399C12.0909 21.691 11.9675 22.0632 11.895 22.4469C11.842 23.4009 11.872 24.3599 11.879 25.3179C11.8604 25.5194 11.8856 25.7225 11.953 25.9132C12.0204 26.104 12.1283 26.2778 12.2694 26.4229C12.4104 26.5679 12.5812 26.6807 12.77 26.7533C12.9588 26.826 13.1611 26.8569 13.363 26.8439C13.5647 26.8557 13.7666 26.8238 13.9548 26.7504C14.1431 26.6771 14.3133 26.564 14.4539 26.4188C14.5945 26.2737 14.7021 26.1 14.7694 25.9095C14.8367 25.719 14.8622 25.5162 14.844 25.3149C14.852 24.3889 14.844 23.4619 14.844 22.5359C14.8839 22.243 14.8316 21.9449 14.6943 21.6831C14.557 21.4213 14.3416 21.2087 14.078 21.0749C13.8506 20.9621 13.6008 20.9016 13.347 20.8979C12.943 20.9096 12.5567 21.0665 12.259 21.3399H12.262ZM23.756 13.4319C23.742 14.5269 23.756 15.6219 23.778 16.7969C23.8568 17.1704 24.0792 17.498 24.3971 17.7091C24.7151 17.9203 25.1032 17.9981 25.478 17.9259C25.6627 17.9039 25.8412 17.8456 26.0034 17.7545C26.1656 17.6634 26.3082 17.5412 26.4231 17.3949C26.538 17.2486 26.6229 17.0811 26.673 16.902C26.7231 16.7229 26.7373 16.5356 26.715 16.3509C26.715 15.3789 26.728 14.4069 26.715 13.4349C26.7218 13.241 26.688 13.0478 26.6155 12.8678C26.5431 12.6877 26.4337 12.5249 26.2944 12.3898C26.1551 12.2547 25.9891 12.1502 25.8069 12.0833C25.6248 12.0163 25.4306 11.9882 25.237 12.0009C25.043 11.9869 24.8483 12.0139 24.6654 12.0801C24.4826 12.1464 24.3157 12.2504 24.1757 12.3854C24.0357 12.5203 23.9257 12.6833 23.8529 12.8636C23.7801 13.044 23.746 13.2376 23.753 13.4319H23.756ZM19.288 12.0009C19.0864 11.9895 18.8846 12.0218 18.6966 12.0956C18.5087 12.1694 18.3389 12.2831 18.1989 12.4287C18.059 12.5743 17.9522 12.7485 17.886 12.9393C17.8197 13.1301 17.7955 13.3329 17.815 13.5339C17.808 14.3339 17.815 15.1339 17.815 16.0339C17.815 16.1569 17.815 16.2809 17.815 16.4039C17.8072 16.6044 17.8401 16.8043 17.9117 16.9917C17.9833 17.1791 18.0921 17.35 18.2316 17.4941C18.371 17.6383 18.5383 17.7527 18.7232 17.8305C18.9081 17.9083 19.1068 17.9478 19.3074 17.9466C19.508 17.9455 19.7062 17.9037 19.8902 17.8238C20.0742 17.7439 20.2401 17.6276 20.3779 17.4819C20.5157 17.3361 20.6226 17.1639 20.692 16.9758C20.7615 16.7876 20.7921 16.5873 20.782 16.3869C20.788 15.4309 20.79 14.4749 20.782 13.5199C20.7988 13.3195 20.7722 13.1179 20.704 12.9287C20.6359 12.7395 20.5277 12.5672 20.387 12.4235C20.2463 12.2799 20.0763 12.1682 19.8885 12.0961C19.7008 12.0241 19.4997 11.9933 19.299 12.0059L19.288 12.0009ZM13.348 12.0009C13.1507 11.9908 12.9535 12.0225 12.7693 12.094C12.5851 12.1655 12.4182 12.2752 12.2794 12.4159C12.1407 12.5565 12.0333 12.7249 11.9642 12.91C11.8952 13.0952 11.8662 13.2928 11.879 13.4899C11.87 14.0899 11.879 14.6899 11.879 15.3899C11.879 15.7449 11.873 16.0989 11.879 16.4539C11.8663 16.6513 11.8955 16.8491 11.9648 17.0343C12.034 17.2195 12.1417 17.388 12.2808 17.5285C12.4199 17.6691 12.5872 17.7786 12.7716 17.8499C12.9561 17.9212 13.1535 17.9525 13.351 17.9419C13.5482 17.9552 13.746 17.9265 13.9313 17.8578C14.1167 17.7891 14.2854 17.6819 14.4263 17.5434C14.5673 17.4048 14.6773 17.2379 14.7491 17.0538C14.8209 16.8696 14.8529 16.6724 14.843 16.4749C14.8563 15.4749 14.8563 14.4729 14.843 13.4689C14.8535 13.2724 14.8221 13.0759 14.7511 12.8923C14.6801 12.7087 14.571 12.5423 14.4309 12.404C14.2909 12.2656 14.1232 12.1586 13.9387 12.0898C13.7543 12.021 13.5574 11.9921 13.361 12.0049L13.348 12.0009ZM5.941 13.6009C5.941 14.5409 5.934 15.4819 5.941 16.4219C5.92367 16.6231 5.95006 16.8257 6.01836 17.0157C6.08666 17.2057 6.19526 17.3787 6.33671 17.5228C6.47815 17.6669 6.64909 17.7787 6.8378 17.8505C7.02652 17.9224 7.22854 17.9525 7.43 17.9389C7.63099 17.9491 7.83182 17.9159 8.01889 17.8417C8.20596 17.7675 8.37491 17.654 8.51429 17.5088C8.65368 17.3637 8.76025 17.1902 8.82679 17.0003C8.89334 16.8104 8.9183 16.6084 8.9 16.4079C8.908 15.5759 8.9 14.7429 8.9 13.8199C8.9 13.7429 8.9 13.6659 8.9 13.5889C8.92503 13.3848 8.90529 13.1776 8.84214 12.9819C8.77899 12.7861 8.67395 12.6065 8.53433 12.4554C8.39471 12.3044 8.22386 12.1856 8.03366 12.1073C7.84347 12.0289 7.63849 11.993 7.433 12.0019H7.42C7.21228 11.9907 7.00462 12.0252 6.81177 12.1033C6.61892 12.1813 6.44561 12.3008 6.30415 12.4533C6.16269 12.6058 6.05655 12.7876 5.99327 12.9858C5.92999 13.184 5.91112 13.3937 5.938 13.5999L5.941 13.6009ZM8.906 6.14094C8.901 7.08194 8.906 8.02194 8.906 9.04894C8.89681 9.25035 8.93095 9.45139 9.00611 9.63847C9.08127 9.82555 9.19571 9.99432 9.34169 10.1334C9.48768 10.2724 9.6618 10.3786 9.85231 10.4446C10.0428 10.5106 10.2453 10.5349 10.446 10.5159C10.6439 10.5205 10.8405 10.4831 11.0228 10.4062C11.2051 10.3292 11.3691 10.2145 11.5039 10.0695C11.6386 9.92456 11.7411 9.75268 11.8045 9.56521C11.868 9.37774 11.891 9.17895 11.872 8.98194C11.8793 8.02594 11.8793 7.06994 11.872 6.11395C11.8917 5.91294 11.8676 5.71005 11.8014 5.51922C11.7353 5.32839 11.6286 5.15414 11.4888 5.00841C11.349 4.86268 11.1792 4.74894 10.9913 4.67498C10.8034 4.60102 10.6016 4.5686 10.4 4.57995H10.39C10.1853 4.56779 9.98032 4.60048 9.78952 4.67574C9.59872 4.751 9.42665 4.86701 9.28533 5.01566C9.144 5.16431 9.03684 5.34203 8.97132 5.53639C8.90581 5.73075 8.88351 5.93707 8.906 6.14094ZM21.318 4.87395C21.138 5.02087 20.9953 5.20822 20.9015 5.42075C20.8076 5.63328 20.7653 5.86497 20.778 6.09694C20.778 7.05394 20.778 8.01094 20.778 8.96794C20.7675 9.16917 20.7982 9.37043 20.868 9.55945C20.9378 9.74847 21.0453 9.92131 21.1841 10.0674C21.3228 10.2136 21.4898 10.3299 21.675 10.4095C21.8601 10.489 22.0595 10.53 22.261 10.53C22.4625 10.53 22.6619 10.489 22.847 10.4095C23.0322 10.3299 23.1992 10.2136 23.3379 10.0674C23.4767 9.92131 23.5842 9.74847 23.654 9.55945C23.7238 9.37043 23.7545 9.16917 23.744 8.96794C23.75 8.05694 23.744 7.14595 23.744 6.23595C23.771 6.0333 23.7551 5.82723 23.6971 5.63118C23.6392 5.43512 23.5406 5.25347 23.4077 5.09808C23.2749 4.94268 23.1108 4.81703 22.9261 4.7293C22.7415 4.64158 22.5404 4.59375 22.336 4.58894C21.9782 4.59774 21.6283 4.6957 21.318 4.87395ZM14.842 6.13394C14.842 7.07494 14.842 8.01495 14.842 8.95595C14.8198 9.16056 14.8427 9.36754 14.909 9.56238C14.9753 9.75722 15.0834 9.9352 15.2257 10.0838C15.3681 10.2325 15.5412 10.3482 15.733 10.4228C15.9248 10.4975 16.1306 10.5292 16.336 10.5159C16.5375 10.5265 16.739 10.4934 16.9266 10.4191C17.1142 10.3448 17.2836 10.231 17.4233 10.0853C17.563 9.93966 17.6696 9.76563 17.736 9.57506C17.8024 9.38449 17.8269 9.18185 17.808 8.98094C17.8153 8.02494 17.8153 7.06894 17.808 6.11295C17.8267 5.91593 17.8035 5.71718 17.7397 5.52981C17.676 5.34244 17.5733 5.17071 17.4384 5.02595C17.3034 4.88118 17.1393 4.76667 16.9569 4.68996C16.7745 4.61326 16.5778 4.5761 16.38 4.58095H16.321C15.444 4.57995 14.913 5.10595 14.842 6.13394ZM13.381 41.6629V31.2959H15.83C16.881 31.2959 17.93 31.3069 18.984 31.2889C19.268 31.2889 19.333 31.3889 19.296 31.6799V41.6629H13.381Z" fill="black"/>
</svg>
