<svg width="74" height="74" viewBox="0 0 74 74" fill="none" xmlns="http://www.w3.org/2000/svg">
<g opacity="0.4">
<g filter="url(#filter0_d_3_139683)">
<path d="M36.75 24C34.2283 24 31.7632 24.7478 29.6665 26.1488C27.5698 27.5498 25.9356 29.541 24.9705 31.8708C24.0055 34.2005 23.753 36.7641 24.245 39.2374C24.737 41.7107 25.9513 43.9825 27.7344 45.7656C29.5175 47.5487 31.7893 48.7631 34.2626 49.255C36.7359 49.747 39.2995 49.4945 41.6292 48.5295C43.959 47.5644 45.9503 45.9302 47.3512 43.8335C48.7522 41.7368 49.5 39.2717 49.5 36.75C49.5 33.3685 48.1567 30.1255 45.7656 27.7344C43.3745 25.3433 40.1315 24 36.75 24ZM39.4 43.759C38.744 44.0177 38.221 44.2147 37.831 44.35C37.3913 44.4922 36.931 44.5598 36.469 44.55C35.7999 44.5895 35.1399 44.3801 34.616 43.962C34.403 43.7807 34.2331 43.5541 34.1189 43.2987C34.0047 43.0433 33.9491 42.7657 33.956 42.486C33.9565 42.2482 33.9729 42.0107 34.005 41.775C34.038 41.533 34.091 41.261 34.164 40.956L34.981 38.056C35.053 37.777 35.116 37.517 35.165 37.267C35.212 37.0423 35.2368 36.8135 35.239 36.584C35.2537 36.4463 35.241 36.307 35.2017 36.1742C35.1624 36.0413 35.0973 35.9176 35.01 35.81C34.7529 35.6355 34.4418 35.5589 34.133 35.594C33.9117 35.5957 33.6917 35.6294 33.48 35.694C33.264 35.762 33.067 35.823 32.909 35.884L33.125 34.991C33.6623 34.775 34.1767 34.5877 34.668 34.429C35.117 34.2789 35.5866 34.1996 36.06 34.194C36.7185 34.1519 37.3692 34.3558 37.886 34.766C38.0955 34.9511 38.2616 35.1802 38.3724 35.4369C38.4832 35.6936 38.536 35.9716 38.527 36.251C38.527 36.377 38.5123 36.599 38.483 36.917C38.4577 37.2134 38.4027 37.5065 38.319 37.792L37.502 40.685C37.435 40.917 37.375 41.185 37.322 41.479C37.2774 41.7018 37.251 41.9279 37.243 42.155C37.2256 42.2968 37.2397 42.4406 37.2843 42.5763C37.3289 42.712 37.4029 42.8362 37.501 42.94C37.7681 43.1049 38.0815 43.1782 38.394 43.149C38.6231 43.1431 38.8504 43.1068 39.07 43.041C39.2563 42.9937 39.4388 42.9326 39.616 42.858L39.4 43.759ZM39.259 32.018C38.8875 32.3683 38.3935 32.559 37.883 32.549C37.3705 32.5586 36.8744 32.3681 36.5 32.018C36.3189 31.8551 36.1741 31.656 36.0749 31.4335C35.9758 31.211 35.9246 30.9701 35.9246 30.7265C35.9246 30.4829 35.9758 30.242 36.0749 30.0195C36.1741 29.797 36.3189 29.5979 36.5 29.435C36.8729 29.0821 37.3697 28.8899 37.883 28.9C38.3949 28.8904 38.8898 29.0843 39.259 29.439C39.439 29.602 39.5829 29.8009 39.6814 30.023C39.7798 30.245 39.8307 30.4851 39.8307 30.728C39.8307 30.9709 39.7798 31.211 39.6814 31.433C39.5829 31.6551 39.439 31.855 39.259 32.018Z" fill="black"/>
</g>
</g>
<defs>
<filter id="filter0_d_3_139683" x="0" y="0" width="73.5" height="73.5" filterUnits="userSpaceOnUse" color-interpolation-filters="sRGB">
<feFlood flood-opacity="0" result="BackgroundImageFix"/>
<feColorMatrix in="SourceAlpha" type="matrix" values="0 0 0 0 0 0 0 0 0 0 0 0 0 0 0 0 0 0 127 0" result="hardAlpha"/>
<feOffset/>
<feGaussianBlur stdDeviation="12"/>
<feColorMatrix type="matrix" values="0 0 0 0 0 0 0 0 0 0 0 0 0 0 0 0 0 0 0.059 0"/>
<feBlend mode="normal" in2="BackgroundImageFix" result="effect1_dropShadow_3_139683"/>
<feBlend mode="normal" in="SourceGraphic" in2="effect1_dropShadow_3_139683" result="shape"/>
</filter>
</defs>
</svg>
