<svg width="28" height="31" viewBox="0 0 28 31" fill="none" xmlns="http://www.w3.org/2000/svg">
<g id="location line">
<path id="Caminho 2836" d="M13.922 3.97498C12.0617 3.97498 10.2431 4.52663 8.69632 5.56017C7.14951 6.59372 5.94392 8.06273 5.232 9.78146C4.52008 11.5002 4.33381 13.3914 4.69674 15.216C5.05968 17.0406 5.95551 18.7166 7.27096 20.032C8.58642 21.3475 10.2624 22.2433 12.087 22.6062C13.9116 22.9692 15.8028 22.7829 17.5215 22.071C19.2403 21.3591 20.7093 20.1535 21.7428 18.6067C22.7764 17.0599 23.328 15.2413 23.328 13.381C23.328 12.1458 23.0847 10.9226 22.612 9.78146C22.1393 8.64027 21.4465 7.60336 20.5731 6.72993C19.6996 5.8565 18.6627 5.16366 17.5215 4.69096C16.3803 4.21827 15.1572 3.97498 13.922 3.97498ZM13.922 21.087C12.3979 21.087 10.908 20.635 9.64079 19.7883C8.37355 18.9415 7.38584 17.738 6.80259 16.3299C6.21935 14.9218 6.06674 13.3724 6.36408 11.8776C6.66142 10.3828 7.39535 9.00971 8.47305 7.93201C9.55075 6.85431 10.9238 6.12038 12.4186 5.82304C13.9135 5.52571 15.4629 5.67831 16.871 6.26156C18.2791 6.84481 19.4826 7.83251 20.3293 9.09975C21.1761 10.367 21.628 11.8569 21.628 13.381C21.628 14.3929 21.4287 15.395 21.0414 16.3299C20.6542 17.2649 20.0865 18.1144 19.371 18.8299C18.6554 19.5455 17.8059 20.1131 16.871 20.5004C15.936 20.8877 14.934 21.087 13.922 21.087Z" fill="#3A4B4C"/>
<path id="Caminho 2837" d="M23.427 3.93598C21.9499 2.45907 20.149 1.34667 18.1671 0.68705C16.1852 0.0274255 14.0769 -0.161282 12.0093 0.135898C9.94179 0.433078 7.97194 1.20797 6.25606 2.3991C4.54018 3.59023 3.12547 5.16482 2.12417 6.99797C1.12287 8.83111 0.562514 10.8724 0.487569 12.9598C0.412624 15.0473 0.825147 17.1234 1.69241 19.0237C2.55968 20.9239 3.85782 22.5959 5.48387 23.907C7.10991 25.2181 9.01911 26.1323 11.06 26.577L13.924 30.392L16.788 26.576C19.1458 26.0614 21.3217 24.9217 23.0871 23.2763C24.8526 21.6309 26.1426 19.5406 26.8216 17.2248C27.5007 14.909 27.5439 12.4531 26.9466 10.1149C26.3493 7.77669 25.1336 5.64237 23.427 3.93598ZM16.107 24.893L15.766 24.957L13.92 27.418L12.074 24.956L11.734 24.892C8.88359 24.348 6.33852 22.7604 4.59633 20.4398C2.85414 18.1191 2.04009 15.232 2.31331 12.343C2.58652 9.45406 3.92737 6.77082 6.07373 4.81787C8.22009 2.86492 11.0176 1.78267 13.9195 1.78267C16.8214 1.78267 19.619 2.86492 21.7653 4.81787C23.9117 6.77082 25.2525 9.45406 25.5257 12.343C25.799 15.232 24.9849 18.1191 23.2427 20.4398C21.5005 22.7604 18.9554 24.348 16.105 24.892L16.107 24.893Z" fill="#3A4B4C"/>
</g>
</svg>
