<svg width="21" height="27" viewBox="0 0 21 27" fill="none" xmlns="http://www.w3.org/2000/svg">
<g opacity="0.3">
<path d="M19.8711 10.181H18.1891V7.94201C18.1891 5.86457 17.3638 3.87221 15.8948 2.40324C14.4259 0.934269 12.4335 0.109009 10.3561 0.109009C8.27862 0.109009 6.28627 0.934269 4.8173 2.40324C3.34833 3.87221 2.52306 5.86457 2.52306 7.94201V10.181H0.84906C0.700885 10.181 0.558752 10.2397 0.453789 10.3443C0.348826 10.4489 0.289592 10.5908 0.289062 10.739V24.731C0.289856 25.3241 0.525798 25.8926 0.945145 26.3119C1.36449 26.7313 1.93302 26.9672 2.52606 26.968H18.1891C18.7821 26.9672 19.3506 26.7313 19.77 26.3119C20.1893 25.8926 20.4253 25.3241 20.4261 24.731V10.739C20.4255 10.5917 20.367 10.4505 20.2631 10.3461C20.1592 10.2416 20.0184 10.1823 19.8711 10.181ZM12.0321 21.868C12.0412 21.9465 12.0337 22.026 12.0099 22.1014C11.9862 22.1767 11.9468 22.2462 11.8942 22.3052C11.8417 22.3643 11.7773 22.4115 11.7053 22.4439C11.6332 22.4762 11.5551 22.493 11.4761 22.493H9.24107C9.16206 22.493 9.08395 22.4762 9.01187 22.4439C8.9398 22.4115 8.87539 22.3643 8.82288 22.3052C8.77036 22.2462 8.73094 22.1767 8.70718 22.1014C8.68343 22.026 8.6759 21.9465 8.68507 21.868L9.03407 18.695C8.74957 18.4891 8.51813 18.2185 8.35886 17.9055C8.19958 17.5926 8.11705 17.2462 8.11806 16.895C8.11806 16.3015 8.35385 15.7322 8.77356 15.3125C9.19327 14.8928 9.76251 14.657 10.3561 14.657C10.9496 14.657 11.5189 14.8928 11.9386 15.3125C12.3583 15.7322 12.5941 16.3015 12.5941 16.895C12.5951 17.2462 12.5125 17.5926 12.3533 17.9055C12.194 18.2185 11.9626 18.4891 11.6781 18.695L12.0321 21.868ZM14.8321 10.18H5.88906V7.94201C5.88906 6.7549 6.36064 5.61641 7.20005 4.777C8.03946 3.93759 9.17795 3.46601 10.3651 3.46601C11.5522 3.46601 12.6907 3.93759 13.5301 4.777C14.3695 5.61641 14.8411 6.7549 14.8411 7.94201L14.8321 10.18Z" fill="black"/>
</g>
</svg>
