<svg width="20" height="20" viewBox="0 0 20 20" fill="none" xmlns="http://www.w3.org/2000/svg">
<path id="Caminho 27937" d="M4.62604 19.2219C4.40896 19.2231 4.194 19.1793 3.9947 19.0933C3.79539 19.0072 3.61607 18.8807 3.46804 18.7219C3.3207 18.5611 3.20712 18.3725 3.13404 18.167C3.0619 17.9618 3.03263 17.7439 3.04804 17.527L3.37504 12.575L0.352041 8.79004C0.18502 8.58441 0.0728556 8.33973 0.0260367 8.07898C-0.0212683 7.81748 -0.00235995 7.54834 0.081037 7.29602C0.163132 7.04258 0.309166 6.8146 0.505041 6.63403C0.697683 6.45067 0.934826 6.32065 1.19304 6.25696L5.70804 5.07593L8.18303 0.906982C8.33553 0.684453 8.5388 0.501353 8.77604 0.372925C9.01472 0.246824 9.28059 0.180908 9.55054 0.180908C9.82049 0.180908 10.0864 0.246824 10.325 0.372925C10.5625 0.501067 10.7658 0.684223 10.918 0.906982L13.386 5.07593L17.904 6.26404C18.1619 6.32793 18.3987 6.45782 18.591 6.64099C18.7847 6.82039 18.9302 7.04567 19.014 7.29602C19.0975 7.54827 19.1175 7.81718 19.072 8.07898C19.0263 8.34174 18.9156 8.58889 18.75 8.79797L15.73 12.5759L16.057 17.528C16.0731 17.745 16.044 17.9631 15.9716 18.1683C15.8992 18.3736 15.7852 18.5617 15.6366 18.7207C15.488 18.8797 15.308 19.0063 15.1081 19.0924C14.9082 19.1785 14.6927 19.2222 14.475 19.2209H14.445C14.2391 19.2201 14.0352 19.179 13.845 19.1L9.54503 17.272H9.53904L5.24705 19.093C5.05092 19.1776 4.83964 19.2214 4.62604 19.2219Z" fill="#FCA800"/>
</svg>
