<svg width="40" height="40" viewBox="0 0 40 40" fill="none" xmlns="http://www.w3.org/2000/svg">
<path d="M40 20C40 8.9543 31.0457 0 20 0C8.9543 0 0 8.9543 0 20C0 31.0457 8.9543 40 20 40C31.0457 40 40 31.0457 40 20Z" fill="#4AEAB1"/>
<path d="M11.8755 28.024H11.8665C11.3665 27.924 11.3665 27.781 11.8265 25.485C11.9665 24.8 12.0815 24.201 12.1515 23.843C12.1965 23.609 12.2235 23.47 12.2275 23.46C12.2315 23.45 14.4005 21.26 16.5145 19.141C18.5665 17.09 20.7945 14.867 20.8255 14.851C20.8465 14.857 21.6745 15.675 22.7515 16.751L24.6515 18.651L20.3765 22.931C17.4555 25.848 16.0505 27.221 15.9515 27.253C15.5855 27.369 12.1195 28.024 11.8755 28.024ZM25.7295 17.58L23.8155 15.667L21.9015 13.751L22.7765 12.884C23.6865 11.984 23.9245 11.805 24.4765 11.616C24.8794 11.4832 25.3082 11.4486 25.7273 11.5149C26.1463 11.5812 26.5435 11.7465 26.8858 11.9972C27.2281 12.2478 27.5056 12.5765 27.6953 12.956C27.885 13.3355 27.9814 13.7548 27.9765 14.179C27.9765 15.128 27.7765 15.502 26.6185 16.679L25.7315 17.579L25.7295 17.58Z" fill="#3A4B4C"/>
</svg>
