<svg width="23" height="23" viewBox="0 0 23 23" fill="none" xmlns="http://www.w3.org/2000/svg">
<path d="M21.7681 20.952L16.6551 15.839C18.181 14.0834 18.9657 11.804 18.8439 9.48115C18.7221 7.1583 17.7032 4.97346 16.002 3.38714C14.3008 1.80082 12.0502 0.936944 9.72451 0.977567C7.39882 1.01819 5.17973 1.96015 3.53497 3.60492C1.89021 5.24968 0.948244 7.46875 0.90762 9.79445C0.866997 12.1201 1.73088 14.3708 3.3172 16.072C4.90352 17.7732 7.08837 18.7921 9.41122 18.9139C11.7341 19.0357 14.0135 18.2509 15.7691 16.725L20.882 21.838C20.9998 21.9554 21.1588 22.0222 21.3251 22.024C21.4076 22.0242 21.4893 22.0078 21.5654 21.9759C21.6415 21.9439 21.7104 21.897 21.7681 21.838C21.8847 21.7201 21.9501 21.5609 21.9501 21.395C21.9501 21.2291 21.8847 21.0699 21.7681 20.952ZM2.17605 9.95799C2.17586 8.17351 2.79445 6.44418 3.92639 5.06465C5.05833 3.68512 6.63359 2.74075 8.38376 2.39248C10.1339 2.04421 11.9507 2.31359 13.5245 3.15469C15.0984 3.99579 16.3318 5.35658 17.0148 7.0052C17.6978 8.65382 17.788 10.4882 17.27 12.1959C16.7521 13.9036 15.658 15.3788 14.1743 16.3702C12.6906 17.3617 10.9089 17.8079 9.13305 17.633C7.35716 17.4581 5.69686 16.6728 4.43506 15.411C3.71887 14.6949 3.15075 13.8448 2.76315 12.9092C2.37555 11.9736 2.17605 10.9707 2.17605 9.95799Z" fill="black" stroke="black"/>
</svg>
