<svg width="26" height="27" viewBox="0 0 26 27" fill="none" xmlns="http://www.w3.org/2000/svg">
<path fill-rule="evenodd" clip-rule="evenodd" d="M23.4207 0.835046C22.7407 1.06505 17.3006 2.84503 11.3506 4.78903C3.50059 7.35303 0.500645 8.35504 0.410645 8.43704C0.325002 8.51953 0.256893 8.61854 0.210571 8.72805C0.164394 8.83739 0.140625 8.95482 0.140625 9.07351C0.140625 9.1922 0.164394 9.3097 0.210571 9.41903C0.256893 9.52855 0.325002 9.62755 0.410645 9.71005C0.510645 9.80105 8.73066 14.435 9.18066 14.674C9.56066 14.867 11.1006 13.693 11.7206 13.223C11.9306 13.067 12.4506 12.676 12.8806 12.355L15.7906 10.946L13.6606 13.51C13.4206 13.833 13.0306 14.357 12.7906 14.674C12.1606 15.52 10.9607 16.4 11.1707 16.8C11.4007 17.26 16.4106 25.7 16.5006 25.8C16.5847 25.8879 16.6872 25.9561 16.8007 26C16.9072 26.049 17.0234 26.073 17.1406 26.07C17.2605 26.0671 17.3788 26.0434 17.4906 26C17.5969 25.9486 17.6948 25.8811 17.7806 25.8C17.9906 25.57 25.8207 1.50003 25.8007 1.15102C25.7307 0.288025 25.2607 0.222046 23.4207 0.835046Z" fill="white"/>
</svg>
