<svg width="22" height="24" viewBox="0 0 22 24" fill="none" xmlns="http://www.w3.org/2000/svg">
<path opacity="0.2" d="M17.3783 23.57C16.9541 23.5691 16.5326 23.5016 16.1293 23.37C15.1789 23.0503 14.3729 22.4036 13.8548 21.545C13.3367 20.6865 13.1402 19.6719 13.3003 18.682L6.43833 15.328C5.74946 15.8411 4.91326 16.1178 4.05433 16.117C3.48467 16.1158 2.92175 15.9938 2.40272 15.759C1.88369 15.5242 1.42037 15.182 1.04333 14.755C0.371025 13.9936 0 13.0128 0 11.997C0 10.9812 0.371025 10.0005 1.04333 9.23902C1.42024 8.81184 1.88354 8.46954 2.4026 8.23475C2.92166 7.99996 3.48464 7.87802 4.05433 7.87702C4.91397 7.87579 5.7507 8.15411 6.43833 8.67002L13.3093 5.31302C13.2165 4.72488 13.251 4.12365 13.4106 3.55001C13.5701 2.97637 13.8511 2.44369 14.2343 1.98802C14.6109 1.53605 15.0821 1.17223 15.6146 0.922209C16.1471 0.67219 16.728 0.542065 17.3163 0.541016C18.2269 0.54618 19.1094 0.857027 19.8223 1.4237C20.5351 1.99037 21.0369 2.78003 21.2473 3.66602C21.4702 4.5541 21.393 5.49096 21.0278 6.3306C20.6626 7.17024 20.0299 7.86549 19.2283 8.30802C18.4335 8.74318 17.5145 8.89557 16.6217 8.74024C15.729 8.58491 14.9155 8.13106 14.3143 7.45302L7.86533 10.602C8.19393 11.5037 8.19393 12.4924 7.86533 13.394L14.3093 16.541C14.9679 15.7917 15.8784 15.3099 16.8683 15.1866C17.8583 15.0633 18.8591 15.3072 19.6813 15.872C20.507 16.4481 21.1023 17.2976 21.362 18.2702C21.6217 19.2429 21.529 20.2761 21.1003 21.187C20.7674 21.8945 20.2414 22.4936 19.5829 22.9152C18.9244 23.3368 18.1602 23.5638 17.3783 23.57Z" fill="black"/>
</svg>
