<?xml version="1.0" encoding="UTF-8"?>
<!DOCTYPE svg PUBLIC "-//W3C//DTD SVG 1.1//EN" "http://www.w3.org/Graphics/SVG/1.1/DTD/svg11.dtd">
<svg xmlns="http://www.w3.org/2000/svg" version="1.1" width="37px" height="37px" style="shape-rendering:geometricPrecision; text-rendering:geometricPrecision; image-rendering:optimizeQuality; fill-rule:evenodd; clip-rule:evenodd" xmlns:xlink="http://www.w3.org/1999/xlink">
<g><path style="opacity:1" fill="#f9f9f9" d="M -0.5,-0.5 C 11.8333,-0.5 24.1667,-0.5 36.5,-0.5C 36.5,1.5 36.5,3.5 36.5,5.5C 35.1638,3.69325 33.4971,2.19325 31.5,1C 22.5,0.333333 13.5,0.333333 4.5,1C 2.67694,1.99728 1.01027,3.16394 -0.5,4.5C -0.5,2.83333 -0.5,1.16667 -0.5,-0.5 Z"/></g>
<g><path style="opacity:1" fill="#c8c8c8" d="M 36.5,5.5 C 36.5,14.5 36.5,23.5 36.5,32.5C 35.1667,33.8333 33.8333,35.1667 32.5,36.5C 22.5,36.5 12.5,36.5 2.5,36.5C 1.48837,35.1283 0.488369,33.795 -0.5,32.5C -0.5,23.1667 -0.5,13.8333 -0.5,4.5C 1.01027,3.16394 2.67694,1.99728 4.5,1C 13.5,0.333333 22.5,0.333333 31.5,1C 33.4971,2.19325 35.1638,3.69325 36.5,5.5 Z"/></g>
<g><path style="opacity:1" fill="#f0f1f1" d="M 18.5,8.5 C 21.8333,8.5 25.1667,8.5 28.5,8.5C 28.5,11.5 28.5,14.5 28.5,17.5C 27.5,17.5 26.5,17.5 25.5,17.5C 25.719,16.325 25.3857,15.325 24.5,14.5C 18.1667,19.5 17.5,18.8333 22.5,12.5C 20.2305,11.9954 18.8972,10.6621 18.5,8.5 Z"/></g>
<g><path style="opacity:1" fill="#f3f3f3" d="M 14.5,19.5 C 15.4972,19.4701 16.1639,19.9701 16.5,21C 15.5606,22.9439 14.2273,24.6106 12.5,26C 14.2861,26.1962 15.6195,27.0295 16.5,28.5C 13.5719,29.4841 10.5719,29.8174 7.5,29.5C 7.18259,26.4281 7.51592,23.4281 8.5,20.5C 9.28107,21.7287 9.78107,23.062 10,24.5C 11.7073,22.9625 13.2073,21.2959 14.5,19.5 Z"/></g>
<g><path style="opacity:1" fill="#f5f5f5" d="M 36.5,32.5 C 36.5,33.8333 36.5,35.1667 36.5,36.5C 35.1667,36.5 33.8333,36.5 32.5,36.5C 33.8333,35.1667 35.1667,33.8333 36.5,32.5 Z"/></g>
<g><path style="opacity:1" fill="#f5f5f6" d="M -0.5,32.5 C 0.488369,33.795 1.48837,35.1283 2.5,36.5C 1.5,36.5 0.5,36.5 -0.5,36.5C -0.5,35.1667 -0.5,33.8333 -0.5,32.5 Z"/></g>
</svg>
