<svg width="31" height="31" viewBox="0 0 31 31" fill="none" xmlns="http://www.w3.org/2000/svg">
<path id="Uni&#195;&#163;o 109" d="M18.6694 30.2989H13.4694C13.2198 30.3038 12.9709 30.2721 12.7304 30.2049C12.1798 30.0429 11.6937 29.7123 11.3406 29.2598C10.9874 28.8073 10.7849 28.2555 10.7614 27.6819C10.6864 26.8649 10.5614 26.0519 10.4724 25.2369C10.4454 24.9999 10.2874 25.0079 10.1154 25.0079H3.24645C2.98545 25.015 2.72471 24.9864 2.47145 24.9229C1.90031 24.7757 1.39532 24.4406 1.03779 23.9715C0.680259 23.5024 0.490988 22.9267 0.500448 22.3369C0.500448 17.9783 0.500448 13.6209 0.500448 9.26494C0.500448 7.25094 0.500448 5.23694 0.500448 3.22294C0.485007 2.86356 0.544163 2.50488 0.674188 2.16949C0.804213 1.8341 1.00229 1.52928 1.25594 1.27422C1.50959 1.01916 1.81331 0.819399 2.14797 0.687518C2.48264 0.555636 2.84099 0.494495 3.20045 0.507944C4.17045 0.507944 5.14012 0.507944 6.10945 0.507944C8.05545 0.513944 10.0004 0.516944 11.9514 0.498944C12.6699 0.478147 13.3673 0.742212 13.8919 1.23357C14.4164 1.72492 14.7254 2.40371 14.7514 3.12194C14.8174 3.93894 14.9434 4.75094 15.0424 5.56594C15.0412 5.60005 15.0477 5.634 15.0614 5.66524C15.0751 5.69648 15.0958 5.72421 15.1217 5.74634C15.1477 5.76847 15.1784 5.78443 15.2114 5.79302C15.2444 5.80161 15.279 5.80261 15.3124 5.79594C15.3984 5.78894 15.4864 5.79594 15.5734 5.79594H19.1004C21.9138 5.79594 24.7271 5.79594 27.5404 5.79594C28.186 5.77972 28.8148 6.00277 29.3058 6.42219C29.7969 6.84161 30.1155 7.42777 30.2004 8.06794C30.2191 8.20043 30.2271 8.33418 30.2244 8.46794C30.2244 14.8486 30.2244 21.2296 30.2244 27.6109C30.2351 27.9651 30.1736 28.3178 30.0435 28.6474C29.9135 28.9771 29.7177 29.2768 29.4681 29.5283C29.2184 29.7798 28.9202 29.9778 28.5916 30.1103C28.2629 30.2428 27.9107 30.307 27.5564 30.2989C25.5124 30.2989 23.4681 30.2989 21.4234 30.2989H18.6694ZM15.3284 7.85594C15.4014 8.37194 15.4654 8.88994 15.5284 9.40694C15.6564 10.4419 15.7814 11.4769 15.9124 12.5639C15.9294 12.6789 15.9494 12.7929 15.9634 12.9079C16.0634 13.7509 16.1634 14.5949 16.2714 15.4379C16.4374 16.7599 16.6074 18.0809 16.7714 19.4029C16.9414 20.7529 17.0884 22.1029 17.2854 23.4529C17.3516 23.7329 17.3472 24.0249 17.2727 24.3028C17.1981 24.5806 17.0558 24.8357 16.8584 25.0449C16.0144 25.9449 15.2314 26.9099 14.4234 27.8449C14.2494 28.0449 14.0794 28.2519 13.9064 28.4569C13.9454 28.4851 13.9899 28.5046 14.037 28.5141C14.0841 28.5235 14.1327 28.5228 14.1794 28.5119C18.5954 28.5119 23.0114 28.5119 27.4274 28.5119C27.5684 28.5288 27.7114 28.5128 27.8451 28.4651C27.9788 28.4175 28.0997 28.3395 28.1982 28.2373C28.2967 28.135 28.3702 28.0114 28.413 27.876C28.4557 27.7406 28.4665 27.5972 28.4444 27.4569C28.4444 21.1816 28.4444 14.9063 28.4444 8.63094C28.4444 7.89494 28.1194 7.57594 27.3754 7.57494H15.5954C15.4314 7.57894 15.2914 7.59894 15.3284 7.85594ZM12.2774 25.2819C12.3614 25.8819 12.4234 26.4879 12.5064 27.1299C12.6434 27.2869 12.6874 27.1069 12.7374 27.0509C13.2714 26.4399 13.7984 25.8219 14.3254 25.2039C14.3644 25.1579 14.4324 25.1139 14.3884 25.0139C13.7574 25.0139 13.1214 25.0139 12.4884 25.0139H12.4824C12.2804 25.0119 12.2514 25.0989 12.2774 25.2819ZM3.26045 2.29894C3.12911 2.28577 2.99648 2.30188 2.87211 2.34612C2.74774 2.39035 2.63473 2.4616 2.5412 2.55475C2.44767 2.6479 2.37595 2.76062 2.33121 2.8848C2.28647 3.00899 2.26982 3.14155 2.28245 3.27294C2.28245 9.60628 2.28245 15.9376 2.28245 22.2669C2.2682 22.3958 2.28286 22.5263 2.32534 22.6488C2.36782 22.7713 2.43707 22.8829 2.52805 22.9753C2.61902 23.0677 2.72945 23.1387 2.85129 23.1831C2.97314 23.2275 3.10334 23.2442 3.23245 23.2319C7.19312 23.2319 11.1538 23.2343 15.1144 23.2389C15.3764 23.2389 15.4314 23.1389 15.4024 22.9109C15.2758 21.9249 15.1511 20.9389 15.0284 19.9529C14.8994 18.9189 14.7744 17.8839 14.6424 16.7979C14.4724 15.4669 14.2974 14.1369 14.1324 12.8059C13.9324 11.1779 13.7384 9.54894 13.5384 7.92094C13.3494 6.37894 13.1544 4.83794 12.9634 3.29594C12.8794 2.61494 12.5714 2.29594 11.9544 2.29594H7.69845L3.26045 2.29894ZM24.2894 22.1459C23.6934 21.6686 23.1038 21.1833 22.5204 20.6899C22.3764 20.5679 22.2894 20.5539 22.1354 20.6899C21.5464 21.1899 20.9444 21.6769 20.3404 22.1589C20.2511 22.2446 20.1449 22.3109 20.0287 22.3537C19.9125 22.3965 19.7888 22.4149 19.6652 22.4077C19.5415 22.4004 19.4207 22.3678 19.3103 22.3117C19.1999 22.2557 19.1022 22.1775 19.0234 22.0819C18.9439 21.9835 18.8857 21.8696 18.8525 21.7475C18.8193 21.6253 18.8119 21.4976 18.8307 21.3725C18.8495 21.2473 18.8942 21.1274 18.9618 21.0204C19.0294 20.9134 19.1185 20.8217 19.2234 20.7509C19.8414 20.2569 20.4634 19.7689 21.0604 19.2279C20.8024 18.8389 20.5164 18.4879 20.2714 18.1059C19.799 17.3621 19.4173 16.5645 19.1344 15.7299C19.0674 15.5299 18.9924 15.4299 18.7584 15.4199C18.5329 15.399 18.3239 15.2926 18.1744 15.1225C18.0248 14.9524 17.9459 14.7315 17.954 14.5052C17.962 14.2788 18.0564 14.0641 18.2177 13.9051C18.379 13.7461 18.595 13.6548 18.8214 13.6499C19.5844 13.6419 20.3484 13.6379 21.1114 13.6499C21.3694 13.6499 21.4604 13.5659 21.4384 13.3139C21.4278 13.1301 21.4278 12.9458 21.4384 12.7619C21.447 12.5312 21.545 12.3128 21.7116 12.1529C21.8782 11.993 22.1004 11.9042 22.3313 11.9051C22.5622 11.906 22.7838 11.9966 22.9491 12.1578C23.1145 12.319 23.2107 12.5381 23.2174 12.7689C23.1953 13.0449 23.2117 13.3226 23.2664 13.5939C23.3572 13.6385 23.459 13.6559 23.5594 13.6439H24.4154C24.8874 13.6439 25.3584 13.6439 25.8304 13.6499C26.0565 13.6552 26.272 13.7467 26.4328 13.9057C26.5936 14.0647 26.6876 14.2792 26.6954 14.5052C26.7032 14.7312 26.6242 14.9516 26.4748 15.1213C26.3253 15.291 26.1166 15.3971 25.8914 15.4179C25.8065 15.4124 25.7224 15.438 25.6549 15.4899C25.5874 15.5418 25.541 15.6164 25.5244 15.6999C25.1416 16.8808 24.5499 17.9832 23.7774 18.9549C23.6164 19.1549 23.6194 19.2819 23.8274 19.4449C24.3594 19.8629 24.8744 20.3029 25.4014 20.7269C25.5098 20.7963 25.6025 20.8874 25.6736 20.9945C25.7448 21.1016 25.7929 21.2224 25.8148 21.3491C25.8367 21.4758 25.832 21.6057 25.801 21.7305C25.7699 21.8553 25.7132 21.9723 25.6344 22.0739C25.5551 22.1769 25.4531 22.2603 25.3364 22.3177C25.2198 22.3751 25.0915 22.4049 24.9614 22.4049C24.7144 22.3983 24.4771 22.3068 24.2894 22.1459ZM22.3004 17.8259C22.4464 17.7629 22.4884 17.6589 22.5804 17.5459C23.0468 16.9069 23.4174 16.2031 23.6804 15.4569H20.9504C21.27 16.3141 21.7259 17.1141 22.3004 17.8259ZM10.6304 17.0789C10.4976 17.0174 10.3823 16.9235 10.2949 16.806C10.2076 16.6884 10.1511 16.5509 10.1304 16.4059C9.97145 15.6209 9.80745 14.8369 9.66445 14.0489C9.61445 13.7749 9.51145 13.6589 9.21245 13.6749C8.85045 13.6949 8.48745 13.6899 8.12445 13.6859C7.96545 13.6859 7.80645 13.6859 7.64745 13.6859C7.22145 13.6859 7.22745 13.6859 7.14745 14.0949C6.99945 14.8529 6.84745 15.6099 6.68945 16.3649C6.67605 16.52 6.62234 16.6688 6.53364 16.7966C6.44495 16.9245 6.32435 17.0269 6.18383 17.0937C6.04332 17.1605 5.88776 17.1894 5.73262 17.1775C5.57748 17.1657 5.42815 17.1134 5.29945 17.0259C5.14199 16.9133 5.02272 16.7553 4.95766 16.573C4.8926 16.3906 4.88485 16.1928 4.93545 16.0059C5.48278 13.2726 6.02978 10.5393 6.57645 7.80594C6.60645 7.65494 6.62645 7.49994 6.67145 7.35294C6.71797 7.14617 6.83756 6.96314 7.00823 6.83748C7.1789 6.71182 7.38919 6.65197 7.60045 6.66894C8.13378 6.66894 8.66478 6.66894 9.19345 6.66894C9.31024 6.65639 9.42836 6.6672 9.54092 6.70076C9.65349 6.73432 9.75825 6.78996 9.84909 6.86442C9.93994 6.93888 10.015 7.03068 10.07 7.13447C10.125 7.23826 10.1588 7.35196 10.1694 7.46894C10.5034 9.09394 10.8264 10.7209 11.1524 12.3479C11.3971 13.5679 11.6408 14.7879 11.8834 16.0079C11.9342 16.1811 11.9328 16.3653 11.8794 16.5376C11.8261 16.71 11.7231 16.8628 11.5834 16.9769C11.4314 17.1051 11.2393 17.1758 11.0404 17.1769C10.897 17.1748 10.7557 17.1413 10.6264 17.0789H10.6304ZM8.24045 8.67394C8.18345 8.96694 8.12445 9.25994 8.05245 9.60094C7.91645 10.2819 7.78645 10.9639 7.64045 11.6429C7.59545 11.8519 7.67145 11.9049 7.85845 11.8989C8.07045 11.8929 8.28345 11.8989 8.49545 11.8989C9.21645 11.8989 9.22245 11.8989 9.08445 11.1919C8.92045 10.3489 8.74545 9.50894 8.57645 8.66794C8.55745 8.57294 8.55245 8.46794 8.42045 8.45994H8.40645C8.26745 8.45894 8.26045 8.57094 8.24045 8.67394Z" fill="black"/>
</svg>
