<svg width="29" height="24" viewBox="0 0 29 24" fill="none" xmlns="http://www.w3.org/2000/svg">
<path d="M9.25871 23.019H9.04071C5.90484 23.0216 2.83491 22.1188 0.199707 20.419C0.632783 20.4758 1.06893 20.5062 1.50571 20.51H1.59971C4.20148 20.5016 6.72713 19.6312 8.78171 18.035C7.57151 18.0009 6.40126 17.5944 5.43058 16.8709C4.45989 16.1474 3.73603 15.142 3.35771 13.992C3.69404 14.058 4.03595 14.0915 4.37871 14.092H4.50071C5.00155 14.0918 5.5003 14.0272 5.98471 13.9C4.67228 13.624 3.49445 12.9057 2.64834 11.8652C1.80223 10.8246 1.33918 9.52508 1.33671 8.18396V8.12396C2.14058 8.56781 3.03883 8.81329 3.95671 8.83996C2.73011 8.01535 1.86313 6.75503 1.53164 5.31467C1.20015 3.87432 1.42898 2.3618 2.17171 1.08396C3.62739 2.87898 5.44462 4.34749 7.50519 5.39397C9.56577 6.44046 11.8236 7.04149 14.1317 7.15796C14.0375 6.72304 13.9922 6.27895 13.9967 5.83396C13.9951 4.66975 14.3439 3.53199 14.9977 2.5687C15.6515 1.6054 16.58 0.861161 17.6626 0.432784C18.7451 0.00440803 19.9315 -0.0882736 21.0674 0.166797C22.2034 0.421868 23.2362 1.01288 24.0317 1.86296C25.3303 1.61011 26.576 1.13659 27.7147 0.462963C27.2854 1.80897 26.3765 2.95029 25.1607 3.66996C26.3148 3.5272 27.4424 3.21904 28.5087 2.75496C27.73 3.92886 26.7427 4.95006 25.5957 5.76796C25.6097 6.05396 25.6167 6.28596 25.6167 6.51796C25.6248 8.68792 25.2051 10.8382 24.3814 12.8458C23.5578 14.8534 22.3465 16.6789 20.8167 18.218C19.3017 19.7398 17.5008 20.9473 15.5177 21.771C13.5345 22.5948 11.4081 23.0185 9.26071 23.018L9.25871 23.019Z" fill="black"/>
</svg>
