<svg width="39" height="39" viewBox="0 0 39 39" fill="none" xmlns="http://www.w3.org/2000/svg">
<path d="M-0.000976327 19.085C-0.00137032 16.5788 0.491912 14.0968 1.45068 11.7812C2.40946 9.46571 3.81496 7.36217 5.58691 5.58984C7.35887 3.81752 9.4625 2.41141 11.7778 1.45215C14.0932 0.492892 16.5749 -0.000845263 19.0811 -0.000976562C21.5872 -0.000845263 24.0689 0.492892 26.3843 1.45215C28.6996 2.41141 30.8032 3.81752 32.5752 5.58984C34.3471 7.36217 35.7527 9.46571 36.7114 11.7812C37.6702 14.0968 38.1635 16.5788 38.1631 19.085C38.1631 24.1458 36.1525 28.9996 32.574 32.5781C28.9954 36.1567 24.1419 38.167 19.0811 38.167C14.0217 38.1622 9.1708 36.1498 5.59326 32.5723C2.01573 28.9947 0.00378945 24.1444 -0.000976327 19.085ZM2.19897 19.085C2.19977 23.5607 3.97816 27.8529 7.14307 31.0176C10.308 34.1823 14.6002 35.9604 19.0759 35.9609C23.5521 35.9609 27.845 34.1833 31.0105 31.0186C34.176 27.8538 35.955 23.5611 35.9561 19.085C35.9564 16.8683 35.5201 14.673 34.6721 12.625C33.8242 10.577 32.5811 8.71601 31.0139 7.14844C29.4467 5.58087 27.5861 4.3377 25.5383 3.48926C23.4905 2.64081 21.2957 2.20423 19.0791 2.2041C14.6037 2.2094 10.3129 3.98961 7.14844 7.1543C3.98394 10.319 2.204 14.6096 2.19897 19.085ZM17.6489 29.3848C17.4475 29.1793 17.2895 28.9356 17.1838 28.668C17.0782 28.4004 17.0272 28.1148 17.0339 27.8271C17.0416 27.2648 17.2714 26.7284 17.6733 26.335C18.0752 25.9415 18.6165 25.7223 19.179 25.7266C19.4402 25.7265 19.6995 25.7742 19.9441 25.8662C20.4118 26.0466 20.8018 26.3841 21.0471 26.8213C21.2925 27.2585 21.3778 27.7675 21.2881 28.2607C21.1994 28.7538 20.9416 29.2007 20.5593 29.5244C20.177 29.8481 19.694 30.0289 19.1931 30.0352C18.9058 30.0336 18.6215 29.9746 18.3569 29.8623C18.0924 29.75 17.8529 29.5864 17.6521 29.3809L17.6489 29.3848ZM19.175 23.3848C18.8681 23.3845 18.5648 23.3181 18.2856 23.1904C18.0065 23.0628 17.7581 22.8766 17.5571 22.6445L17.49 22.5713C16.996 22.0193 16.9961 22.019 16.9961 16.418V9.73438L17.196 9.31836C17.415 8.80659 17.8233 8.39916 18.3357 8.18164C18.8481 7.96413 19.4248 7.9534 19.9451 8.15137C20.483 8.3721 20.9166 8.78936 21.158 9.31836L21.3579 9.73438V16.4209C21.3579 22.0209 21.3579 22.0213 20.8669 22.5713L20.7991 22.6494C20.5975 22.8798 20.3492 23.064 20.0708 23.1914C19.7924 23.3188 19.4902 23.3858 19.1841 23.3877L19.175 23.3848Z" fill="#3A4B4C"/>
</svg>
