<svg width="35" height="35" viewBox="0 0 35 35" fill="none" xmlns="http://www.w3.org/2000/svg">
<path d="M17.2681 33.571C13.2311 33.5666 9.33963 32.0629 6.34864 29.3515C3.35765 26.6402 1.48041 22.9147 1.08094 18.8975C0.681465 14.8803 1.78832 10.858 4.18677 7.61076C6.58523 4.36352 10.1042 2.12285 14.0613 1.32347C18.0183 0.524093 22.1313 1.22298 25.6022 3.28453C29.0731 5.34608 31.6546 8.62336 32.8458 12.4806C34.0371 16.3378 33.7531 20.5 32.0492 24.1597C30.3453 27.8195 27.3427 30.7158 23.624 32.287C21.6128 33.1366 19.4514 33.5733 17.2681 33.571Z" fill="white" stroke="#E5E5E5"/>
<path d="M15.8672 24.091L10.1807 18.675C9.87433 18.3713 9.70056 17.9584 9.69824 17.5271C9.69795 17.3162 9.73966 17.1074 9.82031 16.9126C9.90097 16.7178 10.0187 16.5409 10.168 16.392L10.1748 16.385L15.8672 10.963C15.9567 10.8714 16.0635 10.7988 16.1816 10.7495C16.2998 10.7001 16.4266 10.6751 16.5547 10.6758C16.6827 10.6765 16.8092 10.703 16.9268 10.7537C17.0443 10.8044 17.1508 10.8783 17.2393 10.9709C17.3277 11.0635 17.3971 11.1729 17.4424 11.2927C17.4876 11.4125 17.5081 11.5402 17.5029 11.6682C17.4978 11.7961 17.4668 11.9217 17.4121 12.0375C17.3574 12.1533 17.2802 12.2569 17.1846 12.3421L12.7402 16.5741H22.835C22.9649 16.5656 23.0952 16.5839 23.2178 16.6278C23.3404 16.6717 23.4528 16.7404 23.5479 16.8294C23.6429 16.9185 23.7187 17.026 23.7705 17.1455C23.8223 17.265 23.8486 17.3938 23.8486 17.524C23.8486 17.6542 23.8223 17.7831 23.7705 17.9025C23.7187 18.022 23.6429 18.1296 23.5479 18.2186C23.4528 18.3077 23.3404 18.3763 23.2178 18.4202C23.0952 18.4642 22.9649 18.4825 22.835 18.474H12.7217L17.1855 22.706C17.2811 22.7912 17.3584 22.8948 17.4131 23.0106C17.4678 23.1263 17.4988 23.252 17.5039 23.3799C17.5091 23.5078 17.4886 23.6355 17.4434 23.7553C17.3981 23.8751 17.3287 23.9846 17.2402 24.0772C17.1518 24.1698 17.0463 24.2436 16.9287 24.2943C16.8111 24.345 16.6837 24.3715 16.5557 24.3723C16.4276 24.373 16.3008 24.3479 16.1826 24.2986C16.0645 24.2493 15.9577 24.1766 15.8682 24.085L15.8672 24.091Z" fill="black"/>
</svg>
